solid OpenSCAD_Model
  facet normal 0 0 -1
    outer loop
      vertex -3.5 0 0
      vertex -3.23358 1.33939 0
      vertex -3.23358 -1.33939 0
    endloop
  endfacet
  facet normal 0 0 -1
    outer loop
      vertex -3.23358 -1.33939 0
      vertex -3.23358 1.33939 0
      vertex -2.47487 2.47487 0
    endloop
  endfacet
  facet normal 0 0 -1
    outer loop
      vertex -3.23358 -1.33939 0
      vertex -2.47487 2.47487 0
      vertex -1.33939 3.23358 0
    endloop
  endfacet
  facet normal 0 0 -1
    outer loop
      vertex -1.5 2.5 0
      vertex -1.33939 3.23358 0
      vertex 0 3.5 0
    endloop
  endfacet
  facet normal 0 0 -1
    outer loop
      vertex 1.5 2.5 0
      vertex 1.33939 3.23358 0
      vertex 2.47487 2.47487 0
    endloop
  endfacet
  facet normal 0 0 -1
    outer loop
      vertex 1.5 2.5 0
      vertex 2.47487 -2.47487 0
      vertex 1.5 -2.5 0
    endloop
  endfacet
  facet normal 0 0 -1
    outer loop
      vertex 1.5 -2.5 0
      vertex 2.47487 -2.47487 0
      vertex 1.33939 -3.23358 0
    endloop
  endfacet
  facet normal 0 0 -1
    outer loop
      vertex 1.5 -2.5 0
      vertex 0 -3.5 0
      vertex -1.5 -2.5 0
    endloop
  endfacet
  facet normal 0 0 -1
    outer loop
      vertex -1.5 -2.5 0
      vertex 0 -3.5 0
      vertex -1.33939 -3.23358 0
    endloop
  endfacet
  facet normal 0 0 -1
    outer loop
      vertex -3.23358 -1.33939 0
      vertex -1.33939 -3.23358 0
      vertex -2.47487 -2.47487 0
    endloop
  endfacet
  facet normal 0 0 -1
    outer loop
      vertex -3.23358 -1.33939 0
      vertex -1.33939 3.23358 0
      vertex -1.5 2.5 0
    endloop
  endfacet
  facet normal 0 0 -1
    outer loop
      vertex -1.5 -2.5 0
      vertex -3.23358 -1.33939 0
      vertex -1.5 2.5 0
    endloop
  endfacet
  facet normal 0 0 -1
    outer loop
      vertex 1.5 -2.5 0
      vertex 1.33939 -3.23358 0
      vertex 0 -3.5 0
    endloop
  endfacet
  facet normal 0 0 -1
    outer loop
      vertex -3.23358 -1.33939 0
      vertex -1.5 -2.5 0
      vertex -1.33939 -3.23358 0
    endloop
  endfacet
  facet normal 0 0 -1
    outer loop
      vertex 1.5 2.5 0
      vertex 3.23358 -1.33939 0
      vertex 2.47487 -2.47487 0
    endloop
  endfacet
  facet normal 0 0 -1
    outer loop
      vertex -1.5 2.5 0
      vertex 0 3.5 0
      vertex 1.33939 3.23358 0
    endloop
  endfacet
  facet normal 0 0 -1
    outer loop
      vertex -1.5 2.5 0
      vertex 1.33939 3.23358 0
      vertex 1.5 2.5 0
    endloop
  endfacet
  facet normal 0 0 -1
    outer loop
      vertex 1.5 2.5 0
      vertex 2.47487 2.47487 0
      vertex 3.23358 1.33939 0
    endloop
  endfacet
  facet normal 0 0 -1
    outer loop
      vertex 1.5 2.5 0
      vertex 3.23358 1.33939 0
      vertex 3.5 0 0
    endloop
  endfacet
  facet normal 0 0 -1
    outer loop
      vertex 1.5 2.5 0
      vertex 3.5 0 0
      vertex 3.23358 -1.33939 0
    endloop
  endfacet
  facet normal -0.980785 0.195091 0
    outer loop
      vertex -3.5 0 0
      vertex -3.5 0 50
      vertex -3.23358 1.33939 0
    endloop
  endfacet
  facet normal -0.980785 0.195091 0
    outer loop
      vertex -3.23358 1.33939 0
      vertex -3.5 0 50
      vertex -3.23358 1.33939 50
    endloop
  endfacet
  facet normal -0.980785 -0.195091 0
    outer loop
      vertex -3.5 0 0
      vertex -3.23358 -1.33939 0
      vertex -3.5 0 50
    endloop
  endfacet
  facet normal -0.980785 -0.195091 0
    outer loop
      vertex -3.5 0 50
      vertex -3.23358 -1.33939 0
      vertex -3.23358 -1.33939 50
    endloop
  endfacet
  facet normal -0.83147 -0.55557 0
    outer loop
      vertex -3.23358 -1.33939 0
      vertex -2.47487 -2.47487 0
      vertex -3.23358 -1.33939 50
    endloop
  endfacet
  facet normal -0.83147 -0.55557 0
    outer loop
      vertex -3.23358 -1.33939 50
      vertex -2.47487 -2.47487 0
      vertex -2.47487 -2.47487 50
    endloop
  endfacet
  facet normal -0.55557 -0.83147 0
    outer loop
      vertex -2.47487 -2.47487 50
      vertex -2.47487 -2.47487 0
      vertex -1.33939 -3.23358 0
    endloop
  endfacet
  facet normal -0.55557 -0.83147 0
    outer loop
      vertex -1.33939 -3.23358 50
      vertex -2.47487 -2.47487 50
      vertex -1.33939 -3.23358 0
    endloop
  endfacet
  facet normal -0.195091 -0.980785 0
    outer loop
      vertex -1.33939 -3.23358 50
      vertex -1.33939 -3.23358 0
      vertex 0 -3.5 0
    endloop
  endfacet
  facet normal -0.195091 -0.980785 0
    outer loop
      vertex 0 -3.5 50
      vertex -1.33939 -3.23358 50
      vertex 0 -3.5 0
    endloop
  endfacet
  facet normal 0.195091 -0.980785 0
    outer loop
      vertex 0 -3.5 50
      vertex 0 -3.5 0
      vertex 1.33939 -3.23358 0
    endloop
  endfacet
  facet normal 0.195091 -0.980785 0
    outer loop
      vertex 1.33939 -3.23358 50
      vertex 0 -3.5 50
      vertex 1.33939 -3.23358 0
    endloop
  endfacet
  facet normal 0.55557 -0.83147 0
    outer loop
      vertex 1.33939 -3.23358 50
      vertex 1.33939 -3.23358 0
      vertex 2.47487 -2.47487 0
    endloop
  endfacet
  facet normal 0.55557 -0.83147 0
    outer loop
      vertex 2.47487 -2.47487 50
      vertex 1.33939 -3.23358 50
      vertex 2.47487 -2.47487 0
    endloop
  endfacet
  facet normal 0.83147 -0.55557 0
    outer loop
      vertex 2.47487 -2.47487 50
      vertex 2.47487 -2.47487 0
      vertex 3.23358 -1.33939 0
    endloop
  endfacet
  facet normal 0.83147 -0.55557 0
    outer loop
      vertex 3.23358 -1.33939 50
      vertex 2.47487 -2.47487 50
      vertex 3.23358 -1.33939 0
    endloop
  endfacet
  facet normal 0.980785 -0.195091 0
    outer loop
      vertex 3.23358 -1.33939 50
      vertex 3.23358 -1.33939 0
      vertex 3.5 0 0
    endloop
  endfacet
  facet normal 0.980785 -0.195091 0
    outer loop
      vertex 3.5 0 50
      vertex 3.23358 -1.33939 50
      vertex 3.5 0 0
    endloop
  endfacet
  facet normal 0.980785 0.195091 0
    outer loop
      vertex 3.5 0 0
      vertex 3.23358 1.33939 0
      vertex 3.23358 1.33939 50
    endloop
  endfacet
  facet normal 0.980785 0.195091 0
    outer loop
      vertex 3.5 0 50
      vertex 3.5 0 0
      vertex 3.23358 1.33939 50
    endloop
  endfacet
  facet normal 0.83147 0.55557 0
    outer loop
      vertex 3.23358 1.33939 0
      vertex 2.47487 2.47487 0
      vertex 2.47487 2.47487 50
    endloop
  endfacet
  facet normal 0.83147 0.55557 0
    outer loop
      vertex 3.23358 1.33939 50
      vertex 3.23358 1.33939 0
      vertex 2.47487 2.47487 50
    endloop
  endfacet
  facet normal 0.55557 0.83147 0
    outer loop
      vertex 1.33939 3.23358 0
      vertex 1.33939 3.23358 50
      vertex 2.47487 2.47487 0
    endloop
  endfacet
  facet normal 0.55557 0.83147 0
    outer loop
      vertex 2.47487 2.47487 0
      vertex 1.33939 3.23358 50
      vertex 2.47487 2.47487 50
    endloop
  endfacet
  facet normal 0.195091 0.980785 0
    outer loop
      vertex 0 3.5 0
      vertex 0 3.5 50
      vertex 1.33939 3.23358 0
    endloop
  endfacet
  facet normal 0.195091 0.980785 0
    outer loop
      vertex 1.33939 3.23358 0
      vertex 0 3.5 50
      vertex 1.33939 3.23358 50
    endloop
  endfacet
  facet normal -0.195091 0.980785 0
    outer loop
      vertex -1.33939 3.23358 0
      vertex -1.33939 3.23358 50
      vertex 0 3.5 0
    endloop
  endfacet
  facet normal -0.195091 0.980785 0
    outer loop
      vertex 0 3.5 0
      vertex -1.33939 3.23358 50
      vertex 0 3.5 50
    endloop
  endfacet
  facet normal -0.55557 0.83147 0
    outer loop
      vertex -2.47487 2.47487 0
      vertex -2.47487 2.47487 50
      vertex -1.33939 3.23358 0
    endloop
  endfacet
  facet normal -0.55557 0.83147 0
    outer loop
      vertex -1.33939 3.23358 0
      vertex -2.47487 2.47487 50
      vertex -1.33939 3.23358 50
    endloop
  endfacet
  facet normal -0.83147 0.55557 0
    outer loop
      vertex -3.23358 1.33939 0
      vertex -3.23358 1.33939 50
      vertex -2.47487 2.47487 0
    endloop
  endfacet
  facet normal -0.83147 0.55557 0
    outer loop
      vertex -2.47487 2.47487 0
      vertex -3.23358 1.33939 50
      vertex -2.47487 2.47487 50
    endloop
  endfacet
  facet normal 1 0 0
    outer loop
      vertex -1.5 2.5 0
      vertex -1.5 2.5 50
      vertex -1.5 -2.5 50
    endloop
  endfacet
  facet normal 1 0 0
    outer loop
      vertex -1.5 -2.5 0
      vertex -1.5 2.5 0
      vertex -1.5 -2.5 50
    endloop
  endfacet
  facet normal 0 -1 0
    outer loop
      vertex 1.5 2.5 0
      vertex 1.5 2.5 50
      vertex -1.5 2.5 50
    endloop
  endfacet
  facet normal 0 -1 0
    outer loop
      vertex -1.5 2.5 0
      vertex 1.5 2.5 0
      vertex -1.5 2.5 50
    endloop
  endfacet
  facet normal -1 0 0
    outer loop
      vertex 1.5 2.5 50
      vertex 1.5 2.5 0
      vertex 1.5 -2.5 50
    endloop
  endfacet
  facet normal -1 0 0
    outer loop
      vertex 1.5 -2.5 50
      vertex 1.5 2.5 0
      vertex 1.5 -2.5 0
    endloop
  endfacet
  facet normal 0 1 0
    outer loop
      vertex 1.5 -2.5 50
      vertex 1.5 -2.5 0
      vertex -1.5 -2.5 50
    endloop
  endfacet
  facet normal 0 1 0
    outer loop
      vertex -1.5 -2.5 50
      vertex 1.5 -2.5 0
      vertex -1.5 -2.5 0
    endloop
  endfacet
  facet normal 0 0 1
    outer loop
      vertex -3.23358 1.33939 50
      vertex -3.5 0 50
      vertex -3.23358 -1.33939 50
    endloop
  endfacet
  facet normal 0 0 1
    outer loop
      vertex -1.33939 -3.23358 50
      vertex -3.23358 1.33939 50
      vertex -2.47487 -2.47487 50
    endloop
  endfacet
  facet normal 0 0 1
    outer loop
      vertex -2.47487 -2.47487 50
      vertex -3.23358 1.33939 50
      vertex -3.23358 -1.33939 50
    endloop
  endfacet
  facet normal 0 0 1
    outer loop
      vertex -1.5 -2.5 50
      vertex -3.23358 1.33939 50
      vertex -1.33939 -3.23358 50
    endloop
  endfacet
  facet normal 0 0 1
    outer loop
      vertex -1.5 2.5 50
      vertex 1.5 2.5 50
      vertex 1.33939 3.23358 50
    endloop
  endfacet
  facet normal 0 0 1
    outer loop
      vertex 1.5 2.5 50
      vertex 1.5 -2.5 50
      vertex 2.47487 -2.47487 50
    endloop
  endfacet
  facet normal 0 0 1
    outer loop
      vertex 1.5 2.5 50
      vertex 2.47487 -2.47487 50
      vertex 3.23358 -1.33939 50
    endloop
  endfacet
  facet normal 0 0 1
    outer loop
      vertex 1.5 2.5 50
      vertex 3.23358 -1.33939 50
      vertex 3.5 0 50
    endloop
  endfacet
  facet normal 0 0 1
    outer loop
      vertex 1.5 2.5 50
      vertex 3.23358 1.33939 50
      vertex 2.47487 2.47487 50
    endloop
  endfacet
  facet normal 0 0 1
    outer loop
      vertex -2.47487 2.47487 50
      vertex -3.23358 1.33939 50
      vertex -1.33939 3.23358 50
    endloop
  endfacet
  facet normal 0 0 1
    outer loop
      vertex 0 -3.5 50
      vertex -1.5 -2.5 50
      vertex -1.33939 -3.23358 50
    endloop
  endfacet
  facet normal 0 0 1
    outer loop
      vertex -1.5 2.5 50
      vertex 1.33939 3.23358 50
      vertex 0 3.5 50
    endloop
  endfacet
  facet normal 0 0 1
    outer loop
      vertex -1.33939 3.23358 50
      vertex -1.5 2.5 50
      vertex 0 3.5 50
    endloop
  endfacet
  facet normal 0 0 1
    outer loop
      vertex -1.33939 3.23358 50
      vertex -3.23358 1.33939 50
      vertex -1.5 2.5 50
    endloop
  endfacet
  facet normal 0 0 1
    outer loop
      vertex 1.33939 3.23358 50
      vertex 1.5 2.5 50
      vertex 2.47487 2.47487 50
    endloop
  endfacet
  facet normal 0 0 1
    outer loop
      vertex 1.5 2.5 50
      vertex 3.5 0 50
      vertex 3.23358 1.33939 50
    endloop
  endfacet
  facet normal 0 0 1
    outer loop
      vertex 2.47487 -2.47487 50
      vertex 1.5 -2.5 50
      vertex 1.33939 -3.23358 50
    endloop
  endfacet
  facet normal 0 0 1
    outer loop
      vertex 1.5 -2.5 50
      vertex 0 -3.5 50
      vertex 1.33939 -3.23358 50
    endloop
  endfacet
  facet normal 0 0 1
    outer loop
      vertex 1.5 -2.5 50
      vertex -1.5 -2.5 50
      vertex 0 -3.5 50
    endloop
  endfacet
  facet normal 0 0 1
    outer loop
      vertex -1.5 -2.5 50
      vertex -1.5 2.5 50
      vertex -3.23358 1.33939 50
    endloop
  endfacet
endsolid OpenSCAD_Model
