solid OpenSCAD_Model
  facet normal -0.999133 -0.0416305 0
    outer loop
      vertex 1.66667 20 15
      vertex 2.5 0 0
      vertex 0 60 100
    endloop
  endfacet
  facet normal -0.999133 -0.0416305 0
    outer loop
      vertex 1.66667 20 85
      vertex 2.5 0 0
      vertex 2.5 0 100
    endloop
  endfacet
  facet normal -0.999133 -0.0416305 0
    outer loop
      vertex 0 60 0
      vertex 2.5 0 0
      vertex 1.54167 23 5
    endloop
  endfacet
  facet normal -0.999133 -0.0416305 0
    outer loop
      vertex 0 60 0
      vertex 1.54167 23 5
      vertex 0 60 100
    endloop
  endfacet
  facet normal -0.999133 -0.0416305 0
    outer loop
      vertex 1.66667 20 85
      vertex 2.5 0 100
      vertex 1.66667 20 95
    endloop
  endfacet
  facet normal -0.999133 -0.0416305 0
    outer loop
      vertex 1.54167 23 5
      vertex 1.54167 23 15
      vertex 0 60 100
    endloop
  endfacet
  facet normal -0.999133 -0.0416305 0
    outer loop
      vertex 1.54167 23 15
      vertex 1.66667 20 15
      vertex 0 60 100
    endloop
  endfacet
  facet normal -0.999133 -0.0416305 0
    outer loop
      vertex 1.54167 23 5
      vertex 2.5 0 0
      vertex 1.66667 20 5
    endloop
  endfacet
  facet normal -0.999133 -0.0416305 0
    outer loop
      vertex 0 60 100
      vertex 2.5 0 0
      vertex 1.54167 23 85
    endloop
  endfacet
  facet normal -0.999133 -0.0416305 0
    outer loop
      vertex 0 60 100
      vertex 1.54167 23 85
      vertex 1.54167 23 95
    endloop
  endfacet
  facet normal -0.999133 -0.0416305 0
    outer loop
      vertex 0 60 100
      vertex 1.54167 23 95
      vertex 2.5 0 100
    endloop
  endfacet
  facet normal -0.999133 -0.0416305 0
    outer loop
      vertex 1.54167 23 95
      vertex 1.66667 20 95
      vertex 2.5 0 100
    endloop
  endfacet
  facet normal -0.999133 -0.0416305 0
    outer loop
      vertex 1.54167 23 85
      vertex 2.5 0 0
      vertex 1.66667 20 85
    endloop
  endfacet
  facet normal -0.999133 -0.0416305 0
    outer loop
      vertex 1.66667 20 5
      vertex 2.5 0 0
      vertex 1.66667 20 15
    endloop
  endfacet
  facet normal 0 0 -1
    outer loop
      vertex 0 60 0
      vertex 0 60.1 0
      vertex 2.5 0 0
    endloop
  endfacet
  facet normal 0 0 -1
    outer loop
      vertex 20 46.669 0
      vertex 0 60.1 0
      vertex 50 60.1 0
    endloop
  endfacet
  facet normal 0 0 -1
    outer loop
      vertex 47.0083 4.67801 0
      vertex 50 60 0
      vertex 47.5 0 0
    endloop
  endfacet
  facet normal 0 0 -1
    outer loop
      vertex 45.5548 9.15157 0
      vertex 50 60 0
      vertex 47.0083 4.67801 0
    endloop
  endfacet
  facet normal 0 0 -1
    outer loop
      vertex 43.2029 13.2252 0
      vertex 50 60 0
      vertex 45.5548 9.15157 0
    endloop
  endfacet
  facet normal 0 0 -1
    outer loop
      vertex 40.0554 16.7208 0
      vertex 50 60 0
      vertex 43.2029 13.2252 0
    endloop
  endfacet
  facet normal 0 0 -1
    outer loop
      vertex 36.25 19.4856 0
      vertex 50 60 0
      vertex 40.0554 16.7208 0
    endloop
  endfacet
  facet normal 0 0 -1
    outer loop
      vertex 31.9529 21.3988 0
      vertex 50 60 0
      vertex 36.25 19.4856 0
    endloop
  endfacet
  facet normal 0 0 -1
    outer loop
      vertex 27.3519 22.3767 0
      vertex 50 60 0
      vertex 31.9529 21.3988 0
    endloop
  endfacet
  facet normal 0 0 -1
    outer loop
      vertex 22.6481 22.3767 0
      vertex 50 60 0
      vertex 27.3519 22.3767 0
    endloop
  endfacet
  facet normal 0 0 -1
    outer loop
      vertex 13.75 19.4856 0
      vertex 0 60.1 0
      vertex 18.0471 21.3988 0
    endloop
  endfacet
  facet normal 0 0 -1
    outer loop
      vertex 20 46.669 0
      vertex 50 60.1 0
      vertex 30 46.669 0
    endloop
  endfacet
  facet normal 0 0 -1
    outer loop
      vertex 9.94456 16.7208 0
      vertex 0 60.1 0
      vertex 13.75 19.4856 0
    endloop
  endfacet
  facet normal 0 0 -1
    outer loop
      vertex 6.79712 13.2252 0
      vertex 0 60.1 0
      vertex 9.94456 16.7208 0
    endloop
  endfacet
  facet normal 0 0 -1
    outer loop
      vertex 4.44523 9.15157 0
      vertex 0 60.1 0
      vertex 6.79712 13.2252 0
    endloop
  endfacet
  facet normal 0 0 -1
    outer loop
      vertex 2.99168 4.67801 0
      vertex 0 60.1 0
      vertex 4.44523 9.15157 0
    endloop
  endfacet
  facet normal 0 0 -1
    outer loop
      vertex 2.5 0 0
      vertex 0 60.1 0
      vertex 2.99168 4.67801 0
    endloop
  endfacet
  facet normal 0 0 -1
    outer loop
      vertex 18.0471 21.3988 0
      vertex 0 60.1 0
      vertex 20 46.669 0
    endloop
  endfacet
  facet normal 0 0 -1
    outer loop
      vertex 18.0471 21.3988 0
      vertex 20 46.669 0
      vertex 20 42.4264 0
    endloop
  endfacet
  facet normal 0 0 -1
    outer loop
      vertex 18.0471 21.3988 0
      vertex 20 42.4264 0
      vertex 30 42.4264 0
    endloop
  endfacet
  facet normal 0 0 -1
    outer loop
      vertex 18.0471 21.3988 0
      vertex 30 42.4264 0
      vertex 50 60.1 0
    endloop
  endfacet
  facet normal 0 0 -1
    outer loop
      vertex 30 42.4264 0
      vertex 30 46.669 0
      vertex 50 60.1 0
    endloop
  endfacet
  facet normal 0 0 -1
    outer loop
      vertex 18.0471 21.3988 0
      vertex 50 60.1 0
      vertex 50 60 0
    endloop
  endfacet
  facet normal 0 0 -1
    outer loop
      vertex 18.0471 21.3988 0
      vertex 50 60 0
      vertex 22.6481 22.3767 0
    endloop
  endfacet
  facet normal -1 0 0
    outer loop
      vertex 0 60 0
      vertex 0 60 100
      vertex 0 60.1 0
    endloop
  endfacet
  facet normal -1 0 0
    outer loop
      vertex 0 60.1 0
      vertex 0 60 100
      vertex 0 60.1 100
    endloop
  endfacet
  facet normal 0 0 1
    outer loop
      vertex 0 60.1 100
      vertex 0 60 100
      vertex 2.5 0 100
    endloop
  endfacet
  facet normal 0 0 1
    outer loop
      vertex 4.44523 9.15157 100
      vertex 0 60.1 100
      vertex 2.99168 4.67801 100
    endloop
  endfacet
  facet normal 0 0 1
    outer loop
      vertex 2.99168 4.67801 100
      vertex 0 60.1 100
      vertex 2.5 0 100
    endloop
  endfacet
  facet normal 0 0 1
    outer loop
      vertex 6.79712 13.2252 100
      vertex 0 60.1 100
      vertex 4.44523 9.15157 100
    endloop
  endfacet
  facet normal 0 0 1
    outer loop
      vertex 9.94456 16.7208 100
      vertex 0 60.1 100
      vertex 6.79712 13.2252 100
    endloop
  endfacet
  facet normal 0 0 1
    outer loop
      vertex 13.75 19.4856 100
      vertex 0 60.1 100
      vertex 9.94456 16.7208 100
    endloop
  endfacet
  facet normal 0 0 1
    outer loop
      vertex 18.0471 21.3988 100
      vertex 0 60.1 100
      vertex 13.75 19.4856 100
    endloop
  endfacet
  facet normal 0 0 1
    outer loop
      vertex 22.6481 22.3767 100
      vertex 0 60.1 100
      vertex 18.0471 21.3988 100
    endloop
  endfacet
  facet normal 0 0 1
    outer loop
      vertex 27.3519 22.3767 100
      vertex 0 60.1 100
      vertex 22.6481 22.3767 100
    endloop
  endfacet
  facet normal 0 0 1
    outer loop
      vertex 31.9529 21.3988 100
      vertex 0 60.1 100
      vertex 27.3519 22.3767 100
    endloop
  endfacet
  facet normal 0 0 1
    outer loop
      vertex 36.25 19.4856 100
      vertex 0 60.1 100
      vertex 31.9529 21.3988 100
    endloop
  endfacet
  facet normal 0 0 1
    outer loop
      vertex 40.0554 16.7208 100
      vertex 0 60.1 100
      vertex 36.25 19.4856 100
    endloop
  endfacet
  facet normal 0 0 1
    outer loop
      vertex 20 41.4214 100
      vertex 0 60.1 100
      vertex 40.0554 16.7208 100
    endloop
  endfacet
  facet normal 0 0 1
    outer loop
      vertex 50 60 100
      vertex 40.0554 16.7208 100
      vertex 43.2029 13.2252 100
    endloop
  endfacet
  facet normal 0 0 1
    outer loop
      vertex 50 60 100
      vertex 43.2029 13.2252 100
      vertex 45.5548 9.15157 100
    endloop
  endfacet
  facet normal 0 0 1
    outer loop
      vertex 50 60 100
      vertex 45.5548 9.15157 100
      vertex 47.0083 4.67801 100
    endloop
  endfacet
  facet normal 0 0 1
    outer loop
      vertex 50 60 100
      vertex 47.0083 4.67801 100
      vertex 47.5 0 100
    endloop
  endfacet
  facet normal 0 0 1
    outer loop
      vertex 50 60.1 100
      vertex 0 60.1 100
      vertex 50 60 100
    endloop
  endfacet
  facet normal 0 0 1
    outer loop
      vertex 30 41.4214 100
      vertex 20 41.4214 100
      vertex 40.0554 16.7208 100
    endloop
  endfacet
  facet normal 0 0 1
    outer loop
      vertex 20 45.664 100
      vertex 0 60.1 100
      vertex 20 41.4214 100
    endloop
  endfacet
  facet normal 0 0 1
    outer loop
      vertex 50 60 100
      vertex 0 60.1 100
      vertex 20 45.664 100
    endloop
  endfacet
  facet normal 0 0 1
    outer loop
      vertex 50 60 100
      vertex 30 45.664 100
      vertex 40.0554 16.7208 100
    endloop
  endfacet
  facet normal 0 0 1
    outer loop
      vertex 30 45.664 100
      vertex 30 41.4214 100
      vertex 40.0554 16.7208 100
    endloop
  endfacet
  facet normal 0 0 1
    outer loop
      vertex 20 45.664 100
      vertex 30 45.664 100
      vertex 50 60 100
    endloop
  endfacet
  facet normal 0.994522 -0.104528 0
    outer loop
      vertex 2.99168 4.67801 0
      vertex 2.99168 4.67801 100
      vertex 2.5 0 100
    endloop
  endfacet
  facet normal 0.994522 -0.104528 0
    outer loop
      vertex 2.5 0 0
      vertex 2.99168 4.67801 0
      vertex 2.5 0 100
    endloop
  endfacet
  facet normal 0 -1 0
    outer loop
      vertex 48.4583 23 5
      vertex 48.4583 23 15
      vertex 1.54167 23 15
    endloop
  endfacet
  facet normal 0 -1 0
    outer loop
      vertex 1.54167 23 5
      vertex 48.4583 23 5
      vertex 1.54167 23 15
    endloop
  endfacet
  facet normal 0 0 1
    outer loop
      vertex 22.6481 22.3767 5
      vertex 1.54167 23 5
      vertex 1.66667 20 5
    endloop
  endfacet
  facet normal 0 0 1
    outer loop
      vertex 1.66667 20 5
      vertex 14.9054 20 5
      vertex 18.0471 21.3988 5
    endloop
  endfacet
  facet normal 0 0 1
    outer loop
      vertex 27.3519 22.3767 5
      vertex 48.4583 23 5
      vertex 22.6481 22.3767 5
    endloop
  endfacet
  facet normal 0 0 1
    outer loop
      vertex 22.6481 22.3767 5
      vertex 1.66667 20 5
      vertex 18.0471 21.3988 5
    endloop
  endfacet
  facet normal 0 0 1
    outer loop
      vertex 31.9529 21.3988 5
      vertex 48.3333 20 5
      vertex 27.3519 22.3767 5
    endloop
  endfacet
  facet normal 0 0 1
    outer loop
      vertex 35.0946 20 5
      vertex 48.3333 20 5
      vertex 31.9529 21.3988 5
    endloop
  endfacet
  facet normal 0 0 1
    outer loop
      vertex 48.3333 20 5
      vertex 48.4583 23 5
      vertex 27.3519 22.3767 5
    endloop
  endfacet
  facet normal 0 0 1
    outer loop
      vertex 48.4583 23 5
      vertex 1.54167 23 5
      vertex 22.6481 22.3767 5
    endloop
  endfacet
  facet normal 0 1 0
    outer loop
      vertex 14.9054 20 15
      vertex 14.9054 20 5
      vertex 1.66667 20 15
    endloop
  endfacet
  facet normal 0 1 0
    outer loop
      vertex 1.66667 20 15
      vertex 14.9054 20 5
      vertex 1.66667 20 5
    endloop
  endfacet
  facet normal 0 0 -1
    outer loop
      vertex 48.3333 20 15
      vertex 35.0946 20 15
      vertex 48.4583 23 15
    endloop
  endfacet
  facet normal 0 0 -1
    outer loop
      vertex 48.4583 23 15
      vertex 35.0946 20 15
      vertex 31.9529 21.3988 15
    endloop
  endfacet
  facet normal 0 0 -1
    outer loop
      vertex 48.4583 23 15
      vertex 31.9529 21.3988 15
      vertex 27.3519 22.3767 15
    endloop
  endfacet
  facet normal 0 0 -1
    outer loop
      vertex 27.3519 22.3767 15
      vertex 22.6481 22.3767 15
      vertex 48.4583 23 15
    endloop
  endfacet
  facet normal 0 0 -1
    outer loop
      vertex 18.0471 21.3988 15
      vertex 14.9054 20 15
      vertex 1.66667 20 15
    endloop
  endfacet
  facet normal 0 0 -1
    outer loop
      vertex 18.0471 21.3988 15
      vertex 1.66667 20 15
      vertex 22.6481 22.3767 15
    endloop
  endfacet
  facet normal 0 0 -1
    outer loop
      vertex 22.6481 22.3767 15
      vertex 1.66667 20 15
      vertex 1.54167 23 15
    endloop
  endfacet
  facet normal 0 0 -1
    outer loop
      vertex 22.6481 22.3767 15
      vertex 1.54167 23 15
      vertex 48.4583 23 15
    endloop
  endfacet
  facet normal 0 0 1
    outer loop
      vertex 22.6481 22.3767 85
      vertex 1.54167 23 85
      vertex 1.66667 20 85
    endloop
  endfacet
  facet normal 0 0 1
    outer loop
      vertex 1.66667 20 85
      vertex 14.9054 20 85
      vertex 18.0471 21.3988 85
    endloop
  endfacet
  facet normal 0 0 1
    outer loop
      vertex 27.3519 22.3767 85
      vertex 48.4583 23 85
      vertex 22.6481 22.3767 85
    endloop
  endfacet
  facet normal 0 0 1
    outer loop
      vertex 22.6481 22.3767 85
      vertex 1.66667 20 85
      vertex 18.0471 21.3988 85
    endloop
  endfacet
  facet normal 0 0 1
    outer loop
      vertex 31.9529 21.3988 85
      vertex 48.3333 20 85
      vertex 27.3519 22.3767 85
    endloop
  endfacet
  facet normal 0 0 1
    outer loop
      vertex 35.0946 20 85
      vertex 48.3333 20 85
      vertex 31.9529 21.3988 85
    endloop
  endfacet
  facet normal 0 0 1
    outer loop
      vertex 48.3333 20 85
      vertex 48.4583 23 85
      vertex 27.3519 22.3767 85
    endloop
  endfacet
  facet normal 0 0 1
    outer loop
      vertex 48.4583 23 85
      vertex 1.54167 23 85
      vertex 22.6481 22.3767 85
    endloop
  endfacet
  facet normal 0 -1 0
    outer loop
      vertex 48.4583 23 85
      vertex 48.4583 23 95
      vertex 1.54167 23 95
    endloop
  endfacet
  facet normal 0 -1 0
    outer loop
      vertex 1.54167 23 85
      vertex 48.4583 23 85
      vertex 1.54167 23 95
    endloop
  endfacet
  facet normal 0 1 0
    outer loop
      vertex 14.9054 20 95
      vertex 14.9054 20 85
      vertex 1.66667 20 95
    endloop
  endfacet
  facet normal 0 1 0
    outer loop
      vertex 1.66667 20 95
      vertex 14.9054 20 85
      vertex 1.66667 20 85
    endloop
  endfacet
  facet normal 0 0 -1
    outer loop
      vertex 48.3333 20 95
      vertex 35.0946 20 95
      vertex 48.4583 23 95
    endloop
  endfacet
  facet normal 0 0 -1
    outer loop
      vertex 48.4583 23 95
      vertex 35.0946 20 95
      vertex 31.9529 21.3988 95
    endloop
  endfacet
  facet normal 0 0 -1
    outer loop
      vertex 48.4583 23 95
      vertex 31.9529 21.3988 95
      vertex 27.3519 22.3767 95
    endloop
  endfacet
  facet normal 0 0 -1
    outer loop
      vertex 27.3519 22.3767 95
      vertex 22.6481 22.3767 95
      vertex 48.4583 23 95
    endloop
  endfacet
  facet normal 0 0 -1
    outer loop
      vertex 18.0471 21.3988 95
      vertex 14.9054 20 95
      vertex 1.66667 20 95
    endloop
  endfacet
  facet normal 0 0 -1
    outer loop
      vertex 18.0471 21.3988 95
      vertex 1.66667 20 95
      vertex 22.6481 22.3767 95
    endloop
  endfacet
  facet normal 0 0 -1
    outer loop
      vertex 22.6481 22.3767 95
      vertex 1.66667 20 95
      vertex 1.54167 23 95
    endloop
  endfacet
  facet normal 0 0 -1
    outer loop
      vertex 22.6481 22.3767 95
      vertex 1.54167 23 95
      vertex 48.4583 23 95
    endloop
  endfacet
  facet normal 0.951057 -0.309017 0
    outer loop
      vertex 4.44523 9.15157 0
      vertex 4.44523 9.15157 100
      vertex 2.99168 4.67801 100
    endloop
  endfacet
  facet normal 0.951057 -0.309017 0
    outer loop
      vertex 2.99168 4.67801 0
      vertex 4.44523 9.15157 0
      vertex 2.99168 4.67801 100
    endloop
  endfacet
  facet normal 0.866025 -0.5 0
    outer loop
      vertex 6.79712 13.2252 0
      vertex 6.79712 13.2252 100
      vertex 4.44523 9.15157 100
    endloop
  endfacet
  facet normal 0.866025 -0.5 0
    outer loop
      vertex 4.44523 9.15157 0
      vertex 6.79712 13.2252 0
      vertex 4.44523 9.15157 100
    endloop
  endfacet
  facet normal 0.743145 -0.66913 0
    outer loop
      vertex 9.94456 16.7208 0
      vertex 9.94456 16.7208 100
      vertex 6.79712 13.2252 100
    endloop
  endfacet
  facet normal 0.743145 -0.66913 0
    outer loop
      vertex 6.79712 13.2252 0
      vertex 9.94456 16.7208 0
      vertex 6.79712 13.2252 100
    endloop
  endfacet
  facet normal 0.587785 -0.809017 0
    outer loop
      vertex 13.75 19.4856 0
      vertex 13.75 19.4856 100
      vertex 9.94456 16.7208 100
    endloop
  endfacet
  facet normal 0.587785 -0.809017 0
    outer loop
      vertex 9.94456 16.7208 0
      vertex 13.75 19.4856 0
      vertex 9.94456 16.7208 100
    endloop
  endfacet
  facet normal 0.406737 -0.913545 0
    outer loop
      vertex 14.9054 20 15
      vertex 13.75 19.4856 100
      vertex 14.9054 20 5
    endloop
  endfacet
  facet normal 0.406737 -0.913545 0
    outer loop
      vertex 18.0471 21.3988 0
      vertex 18.0471 21.3988 5
      vertex 14.9054 20 5
    endloop
  endfacet
  facet normal 0.406737 -0.913545 0
    outer loop
      vertex 14.9054 20 85
      vertex 13.75 19.4856 100
      vertex 14.9054 20 15
    endloop
  endfacet
  facet normal 0.406737 -0.913545 0
    outer loop
      vertex 13.75 19.4856 0
      vertex 18.0471 21.3988 0
      vertex 14.9054 20 5
    endloop
  endfacet
  facet normal 0.406737 -0.913545 0
    outer loop
      vertex 18.0471 21.3988 15
      vertex 18.0471 21.3988 85
      vertex 14.9054 20 15
    endloop
  endfacet
  facet normal 0.406737 -0.913545 0
    outer loop
      vertex 18.0471 21.3988 85
      vertex 14.9054 20 85
      vertex 14.9054 20 15
    endloop
  endfacet
  facet normal 0.406737 -0.913545 0
    outer loop
      vertex 14.9054 20 95
      vertex 13.75 19.4856 100
      vertex 14.9054 20 85
    endloop
  endfacet
  facet normal 0.406737 -0.913545 0
    outer loop
      vertex 18.0471 21.3988 95
      vertex 18.0471 21.3988 100
      vertex 14.9054 20 95
    endloop
  endfacet
  facet normal 0.406737 -0.913545 0
    outer loop
      vertex 18.0471 21.3988 100
      vertex 13.75 19.4856 100
      vertex 14.9054 20 95
    endloop
  endfacet
  facet normal 0.406737 -0.913545 0
    outer loop
      vertex 13.75 19.4856 100
      vertex 13.75 19.4856 0
      vertex 14.9054 20 5
    endloop
  endfacet
  facet normal 0.207912 -0.978148 0
    outer loop
      vertex 22.6481 22.3767 0
      vertex 22.6481 22.3767 5
      vertex 18.0471 21.3988 5
    endloop
  endfacet
  facet normal 0.207912 -0.978148 0
    outer loop
      vertex 18.0471 21.3988 0
      vertex 22.6481 22.3767 0
      vertex 18.0471 21.3988 5
    endloop
  endfacet
  facet normal 0 -1 0
    outer loop
      vertex 27.3519 22.3767 0
      vertex 27.3519 22.3767 5
      vertex 22.6481 22.3767 5
    endloop
  endfacet
  facet normal 0 -1 0
    outer loop
      vertex 22.6481 22.3767 0
      vertex 27.3519 22.3767 0
      vertex 22.6481 22.3767 5
    endloop
  endfacet
  facet normal -0.207912 -0.978148 0
    outer loop
      vertex 31.9529 21.3988 0
      vertex 31.9529 21.3988 5
      vertex 27.3519 22.3767 5
    endloop
  endfacet
  facet normal -0.207912 -0.978148 0
    outer loop
      vertex 27.3519 22.3767 0
      vertex 31.9529 21.3988 0
      vertex 27.3519 22.3767 5
    endloop
  endfacet
  facet normal -0.406737 -0.913545 0
    outer loop
      vertex 35.0946 20 95
      vertex 36.25 19.4856 100
      vertex 31.9529 21.3988 100
    endloop
  endfacet
  facet normal -0.406737 -0.913545 0
    outer loop
      vertex 36.25 19.4856 0
      vertex 36.25 19.4856 100
      vertex 35.0946 20 95
    endloop
  endfacet
  facet normal -0.406737 -0.913545 0
    outer loop
      vertex 35.0946 20 85
      vertex 31.9529 21.3988 85
      vertex 36.25 19.4856 0
    endloop
  endfacet
  facet normal -0.406737 -0.913545 0
    outer loop
      vertex 36.25 19.4856 0
      vertex 35.0946 20 95
      vertex 35.0946 20 85
    endloop
  endfacet
  facet normal -0.406737 -0.913545 0
    outer loop
      vertex 35.0946 20 15
      vertex 36.25 19.4856 0
      vertex 31.9529 21.3988 85
    endloop
  endfacet
  facet normal -0.406737 -0.913545 0
    outer loop
      vertex 31.9529 21.3988 15
      vertex 35.0946 20 15
      vertex 31.9529 21.3988 85
    endloop
  endfacet
  facet normal -0.406737 -0.913545 0
    outer loop
      vertex 35.0946 20 5
      vertex 36.25 19.4856 0
      vertex 35.0946 20 15
    endloop
  endfacet
  facet normal -0.406737 -0.913545 0
    outer loop
      vertex 31.9529 21.3988 0
      vertex 36.25 19.4856 0
      vertex 31.9529 21.3988 5
    endloop
  endfacet
  facet normal -0.406737 -0.913545 0
    outer loop
      vertex 35.0946 20 5
      vertex 31.9529 21.3988 5
      vertex 36.25 19.4856 0
    endloop
  endfacet
  facet normal -0.406737 -0.913545 0
    outer loop
      vertex 31.9529 21.3988 95
      vertex 35.0946 20 95
      vertex 31.9529 21.3988 100
    endloop
  endfacet
  facet normal -0.587785 -0.809017 0
    outer loop
      vertex 40.0554 16.7208 0
      vertex 40.0554 16.7208 100
      vertex 36.25 19.4856 100
    endloop
  endfacet
  facet normal -0.587785 -0.809017 0
    outer loop
      vertex 36.25 19.4856 0
      vertex 40.0554 16.7208 0
      vertex 36.25 19.4856 100
    endloop
  endfacet
  facet normal -0.743145 -0.66913 0
    outer loop
      vertex 43.2029 13.2252 100
      vertex 40.0554 16.7208 100
      vertex 43.2029 13.2252 0
    endloop
  endfacet
  facet normal -0.743145 -0.66913 0
    outer loop
      vertex 43.2029 13.2252 0
      vertex 40.0554 16.7208 100
      vertex 40.0554 16.7208 0
    endloop
  endfacet
  facet normal -0.866025 -0.5 0
    outer loop
      vertex 45.5548 9.15157 100
      vertex 43.2029 13.2252 100
      vertex 45.5548 9.15157 0
    endloop
  endfacet
  facet normal -0.866025 -0.5 0
    outer loop
      vertex 45.5548 9.15157 0
      vertex 43.2029 13.2252 100
      vertex 43.2029 13.2252 0
    endloop
  endfacet
  facet normal -0.951057 -0.309017 0
    outer loop
      vertex 47.0083 4.67801 100
      vertex 45.5548 9.15157 100
      vertex 47.0083 4.67801 0
    endloop
  endfacet
  facet normal -0.951057 -0.309017 0
    outer loop
      vertex 47.0083 4.67801 0
      vertex 45.5548 9.15157 100
      vertex 45.5548 9.15157 0
    endloop
  endfacet
  facet normal -0.994522 -0.104528 0
    outer loop
      vertex 47.5 0 100
      vertex 47.0083 4.67801 100
      vertex 47.5 0 0
    endloop
  endfacet
  facet normal -0.994522 -0.104528 0
    outer loop
      vertex 47.5 0 0
      vertex 47.0083 4.67801 100
      vertex 47.0083 4.67801 0
    endloop
  endfacet
  facet normal 0.999133 -0.0416305 0
    outer loop
      vertex 48.3333 20 5
      vertex 47.5 0 0
      vertex 50 60 0
    endloop
  endfacet
  facet normal 0.999133 -0.0416305 0
    outer loop
      vertex 48.3333 20 85
      vertex 47.5 0 100
      vertex 50 60 0
    endloop
  endfacet
  facet normal 0.999133 -0.0416305 0
    outer loop
      vertex 48.4583 23 5
      vertex 48.3333 20 5
      vertex 50 60 0
    endloop
  endfacet
  facet normal 0.999133 -0.0416305 0
    outer loop
      vertex 47.5 0 100
      vertex 47.5 0 0
      vertex 48.3333 20 5
    endloop
  endfacet
  facet normal 0.999133 -0.0416305 0
    outer loop
      vertex 48.4583 23 95
      vertex 48.4583 23 85
      vertex 50 60 100
    endloop
  endfacet
  facet normal 0.999133 -0.0416305 0
    outer loop
      vertex 47.5 0 100
      vertex 48.3333 20 5
      vertex 48.3333 20 15
    endloop
  endfacet
  facet normal 0.999133 -0.0416305 0
    outer loop
      vertex 47.5 0 100
      vertex 48.4583 23 15
      vertex 50 60 0
    endloop
  endfacet
  facet normal 0.999133 -0.0416305 0
    outer loop
      vertex 47.5 0 100
      vertex 48.3333 20 15
      vertex 48.4583 23 15
    endloop
  endfacet
  facet normal 0.999133 -0.0416305 0
    outer loop
      vertex 48.4583 23 85
      vertex 48.3333 20 85
      vertex 50 60 0
    endloop
  endfacet
  facet normal 0.999133 -0.0416305 0
    outer loop
      vertex 48.3333 20 95
      vertex 47.5 0 100
      vertex 48.3333 20 85
    endloop
  endfacet
  facet normal 0.999133 -0.0416305 0
    outer loop
      vertex 50 60 100
      vertex 47.5 0 100
      vertex 48.3333 20 95
    endloop
  endfacet
  facet normal 0.999133 -0.0416305 0
    outer loop
      vertex 50 60 100
      vertex 48.3333 20 95
      vertex 48.4583 23 95
    endloop
  endfacet
  facet normal 0.999133 -0.0416305 0
    outer loop
      vertex 50 60 100
      vertex 48.4583 23 85
      vertex 50 60 0
    endloop
  endfacet
  facet normal 0.999133 -0.0416305 0
    outer loop
      vertex 48.4583 23 15
      vertex 48.4583 23 5
      vertex 50 60 0
    endloop
  endfacet
  facet normal 1 0 0
    outer loop
      vertex 50 60 100
      vertex 50 60 0
      vertex 50 60.1 0
    endloop
  endfacet
  facet normal 1 0 0
    outer loop
      vertex 50 60.1 100
      vertex 50 60 100
      vertex 50 60.1 0
    endloop
  endfacet
  facet normal 0 1 0
    outer loop
      vertex 5 60.1 95
      vertex 0 60.1 100
      vertex 50 60.1 100
    endloop
  endfacet
  facet normal 0 1 0
    outer loop
      vertex 45 60.1 95
      vertex 5 60.1 95
      vertex 50 60.1 100
    endloop
  endfacet
  facet normal 0 1 0
    outer loop
      vertex 0 60.1 0
      vertex 0 60.1 100
      vertex 5 60.1 5
    endloop
  endfacet
  facet normal 0 1 0
    outer loop
      vertex 0 60.1 0
      vertex 5 60.1 5
      vertex 50 60.1 0
    endloop
  endfacet
  facet normal 0 1 0
    outer loop
      vertex 45 60.1 95
      vertex 50 60.1 0
      vertex 45 60.1 5
    endloop
  endfacet
  facet normal 0 1 0
    outer loop
      vertex 5 60.1 5
      vertex 45 60.1 5
      vertex 50 60.1 0
    endloop
  endfacet
  facet normal 0 1 0
    outer loop
      vertex 50 60.1 0
      vertex 45 60.1 95
      vertex 50 60.1 100
    endloop
  endfacet
  facet normal 0 1 0
    outer loop
      vertex 5 60.1 5
      vertex 0 60.1 100
      vertex 5 60.1 95
    endloop
  endfacet
  facet normal 1 0 0
    outer loop
      vertex 20 46.669 0
      vertex 20 51.669 5
      vertex 20 47.4264 5
    endloop
  endfacet
  facet normal 1 0 0
    outer loop
      vertex 20 42.4264 0
      vertex 20 46.669 0
      vertex 20 47.4264 5
    endloop
  endfacet
  facet normal 0 -0.707107 0.707107
    outer loop
      vertex 30 46.669 0
      vertex 30 51.669 5
      vertex 20 51.669 5
    endloop
  endfacet
  facet normal 0 -0.707107 0.707107
    outer loop
      vertex 20 46.669 0
      vertex 30 46.669 0
      vertex 20 51.669 5
    endloop
  endfacet
  facet normal -1 0 0
    outer loop
      vertex 30 51.669 5
      vertex 30 46.669 0
      vertex 30 47.4264 5
    endloop
  endfacet
  facet normal -1 0 0
    outer loop
      vertex 30 47.4264 5
      vertex 30 46.669 0
      vertex 30 42.4264 0
    endloop
  endfacet
  facet normal 0 0.707107 -0.707107
    outer loop
      vertex 30 47.4264 5
      vertex 30 42.4264 0
      vertex 20 47.4264 5
    endloop
  endfacet
  facet normal 0 0.707107 -0.707107
    outer loop
      vertex 20 47.4264 5
      vertex 30 42.4264 0
      vertex 20 42.4264 0
    endloop
  endfacet
  facet normal -0.207912 -0.978148 0
    outer loop
      vertex 31.9529 21.3988 95
      vertex 31.9529 21.3988 100
      vertex 27.3519 22.3767 100
    endloop
  endfacet
  facet normal -0.207912 -0.978148 0
    outer loop
      vertex 27.3519 22.3767 95
      vertex 31.9529 21.3988 95
      vertex 27.3519 22.3767 100
    endloop
  endfacet
  facet normal 0 -1 0
    outer loop
      vertex 27.3519 22.3767 95
      vertex 27.3519 22.3767 100
      vertex 22.6481 22.3767 100
    endloop
  endfacet
  facet normal 0 -1 0
    outer loop
      vertex 22.6481 22.3767 95
      vertex 27.3519 22.3767 95
      vertex 22.6481 22.3767 100
    endloop
  endfacet
  facet normal 0.207912 -0.978148 0
    outer loop
      vertex 22.6481 22.3767 95
      vertex 22.6481 22.3767 100
      vertex 18.0471 21.3988 100
    endloop
  endfacet
  facet normal 0.207912 -0.978148 0
    outer loop
      vertex 18.0471 21.3988 95
      vertex 22.6481 22.3767 95
      vertex 18.0471 21.3988 100
    endloop
  endfacet
  facet normal 1 0 0
    outer loop
      vertex 20 46.4214 95
      vertex 20 50.664 95
      vertex 20 45.664 100
    endloop
  endfacet
  facet normal 1 0 0
    outer loop
      vertex 20 41.4214 100
      vertex 20 46.4214 95
      vertex 20 45.664 100
    endloop
  endfacet
  facet normal 0 0.707107 0.707107
    outer loop
      vertex 30 41.4214 100
      vertex 30 46.4214 95
      vertex 20 46.4214 95
    endloop
  endfacet
  facet normal 0 0.707107 0.707107
    outer loop
      vertex 20 41.4214 100
      vertex 30 41.4214 100
      vertex 20 46.4214 95
    endloop
  endfacet
  facet normal -1 0 0
    outer loop
      vertex 30 50.664 95
      vertex 30 46.4214 95
      vertex 30 45.664 100
    endloop
  endfacet
  facet normal -1 0 0
    outer loop
      vertex 30 45.664 100
      vertex 30 46.4214 95
      vertex 30 41.4214 100
    endloop
  endfacet
  facet normal 0 -0.707107 -0.707107
    outer loop
      vertex 30 50.664 95
      vertex 30 45.664 100
      vertex 20 50.664 95
    endloop
  endfacet
  facet normal 0 -0.707107 -0.707107
    outer loop
      vertex 20 50.664 95
      vertex 30 45.664 100
      vertex 20 45.664 100
    endloop
  endfacet
  facet normal 0 1 0
    outer loop
      vertex 48.3333 20 15
      vertex 48.3333 20 5
      vertex 35.0946 20 15
    endloop
  endfacet
  facet normal 0 1 0
    outer loop
      vertex 35.0946 20 15
      vertex 48.3333 20 5
      vertex 35.0946 20 5
    endloop
  endfacet
  facet normal 0.207912 -0.978148 0
    outer loop
      vertex 22.6481 22.3767 15
      vertex 22.6481 22.3767 85
      vertex 18.0471 21.3988 85
    endloop
  endfacet
  facet normal 0.207912 -0.978148 0
    outer loop
      vertex 18.0471 21.3988 15
      vertex 22.6481 22.3767 15
      vertex 18.0471 21.3988 85
    endloop
  endfacet
  facet normal 0 -1 0
    outer loop
      vertex 27.3519 22.3767 15
      vertex 27.3519 22.3767 85
      vertex 22.6481 22.3767 85
    endloop
  endfacet
  facet normal 0 -1 0
    outer loop
      vertex 22.6481 22.3767 15
      vertex 27.3519 22.3767 15
      vertex 22.6481 22.3767 85
    endloop
  endfacet
  facet normal -0.207912 -0.978148 0
    outer loop
      vertex 31.9529 21.3988 15
      vertex 31.9529 21.3988 85
      vertex 27.3519 22.3767 85
    endloop
  endfacet
  facet normal -0.207912 -0.978148 0
    outer loop
      vertex 27.3519 22.3767 15
      vertex 31.9529 21.3988 15
      vertex 27.3519 22.3767 85
    endloop
  endfacet
  facet normal 0 1 0
    outer loop
      vertex 48.3333 20 95
      vertex 48.3333 20 85
      vertex 35.0946 20 95
    endloop
  endfacet
  facet normal 0 1 0
    outer loop
      vertex 35.0946 20 95
      vertex 48.3333 20 85
      vertex 35.0946 20 85
    endloop
  endfacet
  facet normal 1 0 0
    outer loop
      vertex 5 60.1 5
      vertex 5 60.1 95
      vertex 5 24 95
    endloop
  endfacet
  facet normal 1 0 0
    outer loop
      vertex 5 24 5
      vertex 5 60.1 5
      vertex 5 24 95
    endloop
  endfacet
  facet normal 0 0 -1
    outer loop
      vertex 20 46.4214 95
      vertex 45 24 95
      vertex 5 24 95
    endloop
  endfacet
  facet normal 0 0 -1
    outer loop
      vertex 30 46.4214 95
      vertex 45 24 95
      vertex 20 46.4214 95
    endloop
  endfacet
  facet normal 0 0 -1
    outer loop
      vertex 5 60.1 95
      vertex 20 46.4214 95
      vertex 5 24 95
    endloop
  endfacet
  facet normal 0 0 -1
    outer loop
      vertex 45 60.1 95
      vertex 45 24 95
      vertex 30 46.4214 95
    endloop
  endfacet
  facet normal 0 0 -1
    outer loop
      vertex 45 60.1 95
      vertex 30 46.4214 95
      vertex 30 50.664 95
    endloop
  endfacet
  facet normal 0 0 -1
    outer loop
      vertex 45 60.1 95
      vertex 30 50.664 95
      vertex 5 60.1 95
    endloop
  endfacet
  facet normal 0 0 -1
    outer loop
      vertex 20 50.664 95
      vertex 5 60.1 95
      vertex 30 50.664 95
    endloop
  endfacet
  facet normal 0 0 -1
    outer loop
      vertex 20 46.4214 95
      vertex 5 60.1 95
      vertex 20 50.664 95
    endloop
  endfacet
  facet normal -1 0 0
    outer loop
      vertex 45 60.1 95
      vertex 45 60.1 5
      vertex 45 24 95
    endloop
  endfacet
  facet normal -1 0 0
    outer loop
      vertex 45 24 95
      vertex 45 60.1 5
      vertex 45 24 5
    endloop
  endfacet
  facet normal 0 0 1
    outer loop
      vertex 20 51.669 5
      vertex 45 60.1 5
      vertex 5 60.1 5
    endloop
  endfacet
  facet normal 0 0 1
    outer loop
      vertex 5 24 5
      vertex 45 24 5
      vertex 5 60.1 5
    endloop
  endfacet
  facet normal 0 0 1
    outer loop
      vertex 20 47.4264 5
      vertex 20 51.669 5
      vertex 5 60.1 5
    endloop
  endfacet
  facet normal 0 0 1
    outer loop
      vertex 30 51.669 5
      vertex 45 60.1 5
      vertex 20 51.669 5
    endloop
  endfacet
  facet normal 0 0 1
    outer loop
      vertex 45 24 5
      vertex 45 60.1 5
      vertex 30 51.669 5
    endloop
  endfacet
  facet normal 0 0 1
    outer loop
      vertex 45 24 5
      vertex 30 51.669 5
      vertex 30 47.4264 5
    endloop
  endfacet
  facet normal 0 0 1
    outer loop
      vertex 45 24 5
      vertex 20 47.4264 5
      vertex 5 60.1 5
    endloop
  endfacet
  facet normal 0 0 1
    outer loop
      vertex 30 47.4264 5
      vertex 20 47.4264 5
      vertex 45 24 5
    endloop
  endfacet
  facet normal 0 1 0
    outer loop
      vertex 45 24 95
      vertex 45 24 5
      vertex 5 24 95
    endloop
  endfacet
  facet normal 0 1 0
    outer loop
      vertex 5 24 95
      vertex 45 24 5
      vertex 5 24 5
    endloop
  endfacet
endsolid OpenSCAD_Model
