solid OpenSCAD_Model
  facet normal 0.991767 0.104239 0.0743825
    outer loop
      vertex 12.5 0 0
      vertex 10.7596 2.28703 20
      vertex 11 0 20
    endloop
  endfacet
  facet normal 0.991767 0.104239 0.0743825
    outer loop
      vertex 12.2268 2.5989 0
      vertex 10.7596 2.28703 20
      vertex 12.5 0 0
    endloop
  endfacet
  facet normal -0.991767 -0.104239 0.0743825
    outer loop
      vertex -11 0 20
      vertex -12.5 0 0
      vertex -10.7596 -2.28703 20
    endloop
  endfacet
  facet normal 0.948422 0.308161 0.0743825
    outer loop
      vertex 10.9278 3 14.9022
      vertex 10.528 3 20
      vertex 10.7596 2.28703 20
    endloop
  endfacet
  facet normal 0 -0.99723 0.0743825
    outer loop
      vertex -1.30661 -12.4315 0
      vertex 1.14981 -10.9397 20
      vertex -1.14981 -10.9397 20
    endloop
  endfacet
  facet normal 0 -0.99723 0.0743825
    outer loop
      vertex 1.14981 -10.9397 20
      vertex -1.30661 -12.4315 0
      vertex 1.30661 -12.4315 0
    endloop
  endfacet
  facet normal 0.863626 -0.498615 0.0743825
    outer loop
      vertex 11.4193 -5.08421 0
      vertex 10.049 -4.4741 20
      vertex 10.1127 -7.34731 0
    endloop
  endfacet
  facet normal -0.207336 0.975438 0.0743825
    outer loop
      vertex -1.30661 12.4315 0
      vertex -3.39919 10.4616 20
      vertex -1.14981 10.9397 20
    endloop
  endfacet
  facet normal -0.991767 0.104239 0.0743825
    outer loop
      vertex -12.2268 2.5989 0
      vertex -12.5 0 0
      vertex -10.7596 2.28703 20
    endloop
  endfacet
  facet normal -0.586157 0.806776 0.0743825
    outer loop
      vertex -6.25 10.8253 0
      vertex -8.36413 9.28931 0
      vertex -7.36044 8.17459 20
    endloop
  endfacet
  facet normal -0.948422 -0.308161 0.0743825
    outer loop
      vertex -10.7596 -2.28703 20
      vertex -11.4193 -5.08421 0
      vertex -10.049 -4.4741 20
    endloop
  endfacet
  facet normal 0 0 -1
    outer loop
      vertex 12.2268 -2.5989 0
      vertex 10.7596 -2.28703 0
      vertex 11 0 0
    endloop
  endfacet
  facet normal 0 0 -1
    outer loop
      vertex 10.049 -4.4741 0
      vertex 11.4193 -5.08421 0
      vertex 10.1127 -7.34731 0
    endloop
  endfacet
  facet normal 0 0 -1
    outer loop
      vertex 11.4193 -5.08421 0
      vertex 10.049 -4.4741 0
      vertex 10.7596 -2.28703 0
    endloop
  endfacet
  facet normal 0 0 -1
    outer loop
      vertex 10.1127 -7.34731 0
      vertex 8.89919 -6.46564 0
      vertex 10.049 -4.4741 0
    endloop
  endfacet
  facet normal 0 0 -1
    outer loop
      vertex 8.36413 -9.28931 0
      vertex 8.89919 -6.46564 0
      vertex 10.1127 -7.34731 0
    endloop
  endfacet
  facet normal 0 0 -1
    outer loop
      vertex 8.36413 -9.28931 0
      vertex 7.36044 -8.17459 0
      vertex 8.89919 -6.46564 0
    endloop
  endfacet
  facet normal 0 0 -1
    outer loop
      vertex 6.25 -10.8253 0
      vertex 7.36044 -8.17459 0
      vertex 8.36413 -9.28931 0
    endloop
  endfacet
  facet normal 0 0 -1
    outer loop
      vertex 6.25 -10.8253 0
      vertex 5.5 -9.52628 0
      vertex 7.36044 -8.17459 0
    endloop
  endfacet
  facet normal 0 0 -1
    outer loop
      vertex 3.86271 -11.8882 0
      vertex 5.5 -9.52628 0
      vertex 6.25 -10.8253 0
    endloop
  endfacet
  facet normal 0 0 -1
    outer loop
      vertex 3.86271 -11.8882 0
      vertex 3.39919 -10.4616 0
      vertex 5.5 -9.52628 0
    endloop
  endfacet
  facet normal 0 0 -1
    outer loop
      vertex 1.30661 -12.4315 0
      vertex 3.39919 -10.4616 0
      vertex 3.86271 -11.8882 0
    endloop
  endfacet
  facet normal 0 0 -1
    outer loop
      vertex 1.30661 -12.4315 0
      vertex 1.14981 -10.9397 0
      vertex 3.39919 -10.4616 0
    endloop
  endfacet
  facet normal 0 0 -1
    outer loop
      vertex 1.30661 -12.4315 0
      vertex -1.14981 -10.9397 0
      vertex 1.14981 -10.9397 0
    endloop
  endfacet
  facet normal 0 0 -1
    outer loop
      vertex -1.30661 -12.4315 0
      vertex -1.14981 -10.9397 0
      vertex 1.30661 -12.4315 0
    endloop
  endfacet
  facet normal 0 0 -1
    outer loop
      vertex -1.30661 -12.4315 0
      vertex -3.39919 -10.4616 0
      vertex -1.14981 -10.9397 0
    endloop
  endfacet
  facet normal 0 0 -1
    outer loop
      vertex -3.86271 -11.8882 0
      vertex -3.39919 -10.4616 0
      vertex -1.30661 -12.4315 0
    endloop
  endfacet
  facet normal 0 0 -1
    outer loop
      vertex -3.86271 -11.8882 0
      vertex -5.5 -9.52628 0
      vertex -3.39919 -10.4616 0
    endloop
  endfacet
  facet normal 0 0 -1
    outer loop
      vertex -6.25 -10.8253 0
      vertex -5.5 -9.52628 0
      vertex -3.86271 -11.8882 0
    endloop
  endfacet
  facet normal 0 0 -1
    outer loop
      vertex -6.25 -10.8253 0
      vertex -7.36044 -8.17459 0
      vertex -5.5 -9.52628 0
    endloop
  endfacet
  facet normal 0 0 -1
    outer loop
      vertex -8.36413 -9.28931 0
      vertex -7.36044 -8.17459 0
      vertex -6.25 -10.8253 0
    endloop
  endfacet
  facet normal 0 0 -1
    outer loop
      vertex -8.36413 -9.28931 0
      vertex -8.89919 -6.46564 0
      vertex -7.36044 -8.17459 0
    endloop
  endfacet
  facet normal 0 0 -1
    outer loop
      vertex -10.1127 -7.34731 0
      vertex -8.89919 -6.46564 0
      vertex -8.36413 -9.28931 0
    endloop
  endfacet
  facet normal -0 0 -1
    outer loop
      vertex -8.89919 -6.46564 0
      vertex -10.1127 -7.34731 0
      vertex -10.049 -4.4741 0
    endloop
  endfacet
  facet normal 0 0 -1
    outer loop
      vertex -11.4193 -5.08421 0
      vertex -10.049 -4.4741 0
      vertex -10.1127 -7.34731 0
    endloop
  endfacet
  facet normal 0 0 -1
    outer loop
      vertex -12.2268 -2.5989 0
      vertex -10.7596 -2.28703 0
      vertex -11.4193 -5.08421 0
    endloop
  endfacet
  facet normal -0 0 -1
    outer loop
      vertex -10.049 -4.4741 0
      vertex -11.4193 -5.08421 0
      vertex -10.7596 -2.28703 0
    endloop
  endfacet
  facet normal 0 0 -1
    outer loop
      vertex 11 0 0
      vertex 12.5 0 0
      vertex 12.2268 -2.5989 0
    endloop
  endfacet
  facet normal 0 0 -1
    outer loop
      vertex 12.5 0 0
      vertex 11 0 0
      vertex 12.2268 2.5989 0
    endloop
  endfacet
  facet normal 0 0 -1
    outer loop
      vertex 10.7596 -2.28703 0
      vertex 12.2268 -2.5989 0
      vertex 11.4193 -5.08421 0
    endloop
  endfacet
  facet normal 0 0 -1
    outer loop
      vertex 10.7596 2.28703 0
      vertex 12.2268 2.5989 0
      vertex 11 0 0
    endloop
  endfacet
  facet normal -0 0 -1
    outer loop
      vertex 12.2268 2.5989 0
      vertex 10.7596 2.28703 0
      vertex 12.0965 3 0
    endloop
  endfacet
  facet normal -0 0 -1
    outer loop
      vertex 12.0965 3 0
      vertex 10.7596 2.28703 0
      vertex 10.528 3 0
    endloop
  endfacet
  facet normal 0 0 -1
    outer loop
      vertex 1.14981 10.9397 0
      vertex 3 12.0716 0
      vertex 3 10.5465 0
    endloop
  endfacet
  facet normal -0 0 -1
    outer loop
      vertex 3 12.0716 0
      vertex 1.14981 10.9397 0
      vertex 1.30661 12.4315 0
    endloop
  endfacet
  facet normal 0 0 -1
    outer loop
      vertex -1.14981 10.9397 0
      vertex 1.30661 12.4315 0
      vertex 1.14981 10.9397 0
    endloop
  endfacet
  facet normal 0 0 -1
    outer loop
      vertex -1.14981 10.9397 0
      vertex -1.30661 12.4315 0
      vertex 1.30661 12.4315 0
    endloop
  endfacet
  facet normal 0 0 -1
    outer loop
      vertex -3.39919 10.4616 0
      vertex -1.30661 12.4315 0
      vertex -1.14981 10.9397 0
    endloop
  endfacet
  facet normal 0 0 -1
    outer loop
      vertex -3.39919 10.4616 0
      vertex -3.86271 11.8882 0
      vertex -1.30661 12.4315 0
    endloop
  endfacet
  facet normal 0 0 -1
    outer loop
      vertex -5.5 9.52628 0
      vertex -3.86271 11.8882 0
      vertex -3.39919 10.4616 0
    endloop
  endfacet
  facet normal 0 0 -1
    outer loop
      vertex -5.5 9.52628 0
      vertex -6.25 10.8253 0
      vertex -3.86271 11.8882 0
    endloop
  endfacet
  facet normal 0 0 -1
    outer loop
      vertex -7.36044 8.17459 0
      vertex -6.25 10.8253 0
      vertex -5.5 9.52628 0
    endloop
  endfacet
  facet normal 0 0 -1
    outer loop
      vertex -7.36044 8.17459 0
      vertex -8.36413 9.28931 0
      vertex -6.25 10.8253 0
    endloop
  endfacet
  facet normal 0 0 -1
    outer loop
      vertex -8.89919 6.46564 0
      vertex -8.36413 9.28931 0
      vertex -7.36044 8.17459 0
    endloop
  endfacet
  facet normal 0 0 -1
    outer loop
      vertex -10.1127 7.34731 0
      vertex -8.89919 6.46564 0
      vertex -10.049 4.4741 0
    endloop
  endfacet
  facet normal 0 0 -1
    outer loop
      vertex -8.89919 6.46564 0
      vertex -10.1127 7.34731 0
      vertex -8.36413 9.28931 0
    endloop
  endfacet
  facet normal 0 0 -1
    outer loop
      vertex -11.4193 5.08421 0
      vertex -10.049 4.4741 0
      vertex -10.7596 2.28703 0
    endloop
  endfacet
  facet normal 0 0 -1
    outer loop
      vertex -10.049 4.4741 0
      vertex -11.4193 5.08421 0
      vertex -10.1127 7.34731 0
    endloop
  endfacet
  facet normal 0 0 -1
    outer loop
      vertex -12.2268 2.5989 0
      vertex -10.7596 2.28703 0
      vertex -11 0 0
    endloop
  endfacet
  facet normal -0 0 -1
    outer loop
      vertex -10.7596 -2.28703 0
      vertex -12.2268 -2.5989 0
      vertex -11 0 0
    endloop
  endfacet
  facet normal 0 0 -1
    outer loop
      vertex -12.5 0 0
      vertex -11 0 0
      vertex -12.2268 -2.5989 0
    endloop
  endfacet
  facet normal 0 0 -1
    outer loop
      vertex -10.7596 2.28703 0
      vertex -12.2268 2.5989 0
      vertex -11.4193 5.08421 0
    endloop
  endfacet
  facet normal 0 0 -1
    outer loop
      vertex -11 0 0
      vertex -12.5 0 0
      vertex -12.2268 2.5989 0
    endloop
  endfacet
  facet normal -0.863626 -0.498615 0.0743825
    outer loop
      vertex -10.049 -4.4741 20
      vertex -11.4193 -5.08421 0
      vertex -10.1127 -7.34731 0
    endloop
  endfacet
  facet normal -0.207336 -0.975438 0.0743825
    outer loop
      vertex -3.39919 -10.4616 20
      vertex -3.86271 -11.8882 0
      vertex -1.30661 -12.4315 0
    endloop
  endfacet
  facet normal 0.207336 -0.975438 0.0743825
    outer loop
      vertex 3.39919 -10.4616 20
      vertex 1.14981 -10.9397 20
      vertex 1.30661 -12.4315 0
    endloop
  endfacet
  facet normal 0.948422 -0.308161 0.0743825
    outer loop
      vertex 12.2268 -2.5989 0
      vertex 10.7596 -2.28703 20
      vertex 11.4193 -5.08421 0
    endloop
  endfacet
  facet normal 0.948422 0.30816 0.0743826
    outer loop
      vertex 10.9278 3 14.9022
      vertex 12.2268 2.5989 0
      vertex 12.0965 3 0
    endloop
  endfacet
  facet normal 0.948422 0.308161 0.0743825
    outer loop
      vertex 12.2268 2.5989 0
      vertex 10.9278 3 14.9022
      vertex 10.7596 2.28703 20
    endloop
  endfacet
  facet normal -0.991767 0.104239 0.0743825
    outer loop
      vertex -10.7596 2.28703 20
      vertex -12.5 0 0
      vertex -11 0 20
    endloop
  endfacet
  facet normal -0.948422 -0.308161 0.0743825
    outer loop
      vertex -10.7596 -2.28703 20
      vertex -12.2268 -2.5989 0
      vertex -11.4193 -5.08421 0
    endloop
  endfacet
  facet normal -0.991767 -0.104239 0.0743825
    outer loop
      vertex -10.7596 -2.28703 20
      vertex -12.5 0 0
      vertex -12.2268 -2.5989 0
    endloop
  endfacet
  facet normal -0.586157 -0.806776 0.0743825
    outer loop
      vertex -5.5 -9.52628 20
      vertex -7.36044 -8.17459 20
      vertex -6.25 -10.8253 0
    endloop
  endfacet
  facet normal -0.741086 -0.667277 0.0743825
    outer loop
      vertex -8.89919 -6.46564 20
      vertex -10.1127 -7.34731 0
      vertex -7.36044 -8.17459 20
    endloop
  endfacet
  facet normal -0.741086 -0.667277 0.0743825
    outer loop
      vertex -7.36044 -8.17459 20
      vertex -10.1127 -7.34731 0
      vertex -8.36413 -9.28931 0
    endloop
  endfacet
  facet normal 0.207336 -0.975438 0.0743825
    outer loop
      vertex 3.39919 -10.4616 20
      vertex 1.30661 -12.4315 0
      vertex 3.86271 -11.8882 0
    endloop
  endfacet
  facet normal 0.586157 -0.806776 0.0743825
    outer loop
      vertex 7.36044 -8.17459 20
      vertex 6.25 -10.8253 0
      vertex 8.36413 -9.28931 0
    endloop
  endfacet
  facet normal 0.741086 -0.667277 0.0743825
    outer loop
      vertex 8.89919 -6.46564 20
      vertex 7.36044 -8.17459 20
      vertex 10.1127 -7.34731 0
    endloop
  endfacet
  facet normal 0.741086 -0.667277 0.0743825
    outer loop
      vertex 10.1127 -7.34731 0
      vertex 7.36044 -8.17459 20
      vertex 8.36413 -9.28931 0
    endloop
  endfacet
  facet normal 0.948422 -0.308161 0.0743825
    outer loop
      vertex 10.7596 -2.28703 20
      vertex 10.049 -4.4741 20
      vertex 11.4193 -5.08421 0
    endloop
  endfacet
  facet normal -0.948422 0.308161 0.0743825
    outer loop
      vertex -10.049 4.4741 20
      vertex -11.4193 5.08421 0
      vertex -10.7596 2.28703 20
    endloop
  endfacet
  facet normal -0.741086 0.667277 0.0743825
    outer loop
      vertex -8.36413 9.28931 0
      vertex -10.1127 7.34731 0
      vertex -7.36044 8.17459 20
    endloop
  endfacet
  facet normal -0.40561 0.911015 0.0743826
    outer loop
      vertex -3.39919 10.4616 20
      vertex -6.25 10.8253 0
      vertex -5.5 9.52628 20
    endloop
  endfacet
  facet normal -0.207336 -0.975438 0.0743825
    outer loop
      vertex -1.14981 -10.9397 20
      vertex -3.39919 -10.4616 20
      vertex -1.30661 -12.4315 0
    endloop
  endfacet
  facet normal -0.863626 -0.498615 0.0743825
    outer loop
      vertex -10.049 -4.4741 20
      vertex -10.1127 -7.34731 0
      vertex -8.89919 -6.46564 20
    endloop
  endfacet
  facet normal -0.586157 -0.806776 0.0743825
    outer loop
      vertex -7.36044 -8.17459 20
      vertex -8.36413 -9.28931 0
      vertex -6.25 -10.8253 0
    endloop
  endfacet
  facet normal 0.40561 -0.911015 0.0743825
    outer loop
      vertex 6.25 -10.8253 0
      vertex 3.39919 -10.4616 20
      vertex 3.86271 -11.8882 0
    endloop
  endfacet
  facet normal 0.863626 -0.498615 0.0743825
    outer loop
      vertex 10.049 -4.4741 20
      vertex 8.89919 -6.46564 20
      vertex 10.1127 -7.34731 0
    endloop
  endfacet
  facet normal 0.991767 -0.104239 0.0743825
    outer loop
      vertex 12.5 0 0
      vertex 10.7596 -2.28703 20
      vertex 12.2268 -2.5989 0
    endloop
  endfacet
  facet normal 0.991767 -0.104239 0.0743825
    outer loop
      vertex 11 0 20
      vertex 10.7596 -2.28703 20
      vertex 12.5 0 0
    endloop
  endfacet
  facet normal -0.948422 0.308161 0.0743825
    outer loop
      vertex -11.4193 5.08421 0
      vertex -12.2268 2.5989 0
      vertex -10.7596 2.28703 20
    endloop
  endfacet
  facet normal -0.863626 0.498615 0.0743825
    outer loop
      vertex -10.1127 7.34731 0
      vertex -11.4193 5.08421 0
      vertex -10.049 4.4741 20
    endloop
  endfacet
  facet normal -0.586157 0.806776 0.0743825
    outer loop
      vertex -6.25 10.8253 0
      vertex -7.36044 8.17459 20
      vertex -5.5 9.52628 20
    endloop
  endfacet
  facet normal -0.40561 0.911015 0.0743825
    outer loop
      vertex -3.86271 11.8882 0
      vertex -6.25 10.8253 0
      vertex -3.39919 10.4616 20
    endloop
  endfacet
  facet normal -0.207336 0.975438 0.0743825
    outer loop
      vertex -1.30661 12.4315 0
      vertex -3.86271 11.8882 0
      vertex -3.39919 10.4616 20
    endloop
  endfacet
  facet normal 0 0.99723 0.0743825
    outer loop
      vertex 1.30661 12.4315 0
      vertex -1.14981 10.9397 20
      vertex 1.14981 10.9397 20
    endloop
  endfacet
  facet normal 0 0.99723 0.0743825
    outer loop
      vertex -1.14981 10.9397 20
      vertex 1.30661 12.4315 0
      vertex -1.30661 12.4315 0
    endloop
  endfacet
  facet normal 0.207336 0.975438 0.0743825
    outer loop
      vertex 3 12.0716 0
      vertex 1.30661 12.4315 0
      vertex 3 10.8374 16.1847
    endloop
  endfacet
  facet normal 0.207336 0.975438 0.0743827
    outer loop
      vertex 3 10.8374 16.1847
      vertex 1.14981 10.9397 20
      vertex 3 10.5465 20
    endloop
  endfacet
  facet normal 0.207336 0.975438 0.0743825
    outer loop
      vertex 1.14981 10.9397 20
      vertex 3 10.8374 16.1847
      vertex 1.30661 12.4315 0
    endloop
  endfacet
  facet normal -0.40561 -0.911015 0.0743825
    outer loop
      vertex -3.39919 -10.4616 20
      vertex -6.25 -10.8253 0
      vertex -3.86271 -11.8882 0
    endloop
  endfacet
  facet normal -0.40561 -0.911015 0.0743826
    outer loop
      vertex -5.5 -9.52628 20
      vertex -6.25 -10.8253 0
      vertex -3.39919 -10.4616 20
    endloop
  endfacet
  facet normal 0.40561 -0.911015 0.0743826
    outer loop
      vertex 5.5 -9.52628 20
      vertex 3.39919 -10.4616 20
      vertex 6.25 -10.8253 0
    endloop
  endfacet
  facet normal 0.586157 -0.806776 0.0743825
    outer loop
      vertex 7.36044 -8.17459 20
      vertex 5.5 -9.52628 20
      vertex 6.25 -10.8253 0
    endloop
  endfacet
  facet normal -0.741086 0.667277 0.0743825
    outer loop
      vertex -7.36044 8.17459 20
      vertex -10.1127 7.34731 0
      vertex -8.89919 6.46564 20
    endloop
  endfacet
  facet normal -0.863626 0.498615 0.0743825
    outer loop
      vertex -8.89919 6.46564 20
      vertex -10.1127 7.34731 0
      vertex -10.049 4.4741 20
    endloop
  endfacet
  facet normal -0.951056 -0.309017 0
    outer loop
      vertex 10.7596 2.28703 0
      vertex 10.528 3 20
      vertex 10.528 3 0
    endloop
  endfacet
  facet normal -0.951056 -0.309017 0
    outer loop
      vertex 10.528 3 20
      vertex 10.7596 2.28703 0
      vertex 10.7596 2.28703 20
    endloop
  endfacet
  facet normal -0.207912 -0.978148 0
    outer loop
      vertex 1.14981 10.9397 0
      vertex 3 10.5465 20
      vertex 1.14981 10.9397 20
    endloop
  endfacet
  facet normal -0.207912 -0.978148 -0
    outer loop
      vertex 3 10.5465 20
      vertex 1.14981 10.9397 0
      vertex 3 10.5465 0
    endloop
  endfacet
  facet normal 0.207912 -0.978148 0
    outer loop
      vertex -3.39919 10.4616 0
      vertex -1.14981 10.9397 20
      vertex -3.39919 10.4616 20
    endloop
  endfacet
  facet normal 0.207912 -0.978148 0
    outer loop
      vertex -1.14981 10.9397 20
      vertex -3.39919 10.4616 0
      vertex -1.14981 10.9397 0
    endloop
  endfacet
  facet normal 0.866025 -0.5 0
    outer loop
      vertex -10.049 4.4741 20
      vertex -8.89919 6.46564 0
      vertex -8.89919 6.46564 20
    endloop
  endfacet
  facet normal 0.866025 -0.5 0
    outer loop
      vertex -8.89919 6.46564 0
      vertex -10.049 4.4741 20
      vertex -10.049 4.4741 0
    endloop
  endfacet
  facet normal -0.994522 0.104529 0
    outer loop
      vertex 10.7596 -2.28703 0
      vertex 11 0 20
      vertex 11 0 0
    endloop
  endfacet
  facet normal -0.994522 0.104529 0
    outer loop
      vertex 11 0 20
      vertex 10.7596 -2.28703 0
      vertex 10.7596 -2.28703 20
    endloop
  endfacet
  facet normal 0 -1 0
    outer loop
      vertex -1.14981 10.9397 0
      vertex 1.14981 10.9397 20
      vertex -1.14981 10.9397 20
    endloop
  endfacet
  facet normal 0 -1 -0
    outer loop
      vertex 1.14981 10.9397 20
      vertex -1.14981 10.9397 0
      vertex 1.14981 10.9397 0
    endloop
  endfacet
  facet normal 0.994522 -0.104529 0
    outer loop
      vertex -11 0 20
      vertex -10.7596 2.28703 0
      vertex -10.7596 2.28703 20
    endloop
  endfacet
  facet normal 0.994522 -0.104529 0
    outer loop
      vertex -10.7596 2.28703 0
      vertex -11 0 20
      vertex -11 0 0
    endloop
  endfacet
  facet normal 0.743145 -0.66913 0
    outer loop
      vertex -8.89919 6.46564 20
      vertex -7.36044 8.17459 0
      vertex -7.36044 8.17459 20
    endloop
  endfacet
  facet normal 0.743145 -0.66913 0
    outer loop
      vertex -7.36044 8.17459 0
      vertex -8.89919 6.46564 20
      vertex -8.89919 6.46564 0
    endloop
  endfacet
  facet normal 0.406737 -0.913545 0
    outer loop
      vertex -5.5 9.52628 0
      vertex -3.39919 10.4616 20
      vertex -5.5 9.52628 20
    endloop
  endfacet
  facet normal 0.406737 -0.913545 0
    outer loop
      vertex -3.39919 10.4616 20
      vertex -5.5 9.52628 0
      vertex -3.39919 10.4616 0
    endloop
  endfacet
  facet normal 0.587785 -0.809017 0
    outer loop
      vertex -7.36044 8.17459 0
      vertex -5.5 9.52628 20
      vertex -7.36044 8.17459 20
    endloop
  endfacet
  facet normal 0.587785 -0.809017 0
    outer loop
      vertex -5.5 9.52628 20
      vertex -7.36044 8.17459 0
      vertex -5.5 9.52628 0
    endloop
  endfacet
  facet normal -0.994522 -0.104529 0
    outer loop
      vertex 11 0 0
      vertex 10.7596 2.28703 20
      vertex 10.7596 2.28703 0
    endloop
  endfacet
  facet normal -0.994522 -0.104529 0
    outer loop
      vertex 10.7596 2.28703 20
      vertex 11 0 0
      vertex 11 0 20
    endloop
  endfacet
  facet normal -0.951057 0.309017 0
    outer loop
      vertex 10.049 -4.4741 0
      vertex 10.7596 -2.28703 20
      vertex 10.7596 -2.28703 0
    endloop
  endfacet
  facet normal -0.951057 0.309017 0
    outer loop
      vertex 10.7596 -2.28703 20
      vertex 10.049 -4.4741 0
      vertex 10.049 -4.4741 20
    endloop
  endfacet
  facet normal 0.587785 0.809017 -0
    outer loop
      vertex -5.5 -9.52628 0
      vertex -7.36044 -8.17459 20
      vertex -5.5 -9.52628 20
    endloop
  endfacet
  facet normal 0.587785 0.809017 0
    outer loop
      vertex -7.36044 -8.17459 20
      vertex -5.5 -9.52628 0
      vertex -7.36044 -8.17459 0
    endloop
  endfacet
  facet normal 0.866025 0.5 0
    outer loop
      vertex -8.89919 -6.46564 20
      vertex -10.049 -4.4741 0
      vertex -10.049 -4.4741 20
    endloop
  endfacet
  facet normal 0.866025 0.5 0
    outer loop
      vertex -10.049 -4.4741 0
      vertex -8.89919 -6.46564 20
      vertex -8.89919 -6.46564 0
    endloop
  endfacet
  facet normal 0.951057 -0.309017 0
    outer loop
      vertex -10.7596 2.28703 20
      vertex -10.049 4.4741 0
      vertex -10.049 4.4741 20
    endloop
  endfacet
  facet normal 0.951057 -0.309017 0
    outer loop
      vertex -10.049 4.4741 0
      vertex -10.7596 2.28703 20
      vertex -10.7596 2.28703 0
    endloop
  endfacet
  facet normal 0.994522 0.104529 0
    outer loop
      vertex -10.7596 -2.28703 20
      vertex -11 0 0
      vertex -11 0 20
    endloop
  endfacet
  facet normal 0.994522 0.104529 0
    outer loop
      vertex -11 0 0
      vertex -10.7596 -2.28703 20
      vertex -10.7596 -2.28703 0
    endloop
  endfacet
  facet normal 0.743145 0.66913 0
    outer loop
      vertex -7.36044 -8.17459 20
      vertex -8.89919 -6.46564 0
      vertex -8.89919 -6.46564 20
    endloop
  endfacet
  facet normal 0.743145 0.66913 0
    outer loop
      vertex -8.89919 -6.46564 0
      vertex -7.36044 -8.17459 20
      vertex -7.36044 -8.17459 0
    endloop
  endfacet
  facet normal -0.207912 0.978148 0
    outer loop
      vertex 3.39919 -10.4616 0
      vertex 1.14981 -10.9397 20
      vertex 3.39919 -10.4616 20
    endloop
  endfacet
  facet normal -0.207912 0.978148 0
    outer loop
      vertex 1.14981 -10.9397 20
      vertex 3.39919 -10.4616 0
      vertex 1.14981 -10.9397 0
    endloop
  endfacet
  facet normal -0.406737 0.913545 0
    outer loop
      vertex 5.5 -9.52628 0
      vertex 3.39919 -10.4616 20
      vertex 5.5 -9.52628 20
    endloop
  endfacet
  facet normal -0.406737 0.913545 0
    outer loop
      vertex 3.39919 -10.4616 20
      vertex 5.5 -9.52628 0
      vertex 3.39919 -10.4616 0
    endloop
  endfacet
  facet normal -0.743145 0.66913 0
    outer loop
      vertex 7.36044 -8.17459 0
      vertex 8.89919 -6.46564 20
      vertex 8.89919 -6.46564 0
    endloop
  endfacet
  facet normal -0.743145 0.66913 0
    outer loop
      vertex 8.89919 -6.46564 20
      vertex 7.36044 -8.17459 0
      vertex 7.36044 -8.17459 20
    endloop
  endfacet
  facet normal -0.587785 0.809017 0
    outer loop
      vertex 7.36044 -8.17459 0
      vertex 5.5 -9.52628 20
      vertex 7.36044 -8.17459 20
    endloop
  endfacet
  facet normal -0.587785 0.809017 0
    outer loop
      vertex 5.5 -9.52628 20
      vertex 7.36044 -8.17459 0
      vertex 5.5 -9.52628 0
    endloop
  endfacet
  facet normal -0.866025 0.5 0
    outer loop
      vertex 8.89919 -6.46564 0
      vertex 10.049 -4.4741 20
      vertex 10.049 -4.4741 0
    endloop
  endfacet
  facet normal -0.866025 0.5 0
    outer loop
      vertex 10.049 -4.4741 20
      vertex 8.89919 -6.46564 0
      vertex 8.89919 -6.46564 20
    endloop
  endfacet
  facet normal 0 1 -0
    outer loop
      vertex 1.14981 -10.9397 0
      vertex -1.14981 -10.9397 20
      vertex 1.14981 -10.9397 20
    endloop
  endfacet
  facet normal 0 1 0
    outer loop
      vertex -1.14981 -10.9397 20
      vertex 1.14981 -10.9397 0
      vertex -1.14981 -10.9397 0
    endloop
  endfacet
  facet normal 0.207912 0.978148 -0
    outer loop
      vertex -1.14981 -10.9397 0
      vertex -3.39919 -10.4616 20
      vertex -1.14981 -10.9397 20
    endloop
  endfacet
  facet normal 0.207912 0.978148 0
    outer loop
      vertex -3.39919 -10.4616 20
      vertex -1.14981 -10.9397 0
      vertex -3.39919 -10.4616 0
    endloop
  endfacet
  facet normal 0.951057 0.309017 0
    outer loop
      vertex -10.049 -4.4741 20
      vertex -10.7596 -2.28703 0
      vertex -10.7596 -2.28703 20
    endloop
  endfacet
  facet normal 0.951057 0.309017 0
    outer loop
      vertex -10.7596 -2.28703 0
      vertex -10.049 -4.4741 20
      vertex -10.049 -4.4741 0
    endloop
  endfacet
  facet normal 0.406737 0.913545 -0
    outer loop
      vertex -3.39919 -10.4616 0
      vertex -5.5 -9.52628 20
      vertex -3.39919 -10.4616 20
    endloop
  endfacet
  facet normal 0.406737 0.913545 0
    outer loop
      vertex -5.5 -9.52628 20
      vertex -3.39919 -10.4616 0
      vertex -5.5 -9.52628 0
    endloop
  endfacet
  facet normal 1 0 0
    outer loop
      vertex 3 10.5465 0
      vertex 3 10.8374 16.1847
      vertex 3 10.5465 20
    endloop
  endfacet
  facet normal 1 0 0
    outer loop
      vertex 3 10.8374 16.1847
      vertex 3 10.5465 0
      vertex 3 12.0716 0
    endloop
  endfacet
  facet normal 0 1 0
    outer loop
      vertex 10.9278 3 14.9022
      vertex 10.528 3 0
      vertex 10.528 3 20
    endloop
  endfacet
  facet normal 0 1 0
    outer loop
      vertex 10.528 3 0
      vertex 10.9278 3 14.9022
      vertex 12.0965 3 0
    endloop
  endfacet
endsolid OpenSCAD_Model
