solid OpenSCAD_Model
  facet normal 0 0 -1
    outer loop
      vertex -24.5 0 0
      vertex -24.2165 1.97213 0
      vertex -24.2165 -1.97213 0
    endloop
  endfacet
  facet normal 0 0 -1
    outer loop
      vertex -24.2165 -1.97213 0
      vertex -24.2165 1.97213 0
      vertex -23.3888 3.78449 0
    endloop
  endfacet
  facet normal 0 0 -1
    outer loop
      vertex -23.4182 0.987568 0
      vertex -23.3888 3.78449 0
      vertex -22.084 5.29025 0
    endloop
  endfacet
  facet normal 0 0 -1
    outer loop
      vertex -21.5637 4.41434 0
      vertex -22.084 5.29025 0
      vertex -20.4079 6.36742 0
    endloop
  endfacet
  facet normal 0 0 -1
    outer loop
      vertex -19.9102 5.49464 0
      vertex -20.4079 6.36742 0
      vertex -18.4962 6.92875 0
    endloop
  endfacet
  facet normal 0 0 -1
    outer loop
      vertex -17.9955 5.97951 0
      vertex -18.4962 6.92875 0
      vertex -16.5038 6.92875 0
    endloop
  endfacet
  facet normal 0 0 -1
    outer loop
      vertex -15.987 7.11789 0
      vertex -14.1578 10.2862 0
      vertex -16.0882 6.80671 0
    endloop
  endfacet
  facet normal 0 0 -1
    outer loop
      vertex -14.1578 10.2862 0
      vertex -11.7098 13.005 0
      vertex -16.0882 6.80671 0
    endloop
  endfacet
  facet normal 0 0 -1
    outer loop
      vertex -16.0882 6.80671 0
      vertex -11.7098 13.005 0
      vertex -8.75 15.1554 0
    endloop
  endfacet
  facet normal 0 0 -1
    outer loop
      vertex -16.0882 6.80671 0
      vertex -8.75 15.1554 0
      vertex -5.4078 16.6435 0
    endloop
  endfacet
  facet normal 0 0 -1
    outer loop
      vertex -16.0271 5.8164 0
      vertex -5.4078 16.6435 0
      vertex -1.82925 17.4041 0
    endloop
  endfacet
  facet normal 0 0 -1
    outer loop
      vertex -14.2183 5.023 0
      vertex 1.82925 17.4041 0
      vertex 5.4078 16.6435 0
    endloop
  endfacet
  facet normal 0 0 -1
    outer loop
      vertex -12.7652 3.68528 0
      vertex 8.75 15.1554 0
      vertex 11.7098 13.005 0
    endloop
  endfacet
  facet normal 0 0 -1
    outer loop
      vertex -11.8251 1.9482 0
      vertex 14.1578 10.2862 0
      vertex 15.987 7.11789 0
    endloop
  endfacet
  facet normal 0 0 -1
    outer loop
      vertex 16.5038 6.92875 0
      vertex 18.4962 6.92875 0
      vertex 16.0882 6.80671 0
    endloop
  endfacet
  facet normal 0 0 -1
    outer loop
      vertex 18.9729 5.8164 0
      vertex 20.4079 6.36742 0
      vertex 22.084 5.29025 0
    endloop
  endfacet
  facet normal 0 0 -1
    outer loop
      vertex 22.2348 3.68528 0
      vertex 22.084 5.29025 0
      vertex 23.3888 3.78449 0
    endloop
  endfacet
  facet normal 0 0 -1
    outer loop
      vertex 23.1749 1.9482 0
      vertex 23.3888 3.78449 0
      vertex 24.2165 1.97213 0
    endloop
  endfacet
  facet normal 0 0 -1
    outer loop
      vertex 23.5 0 0
      vertex 24.2165 1.97213 0
      vertex 24.5 0 0
    endloop
  endfacet
  facet normal 0 0 -1
    outer loop
      vertex 23.1749 -1.9482 0
      vertex 24.5 0 0
      vertex 24.2165 -1.97213 0
    endloop
  endfacet
  facet normal 0 0 -1
    outer loop
      vertex 22.2348 -3.68528 0
      vertex 24.2165 -1.97213 0
      vertex 23.3888 -3.78449 0
    endloop
  endfacet
  facet normal 0 0 -1
    outer loop
      vertex 20.7817 -5.023 0
      vertex 23.3888 -3.78449 0
      vertex 22.084 -5.29025 0
    endloop
  endfacet
  facet normal 0 0 -1
    outer loop
      vertex 18.9729 -5.8164 0
      vertex 22.084 -5.29025 0
      vertex 20.4079 -6.36742 0
    endloop
  endfacet
  facet normal 0 0 -1
    outer loop
      vertex 16.0882 -6.80671 0
      vertex 18.4962 -6.92875 0
      vertex 16.5038 -6.92875 0
    endloop
  endfacet
  facet normal 0 0 -1
    outer loop
      vertex -19.9102 -5.49464 0
      vertex -18.4962 -6.92875 0
      vertex -21.5637 -4.41434 0
    endloop
  endfacet
  facet normal 0 0 -1
    outer loop
      vertex -14.1578 -10.2862 0
      vertex -8.75 -15.1554 0
      vertex -11.7098 -13.005 0
    endloop
  endfacet
  facet normal 0 0 -1
    outer loop
      vertex -11.8251 -1.9482 0
      vertex 15.987 -7.11789 0
      vertex -12.7652 -3.68528 0
    endloop
  endfacet
  facet normal 0 0 -1
    outer loop
      vertex -11.8251 -1.9482 0
      vertex 16.0882 -6.80671 0
      vertex 15.987 -7.11789 0
    endloop
  endfacet
  facet normal 0 0 -1
    outer loop
      vertex -16.0271 -5.8164 0
      vertex 8.75 -15.1554 0
      vertex 5.4078 -16.6435 0
    endloop
  endfacet
  facet normal 0 0 -1
    outer loop
      vertex -15.987 -7.11789 0
      vertex 1.82925 -17.4041 0
      vertex -1.82925 -17.4041 0
    endloop
  endfacet
  facet normal 0 0 -1
    outer loop
      vertex -14.1578 -10.2862 0
      vertex -5.4078 -16.6435 0
      vertex -8.75 -15.1554 0
    endloop
  endfacet
  facet normal 0 0 -1
    outer loop
      vertex -15.987 -7.11789 0
      vertex -1.82925 -17.4041 0
      vertex -5.4078 -16.6435 0
    endloop
  endfacet
  facet normal 0 0 -1
    outer loop
      vertex -16.0882 -6.80671 0
      vertex 1.82925 -17.4041 0
      vertex -15.987 -7.11789 0
    endloop
  endfacet
  facet normal 0 0 -1
    outer loop
      vertex -11.8251 -1.9482 0
      vertex 18.4962 -6.92875 0
      vertex 16.0882 -6.80671 0
    endloop
  endfacet
  facet normal 0 0 -1
    outer loop
      vertex -11.8251 -1.9482 0
      vertex 17.0045 -5.97951 0
      vertex 18.4962 -6.92875 0
    endloop
  endfacet
  facet normal 0 0 -1
    outer loop
      vertex -18.4962 -6.92875 0
      vertex -17.9955 -5.97951 0
      vertex -16.5038 -6.92875 0
    endloop
  endfacet
  facet normal 0 0 -1
    outer loop
      vertex -11.8251 -1.9482 0
      vertex 15.0898 -5.49464 0
      vertex 17.0045 -5.97951 0
    endloop
  endfacet
  facet normal 0 0 -1
    outer loop
      vertex -15.987 -7.11789 0
      vertex -5.4078 -16.6435 0
      vertex -14.1578 -10.2862 0
    endloop
  endfacet
  facet normal 0 0 -1
    outer loop
      vertex -1.80194 0.867767 0
      vertex -11.5 0 0
      vertex -0.445042 1.94986 0
    endloop
  endfacet
  facet normal 0 0 -1
    outer loop
      vertex -23.4182 0.987568 0
      vertex -22.084 5.29025 0
      vertex -22.7768 2.85568 0
    endloop
  endfacet
  facet normal 0 0 -1
    outer loop
      vertex -24.2165 -1.97213 0
      vertex -20.4079 -6.36742 0
      vertex -22.084 -5.29025 0
    endloop
  endfacet
  facet normal 0 0 -1
    outer loop
      vertex -24.2165 -1.97213 0
      vertex -22.084 -5.29025 0
      vertex -23.3888 -3.78449 0
    endloop
  endfacet
  facet normal 0 0 -1
    outer loop
      vertex -24.2165 -1.97213 0
      vertex -23.3888 3.78449 0
      vertex -23.4182 0.987568 0
    endloop
  endfacet
  facet normal 0 0 -1
    outer loop
      vertex -23.4182 -0.987568 0
      vertex -24.2165 -1.97213 0
      vertex -23.4182 0.987568 0
    endloop
  endfacet
  facet normal 0 0 -1
    outer loop
      vertex -22.7768 -2.85568 0
      vertex -24.2165 -1.97213 0
      vertex -23.4182 -0.987568 0
    endloop
  endfacet
  facet normal 0 0 -1
    outer loop
      vertex -21.5637 -4.41434 0
      vertex -24.2165 -1.97213 0
      vertex -22.7768 -2.85568 0
    endloop
  endfacet
  facet normal 0 0 -1
    outer loop
      vertex -18.4962 -6.92875 0
      vertex -19.9102 -5.49464 0
      vertex -17.9955 -5.97951 0
    endloop
  endfacet
  facet normal 0 0 -1
    outer loop
      vertex -16.0882 6.80671 0
      vertex -5.4078 16.6435 0
      vertex -16.0271 5.8164 0
    endloop
  endfacet
  facet normal 0 0 -1
    outer loop
      vertex -24.2165 -1.97213 0
      vertex -21.5637 -4.41434 0
      vertex -20.4079 -6.36742 0
    endloop
  endfacet
  facet normal 0 0 -1
    outer loop
      vertex -21.5637 4.41434 0
      vertex -20.4079 6.36742 0
      vertex -19.9102 5.49464 0
    endloop
  endfacet
  facet normal 0 0 -1
    outer loop
      vertex -20.4079 -6.36742 0
      vertex -21.5637 -4.41434 0
      vertex -18.4962 -6.92875 0
    endloop
  endfacet
  facet normal 0 0 -1
    outer loop
      vertex -16.0271 -5.8164 0
      vertex -16.5038 -6.92875 0
      vertex -17.9955 -5.97951 0
    endloop
  endfacet
  facet normal 0 0 -1
    outer loop
      vertex -16.0271 -5.8164 0
      vertex -16.0882 -6.80671 0
      vertex -16.5038 -6.92875 0
    endloop
  endfacet
  facet normal 0 0 -1
    outer loop
      vertex 14.1578 -10.2862 0
      vertex 11.7098 -13.005 0
      vertex -14.2183 -5.023 0
    endloop
  endfacet
  facet normal 0 0 -1
    outer loop
      vertex 15.987 -7.11789 0
      vertex 14.1578 -10.2862 0
      vertex -12.7652 -3.68528 0
    endloop
  endfacet
  facet normal 0 0 -1
    outer loop
      vertex -1.80194 -0.867767 0
      vertex -11.5 0 0
      vertex -1.80194 0.867767 0
    endloop
  endfacet
  facet normal 0 0 -1
    outer loop
      vertex 11.5818 0.987568 0
      vertex 1.24698 1.56366 0
      vertex 12.2232 2.85568 0
    endloop
  endfacet
  facet normal 0 0 -1
    outer loop
      vertex -19.9102 5.49464 0
      vertex -18.4962 6.92875 0
      vertex -17.9955 5.97951 0
    endloop
  endfacet
  facet normal 0 0 -1
    outer loop
      vertex -22.7768 2.85568 0
      vertex -22.084 5.29025 0
      vertex -21.5637 4.41434 0
    endloop
  endfacet
  facet normal 0 0 -1
    outer loop
      vertex -17.9955 5.97951 0
      vertex -16.5038 6.92875 0
      vertex -16.0882 6.80671 0
    endloop
  endfacet
  facet normal 0 0 -1
    outer loop
      vertex 11.5818 -0.987568 0
      vertex 1.24698 -1.56366 0
      vertex 2 0 0
    endloop
  endfacet
  facet normal 0 0 -1
    outer loop
      vertex 12.2232 -2.85568 0
      vertex -0.445042 -1.94986 0
      vertex 11.5818 -0.987568 0
    endloop
  endfacet
  facet normal 0 0 -1
    outer loop
      vertex 23.5 0 0
      vertex 24.5 0 0
      vertex 23.1749 -1.9482 0
    endloop
  endfacet
  facet normal 0 0 -1
    outer loop
      vertex 12.2232 -2.85568 0
      vertex -11.8251 -1.9482 0
      vertex -0.445042 -1.94986 0
    endloop
  endfacet
  facet normal 0 0 -1
    outer loop
      vertex 1.24698 -1.56366 0
      vertex 11.5818 -0.987568 0
      vertex -0.445042 -1.94986 0
    endloop
  endfacet
  facet normal 0 0 -1
    outer loop
      vertex 20.7817 -5.023 0
      vertex 22.084 -5.29025 0
      vertex 18.9729 -5.8164 0
    endloop
  endfacet
  facet normal 0 0 -1
    outer loop
      vertex 22.2348 -3.68528 0
      vertex 23.3888 -3.78449 0
      vertex 20.7817 -5.023 0
    endloop
  endfacet
  facet normal 0 0 -1
    outer loop
      vertex 23.1749 -1.9482 0
      vertex 24.2165 -1.97213 0
      vertex 22.2348 -3.68528 0
    endloop
  endfacet
  facet normal 0 0 -1
    outer loop
      vertex 1.24698 1.56366 0
      vertex 11.5818 0.987568 0
      vertex 2 0 0
    endloop
  endfacet
  facet normal 0 0 -1
    outer loop
      vertex 22.2348 3.68528 0
      vertex 23.3888 3.78449 0
      vertex 23.1749 1.9482 0
    endloop
  endfacet
  facet normal 0 0 -1
    outer loop
      vertex 20.7817 5.023 0
      vertex 22.084 5.29025 0
      vertex 22.2348 3.68528 0
    endloop
  endfacet
  facet normal 0 0 -1
    outer loop
      vertex 11.5818 -0.987568 0
      vertex 2 0 0
      vertex 11.5818 0.987568 0
    endloop
  endfacet
  facet normal 0 0 -1
    outer loop
      vertex 17.0045 5.97951 0
      vertex 20.4079 6.36742 0
      vertex 18.9729 5.8164 0
    endloop
  endfacet
  facet normal 0 0 -1
    outer loop
      vertex 18.4962 6.92875 0
      vertex 20.4079 6.36742 0
      vertex 17.0045 5.97951 0
    endloop
  endfacet
  facet normal 0 0 -1
    outer loop
      vertex 13.4363 4.41434 0
      vertex -0.445042 1.94986 0
      vertex 15.0898 5.49464 0
    endloop
  endfacet
  facet normal 0 0 -1
    outer loop
      vertex 12.2232 2.85568 0
      vertex 1.24698 1.56366 0
      vertex -0.445042 1.94986 0
    endloop
  endfacet
  facet normal 0 0 -1
    outer loop
      vertex 12.2232 2.85568 0
      vertex -0.445042 1.94986 0
      vertex 13.4363 4.41434 0
    endloop
  endfacet
  facet normal 0 0 -1
    outer loop
      vertex -17.9955 5.97951 0
      vertex -16.0882 6.80671 0
      vertex -16.0271 5.8164 0
    endloop
  endfacet
  facet normal 0 0 -1
    outer loop
      vertex -16.0271 5.8164 0
      vertex -1.82925 17.4041 0
      vertex 1.82925 17.4041 0
    endloop
  endfacet
  facet normal 0 0 -1
    outer loop
      vertex -16.0271 5.8164 0
      vertex 1.82925 17.4041 0
      vertex -14.2183 5.023 0
    endloop
  endfacet
  facet normal 0 0 -1
    outer loop
      vertex -14.2183 5.023 0
      vertex 5.4078 16.6435 0
      vertex 8.75 15.1554 0
    endloop
  endfacet
  facet normal 0 0 -1
    outer loop
      vertex -14.2183 5.023 0
      vertex 8.75 15.1554 0
      vertex -12.7652 3.68528 0
    endloop
  endfacet
  facet normal 0 0 -1
    outer loop
      vertex -12.7652 3.68528 0
      vertex 11.7098 13.005 0
      vertex 14.1578 10.2862 0
    endloop
  endfacet
  facet normal 0 0 -1
    outer loop
      vertex -12.7652 3.68528 0
      vertex 14.1578 10.2862 0
      vertex -11.8251 1.9482 0
    endloop
  endfacet
  facet normal 0 0 -1
    outer loop
      vertex 18.9729 5.8164 0
      vertex 22.084 5.29025 0
      vertex 20.7817 5.023 0
    endloop
  endfacet
  facet normal 0 0 -1
    outer loop
      vertex -11.8251 1.9482 0
      vertex 15.987 7.11789 0
      vertex 16.0882 6.80671 0
    endloop
  endfacet
  facet normal 0 0 -1
    outer loop
      vertex -11.8251 1.9482 0
      vertex 16.0882 6.80671 0
      vertex 18.4962 6.92875 0
    endloop
  endfacet
  facet normal 0 0 -1
    outer loop
      vertex -11.8251 1.9482 0
      vertex 18.4962 6.92875 0
      vertex 17.0045 5.97951 0
    endloop
  endfacet
  facet normal 0 0 -1
    outer loop
      vertex -11.8251 1.9482 0
      vertex 17.0045 5.97951 0
      vertex 15.0898 5.49464 0
    endloop
  endfacet
  facet normal 0 0 -1
    outer loop
      vertex 13.4363 -4.41434 0
      vertex -11.8251 -1.9482 0
      vertex 12.2232 -2.85568 0
    endloop
  endfacet
  facet normal 0 0 -1
    outer loop
      vertex 15.0898 -5.49464 0
      vertex -11.8251 -1.9482 0
      vertex 13.4363 -4.41434 0
    endloop
  endfacet
  facet normal 0 0 -1
    outer loop
      vertex 23.1749 1.9482 0
      vertex 24.2165 1.97213 0
      vertex 23.5 0 0
    endloop
  endfacet
  facet normal 0 0 -1
    outer loop
      vertex -0.445042 -1.94986 0
      vertex -11.8251 -1.9482 0
      vertex -1.80194 -0.867767 0
    endloop
  endfacet
  facet normal 0 0 -1
    outer loop
      vertex -11.5 0 0
      vertex -1.80194 -0.867767 0
      vertex -11.8251 -1.9482 0
    endloop
  endfacet
  facet normal 0 0 -1
    outer loop
      vertex 17.0045 -5.97951 0
      vertex 20.4079 -6.36742 0
      vertex 18.4962 -6.92875 0
    endloop
  endfacet
  facet normal 0 0 -1
    outer loop
      vertex -11.8251 1.9482 0
      vertex 15.0898 5.49464 0
      vertex -0.445042 1.94986 0
    endloop
  endfacet
  facet normal 0 0 -1
    outer loop
      vertex -11.8251 1.9482 0
      vertex -0.445042 1.94986 0
      vertex -11.5 0 0
    endloop
  endfacet
  facet normal 0 0 -1
    outer loop
      vertex -12.7652 -3.68528 0
      vertex 14.1578 -10.2862 0
      vertex -14.2183 -5.023 0
    endloop
  endfacet
  facet normal 0 0 -1
    outer loop
      vertex -14.2183 -5.023 0
      vertex 11.7098 -13.005 0
      vertex 8.75 -15.1554 0
    endloop
  endfacet
  facet normal 0 0 -1
    outer loop
      vertex 18.9729 -5.8164 0
      vertex 20.4079 -6.36742 0
      vertex 17.0045 -5.97951 0
    endloop
  endfacet
  facet normal 0 0 -1
    outer loop
      vertex -16.0271 -5.8164 0
      vertex 5.4078 -16.6435 0
      vertex 1.82925 -17.4041 0
    endloop
  endfacet
  facet normal 0 0 -1
    outer loop
      vertex -16.0271 -5.8164 0
      vertex 1.82925 -17.4041 0
      vertex -16.0882 -6.80671 0
    endloop
  endfacet
  facet normal 0 0 -1
    outer loop
      vertex -14.2183 -5.023 0
      vertex 8.75 -15.1554 0
      vertex -16.0271 -5.8164 0
    endloop
  endfacet
  facet normal -0.989821 0.142315 0
    outer loop
      vertex -24.5 0 0
      vertex -24.5 0 5
      vertex -24.2165 1.97213 0
    endloop
  endfacet
  facet normal -0.989821 0.142315 0
    outer loop
      vertex -24.2165 1.97213 0
      vertex -24.5 0 5
      vertex -24.2165 1.97213 5
    endloop
  endfacet
  facet normal -0.989821 -0.142315 0
    outer loop
      vertex -24.5 0 0
      vertex -24.2165 -1.97213 0
      vertex -24.5 0 5
    endloop
  endfacet
  facet normal -0.989821 -0.142315 0
    outer loop
      vertex -24.5 0 5
      vertex -24.2165 -1.97213 0
      vertex -24.2165 -1.97213 5
    endloop
  endfacet
  facet normal -0.909632 -0.415415 0
    outer loop
      vertex -24.2165 -1.97213 0
      vertex -23.3888 -3.78449 0
      vertex -24.2165 -1.97213 5
    endloop
  endfacet
  facet normal -0.909632 -0.415415 0
    outer loop
      vertex -24.2165 -1.97213 5
      vertex -23.3888 -3.78449 0
      vertex -23.3888 -3.78449 5
    endloop
  endfacet
  facet normal -0.755749 -0.654861 0
    outer loop
      vertex -23.3888 -3.78449 0
      vertex -22.084 -5.29025 0
      vertex -23.3888 -3.78449 5
    endloop
  endfacet
  facet normal -0.755749 -0.654861 0
    outer loop
      vertex -23.3888 -3.78449 5
      vertex -22.084 -5.29025 0
      vertex -22.084 -5.29025 5
    endloop
  endfacet
  facet normal -0.540641 -0.841254 0
    outer loop
      vertex -22.084 -5.29025 5
      vertex -22.084 -5.29025 0
      vertex -20.4079 -6.36742 0
    endloop
  endfacet
  facet normal -0.540641 -0.841254 0
    outer loop
      vertex -20.4079 -6.36742 5
      vertex -22.084 -5.29025 5
      vertex -20.4079 -6.36742 0
    endloop
  endfacet
  facet normal -0.281733 -0.959493 0
    outer loop
      vertex -20.4079 -6.36742 5
      vertex -20.4079 -6.36742 0
      vertex -18.4962 -6.92875 0
    endloop
  endfacet
  facet normal -0.281733 -0.959493 0
    outer loop
      vertex -18.4962 -6.92875 5
      vertex -20.4079 -6.36742 5
      vertex -18.4962 -6.92875 0
    endloop
  endfacet
  facet normal 0 -1 0
    outer loop
      vertex -18.4962 -6.92875 5
      vertex -18.4962 -6.92875 0
      vertex -16.5038 -6.92875 0
    endloop
  endfacet
  facet normal 0 -1 0
    outer loop
      vertex -16.5038 -6.92875 5
      vertex -18.4962 -6.92875 5
      vertex -16.5038 -6.92875 0
    endloop
  endfacet
  facet normal 0.281733 -0.959493 0
    outer loop
      vertex -16.5038 -6.92875 5
      vertex -16.5038 -6.92875 0
      vertex -16.0882 -6.80671 0
    endloop
  endfacet
  facet normal 0.281733 -0.959493 0
    outer loop
      vertex -16.0882 -6.80671 5
      vertex -16.5038 -6.92875 5
      vertex -16.0882 -6.80671 0
    endloop
  endfacet
  facet normal -0.951057 -0.309017 0
    outer loop
      vertex -16.0882 -6.80671 0
      vertex -15.987 -7.11789 0
      vertex -16.0882 -6.80671 5
    endloop
  endfacet
  facet normal -0.951057 -0.309017 0
    outer loop
      vertex -16.0882 -6.80671 5
      vertex -15.987 -7.11789 0
      vertex -15.987 -7.11789 5
    endloop
  endfacet
  facet normal -0.866025 -0.5 0
    outer loop
      vertex -15.987 -7.11789 0
      vertex -14.1578 -10.2862 0
      vertex -15.987 -7.11789 5
    endloop
  endfacet
  facet normal -0.866025 -0.5 0
    outer loop
      vertex -15.987 -7.11789 5
      vertex -14.1578 -10.2862 0
      vertex -14.1578 -10.2862 5
    endloop
  endfacet
  facet normal -0.743145 -0.669131 0
    outer loop
      vertex -14.1578 -10.2862 0
      vertex -11.7098 -13.005 0
      vertex -14.1578 -10.2862 5
    endloop
  endfacet
  facet normal -0.743145 -0.669131 0
    outer loop
      vertex -14.1578 -10.2862 5
      vertex -11.7098 -13.005 0
      vertex -11.7098 -13.005 5
    endloop
  endfacet
  facet normal -0.587785 -0.809017 0
    outer loop
      vertex -11.7098 -13.005 5
      vertex -11.7098 -13.005 0
      vertex -8.75 -15.1554 0
    endloop
  endfacet
  facet normal -0.587785 -0.809017 0
    outer loop
      vertex -8.75 -15.1554 5
      vertex -11.7098 -13.005 5
      vertex -8.75 -15.1554 0
    endloop
  endfacet
  facet normal -0.406736 -0.913546 0
    outer loop
      vertex -8.75 -15.1554 5
      vertex -8.75 -15.1554 0
      vertex -5.4078 -16.6435 0
    endloop
  endfacet
  facet normal -0.406736 -0.913546 0
    outer loop
      vertex -5.4078 -16.6435 5
      vertex -8.75 -15.1554 5
      vertex -5.4078 -16.6435 0
    endloop
  endfacet
  facet normal -0.207912 -0.978148 0
    outer loop
      vertex -5.4078 -16.6435 5
      vertex -5.4078 -16.6435 0
      vertex -1.82925 -17.4041 0
    endloop
  endfacet
  facet normal -0.207912 -0.978148 0
    outer loop
      vertex -1.82925 -17.4041 5
      vertex -5.4078 -16.6435 5
      vertex -1.82925 -17.4041 0
    endloop
  endfacet
  facet normal 0 -1 0
    outer loop
      vertex -1.82925 -17.4041 5
      vertex -1.82925 -17.4041 0
      vertex 1.82925 -17.4041 0
    endloop
  endfacet
  facet normal 0 -1 0
    outer loop
      vertex 1.82925 -17.4041 5
      vertex -1.82925 -17.4041 5
      vertex 1.82925 -17.4041 0
    endloop
  endfacet
  facet normal 0.207912 -0.978148 0
    outer loop
      vertex 1.82925 -17.4041 5
      vertex 1.82925 -17.4041 0
      vertex 5.4078 -16.6435 0
    endloop
  endfacet
  facet normal 0.207912 -0.978148 0
    outer loop
      vertex 5.4078 -16.6435 5
      vertex 1.82925 -17.4041 5
      vertex 5.4078 -16.6435 0
    endloop
  endfacet
  facet normal 0.406736 -0.913546 0
    outer loop
      vertex 5.4078 -16.6435 5
      vertex 5.4078 -16.6435 0
      vertex 8.75 -15.1554 0
    endloop
  endfacet
  facet normal 0.406736 -0.913546 0
    outer loop
      vertex 8.75 -15.1554 5
      vertex 5.4078 -16.6435 5
      vertex 8.75 -15.1554 0
    endloop
  endfacet
  facet normal 0.587785 -0.809017 0
    outer loop
      vertex 8.75 -15.1554 5
      vertex 8.75 -15.1554 0
      vertex 11.7098 -13.005 0
    endloop
  endfacet
  facet normal 0.587785 -0.809017 0
    outer loop
      vertex 11.7098 -13.005 5
      vertex 8.75 -15.1554 5
      vertex 11.7098 -13.005 0
    endloop
  endfacet
  facet normal 0.743145 -0.669131 0
    outer loop
      vertex 11.7098 -13.005 5
      vertex 11.7098 -13.005 0
      vertex 14.1578 -10.2862 0
    endloop
  endfacet
  facet normal 0.743145 -0.669131 0
    outer loop
      vertex 14.1578 -10.2862 5
      vertex 11.7098 -13.005 5
      vertex 14.1578 -10.2862 0
    endloop
  endfacet
  facet normal 0.866025 -0.5 0
    outer loop
      vertex 14.1578 -10.2862 5
      vertex 14.1578 -10.2862 0
      vertex 15.987 -7.11789 0
    endloop
  endfacet
  facet normal 0.866025 -0.5 0
    outer loop
      vertex 15.987 -7.11789 5
      vertex 14.1578 -10.2862 5
      vertex 15.987 -7.11789 0
    endloop
  endfacet
  facet normal 0.951057 -0.309017 0
    outer loop
      vertex 15.987 -7.11789 5
      vertex 15.987 -7.11789 0
      vertex 16.0882 -6.80671 0
    endloop
  endfacet
  facet normal 0.951057 -0.309017 0
    outer loop
      vertex 16.0882 -6.80671 5
      vertex 15.987 -7.11789 5
      vertex 16.0882 -6.80671 0
    endloop
  endfacet
  facet normal -0.281733 -0.959493 0
    outer loop
      vertex 16.0882 -6.80671 5
      vertex 16.0882 -6.80671 0
      vertex 16.5038 -6.92875 0
    endloop
  endfacet
  facet normal -0.281733 -0.959493 0
    outer loop
      vertex 16.5038 -6.92875 5
      vertex 16.0882 -6.80671 5
      vertex 16.5038 -6.92875 0
    endloop
  endfacet
  facet normal 0 -1 0
    outer loop
      vertex 16.5038 -6.92875 5
      vertex 16.5038 -6.92875 0
      vertex 18.4962 -6.92875 0
    endloop
  endfacet
  facet normal 0 -1 0
    outer loop
      vertex 18.4962 -6.92875 5
      vertex 16.5038 -6.92875 5
      vertex 18.4962 -6.92875 0
    endloop
  endfacet
  facet normal 0.281733 -0.959493 0
    outer loop
      vertex 18.4962 -6.92875 5
      vertex 18.4962 -6.92875 0
      vertex 20.4079 -6.36742 0
    endloop
  endfacet
  facet normal 0.281733 -0.959493 0
    outer loop
      vertex 20.4079 -6.36742 5
      vertex 18.4962 -6.92875 5
      vertex 20.4079 -6.36742 0
    endloop
  endfacet
  facet normal 0.540641 -0.841254 0
    outer loop
      vertex 20.4079 -6.36742 5
      vertex 20.4079 -6.36742 0
      vertex 22.084 -5.29025 0
    endloop
  endfacet
  facet normal 0.540641 -0.841254 0
    outer loop
      vertex 22.084 -5.29025 5
      vertex 20.4079 -6.36742 5
      vertex 22.084 -5.29025 0
    endloop
  endfacet
  facet normal 0.755749 -0.654861 0
    outer loop
      vertex 22.084 -5.29025 5
      vertex 22.084 -5.29025 0
      vertex 23.3888 -3.78449 0
    endloop
  endfacet
  facet normal 0.755749 -0.654861 0
    outer loop
      vertex 23.3888 -3.78449 5
      vertex 22.084 -5.29025 5
      vertex 23.3888 -3.78449 0
    endloop
  endfacet
  facet normal 0.909632 -0.415415 0
    outer loop
      vertex 23.3888 -3.78449 5
      vertex 23.3888 -3.78449 0
      vertex 24.2165 -1.97213 0
    endloop
  endfacet
  facet normal 0.909632 -0.415415 0
    outer loop
      vertex 24.2165 -1.97213 5
      vertex 23.3888 -3.78449 5
      vertex 24.2165 -1.97213 0
    endloop
  endfacet
  facet normal 0.989821 -0.142315 0
    outer loop
      vertex 24.2165 -1.97213 5
      vertex 24.2165 -1.97213 0
      vertex 24.5 0 0
    endloop
  endfacet
  facet normal 0.989821 -0.142315 0
    outer loop
      vertex 24.5 0 5
      vertex 24.2165 -1.97213 5
      vertex 24.5 0 0
    endloop
  endfacet
  facet normal 0.989821 0.142315 0
    outer loop
      vertex 24.5 0 0
      vertex 24.2165 1.97213 0
      vertex 24.2165 1.97213 5
    endloop
  endfacet
  facet normal 0.989821 0.142315 0
    outer loop
      vertex 24.5 0 5
      vertex 24.5 0 0
      vertex 24.2165 1.97213 5
    endloop
  endfacet
  facet normal 0.909632 0.415415 0
    outer loop
      vertex 24.2165 1.97213 0
      vertex 23.3888 3.78449 0
      vertex 23.3888 3.78449 5
    endloop
  endfacet
  facet normal 0.909632 0.415415 0
    outer loop
      vertex 24.2165 1.97213 5
      vertex 24.2165 1.97213 0
      vertex 23.3888 3.78449 5
    endloop
  endfacet
  facet normal 0.755749 0.654861 0
    outer loop
      vertex 23.3888 3.78449 0
      vertex 22.084 5.29025 0
      vertex 22.084 5.29025 5
    endloop
  endfacet
  facet normal 0.755749 0.654861 0
    outer loop
      vertex 23.3888 3.78449 5
      vertex 23.3888 3.78449 0
      vertex 22.084 5.29025 5
    endloop
  endfacet
  facet normal 0.540641 0.841254 0
    outer loop
      vertex 20.4079 6.36742 0
      vertex 20.4079 6.36742 5
      vertex 22.084 5.29025 0
    endloop
  endfacet
  facet normal 0.540641 0.841254 0
    outer loop
      vertex 22.084 5.29025 0
      vertex 20.4079 6.36742 5
      vertex 22.084 5.29025 5
    endloop
  endfacet
  facet normal 0.281733 0.959493 0
    outer loop
      vertex 18.4962 6.92875 0
      vertex 18.4962 6.92875 5
      vertex 20.4079 6.36742 0
    endloop
  endfacet
  facet normal 0.281733 0.959493 0
    outer loop
      vertex 20.4079 6.36742 0
      vertex 18.4962 6.92875 5
      vertex 20.4079 6.36742 5
    endloop
  endfacet
  facet normal 0 1 0
    outer loop
      vertex 16.5038 6.92875 0
      vertex 16.5038 6.92875 5
      vertex 18.4962 6.92875 0
    endloop
  endfacet
  facet normal 0 1 0
    outer loop
      vertex 18.4962 6.92875 0
      vertex 16.5038 6.92875 5
      vertex 18.4962 6.92875 5
    endloop
  endfacet
  facet normal -0.281733 0.959493 0
    outer loop
      vertex 16.0882 6.80671 0
      vertex 16.0882 6.80671 5
      vertex 16.5038 6.92875 0
    endloop
  endfacet
  facet normal -0.281733 0.959493 0
    outer loop
      vertex 16.5038 6.92875 0
      vertex 16.0882 6.80671 5
      vertex 16.5038 6.92875 5
    endloop
  endfacet
  facet normal 0.951057 0.309017 0
    outer loop
      vertex 16.0882 6.80671 0
      vertex 15.987 7.11789 0
      vertex 15.987 7.11789 5
    endloop
  endfacet
  facet normal 0.951057 0.309017 0
    outer loop
      vertex 16.0882 6.80671 5
      vertex 16.0882 6.80671 0
      vertex 15.987 7.11789 5
    endloop
  endfacet
  facet normal 0.866025 0.5 0
    outer loop
      vertex 15.987 7.11789 0
      vertex 14.1578 10.2862 0
      vertex 14.1578 10.2862 5
    endloop
  endfacet
  facet normal 0.866025 0.5 0
    outer loop
      vertex 15.987 7.11789 5
      vertex 15.987 7.11789 0
      vertex 14.1578 10.2862 5
    endloop
  endfacet
  facet normal 0.743145 0.669131 0
    outer loop
      vertex 14.1578 10.2862 0
      vertex 11.7098 13.005 0
      vertex 11.7098 13.005 5
    endloop
  endfacet
  facet normal 0.743145 0.669131 0
    outer loop
      vertex 14.1578 10.2862 5
      vertex 14.1578 10.2862 0
      vertex 11.7098 13.005 5
    endloop
  endfacet
  facet normal 0.587785 0.809017 0
    outer loop
      vertex 8.75 15.1554 0
      vertex 8.75 15.1554 5
      vertex 11.7098 13.005 0
    endloop
  endfacet
  facet normal 0.587785 0.809017 0
    outer loop
      vertex 11.7098 13.005 0
      vertex 8.75 15.1554 5
      vertex 11.7098 13.005 5
    endloop
  endfacet
  facet normal 0.406736 0.913546 0
    outer loop
      vertex 5.4078 16.6435 0
      vertex 5.4078 16.6435 5
      vertex 8.75 15.1554 0
    endloop
  endfacet
  facet normal 0.406736 0.913546 0
    outer loop
      vertex 8.75 15.1554 0
      vertex 5.4078 16.6435 5
      vertex 8.75 15.1554 5
    endloop
  endfacet
  facet normal 0.207912 0.978148 0
    outer loop
      vertex 1.82925 17.4041 0
      vertex 1.82925 17.4041 5
      vertex 5.4078 16.6435 0
    endloop
  endfacet
  facet normal 0.207912 0.978148 0
    outer loop
      vertex 5.4078 16.6435 0
      vertex 1.82925 17.4041 5
      vertex 5.4078 16.6435 5
    endloop
  endfacet
  facet normal 0 1 0
    outer loop
      vertex -1.82925 17.4041 0
      vertex -1.82925 17.4041 5
      vertex 1.82925 17.4041 0
    endloop
  endfacet
  facet normal 0 1 0
    outer loop
      vertex 1.82925 17.4041 0
      vertex -1.82925 17.4041 5
      vertex 1.82925 17.4041 5
    endloop
  endfacet
  facet normal -0.207912 0.978148 0
    outer loop
      vertex -5.4078 16.6435 0
      vertex -5.4078 16.6435 5
      vertex -1.82925 17.4041 0
    endloop
  endfacet
  facet normal -0.207912 0.978148 0
    outer loop
      vertex -1.82925 17.4041 0
      vertex -5.4078 16.6435 5
      vertex -1.82925 17.4041 5
    endloop
  endfacet
  facet normal -0.406736 0.913546 0
    outer loop
      vertex -8.75 15.1554 0
      vertex -8.75 15.1554 5
      vertex -5.4078 16.6435 0
    endloop
  endfacet
  facet normal -0.406736 0.913546 0
    outer loop
      vertex -5.4078 16.6435 0
      vertex -8.75 15.1554 5
      vertex -5.4078 16.6435 5
    endloop
  endfacet
  facet normal -0.587785 0.809017 0
    outer loop
      vertex -11.7098 13.005 0
      vertex -11.7098 13.005 5
      vertex -8.75 15.1554 0
    endloop
  endfacet
  facet normal -0.587785 0.809017 0
    outer loop
      vertex -8.75 15.1554 0
      vertex -11.7098 13.005 5
      vertex -8.75 15.1554 5
    endloop
  endfacet
  facet normal -0.743145 0.669131 0
    outer loop
      vertex -14.1578 10.2862 0
      vertex -14.1578 10.2862 5
      vertex -11.7098 13.005 0
    endloop
  endfacet
  facet normal -0.743145 0.669131 0
    outer loop
      vertex -11.7098 13.005 0
      vertex -14.1578 10.2862 5
      vertex -11.7098 13.005 5
    endloop
  endfacet
  facet normal -0.866025 0.5 0
    outer loop
      vertex -15.987 7.11789 0
      vertex -15.987 7.11789 5
      vertex -14.1578 10.2862 0
    endloop
  endfacet
  facet normal -0.866025 0.5 0
    outer loop
      vertex -14.1578 10.2862 0
      vertex -15.987 7.11789 5
      vertex -14.1578 10.2862 5
    endloop
  endfacet
  facet normal -0.951057 0.309017 0
    outer loop
      vertex -16.0882 6.80671 0
      vertex -16.0882 6.80671 5
      vertex -15.987 7.11789 0
    endloop
  endfacet
  facet normal -0.951057 0.309017 0
    outer loop
      vertex -15.987 7.11789 0
      vertex -16.0882 6.80671 5
      vertex -15.987 7.11789 5
    endloop
  endfacet
  facet normal 0.281733 0.959493 0
    outer loop
      vertex -16.5038 6.92875 0
      vertex -16.5038 6.92875 5
      vertex -16.0882 6.80671 0
    endloop
  endfacet
  facet normal 0.281733 0.959493 0
    outer loop
      vertex -16.0882 6.80671 0
      vertex -16.5038 6.92875 5
      vertex -16.0882 6.80671 5
    endloop
  endfacet
  facet normal 0 1 0
    outer loop
      vertex -18.4962 6.92875 0
      vertex -18.4962 6.92875 5
      vertex -16.5038 6.92875 0
    endloop
  endfacet
  facet normal 0 1 0
    outer loop
      vertex -16.5038 6.92875 0
      vertex -18.4962 6.92875 5
      vertex -16.5038 6.92875 5
    endloop
  endfacet
  facet normal -0.281733 0.959493 0
    outer loop
      vertex -20.4079 6.36742 0
      vertex -20.4079 6.36742 5
      vertex -18.4962 6.92875 0
    endloop
  endfacet
  facet normal -0.281733 0.959493 0
    outer loop
      vertex -18.4962 6.92875 0
      vertex -20.4079 6.36742 5
      vertex -18.4962 6.92875 5
    endloop
  endfacet
  facet normal -0.540641 0.841254 0
    outer loop
      vertex -22.084 5.29025 0
      vertex -22.084 5.29025 5
      vertex -20.4079 6.36742 0
    endloop
  endfacet
  facet normal -0.540641 0.841254 0
    outer loop
      vertex -20.4079 6.36742 0
      vertex -22.084 5.29025 5
      vertex -20.4079 6.36742 5
    endloop
  endfacet
  facet normal -0.755749 0.654861 0
    outer loop
      vertex -23.3888 3.78449 0
      vertex -23.3888 3.78449 5
      vertex -22.084 5.29025 0
    endloop
  endfacet
  facet normal -0.755749 0.654861 0
    outer loop
      vertex -22.084 5.29025 0
      vertex -23.3888 3.78449 5
      vertex -22.084 5.29025 5
    endloop
  endfacet
  facet normal -0.909632 0.415415 0
    outer loop
      vertex -24.2165 1.97213 0
      vertex -24.2165 1.97213 5
      vertex -23.3888 3.78449 0
    endloop
  endfacet
  facet normal -0.909632 0.415415 0
    outer loop
      vertex -23.3888 3.78449 0
      vertex -24.2165 1.97213 5
      vertex -23.3888 3.78449 5
    endloop
  endfacet
  facet normal 0.945817 -0.324699 0
    outer loop
      vertex -22.7768 2.85568 0
      vertex -22.7768 2.85568 5
      vertex -23.4182 0.987568 5
    endloop
  endfacet
  facet normal 0.945817 -0.324699 0
    outer loop
      vertex -23.4182 0.987568 0
      vertex -22.7768 2.85568 0
      vertex -23.4182 0.987568 5
    endloop
  endfacet
  facet normal 1 0 0
    outer loop
      vertex -23.4182 0.987568 0
      vertex -23.4182 0.987568 5
      vertex -23.4182 -0.987568 5
    endloop
  endfacet
  facet normal 1 0 0
    outer loop
      vertex -23.4182 -0.987568 0
      vertex -23.4182 0.987568 0
      vertex -23.4182 -0.987568 5
    endloop
  endfacet
  facet normal 0.78914 -0.614213 0
    outer loop
      vertex -21.5637 4.41434 0
      vertex -21.5637 4.41434 5
      vertex -22.7768 2.85568 5
    endloop
  endfacet
  facet normal 0.78914 -0.614213 0
    outer loop
      vertex -22.7768 2.85568 0
      vertex -21.5637 4.41434 0
      vertex -22.7768 2.85568 5
    endloop
  endfacet
  facet normal 0.546949 -0.837166 0
    outer loop
      vertex -19.9102 5.49464 0
      vertex -19.9102 5.49464 5
      vertex -21.5637 4.41434 5
    endloop
  endfacet
  facet normal 0.546949 -0.837166 0
    outer loop
      vertex -21.5637 4.41434 0
      vertex -19.9102 5.49464 0
      vertex -21.5637 4.41434 5
    endloop
  endfacet
  facet normal 0.245485 -0.9694 0
    outer loop
      vertex -17.9955 5.97951 0
      vertex -17.9955 5.97951 5
      vertex -19.9102 5.49464 5
    endloop
  endfacet
  facet normal 0.245485 -0.9694 0
    outer loop
      vertex -19.9102 5.49464 0
      vertex -17.9955 5.97951 0
      vertex -19.9102 5.49464 5
    endloop
  endfacet
  facet normal -0.0825792 -0.996585 0
    outer loop
      vertex -16.0271 5.8164 0
      vertex -16.0271 5.8164 5
      vertex -17.9955 5.97951 5
    endloop
  endfacet
  facet normal -0.0825792 -0.996585 0
    outer loop
      vertex -17.9955 5.97951 0
      vertex -16.0271 5.8164 0
      vertex -17.9955 5.97951 5
    endloop
  endfacet
  facet normal -0.401696 -0.915773 0
    outer loop
      vertex -14.2183 5.023 0
      vertex -14.2183 5.023 5
      vertex -16.0271 5.8164 5
    endloop
  endfacet
  facet normal -0.401696 -0.915773 0
    outer loop
      vertex -16.0271 5.8164 0
      vertex -14.2183 5.023 0
      vertex -16.0271 5.8164 5
    endloop
  endfacet
  facet normal -0.677282 -0.735724 0
    outer loop
      vertex -12.7652 3.68528 0
      vertex -12.7652 3.68528 5
      vertex -14.2183 5.023 5
    endloop
  endfacet
  facet normal -0.677282 -0.735724 0
    outer loop
      vertex -14.2183 5.023 0
      vertex -12.7652 3.68528 0
      vertex -14.2183 5.023 5
    endloop
  endfacet
  facet normal -0.879474 -0.475947 0
    outer loop
      vertex -11.8251 1.9482 5
      vertex -12.7652 3.68528 5
      vertex -11.8251 1.9482 0
    endloop
  endfacet
  facet normal -0.879474 -0.475947 0
    outer loop
      vertex -11.8251 1.9482 0
      vertex -12.7652 3.68528 5
      vertex -12.7652 3.68528 0
    endloop
  endfacet
  facet normal -0.986361 -0.164595 0
    outer loop
      vertex -11.5 0 5
      vertex -11.8251 1.9482 5
      vertex -11.5 0 0
    endloop
  endfacet
  facet normal -0.986361 -0.164595 0
    outer loop
      vertex -11.5 0 0
      vertex -11.8251 1.9482 5
      vertex -11.8251 1.9482 0
    endloop
  endfacet
  facet normal -0.986361 0.164595 0
    outer loop
      vertex -11.5 0 5
      vertex -11.5 0 0
      vertex -11.8251 -1.9482 5
    endloop
  endfacet
  facet normal -0.986361 0.164595 0
    outer loop
      vertex -11.8251 -1.9482 5
      vertex -11.5 0 0
      vertex -11.8251 -1.9482 0
    endloop
  endfacet
  facet normal -0.879474 0.475947 0
    outer loop
      vertex -11.8251 -1.9482 5
      vertex -11.8251 -1.9482 0
      vertex -12.7652 -3.68528 5
    endloop
  endfacet
  facet normal -0.879474 0.475947 0
    outer loop
      vertex -12.7652 -3.68528 5
      vertex -11.8251 -1.9482 0
      vertex -12.7652 -3.68528 0
    endloop
  endfacet
  facet normal -0.677282 0.735724 0
    outer loop
      vertex -12.7652 -3.68528 5
      vertex -12.7652 -3.68528 0
      vertex -14.2183 -5.023 5
    endloop
  endfacet
  facet normal -0.677282 0.735724 0
    outer loop
      vertex -14.2183 -5.023 5
      vertex -12.7652 -3.68528 0
      vertex -14.2183 -5.023 0
    endloop
  endfacet
  facet normal -0.401696 0.915773 0
    outer loop
      vertex -14.2183 -5.023 5
      vertex -14.2183 -5.023 0
      vertex -16.0271 -5.8164 5
    endloop
  endfacet
  facet normal -0.401696 0.915773 0
    outer loop
      vertex -16.0271 -5.8164 5
      vertex -14.2183 -5.023 0
      vertex -16.0271 -5.8164 0
    endloop
  endfacet
  facet normal -0.0825792 0.996585 0
    outer loop
      vertex -16.0271 -5.8164 5
      vertex -16.0271 -5.8164 0
      vertex -17.9955 -5.97951 5
    endloop
  endfacet
  facet normal -0.0825792 0.996585 0
    outer loop
      vertex -17.9955 -5.97951 5
      vertex -16.0271 -5.8164 0
      vertex -17.9955 -5.97951 0
    endloop
  endfacet
  facet normal 0.245485 0.9694 0
    outer loop
      vertex -17.9955 -5.97951 5
      vertex -17.9955 -5.97951 0
      vertex -19.9102 -5.49464 5
    endloop
  endfacet
  facet normal 0.245485 0.9694 0
    outer loop
      vertex -19.9102 -5.49464 5
      vertex -17.9955 -5.97951 0
      vertex -19.9102 -5.49464 0
    endloop
  endfacet
  facet normal 0.546949 0.837166 0
    outer loop
      vertex -19.9102 -5.49464 5
      vertex -19.9102 -5.49464 0
      vertex -21.5637 -4.41434 5
    endloop
  endfacet
  facet normal 0.546949 0.837166 0
    outer loop
      vertex -21.5637 -4.41434 5
      vertex -19.9102 -5.49464 0
      vertex -21.5637 -4.41434 0
    endloop
  endfacet
  facet normal 0.78914 0.614213 0
    outer loop
      vertex -22.7768 -2.85568 5
      vertex -21.5637 -4.41434 5
      vertex -21.5637 -4.41434 0
    endloop
  endfacet
  facet normal 0.78914 0.614213 0
    outer loop
      vertex -22.7768 -2.85568 0
      vertex -22.7768 -2.85568 5
      vertex -21.5637 -4.41434 0
    endloop
  endfacet
  facet normal 0.945817 0.324699 0
    outer loop
      vertex -23.4182 -0.987568 5
      vertex -22.7768 -2.85568 5
      vertex -22.7768 -2.85568 0
    endloop
  endfacet
  facet normal 0.945817 0.324699 0
    outer loop
      vertex -23.4182 -0.987568 0
      vertex -23.4182 -0.987568 5
      vertex -22.7768 -2.85568 0
    endloop
  endfacet
  facet normal 1 0 0
    outer loop
      vertex -1.80194 0.867767 0
      vertex -1.80194 0.867767 5
      vertex -1.80194 -0.867767 5
    endloop
  endfacet
  facet normal 1 0 0
    outer loop
      vertex -1.80194 -0.867767 0
      vertex -1.80194 0.867767 0
      vertex -1.80194 -0.867767 5
    endloop
  endfacet
  facet normal 0.62349 -0.781831 0
    outer loop
      vertex -0.445042 1.94986 0
      vertex -0.445042 1.94986 5
      vertex -1.80194 0.867767 5
    endloop
  endfacet
  facet normal 0.62349 -0.781831 0
    outer loop
      vertex -1.80194 0.867767 0
      vertex -0.445042 1.94986 0
      vertex -1.80194 0.867767 5
    endloop
  endfacet
  facet normal -0.222521 -0.974928 0
    outer loop
      vertex 1.24698 1.56366 0
      vertex 1.24698 1.56366 5
      vertex -0.445042 1.94986 5
    endloop
  endfacet
  facet normal -0.222521 -0.974928 0
    outer loop
      vertex -0.445042 1.94986 0
      vertex 1.24698 1.56366 0
      vertex -0.445042 1.94986 5
    endloop
  endfacet
  facet normal -0.900969 -0.433884 0
    outer loop
      vertex 2 0 5
      vertex 1.24698 1.56366 5
      vertex 2 0 0
    endloop
  endfacet
  facet normal -0.900969 -0.433884 0
    outer loop
      vertex 2 0 0
      vertex 1.24698 1.56366 5
      vertex 1.24698 1.56366 0
    endloop
  endfacet
  facet normal -0.900969 0.433884 0
    outer loop
      vertex 2 0 5
      vertex 2 0 0
      vertex 1.24698 -1.56366 5
    endloop
  endfacet
  facet normal -0.900969 0.433884 0
    outer loop
      vertex 1.24698 -1.56366 5
      vertex 2 0 0
      vertex 1.24698 -1.56366 0
    endloop
  endfacet
  facet normal -0.222521 0.974928 0
    outer loop
      vertex 1.24698 -1.56366 5
      vertex 1.24698 -1.56366 0
      vertex -0.445042 -1.94986 5
    endloop
  endfacet
  facet normal -0.222521 0.974928 0
    outer loop
      vertex -0.445042 -1.94986 5
      vertex 1.24698 -1.56366 0
      vertex -0.445042 -1.94986 0
    endloop
  endfacet
  facet normal 0.62349 0.781831 0
    outer loop
      vertex -0.445042 -1.94986 5
      vertex -0.445042 -1.94986 0
      vertex -1.80194 -0.867767 5
    endloop
  endfacet
  facet normal 0.62349 0.781831 0
    outer loop
      vertex -1.80194 -0.867767 5
      vertex -0.445042 -1.94986 0
      vertex -1.80194 -0.867767 0
    endloop
  endfacet
  facet normal 0.945817 -0.324699 0
    outer loop
      vertex 12.2232 2.85568 0
      vertex 12.2232 2.85568 5
      vertex 11.5818 0.987568 5
    endloop
  endfacet
  facet normal 0.945817 -0.324699 0
    outer loop
      vertex 11.5818 0.987568 0
      vertex 12.2232 2.85568 0
      vertex 11.5818 0.987568 5
    endloop
  endfacet
  facet normal 1 0 0
    outer loop
      vertex 11.5818 0.987568 0
      vertex 11.5818 0.987568 5
      vertex 11.5818 -0.987568 5
    endloop
  endfacet
  facet normal 1 0 0
    outer loop
      vertex 11.5818 -0.987568 0
      vertex 11.5818 0.987568 0
      vertex 11.5818 -0.987568 5
    endloop
  endfacet
  facet normal 0.78914 -0.614213 0
    outer loop
      vertex 13.4363 4.41434 0
      vertex 13.4363 4.41434 5
      vertex 12.2232 2.85568 5
    endloop
  endfacet
  facet normal 0.78914 -0.614213 0
    outer loop
      vertex 12.2232 2.85568 0
      vertex 13.4363 4.41434 0
      vertex 12.2232 2.85568 5
    endloop
  endfacet
  facet normal 0.546949 -0.837166 0
    outer loop
      vertex 15.0898 5.49464 0
      vertex 15.0898 5.49464 5
      vertex 13.4363 4.41434 5
    endloop
  endfacet
  facet normal 0.546949 -0.837166 0
    outer loop
      vertex 13.4363 4.41434 0
      vertex 15.0898 5.49464 0
      vertex 13.4363 4.41434 5
    endloop
  endfacet
  facet normal 0.245485 -0.9694 0
    outer loop
      vertex 17.0045 5.97951 0
      vertex 17.0045 5.97951 5
      vertex 15.0898 5.49464 5
    endloop
  endfacet
  facet normal 0.245485 -0.9694 0
    outer loop
      vertex 15.0898 5.49464 0
      vertex 17.0045 5.97951 0
      vertex 15.0898 5.49464 5
    endloop
  endfacet
  facet normal -0.0825792 -0.996585 0
    outer loop
      vertex 18.9729 5.8164 0
      vertex 18.9729 5.8164 5
      vertex 17.0045 5.97951 5
    endloop
  endfacet
  facet normal -0.0825792 -0.996585 0
    outer loop
      vertex 17.0045 5.97951 0
      vertex 18.9729 5.8164 0
      vertex 17.0045 5.97951 5
    endloop
  endfacet
  facet normal -0.401696 -0.915773 0
    outer loop
      vertex 20.7817 5.023 0
      vertex 20.7817 5.023 5
      vertex 18.9729 5.8164 5
    endloop
  endfacet
  facet normal -0.401696 -0.915773 0
    outer loop
      vertex 18.9729 5.8164 0
      vertex 20.7817 5.023 0
      vertex 18.9729 5.8164 5
    endloop
  endfacet
  facet normal -0.677282 -0.735724 0
    outer loop
      vertex 22.2348 3.68528 0
      vertex 22.2348 3.68528 5
      vertex 20.7817 5.023 5
    endloop
  endfacet
  facet normal -0.677282 -0.735724 0
    outer loop
      vertex 20.7817 5.023 0
      vertex 22.2348 3.68528 0
      vertex 20.7817 5.023 5
    endloop
  endfacet
  facet normal -0.879474 -0.475947 0
    outer loop
      vertex 23.1749 1.9482 5
      vertex 22.2348 3.68528 5
      vertex 23.1749 1.9482 0
    endloop
  endfacet
  facet normal -0.879474 -0.475947 0
    outer loop
      vertex 23.1749 1.9482 0
      vertex 22.2348 3.68528 5
      vertex 22.2348 3.68528 0
    endloop
  endfacet
  facet normal -0.986361 -0.164595 0
    outer loop
      vertex 23.5 0 5
      vertex 23.1749 1.9482 5
      vertex 23.5 0 0
    endloop
  endfacet
  facet normal -0.986361 -0.164595 0
    outer loop
      vertex 23.5 0 0
      vertex 23.1749 1.9482 5
      vertex 23.1749 1.9482 0
    endloop
  endfacet
  facet normal -0.986361 0.164595 0
    outer loop
      vertex 23.5 0 5
      vertex 23.5 0 0
      vertex 23.1749 -1.9482 5
    endloop
  endfacet
  facet normal -0.986361 0.164595 0
    outer loop
      vertex 23.1749 -1.9482 5
      vertex 23.5 0 0
      vertex 23.1749 -1.9482 0
    endloop
  endfacet
  facet normal -0.879474 0.475947 0
    outer loop
      vertex 23.1749 -1.9482 5
      vertex 23.1749 -1.9482 0
      vertex 22.2348 -3.68528 5
    endloop
  endfacet
  facet normal -0.879474 0.475947 0
    outer loop
      vertex 22.2348 -3.68528 5
      vertex 23.1749 -1.9482 0
      vertex 22.2348 -3.68528 0
    endloop
  endfacet
  facet normal -0.677282 0.735724 0
    outer loop
      vertex 22.2348 -3.68528 5
      vertex 22.2348 -3.68528 0
      vertex 20.7817 -5.023 5
    endloop
  endfacet
  facet normal -0.677282 0.735724 0
    outer loop
      vertex 20.7817 -5.023 5
      vertex 22.2348 -3.68528 0
      vertex 20.7817 -5.023 0
    endloop
  endfacet
  facet normal -0.401696 0.915773 0
    outer loop
      vertex 20.7817 -5.023 5
      vertex 20.7817 -5.023 0
      vertex 18.9729 -5.8164 5
    endloop
  endfacet
  facet normal -0.401696 0.915773 0
    outer loop
      vertex 18.9729 -5.8164 5
      vertex 20.7817 -5.023 0
      vertex 18.9729 -5.8164 0
    endloop
  endfacet
  facet normal -0.0825792 0.996585 0
    outer loop
      vertex 18.9729 -5.8164 5
      vertex 18.9729 -5.8164 0
      vertex 17.0045 -5.97951 5
    endloop
  endfacet
  facet normal -0.0825792 0.996585 0
    outer loop
      vertex 17.0045 -5.97951 5
      vertex 18.9729 -5.8164 0
      vertex 17.0045 -5.97951 0
    endloop
  endfacet
  facet normal 0.245485 0.9694 0
    outer loop
      vertex 17.0045 -5.97951 5
      vertex 17.0045 -5.97951 0
      vertex 15.0898 -5.49464 5
    endloop
  endfacet
  facet normal 0.245485 0.9694 0
    outer loop
      vertex 15.0898 -5.49464 5
      vertex 17.0045 -5.97951 0
      vertex 15.0898 -5.49464 0
    endloop
  endfacet
  facet normal 0.546949 0.837166 0
    outer loop
      vertex 15.0898 -5.49464 5
      vertex 15.0898 -5.49464 0
      vertex 13.4363 -4.41434 5
    endloop
  endfacet
  facet normal 0.546949 0.837166 0
    outer loop
      vertex 13.4363 -4.41434 5
      vertex 15.0898 -5.49464 0
      vertex 13.4363 -4.41434 0
    endloop
  endfacet
  facet normal 0.78914 0.614213 0
    outer loop
      vertex 12.2232 -2.85568 5
      vertex 13.4363 -4.41434 5
      vertex 13.4363 -4.41434 0
    endloop
  endfacet
  facet normal 0.78914 0.614213 0
    outer loop
      vertex 12.2232 -2.85568 0
      vertex 12.2232 -2.85568 5
      vertex 13.4363 -4.41434 0
    endloop
  endfacet
  facet normal 0.945817 0.324699 0
    outer loop
      vertex 11.5818 -0.987568 5
      vertex 12.2232 -2.85568 5
      vertex 12.2232 -2.85568 0
    endloop
  endfacet
  facet normal 0.945817 0.324699 0
    outer loop
      vertex 11.5818 -0.987568 0
      vertex 11.5818 -0.987568 5
      vertex 12.2232 -2.85568 0
    endloop
  endfacet
  facet normal 0 0 1
    outer loop
      vertex -24.2165 1.97213 5
      vertex -24.5 0 5
      vertex -24.2165 -1.97213 5
    endloop
  endfacet
  facet normal 0 0 1
    outer loop
      vertex -23.4182 -0.987568 5
      vertex -24.2165 1.97213 5
      vertex -23.3888 -3.78449 5
    endloop
  endfacet
  facet normal 0 0 1
    outer loop
      vertex -23.3888 -3.78449 5
      vertex -24.2165 1.97213 5
      vertex -24.2165 -1.97213 5
    endloop
  endfacet
  facet normal 0 0 1
    outer loop
      vertex -16.0882 6.80671 5
      vertex 5.4078 16.6435 5
      vertex 1.82925 17.4041 5
    endloop
  endfacet
  facet normal 0 0 1
    outer loop
      vertex -14.1578 -10.2862 5
      vertex -16.0882 -6.80671 5
      vertex -15.987 -7.11789 5
    endloop
  endfacet
  facet normal 0 0 1
    outer loop
      vertex -11.7098 -13.005 5
      vertex -16.0882 -6.80671 5
      vertex -14.1578 -10.2862 5
    endloop
  endfacet
  facet normal 0 0 1
    outer loop
      vertex -8.75 -15.1554 5
      vertex -16.0882 -6.80671 5
      vertex -11.7098 -13.005 5
    endloop
  endfacet
  facet normal 0 0 1
    outer loop
      vertex -5.4078 -16.6435 5
      vertex -16.0882 -6.80671 5
      vertex -8.75 -15.1554 5
    endloop
  endfacet
  facet normal 0 0 1
    outer loop
      vertex 18.4962 -6.92875 5
      vertex 16.0882 -6.80671 5
      vertex 16.5038 -6.92875 5
    endloop
  endfacet
  facet normal 0 0 1
    outer loop
      vertex 16.5038 6.92875 5
      vertex 16.0882 6.80671 5
      vertex 18.4962 6.92875 5
    endloop
  endfacet
  facet normal 0 0 1
    outer loop
      vertex 22.2348 3.68528 5
      vertex 23.1749 1.9482 5
      vertex 24.2165 1.97213 5
    endloop
  endfacet
  facet normal 0 0 1
    outer loop
      vertex -22.7768 2.85568 5
      vertex -21.5637 4.41434 5
      vertex -24.2165 1.97213 5
    endloop
  endfacet
  facet normal 0 0 1
    outer loop
      vertex -16.5038 6.92875 5
      vertex -19.9102 5.49464 5
      vertex -17.9955 5.97951 5
    endloop
  endfacet
  facet normal 0 0 1
    outer loop
      vertex -22.7768 -2.85568 5
      vertex -23.4182 -0.987568 5
      vertex -22.084 -5.29025 5
    endloop
  endfacet
  facet normal 0 0 1
    outer loop
      vertex -8.75 15.1554 5
      vertex -14.1578 10.2862 5
      vertex -5.4078 16.6435 5
    endloop
  endfacet
  facet normal 0 0 1
    outer loop
      vertex -16.0882 6.80671 5
      vertex -16.0271 5.8164 5
      vertex 5.4078 16.6435 5
    endloop
  endfacet
  facet normal 0 0 1
    outer loop
      vertex -1.82925 17.4041 5
      vertex -15.987 7.11789 5
      vertex 1.82925 17.4041 5
    endloop
  endfacet
  facet normal 0 0 1
    outer loop
      vertex -15.987 7.11789 5
      vertex -16.0882 6.80671 5
      vertex 1.82925 17.4041 5
    endloop
  endfacet
  facet normal 0 0 1
    outer loop
      vertex -21.5637 4.41434 5
      vertex -19.9102 5.49464 5
      vertex -18.4962 6.92875 5
    endloop
  endfacet
  facet normal 0 0 1
    outer loop
      vertex -17.9955 5.97951 5
      vertex -16.0271 5.8164 5
      vertex -16.0882 6.80671 5
    endloop
  endfacet
  facet normal 0 0 1
    outer loop
      vertex -18.4962 6.92875 5
      vertex -20.4079 6.36742 5
      vertex -21.5637 4.41434 5
    endloop
  endfacet
  facet normal 0 0 1
    outer loop
      vertex 13.4363 -4.41434 5
      vertex 1.24698 -1.56366 5
      vertex -0.445042 -1.94986 5
    endloop
  endfacet
  facet normal 0 0 1
    outer loop
      vertex -22.084 5.29025 5
      vertex -24.2165 1.97213 5
      vertex -20.4079 6.36742 5
    endloop
  endfacet
  facet normal 0 0 1
    outer loop
      vertex -23.3888 3.78449 5
      vertex -24.2165 1.97213 5
      vertex -22.084 5.29025 5
    endloop
  endfacet
  facet normal 0 0 1
    outer loop
      vertex -22.084 -5.29025 5
      vertex -23.4182 -0.987568 5
      vertex -23.3888 -3.78449 5
    endloop
  endfacet
  facet normal 0 0 1
    outer loop
      vertex -19.9102 -5.49464 5
      vertex -21.5637 -4.41434 5
      vertex -20.4079 -6.36742 5
    endloop
  endfacet
  facet normal 0 0 1
    outer loop
      vertex -16.5038 6.92875 5
      vertex -18.4962 6.92875 5
      vertex -19.9102 5.49464 5
    endloop
  endfacet
  facet normal 0 0 1
    outer loop
      vertex -17.9955 5.97951 5
      vertex -16.0882 6.80671 5
      vertex -16.5038 6.92875 5
    endloop
  endfacet
  facet normal 0 0 1
    outer loop
      vertex -20.4079 6.36742 5
      vertex -24.2165 1.97213 5
      vertex -21.5637 4.41434 5
    endloop
  endfacet
  facet normal 0 0 1
    outer loop
      vertex -23.4182 -0.987568 5
      vertex -23.4182 0.987568 5
      vertex -24.2165 1.97213 5
    endloop
  endfacet
  facet normal 0 0 1
    outer loop
      vertex 17.0045 5.97951 5
      vertex 18.9729 5.8164 5
      vertex 20.4079 6.36742 5
    endloop
  endfacet
  facet normal 0 0 1
    outer loop
      vertex -16.0271 5.8164 5
      vertex -14.2183 5.023 5
      vertex 11.7098 13.005 5
    endloop
  endfacet
  facet normal 0 0 1
    outer loop
      vertex 5.4078 16.6435 5
      vertex -16.0271 5.8164 5
      vertex 8.75 15.1554 5
    endloop
  endfacet
  facet normal 0 0 1
    outer loop
      vertex 11.7098 13.005 5
      vertex -14.2183 5.023 5
      vertex 14.1578 10.2862 5
    endloop
  endfacet
  facet normal 0 0 1
    outer loop
      vertex 13.4363 4.41434 5
      vertex 15.0898 5.49464 5
      vertex -12.7652 3.68528 5
    endloop
  endfacet
  facet normal 0 0 1
    outer loop
      vertex 14.1578 10.2862 5
      vertex -12.7652 3.68528 5
      vertex 15.987 7.11789 5
    endloop
  endfacet
  facet normal 0 0 1
    outer loop
      vertex 12.2232 2.85568 5
      vertex 13.4363 4.41434 5
      vertex -12.7652 3.68528 5
    endloop
  endfacet
  facet normal 0 0 1
    outer loop
      vertex 23.5 0 5
      vertex 23.1749 -1.9482 5
      vertex 24.2165 -1.97213 5
    endloop
  endfacet
  facet normal 0 0 1
    outer loop
      vertex -1.80194 -0.867767 5
      vertex -1.80194 0.867767 5
      vertex -11.8251 1.9482 5
    endloop
  endfacet
  facet normal 0 0 1
    outer loop
      vertex 15.987 -7.11789 5
      vertex -11.8251 -1.9482 5
      vertex 14.1578 -10.2862 5
    endloop
  endfacet
  facet normal 0 0 1
    outer loop
      vertex 11.7098 -13.005 5
      vertex -12.7652 -3.68528 5
      vertex 8.75 -15.1554 5
    endloop
  endfacet
  facet normal 0 0 1
    outer loop
      vertex 5.4078 -16.6435 5
      vertex -14.2183 -5.023 5
      vertex 1.82925 -17.4041 5
    endloop
  endfacet
  facet normal 0 0 1
    outer loop
      vertex -1.82925 -17.4041 5
      vertex -16.0271 -5.8164 5
      vertex -5.4078 -16.6435 5
    endloop
  endfacet
  facet normal 0 0 1
    outer loop
      vertex -16.5038 -6.92875 5
      vertex -17.9955 -5.97951 5
      vertex -18.4962 -6.92875 5
    endloop
  endfacet
  facet normal 0 0 1
    outer loop
      vertex -18.4962 -6.92875 5
      vertex -19.9102 -5.49464 5
      vertex -20.4079 -6.36742 5
    endloop
  endfacet
  facet normal 0 0 1
    outer loop
      vertex -16.0271 5.8164 5
      vertex 11.7098 13.005 5
      vertex 8.75 15.1554 5
    endloop
  endfacet
  facet normal 0 0 1
    outer loop
      vertex -20.4079 -6.36742 5
      vertex -21.5637 -4.41434 5
      vertex -22.084 -5.29025 5
    endloop
  endfacet
  facet normal 0 0 1
    outer loop
      vertex -12.7652 3.68528 5
      vertex 15.0898 5.49464 5
      vertex 17.0045 5.97951 5
    endloop
  endfacet
  facet normal 0 0 1
    outer loop
      vertex -21.5637 -4.41434 5
      vertex -22.7768 -2.85568 5
      vertex -22.084 -5.29025 5
    endloop
  endfacet
  facet normal 0 0 1
    outer loop
      vertex -14.2183 5.023 5
      vertex -12.7652 3.68528 5
      vertex 14.1578 10.2862 5
    endloop
  endfacet
  facet normal 0 0 1
    outer loop
      vertex 18.9729 5.8164 5
      vertex 20.7817 5.023 5
      vertex 22.084 5.29025 5
    endloop
  endfacet
  facet normal 0 0 1
    outer loop
      vertex 18.9729 -5.8164 5
      vertex 17.0045 -5.97951 5
      vertex 20.4079 -6.36742 5
    endloop
  endfacet
  facet normal 0 0 1
    outer loop
      vertex -0.445042 1.94986 5
      vertex 1.24698 1.56366 5
      vertex 11.5818 0.987568 5
    endloop
  endfacet
  facet normal 0 0 1
    outer loop
      vertex 23.1749 1.9482 5
      vertex 23.5 0 5
      vertex 24.5 0 5
    endloop
  endfacet
  facet normal 0 0 1
    outer loop
      vertex 20.7817 5.023 5
      vertex 22.2348 3.68528 5
      vertex 23.3888 3.78449 5
    endloop
  endfacet
  facet normal 0 0 1
    outer loop
      vertex 20.4079 6.36742 5
      vertex 18.9729 5.8164 5
      vertex 22.084 5.29025 5
    endloop
  endfacet
  facet normal 0 0 1
    outer loop
      vertex 22.084 5.29025 5
      vertex 20.7817 5.023 5
      vertex 23.3888 3.78449 5
    endloop
  endfacet
  facet normal 0 0 1
    outer loop
      vertex 23.3888 3.78449 5
      vertex 22.2348 3.68528 5
      vertex 24.2165 1.97213 5
    endloop
  endfacet
  facet normal 0 0 1
    outer loop
      vertex 24.2165 1.97213 5
      vertex 23.1749 1.9482 5
      vertex 24.5 0 5
    endloop
  endfacet
  facet normal 0 0 1
    outer loop
      vertex 20.7817 -5.023 5
      vertex 18.9729 -5.8164 5
      vertex 22.084 -5.29025 5
    endloop
  endfacet
  facet normal 0 0 1
    outer loop
      vertex 24.5 0 5
      vertex 23.5 0 5
      vertex 24.2165 -1.97213 5
    endloop
  endfacet
  facet normal 0 0 1
    outer loop
      vertex 12.2232 -2.85568 5
      vertex 2 0 5
      vertex 1.24698 -1.56366 5
    endloop
  endfacet
  facet normal 0 0 1
    outer loop
      vertex 24.2165 -1.97213 5
      vertex 23.1749 -1.9482 5
      vertex 23.3888 -3.78449 5
    endloop
  endfacet
  facet normal 0 0 1
    outer loop
      vertex 23.3888 -3.78449 5
      vertex 22.2348 -3.68528 5
      vertex 22.084 -5.29025 5
    endloop
  endfacet
  facet normal 0 0 1
    outer loop
      vertex 23.1749 -1.9482 5
      vertex 22.2348 -3.68528 5
      vertex 23.3888 -3.78449 5
    endloop
  endfacet
  facet normal 0 0 1
    outer loop
      vertex 22.2348 -3.68528 5
      vertex 20.7817 -5.023 5
      vertex 22.084 -5.29025 5
    endloop
  endfacet
  facet normal 0 0 1
    outer loop
      vertex 22.084 -5.29025 5
      vertex 18.9729 -5.8164 5
      vertex 20.4079 -6.36742 5
    endloop
  endfacet
  facet normal 0 0 1
    outer loop
      vertex 20.4079 -6.36742 5
      vertex 17.0045 -5.97951 5
      vertex 18.4962 -6.92875 5
    endloop
  endfacet
  facet normal 0 0 1
    outer loop
      vertex 15.0898 -5.49464 5
      vertex -0.445042 -1.94986 5
      vertex -11.5 0 5
    endloop
  endfacet
  facet normal 0 0 1
    outer loop
      vertex 13.4363 -4.41434 5
      vertex 12.2232 -2.85568 5
      vertex 1.24698 -1.56366 5
    endloop
  endfacet
  facet normal 0 0 1
    outer loop
      vertex 11.5818 -0.987568 5
      vertex 1.24698 1.56366 5
      vertex 2 0 5
    endloop
  endfacet
  facet normal 0 0 1
    outer loop
      vertex -11.7098 13.005 5
      vertex -14.1578 10.2862 5
      vertex -8.75 15.1554 5
    endloop
  endfacet
  facet normal 0 0 1
    outer loop
      vertex -14.1578 10.2862 5
      vertex -1.82925 17.4041 5
      vertex -5.4078 16.6435 5
    endloop
  endfacet
  facet normal 0 0 1
    outer loop
      vertex -14.1578 10.2862 5
      vertex -15.987 7.11789 5
      vertex -1.82925 17.4041 5
    endloop
  endfacet
  facet normal 0 0 1
    outer loop
      vertex -12.7652 3.68528 5
      vertex 17.0045 5.97951 5
      vertex 20.4079 6.36742 5
    endloop
  endfacet
  facet normal 0 0 1
    outer loop
      vertex -12.7652 3.68528 5
      vertex 16.0882 6.80671 5
      vertex 15.987 7.11789 5
    endloop
  endfacet
  facet normal 0 0 1
    outer loop
      vertex -12.7652 3.68528 5
      vertex 18.4962 6.92875 5
      vertex 16.0882 6.80671 5
    endloop
  endfacet
  facet normal 0 0 1
    outer loop
      vertex -12.7652 3.68528 5
      vertex 20.4079 6.36742 5
      vertex 18.4962 6.92875 5
    endloop
  endfacet
  facet normal 0 0 1
    outer loop
      vertex 11.5818 0.987568 5
      vertex 12.2232 2.85568 5
      vertex -12.7652 3.68528 5
    endloop
  endfacet
  facet normal 0 0 1
    outer loop
      vertex -11.8251 1.9482 5
      vertex -11.5 0 5
      vertex -1.80194 -0.867767 5
    endloop
  endfacet
  facet normal 0 0 1
    outer loop
      vertex -1.80194 0.867767 5
      vertex -0.445042 1.94986 5
      vertex -11.8251 1.9482 5
    endloop
  endfacet
  facet normal 0 0 1
    outer loop
      vertex 12.2232 -2.85568 5
      vertex 11.5818 -0.987568 5
      vertex 2 0 5
    endloop
  endfacet
  facet normal 0 0 1
    outer loop
      vertex 11.5818 -0.987568 5
      vertex 11.5818 0.987568 5
      vertex 1.24698 1.56366 5
    endloop
  endfacet
  facet normal 0 0 1
    outer loop
      vertex -16.0271 -5.8164 5
      vertex -17.9955 -5.97951 5
      vertex -16.5038 -6.92875 5
    endloop
  endfacet
  facet normal 0 0 1
    outer loop
      vertex 11.5818 0.987568 5
      vertex -12.7652 3.68528 5
      vertex -0.445042 1.94986 5
    endloop
  endfacet
  facet normal 0 0 1
    outer loop
      vertex -16.0271 -5.8164 5
      vertex -16.5038 -6.92875 5
      vertex -16.0882 -6.80671 5
    endloop
  endfacet
  facet normal 0 0 1
    outer loop
      vertex -11.5 0 5
      vertex -11.8251 -1.9482 5
      vertex 15.987 -7.11789 5
    endloop
  endfacet
  facet normal 0 0 1
    outer loop
      vertex -0.445042 1.94986 5
      vertex -12.7652 3.68528 5
      vertex -11.8251 1.9482 5
    endloop
  endfacet
  facet normal 0 0 1
    outer loop
      vertex 15.0898 -5.49464 5
      vertex 13.4363 -4.41434 5
      vertex -0.445042 -1.94986 5
    endloop
  endfacet
  facet normal 0 0 1
    outer loop
      vertex -11.5 0 5
      vertex 17.0045 -5.97951 5
      vertex 15.0898 -5.49464 5
    endloop
  endfacet
  facet normal 0 0 1
    outer loop
      vertex -11.5 0 5
      vertex 18.4962 -6.92875 5
      vertex 17.0045 -5.97951 5
    endloop
  endfacet
  facet normal 0 0 1
    outer loop
      vertex -11.5 0 5
      vertex 16.0882 -6.80671 5
      vertex 18.4962 -6.92875 5
    endloop
  endfacet
  facet normal 0 0 1
    outer loop
      vertex -11.5 0 5
      vertex 15.987 -7.11789 5
      vertex 16.0882 -6.80671 5
    endloop
  endfacet
  facet normal 0 0 1
    outer loop
      vertex -11.8251 -1.9482 5
      vertex -12.7652 -3.68528 5
      vertex 11.7098 -13.005 5
    endloop
  endfacet
  facet normal 0 0 1
    outer loop
      vertex -11.8251 -1.9482 5
      vertex 11.7098 -13.005 5
      vertex 14.1578 -10.2862 5
    endloop
  endfacet
  facet normal 0 0 1
    outer loop
      vertex -12.7652 -3.68528 5
      vertex -14.2183 -5.023 5
      vertex 5.4078 -16.6435 5
    endloop
  endfacet
  facet normal 0 0 1
    outer loop
      vertex -12.7652 -3.68528 5
      vertex 5.4078 -16.6435 5
      vertex 8.75 -15.1554 5
    endloop
  endfacet
  facet normal 0 0 1
    outer loop
      vertex -14.2183 -5.023 5
      vertex -16.0271 -5.8164 5
      vertex -1.82925 -17.4041 5
    endloop
  endfacet
  facet normal 0 0 1
    outer loop
      vertex -14.2183 -5.023 5
      vertex -1.82925 -17.4041 5
      vertex 1.82925 -17.4041 5
    endloop
  endfacet
  facet normal 0 0 1
    outer loop
      vertex -16.0271 -5.8164 5
      vertex -16.0882 -6.80671 5
      vertex -5.4078 -16.6435 5
    endloop
  endfacet
  facet normal 0 0 1
    outer loop
      vertex -0.445042 -1.94986 5
      vertex -1.80194 -0.867767 5
      vertex -11.5 0 5
    endloop
  endfacet
  facet normal 0 0 1
    outer loop
      vertex -17.9955 -5.97951 5
      vertex -19.9102 -5.49464 5
      vertex -18.4962 -6.92875 5
    endloop
  endfacet
  facet normal 0 0 1
    outer loop
      vertex -23.4182 0.987568 5
      vertex -22.7768 2.85568 5
      vertex -24.2165 1.97213 5
    endloop
  endfacet
endsolid OpenSCAD_Model
