solid OpenSCAD_Model
  facet normal -1 0 0
    outer loop
      vertex 0 -25 0
      vertex 0 125 40
      vertex 0 125 0
    endloop
  endfacet
  facet normal -1 -0 0
    outer loop
      vertex 0 125 40
      vertex 0 -25 0
      vertex 0 -25 40
    endloop
  endfacet
  facet normal -0 0 1
    outer loop
      vertex 10 100 30
      vertex 30 0 30
      vertex 30 100 30
    endloop
  endfacet
  facet normal 0 0 1
    outer loop
      vertex 30 0 30
      vertex 10 100 30
      vertex 10 0 30
    endloop
  endfacet
  facet normal 1 -0 0
    outer loop
      vertex 30 0 30
      vertex 30 100 10
      vertex 30 100 30
    endloop
  endfacet
  facet normal 1 0 0
    outer loop
      vertex 30 100 10
      vertex 30 0 30
      vertex 30 0 10
    endloop
  endfacet
  facet normal 0 1 -0
    outer loop
      vertex 30 100 10
      vertex 10 100 30
      vertex 30 100 30
    endloop
  endfacet
  facet normal 0 1 0
    outer loop
      vertex 10 100 30
      vertex 30 100 10
      vertex 10 100 10
    endloop
  endfacet
  facet normal 0 0 -1
    outer loop
      vertex 10 0 10
      vertex 30 100 10
      vertex 30 0 10
    endloop
  endfacet
  facet normal -0 0 -1
    outer loop
      vertex 30 100 10
      vertex 10 0 10
      vertex 10 100 10
    endloop
  endfacet
  facet normal 0 -1 0
    outer loop
      vertex 10 0 10
      vertex 30 0 30
      vertex 10 0 30
    endloop
  endfacet
  facet normal 0 -1 -0
    outer loop
      vertex 30 0 30
      vertex 10 0 10
      vertex 30 0 10
    endloop
  endfacet
  facet normal -0 0 1
    outer loop
      vertex 0 125 40
      vertex 10 -25 40
      vertex 10 125 40
    endloop
  endfacet
  facet normal 0 0 1
    outer loop
      vertex 10 -25 40
      vertex 0 125 40
      vertex 0 -25 40
    endloop
  endfacet
  facet normal 1 0 0
    outer loop
      vertex 10 125 40
      vertex 10 100 30
      vertex 10 125 0
    endloop
  endfacet
  facet normal 1 0 0
    outer loop
      vertex 10 125 40
      vertex 10 0 30
      vertex 10 100 30
    endloop
  endfacet
  facet normal 1 0 0
    outer loop
      vertex 10 0 30
      vertex 10 -25 40
      vertex 10 0 10
    endloop
  endfacet
  facet normal 1 -0 0
    outer loop
      vertex 10 -25 40
      vertex 10 0 30
      vertex 10 125 40
    endloop
  endfacet
  facet normal 1 -0 0
    outer loop
      vertex 10 100 10
      vertex 10 125 0
      vertex 10 100 30
    endloop
  endfacet
  facet normal 1 -0 0
    outer loop
      vertex 10 0 10
      vertex 10 125 0
      vertex 10 100 10
    endloop
  endfacet
  facet normal 1 0 0
    outer loop
      vertex 10 0 10
      vertex 10 -25 0
      vertex 10 125 0
    endloop
  endfacet
  facet normal 1 0 0
    outer loop
      vertex 10 -25 0
      vertex 10 0 10
      vertex 10 -25 40
    endloop
  endfacet
  facet normal 0 1 -0
    outer loop
      vertex 10 125 0
      vertex 0 125 40
      vertex 10 125 40
    endloop
  endfacet
  facet normal 0 1 0
    outer loop
      vertex 0 125 40
      vertex 10 125 0
      vertex 0 125 0
    endloop
  endfacet
  facet normal 0 0 -1
    outer loop
      vertex 0 -25 0
      vertex 10 125 0
      vertex 10 -25 0
    endloop
  endfacet
  facet normal -0 0 -1
    outer loop
      vertex 10 125 0
      vertex 0 -25 0
      vertex 0 125 0
    endloop
  endfacet
  facet normal 0 -1 0
    outer loop
      vertex 0 -25 0
      vertex 10 -25 40
      vertex 0 -25 40
    endloop
  endfacet
  facet normal 0 -1 -0
    outer loop
      vertex 10 -25 40
      vertex 0 -25 0
      vertex 10 -25 0
    endloop
  endfacet
endsolid OpenSCAD_Model
