solid OpenSCAD_Model
  facet normal 0 0 -1
    outer loop
      vertex -0.0754889 1.1984 0
      vertex 0 3.5 0
      vertex 0 1.20833 0
    endloop
  endfacet
  facet normal 0 0 -1
    outer loop
      vertex -0.905867 3.38074 0
      vertex -0.0754889 1.1984 0
      vertex -0.312739 1.16716 0
    endloop
  endfacet
  facet normal 0 0 -1
    outer loop
      vertex -0.905867 3.38074 0
      vertex -0.312739 1.16716 0
      vertex -0.533821 1.07558 0
    endloop
  endfacet
  facet normal 0 0 -1
    outer loop
      vertex -1.75 3.03109 0
      vertex -0.533821 1.07558 0
      vertex -0.604166 1.04645 0
    endloop
  endfacet
  facet normal 0 0 -1
    outer loop
      vertex -1.75 3.03109 0
      vertex -0.604166 1.04645 0
      vertex -0.794014 0.900772 0
    endloop
  endfacet
  facet normal 0 0 -1
    outer loop
      vertex -2.47487 2.47487 0
      vertex -0.794014 0.900772 0
      vertex -0.85442 0.85442 0
    endloop
  endfacet
  facet normal 0 0 -1
    outer loop
      vertex -2.47487 2.47487 0
      vertex -0.85442 0.85442 0
      vertex -0.900772 0.794014 0
    endloop
  endfacet
  facet normal 0 0 -1
    outer loop
      vertex -0.0754889 1.1984 0
      vertex -0.905867 3.38074 0
      vertex 0 3.5 0
    endloop
  endfacet
  facet normal 0 0 -1
    outer loop
      vertex -3.03109 1.75 0
      vertex -0.900772 0.794014 0
      vertex -1.04645 0.604166 0
    endloop
  endfacet
  facet normal 0 0 -1
    outer loop
      vertex -3.03109 1.75 0
      vertex -1.04645 0.604166 0
      vertex -1.07558 0.533821 0
    endloop
  endfacet
  facet normal 0 0 -1
    outer loop
      vertex -3.38074 0.905867 0
      vertex -1.07558 0.533821 0
      vertex -1.16716 0.312739 0
    endloop
  endfacet
  facet normal 0 0 -1
    outer loop
      vertex -3.38074 0.905867 0
      vertex -1.16716 0.312739 0
      vertex -1.1984 0.0754889 0
    endloop
  endfacet
  facet normal 0 0 -1
    outer loop
      vertex -3.5 0 0
      vertex -1.1984 0.0754889 0
      vertex -1.20833 0 0
    endloop
  endfacet
  facet normal 0 0 -1
    outer loop
      vertex -0.533821 1.07558 0
      vertex -1.75 3.03109 0
      vertex -0.905867 3.38074 0
    endloop
  endfacet
  facet normal 0 0 -1
    outer loop
      vertex 6 -5 0
      vertex 7 -3.5 0
      vertex 7 -6.4 0
    endloop
  endfacet
  facet normal 0 0 -1
    outer loop
      vertex 7 -3.5 0
      vertex 6 -5 0
      vertex 6 -3.5 0
    endloop
  endfacet
  facet normal 0 0 -1
    outer loop
      vertex 7 -6.4 0
      vertex 1 -5 0
      vertex 6 -5 0
    endloop
  endfacet
  facet normal 0 0 -1
    outer loop
      vertex 0 -3.5 0
      vertex 1 -5 0
      vertex 0 -6.4 0
    endloop
  endfacet
  facet normal 0 0 -1
    outer loop
      vertex 0 -6.4 0
      vertex 1 -5 0
      vertex 7 -6.4 0
    endloop
  endfacet
  facet normal 0 0 -1
    outer loop
      vertex 8.19839 -0.0754889 0
      vertex 10.5 0 0
      vertex 10.3807 -0.905867 0
    endloop
  endfacet
  facet normal 0 0 -1
    outer loop
      vertex 8.07558 -0.533822 0
      vertex 10.3807 -0.905867 0
      vertex 10.0311 -1.75 0
    endloop
  endfacet
  facet normal -0 0 -1
    outer loop
      vertex 10.5 0 0
      vertex 8.19839 -0.0754889 0
      vertex 8.20833 0 0
    endloop
  endfacet
  facet normal 0 0 -1
    outer loop
      vertex 7.90077 -0.794014 0
      vertex 10.0311 -1.75 0
      vertex 9.47487 -2.47487 0
    endloop
  endfacet
  facet normal 0 0 -1
    outer loop
      vertex 8.19839 0.0754889 0
      vertex 10.5 0 0
      vertex 8.20833 0 0
    endloop
  endfacet
  facet normal 0 0 -1
    outer loop
      vertex 7.79401 -0.900772 0
      vertex 9.47487 -2.47487 0
      vertex 8.75 -3.03109 0
    endloop
  endfacet
  facet normal 0 0 -1
    outer loop
      vertex 10.5 0 0
      vertex 8.19839 0.0754889 0
      vertex 10.3807 0.905867 0
    endloop
  endfacet
  facet normal 0 0 -1
    outer loop
      vertex 8.07558 0.533821 0
      vertex 10.3807 0.905867 0
      vertex 8.16716 0.312739 0
    endloop
  endfacet
  facet normal 0 0 -1
    outer loop
      vertex 8.16716 0.312739 0
      vertex 10.3807 0.905867 0
      vertex 8.19839 0.0754889 0
    endloop
  endfacet
  facet normal 0 0 -1
    outer loop
      vertex 10.3807 -0.905867 0
      vertex 8.16716 -0.312739 0
      vertex 8.19839 -0.0754889 0
    endloop
  endfacet
  facet normal 0 0 -1
    outer loop
      vertex 10.3807 -0.905867 0
      vertex 8.07558 -0.533822 0
      vertex 8.16716 -0.312739 0
    endloop
  endfacet
  facet normal 0 0 -1
    outer loop
      vertex 10.0311 -1.75 0
      vertex 8.04645 -0.604167 0
      vertex 8.07558 -0.533822 0
    endloop
  endfacet
  facet normal 0 0 -1
    outer loop
      vertex 7.53382 -1.07558 0
      vertex 8.75 -3.03109 0
      vertex 7.90587 -3.38074 0
    endloop
  endfacet
  facet normal 0 0 -1
    outer loop
      vertex 10.0311 -1.75 0
      vertex 7.90077 -0.794014 0
      vertex 8.04645 -0.604167 0
    endloop
  endfacet
  facet normal 0 0 -1
    outer loop
      vertex 9.47487 -2.47487 0
      vertex 7.85442 -0.85442 0
      vertex 7.90077 -0.794014 0
    endloop
  endfacet
  facet normal 0 0 -1
    outer loop
      vertex 9.47487 -2.47487 0
      vertex 7.79401 -0.900772 0
      vertex 7.85442 -0.85442 0
    endloop
  endfacet
  facet normal 0 0 -1
    outer loop
      vertex 8.75 -3.03109 0
      vertex 7.60417 -1.04645 0
      vertex 7.79401 -0.900772 0
    endloop
  endfacet
  facet normal 0 0 -1
    outer loop
      vertex 8.75 -3.03109 0
      vertex 7.53382 -1.07558 0
      vertex 7.60417 -1.04645 0
    endloop
  endfacet
  facet normal 0 0 -1
    outer loop
      vertex 7.90587 -3.38074 0
      vertex 7.31274 -1.16716 0
      vertex 7.53382 -1.07558 0
    endloop
  endfacet
  facet normal 0 0 -1
    outer loop
      vertex 7.90587 -3.38074 0
      vertex 7.07549 -1.1984 0
      vertex 7.31274 -1.16716 0
    endloop
  endfacet
  facet normal 0 0 -1
    outer loop
      vertex 7 -3.5 0
      vertex 7.07549 -1.1984 0
      vertex 7.90587 -3.38074 0
    endloop
  endfacet
  facet normal 0 0 -1
    outer loop
      vertex 7.07549 -1.1984 0
      vertex 7 -3.5 0
      vertex 7 -1.20833 0
    endloop
  endfacet
  facet normal -0 0 -1
    outer loop
      vertex 10.3807 0.905867 0
      vertex 8.07558 0.533821 0
      vertex 10.0311 1.75 0
    endloop
  endfacet
  facet normal 0 0 -1
    outer loop
      vertex 8.04645 0.604166 0
      vertex 10.0311 1.75 0
      vertex 8.07558 0.533821 0
    endloop
  endfacet
  facet normal 0 0 -1
    outer loop
      vertex 7.90077 0.794014 0
      vertex 10.0311 1.75 0
      vertex 8.04645 0.604166 0
    endloop
  endfacet
  facet normal -0 0 -1
    outer loop
      vertex 10.0311 1.75 0
      vertex 7.90077 0.794014 0
      vertex 9.47487 2.47487 0
    endloop
  endfacet
  facet normal 0 0 -1
    outer loop
      vertex 7.85442 0.85442 0
      vertex 9.47487 2.47487 0
      vertex 7.90077 0.794014 0
    endloop
  endfacet
  facet normal 0 0 -1
    outer loop
      vertex 7.79401 0.900772 0
      vertex 9.47487 2.47487 0
      vertex 7.85442 0.85442 0
    endloop
  endfacet
  facet normal -0 0 -1
    outer loop
      vertex 9.47487 2.47487 0
      vertex 7.79401 0.900772 0
      vertex 8.75 3.03109 0
    endloop
  endfacet
  facet normal 0 0 -1
    outer loop
      vertex 7.60417 1.04645 0
      vertex 8.75 3.03109 0
      vertex 7.79401 0.900772 0
    endloop
  endfacet
  facet normal 0 0 -1
    outer loop
      vertex 7.53382 1.07558 0
      vertex 8.75 3.03109 0
      vertex 7.60417 1.04645 0
    endloop
  endfacet
  facet normal -0 0 -1
    outer loop
      vertex 8.75 3.03109 0
      vertex 7.53382 1.07558 0
      vertex 7.90587 3.38074 0
    endloop
  endfacet
  facet normal 0 0 -1
    outer loop
      vertex 7.31274 1.16716 0
      vertex 7.90587 3.38074 0
      vertex 7.53382 1.07558 0
    endloop
  endfacet
  facet normal 0 0 -1
    outer loop
      vertex 7.07549 1.1984 0
      vertex 7.90587 3.38074 0
      vertex 7.31274 1.16716 0
    endloop
  endfacet
  facet normal 0 0 -1
    outer loop
      vertex 7 3.5 0
      vertex 7.07549 1.1984 0
      vertex 7 1.20833 0
    endloop
  endfacet
  facet normal 0 0 -1
    outer loop
      vertex 7.07549 1.1984 0
      vertex 7 3.5 0
      vertex 7.90587 3.38074 0
    endloop
  endfacet
  facet normal 0 0 -1
    outer loop
      vertex 6 3.5 0
      vertex 7 3.5 0
      vertex 7 1.20833 0
    endloop
  endfacet
  facet normal 0 0 -1
    outer loop
      vertex 6 5 0
      vertex 7 3.5 0
      vertex 6 3.5 0
    endloop
  endfacet
  facet normal 0 0 -1
    outer loop
      vertex 7 1.20833 0
      vertex 1 3.5 0
      vertex 6 3.5 0
    endloop
  endfacet
  facet normal 0 0 -1
    outer loop
      vertex 0 3.5 0
      vertex 1 3.5 0
      vertex 0 1.20833 0
    endloop
  endfacet
  facet normal 0 0 -1
    outer loop
      vertex 0 1.20833 0
      vertex 1 3.5 0
      vertex 7 1.20833 0
    endloop
  endfacet
  facet normal -0 0 -1
    outer loop
      vertex 7 -3.5 0
      vertex 6 -3.5 0
      vertex 7 -1.20833 0
    endloop
  endfacet
  facet normal 0 0 -1
    outer loop
      vertex 1 -3.5 0
      vertex 7 -1.20833 0
      vertex 6 -3.5 0
    endloop
  endfacet
  facet normal 0 0 -1
    outer loop
      vertex 1 -5 0
      vertex 0 -3.5 0
      vertex 1 -3.5 0
    endloop
  endfacet
  facet normal 0 0 -1
    outer loop
      vertex 0 -1.20833 0
      vertex 1 -3.5 0
      vertex 0 -3.5 0
    endloop
  endfacet
  facet normal 0 0 -1
    outer loop
      vertex 1 -3.5 0
      vertex 0 -1.20833 0
      vertex 7 -1.20833 0
    endloop
  endfacet
  facet normal 0 0 -1
    outer loop
      vertex 0 -3.5 0
      vertex -0.0754889 -1.1984 0
      vertex 0 -1.20833 0
    endloop
  endfacet
  facet normal 0 0 -1
    outer loop
      vertex -0.905867 -3.38074 0
      vertex -0.0754889 -1.1984 0
      vertex 0 -3.5 0
    endloop
  endfacet
  facet normal -0 0 -1
    outer loop
      vertex -0.0754889 -1.1984 0
      vertex -0.905867 -3.38074 0
      vertex -0.312739 -1.16716 0
    endloop
  endfacet
  facet normal -0 0 -1
    outer loop
      vertex -0.312739 -1.16716 0
      vertex -0.905867 -3.38074 0
      vertex -0.533822 -1.07558 0
    endloop
  endfacet
  facet normal 0 0 -1
    outer loop
      vertex -1.75 -3.03109 0
      vertex -0.533822 -1.07558 0
      vertex -0.905867 -3.38074 0
    endloop
  endfacet
  facet normal -0 0 -1
    outer loop
      vertex -0.533822 -1.07558 0
      vertex -1.75 -3.03109 0
      vertex -0.604167 -1.04645 0
    endloop
  endfacet
  facet normal -0 0 -1
    outer loop
      vertex -0.604167 -1.04645 0
      vertex -1.75 -3.03109 0
      vertex -0.794014 -0.900772 0
    endloop
  endfacet
  facet normal 0 0 -1
    outer loop
      vertex -2.47487 -2.47487 0
      vertex -0.794014 -0.900772 0
      vertex -1.75 -3.03109 0
    endloop
  endfacet
  facet normal -0 0 -1
    outer loop
      vertex -0.794014 -0.900772 0
      vertex -2.47487 -2.47487 0
      vertex -0.85442 -0.85442 0
    endloop
  endfacet
  facet normal -0 0 -1
    outer loop
      vertex -0.85442 -0.85442 0
      vertex -2.47487 -2.47487 0
      vertex -0.900772 -0.794014 0
    endloop
  endfacet
  facet normal 0 0 -1
    outer loop
      vertex -3.03109 -1.75 0
      vertex -0.900772 -0.794014 0
      vertex -2.47487 -2.47487 0
    endloop
  endfacet
  facet normal -0 0 -1
    outer loop
      vertex -0.900772 -0.794014 0
      vertex -3.03109 -1.75 0
      vertex -1.04645 -0.604166 0
    endloop
  endfacet
  facet normal -0 0 -1
    outer loop
      vertex -1.04645 -0.604166 0
      vertex -3.03109 -1.75 0
      vertex -1.07558 -0.533821 0
    endloop
  endfacet
  facet normal 0 0 -1
    outer loop
      vertex -3.38074 -0.905867 0
      vertex -1.07558 -0.533821 0
      vertex -3.03109 -1.75 0
    endloop
  endfacet
  facet normal -0 0 -1
    outer loop
      vertex -1.07558 -0.533821 0
      vertex -3.38074 -0.905867 0
      vertex -1.16716 -0.312739 0
    endloop
  endfacet
  facet normal -0 0 -1
    outer loop
      vertex -1.16716 -0.312739 0
      vertex -3.38074 -0.905867 0
      vertex -1.1984 -0.0754889 0
    endloop
  endfacet
  facet normal 0 0 -1
    outer loop
      vertex -0.794014 0.900772 0
      vertex -2.47487 2.47487 0
      vertex -1.75 3.03109 0
    endloop
  endfacet
  facet normal 0 0 -1
    outer loop
      vertex -3.5 0 0
      vertex -1.1984 -0.0754889 0
      vertex -3.38074 -0.905867 0
    endloop
  endfacet
  facet normal 0 0 -1
    outer loop
      vertex -0.900772 0.794014 0
      vertex -3.03109 1.75 0
      vertex -2.47487 2.47487 0
    endloop
  endfacet
  facet normal 0 0 -1
    outer loop
      vertex -1.1984 -0.0754889 0
      vertex -3.5 0 0
      vertex -1.20833 0 0
    endloop
  endfacet
  facet normal 0 0 -1
    outer loop
      vertex -1.07558 0.533821 0
      vertex -3.38074 0.905867 0
      vertex -3.03109 1.75 0
    endloop
  endfacet
  facet normal -0 0 -1
    outer loop
      vertex -1.1984 0.0754889 0
      vertex -3.5 0 0
      vertex -3.38074 0.905867 0
    endloop
  endfacet
  facet normal 0 0 -1
    outer loop
      vertex 7 3.5 0
      vertex 6 5 0
      vertex 7 6.4 0
    endloop
  endfacet
  facet normal 0 0 -1
    outer loop
      vertex 1 5 0
      vertex 7 6.4 0
      vertex 6 5 0
    endloop
  endfacet
  facet normal 0 0 -1
    outer loop
      vertex 1 3.5 0
      vertex 0 3.5 0
      vertex 1 5 0
    endloop
  endfacet
  facet normal 0 0 -1
    outer loop
      vertex 1 5 0
      vertex 0 6.4 0
      vertex 7 6.4 0
    endloop
  endfacet
  facet normal 0 0 -1
    outer loop
      vertex 0 6.4 0
      vertex 1 5 0
      vertex 0 3.5 0
    endloop
  endfacet
  facet normal -0.923879 -0.382684 0
    outer loop
      vertex -3.03109 -1.75 0
      vertex -3.38074 -0.905867 10
      vertex -3.38074 -0.905867 0
    endloop
  endfacet
  facet normal -0.923879 -0.382684 0
    outer loop
      vertex -3.38074 -0.905867 10
      vertex -3.03109 -1.75 0
      vertex -3.03109 -1.75 10
    endloop
  endfacet
  facet normal -0.793354 -0.608761 0
    outer loop
      vertex -2.47487 -2.47487 0
      vertex -3.03109 -1.75 10
      vertex -3.03109 -1.75 0
    endloop
  endfacet
  facet normal -0.793354 -0.608761 0
    outer loop
      vertex -3.03109 -1.75 10
      vertex -2.47487 -2.47487 0
      vertex -2.47487 -2.47487 10
    endloop
  endfacet
  facet normal -0.382683 -0.92388 0
    outer loop
      vertex -1.75 -3.03109 0
      vertex -0.905867 -3.38074 10
      vertex -1.75 -3.03109 10
    endloop
  endfacet
  facet normal -0.382683 -0.92388 -0
    outer loop
      vertex -0.905867 -3.38074 10
      vertex -1.75 -3.03109 0
      vertex -0.905867 -3.38074 0
    endloop
  endfacet
  facet normal -0.991445 0.130526 0
    outer loop
      vertex -3.5 0 0
      vertex -3.38074 0.905867 10
      vertex -3.38074 0.905867 0
    endloop
  endfacet
  facet normal -0.991445 0.130526 0
    outer loop
      vertex -3.38074 0.905867 10
      vertex -3.5 0 0
      vertex -3.5 0 10
    endloop
  endfacet
  facet normal 0 0 1
    outer loop
      vertex -0.830378 -3.18235 10
      vertex 0 -3.5 10
      vertex 0 -3.29167 10
    endloop
  endfacet
  facet normal 0 0 1
    outer loop
      vertex -0.905867 -3.38074 10
      vertex -0.830378 -3.18235 10
      vertex -0.851946 -3.17951 10
    endloop
  endfacet
  facet normal 0 0 1
    outer loop
      vertex -0.830378 -3.18235 10
      vertex -0.905867 -3.38074 10
      vertex 0 -3.5 10
    endloop
  endfacet
  facet normal 0 0 1
    outer loop
      vertex -0.872044 -3.17118 10
      vertex -0.905867 -3.38074 10
      vertex -0.851946 -3.17951 10
    endloop
  endfacet
  facet normal -0 0 1
    outer loop
      vertex -1.75 -3.03109 10
      vertex -0.872044 -3.17118 10
      vertex -1.64583 -2.85067 10
    endloop
  endfacet
  facet normal 0 0 1
    outer loop
      vertex -0.872044 -3.17118 10
      vertex -1.75 -3.03109 10
      vertex -0.905867 -3.38074 10
    endloop
  endfacet
  facet normal 0 0 1
    outer loop
      vertex -1.66309 -2.83742 10
      vertex -1.75 -3.03109 10
      vertex -1.64583 -2.85067 10
    endloop
  endfacet
  facet normal -0 0 1
    outer loop
      vertex -2.47487 -2.47487 10
      vertex -1.66309 -2.83742 10
      vertex -2.32756 -2.32756 10
    endloop
  endfacet
  facet normal 0 0 1
    outer loop
      vertex -1.66309 -2.83742 10
      vertex -2.47487 -2.47487 10
      vertex -1.75 -3.03109 10
    endloop
  endfacet
  facet normal 0 0 1
    outer loop
      vertex -2.83742 -1.66309 10
      vertex -2.47487 -2.47487 10
      vertex -2.32756 -2.32756 10
    endloop
  endfacet
  facet normal 0 0 1
    outer loop
      vertex -3.03109 -1.75 10
      vertex -2.83742 -1.66309 10
      vertex -2.85067 -1.64583 10
    endloop
  endfacet
  facet normal 0 0 1
    outer loop
      vertex -2.83742 -1.66309 10
      vertex -3.03109 -1.75 10
      vertex -2.47487 -2.47487 10
    endloop
  endfacet
  facet normal 0 0 1
    outer loop
      vertex -3.17118 -0.872044 10
      vertex -3.03109 -1.75 10
      vertex -2.85067 -1.64583 10
    endloop
  endfacet
  facet normal 0 0 1
    outer loop
      vertex -3.38074 -0.905867 10
      vertex -3.17118 -0.872044 10
      vertex -3.17951 -0.851946 10
    endloop
  endfacet
  facet normal 0 0 1
    outer loop
      vertex -3.17118 -0.872044 10
      vertex -3.38074 -0.905867 10
      vertex -3.03109 -1.75 10
    endloop
  endfacet
  facet normal 0 0 1
    outer loop
      vertex -3.18235 -0.830378 10
      vertex -3.38074 -0.905867 10
      vertex -3.17951 -0.851946 10
    endloop
  endfacet
  facet normal -0 0 1
    outer loop
      vertex -3.5 0 10
      vertex -3.18235 -0.830378 10
      vertex -3.29167 0 10
    endloop
  endfacet
  facet normal 0 0 1
    outer loop
      vertex -3.18235 0.830378 10
      vertex -3.5 0 10
      vertex -3.29167 0 10
    endloop
  endfacet
  facet normal 0 0 1
    outer loop
      vertex -3.18235 -0.830378 10
      vertex -3.5 0 10
      vertex -3.38074 -0.905867 10
    endloop
  endfacet
  facet normal 0 0 1
    outer loop
      vertex 7 -3.29167 10
      vertex 1 -3.5 10
      vertex 6 -3.5 10
    endloop
  endfacet
  facet normal 0 0 1
    outer loop
      vertex 0 -3.5 10
      vertex 1 -3.5 10
      vertex 0 -3.29167 10
    endloop
  endfacet
  facet normal -0 0 1
    outer loop
      vertex 0 -3.29167 10
      vertex 1 -3.5 10
      vertex 7 -3.29167 10
    endloop
  endfacet
  facet normal -0 0 1
    outer loop
      vertex 6 5 10
      vertex 7 3.5 10
      vertex 7 6.4 10
    endloop
  endfacet
  facet normal 0 0 1
    outer loop
      vertex 6 3.5 10
      vertex 7 3.5 10
      vertex 6 5 10
    endloop
  endfacet
  facet normal 0 0 1
    outer loop
      vertex 7 6.4 10
      vertex 1 5 10
      vertex 6 5 10
    endloop
  endfacet
  facet normal 0 0 1
    outer loop
      vertex 0 3.5 10
      vertex 1 5 10
      vertex 0 6.4 10
    endloop
  endfacet
  facet normal -0 0 1
    outer loop
      vertex 0 6.4 10
      vertex 1 5 10
      vertex 7 6.4 10
    endloop
  endfacet
  facet normal -0 0 1
    outer loop
      vertex 10.1823 0.830378 10
      vertex 10.5 0 10
      vertex 10.3807 0.905867 10
    endloop
  endfacet
  facet normal 0 0 1
    outer loop
      vertex 10.1823 -0.830378 10
      vertex 10.5 0 10
      vertex 10.2917 0 10
    endloop
  endfacet
  facet normal 0 0 1
    outer loop
      vertex 10.5 0 10
      vertex 10.1823 0.830378 10
      vertex 10.2917 0 10
    endloop
  endfacet
  facet normal 0 0 1
    outer loop
      vertex 10.3807 0.905867 10
      vertex 10.1795 0.851946 10
      vertex 10.1823 0.830378 10
    endloop
  endfacet
  facet normal 0 0 1
    outer loop
      vertex 10.3807 0.905867 10
      vertex 10.1712 0.872044 10
      vertex 10.1795 0.851946 10
    endloop
  endfacet
  facet normal 0 0 1
    outer loop
      vertex 10.0311 1.75 10
      vertex 10.1712 0.872044 10
      vertex 10.3807 0.905867 10
    endloop
  endfacet
  facet normal 0 0 1
    outer loop
      vertex 10.0311 1.75 10
      vertex 9.85067 1.64583 10
      vertex 10.1712 0.872044 10
    endloop
  endfacet
  facet normal 0 0 1
    outer loop
      vertex 10.0311 1.75 10
      vertex 9.83742 1.66309 10
      vertex 9.85067 1.64583 10
    endloop
  endfacet
  facet normal 0 0 1
    outer loop
      vertex 9.47487 2.47487 10
      vertex 9.83742 1.66309 10
      vertex 10.0311 1.75 10
    endloop
  endfacet
  facet normal 0 0 1
    outer loop
      vertex 9.47487 2.47487 10
      vertex 9.32756 2.32756 10
      vertex 9.83742 1.66309 10
    endloop
  endfacet
  facet normal -0 0 1
    outer loop
      vertex 8.66309 2.83742 10
      vertex 9.47487 2.47487 10
      vertex 8.75 3.03109 10
    endloop
  endfacet
  facet normal 0 0 1
    outer loop
      vertex 9.47487 2.47487 10
      vertex 8.66309 2.83742 10
      vertex 9.32756 2.32756 10
    endloop
  endfacet
  facet normal 0 0 1
    outer loop
      vertex 8.75 3.03109 10
      vertex 8.64583 2.85067 10
      vertex 8.66309 2.83742 10
    endloop
  endfacet
  facet normal -0 0 1
    outer loop
      vertex 7.87204 3.17118 10
      vertex 8.75 3.03109 10
      vertex 7.90587 3.38074 10
    endloop
  endfacet
  facet normal 0 0 1
    outer loop
      vertex 8.75 3.03109 10
      vertex 7.87204 3.17118 10
      vertex 8.64583 2.85067 10
    endloop
  endfacet
  facet normal 0 0 1
    outer loop
      vertex 7.90587 3.38074 10
      vertex 7.85195 3.17951 10
      vertex 7.87204 3.17118 10
    endloop
  endfacet
  facet normal 0 0 1
    outer loop
      vertex 7.90587 3.38074 10
      vertex 7.83038 3.18235 10
      vertex 7.85195 3.17951 10
    endloop
  endfacet
  facet normal 0 0 1
    outer loop
      vertex 7 3.5 10
      vertex 7.83038 3.18235 10
      vertex 7.90587 3.38074 10
    endloop
  endfacet
  facet normal 0 0 1
    outer loop
      vertex 7.83038 3.18235 10
      vertex 7 3.5 10
      vertex 7 3.29167 10
    endloop
  endfacet
  facet normal 0 0 1
    outer loop
      vertex 10.5 0 10
      vertex 10.1823 -0.830378 10
      vertex 10.3807 -0.905867 10
    endloop
  endfacet
  facet normal -0 0 1
    outer loop
      vertex 10.1795 -0.851946 10
      vertex 10.3807 -0.905867 10
      vertex 10.1823 -0.830378 10
    endloop
  endfacet
  facet normal -0 0 1
    outer loop
      vertex 10.1712 -0.872044 10
      vertex 10.3807 -0.905867 10
      vertex 10.1795 -0.851946 10
    endloop
  endfacet
  facet normal 0 0 1
    outer loop
      vertex 10.1712 -0.872044 10
      vertex 10.0311 -1.75 10
      vertex 10.3807 -0.905867 10
    endloop
  endfacet
  facet normal -0 0 1
    outer loop
      vertex 9.85067 -1.64583 10
      vertex 10.0311 -1.75 10
      vertex 10.1712 -0.872044 10
    endloop
  endfacet
  facet normal -0 0 1
    outer loop
      vertex 9.83742 -1.66309 10
      vertex 10.0311 -1.75 10
      vertex 9.85067 -1.64583 10
    endloop
  endfacet
  facet normal 0 0 1
    outer loop
      vertex 9.83742 -1.66309 10
      vertex 9.47487 -2.47487 10
      vertex 10.0311 -1.75 10
    endloop
  endfacet
  facet normal -0 0 1
    outer loop
      vertex 9.32756 -2.32756 10
      vertex 9.47487 -2.47487 10
      vertex 9.83742 -1.66309 10
    endloop
  endfacet
  facet normal 0 0 1
    outer loop
      vertex 8.66309 -2.83742 10
      vertex 9.47487 -2.47487 10
      vertex 9.32756 -2.32756 10
    endloop
  endfacet
  facet normal 0 0 1
    outer loop
      vertex 9.47487 -2.47487 10
      vertex 8.66309 -2.83742 10
      vertex 8.75 -3.03109 10
    endloop
  endfacet
  facet normal -0 0 1
    outer loop
      vertex 8.64583 -2.85067 10
      vertex 8.75 -3.03109 10
      vertex 8.66309 -2.83742 10
    endloop
  endfacet
  facet normal 0 0 1
    outer loop
      vertex 7.87204 -3.17118 10
      vertex 8.75 -3.03109 10
      vertex 8.64583 -2.85067 10
    endloop
  endfacet
  facet normal 0 0 1
    outer loop
      vertex 8.75 -3.03109 10
      vertex 7.87204 -3.17118 10
      vertex 7.90587 -3.38074 10
    endloop
  endfacet
  facet normal -0 0 1
    outer loop
      vertex 7.85195 -3.17951 10
      vertex 7.90587 -3.38074 10
      vertex 7.87204 -3.17118 10
    endloop
  endfacet
  facet normal -0 0 1
    outer loop
      vertex 7.83038 -3.18235 10
      vertex 7.90587 -3.38074 10
      vertex 7.85195 -3.17951 10
    endloop
  endfacet
  facet normal 0 0 1
    outer loop
      vertex 7.83038 -3.18235 10
      vertex 7 -3.5 10
      vertex 7.90587 -3.38074 10
    endloop
  endfacet
  facet normal -0 0 1
    outer loop
      vertex 7 -3.29167 10
      vertex 7 -3.5 10
      vertex 7.83038 -3.18235 10
    endloop
  endfacet
  facet normal 0 0 1
    outer loop
      vertex 6 -3.5 10
      vertex 7 -3.5 10
      vertex 7 -3.29167 10
    endloop
  endfacet
  facet normal 0 0 1
    outer loop
      vertex 7 -3.5 10
      vertex 6 -3.5 10
      vertex 6 -5 10
    endloop
  endfacet
  facet normal 0 0 1
    outer loop
      vertex 7 -3.5 10
      vertex 6 -5 10
      vertex 7 -6.4 10
    endloop
  endfacet
  facet normal -0 0 1
    outer loop
      vertex 1 -5 10
      vertex 7 -6.4 10
      vertex 6 -5 10
    endloop
  endfacet
  facet normal 0 0 1
    outer loop
      vertex 1 -3.5 10
      vertex 0 -3.5 10
      vertex 1 -5 10
    endloop
  endfacet
  facet normal 0 0 1
    outer loop
      vertex 1 -5 10
      vertex 0 -6.4 10
      vertex 7 -6.4 10
    endloop
  endfacet
  facet normal 0 0 1
    outer loop
      vertex 0 -6.4 10
      vertex 1 -5 10
      vertex 0 -3.5 10
    endloop
  endfacet
  facet normal 0 0 1
    outer loop
      vertex 7 3.5 10
      vertex 6 3.5 10
      vertex 7 3.29167 10
    endloop
  endfacet
  facet normal -0 0 1
    outer loop
      vertex 1 3.5 10
      vertex 7 3.29167 10
      vertex 6 3.5 10
    endloop
  endfacet
  facet normal 0 0 1
    outer loop
      vertex 1 5 10
      vertex 0 3.5 10
      vertex 1 3.5 10
    endloop
  endfacet
  facet normal 0 0 1
    outer loop
      vertex 0 3.29167 10
      vertex 1 3.5 10
      vertex 0 3.5 10
    endloop
  endfacet
  facet normal 0 0 1
    outer loop
      vertex 1 3.5 10
      vertex 0 3.29167 10
      vertex 7 3.29167 10
    endloop
  endfacet
  facet normal 0 0 1
    outer loop
      vertex 0 3.5 10
      vertex -0.830378 3.18235 10
      vertex 0 3.29167 10
    endloop
  endfacet
  facet normal -0 0 1
    outer loop
      vertex -0.905867 3.38074 10
      vertex -0.830378 3.18235 10
      vertex 0 3.5 10
    endloop
  endfacet
  facet normal 0 0 1
    outer loop
      vertex -0.830378 3.18235 10
      vertex -0.905867 3.38074 10
      vertex -0.851946 3.17951 10
    endloop
  endfacet
  facet normal 0 0 1
    outer loop
      vertex -0.905867 3.38074 10
      vertex -0.872044 3.17118 10
      vertex -0.851946 3.17951 10
    endloop
  endfacet
  facet normal 0 0 1
    outer loop
      vertex -1.75 3.03109 10
      vertex -0.872044 3.17118 10
      vertex -0.905867 3.38074 10
    endloop
  endfacet
  facet normal 0 0 1
    outer loop
      vertex -0.872044 3.17118 10
      vertex -1.75 3.03109 10
      vertex -1.64583 2.85067 10
    endloop
  endfacet
  facet normal 0 0 1
    outer loop
      vertex -1.75 3.03109 10
      vertex -1.66309 2.83742 10
      vertex -1.64583 2.85067 10
    endloop
  endfacet
  facet normal 0 0 1
    outer loop
      vertex -2.47487 2.47487 10
      vertex -1.66309 2.83742 10
      vertex -1.75 3.03109 10
    endloop
  endfacet
  facet normal 0 0 1
    outer loop
      vertex -1.66309 2.83742 10
      vertex -2.47487 2.47487 10
      vertex -2.32756 2.32756 10
    endloop
  endfacet
  facet normal 0 0 1
    outer loop
      vertex -2.47487 2.47487 10
      vertex -2.83742 1.66309 10
      vertex -2.32756 2.32756 10
    endloop
  endfacet
  facet normal -0 0 1
    outer loop
      vertex -3.03109 1.75 10
      vertex -2.83742 1.66309 10
      vertex -2.47487 2.47487 10
    endloop
  endfacet
  facet normal 0 0 1
    outer loop
      vertex -2.83742 1.66309 10
      vertex -3.03109 1.75 10
      vertex -2.85067 1.64583 10
    endloop
  endfacet
  facet normal 0 0 1
    outer loop
      vertex -3.03109 1.75 10
      vertex -3.17118 0.872044 10
      vertex -2.85067 1.64583 10
    endloop
  endfacet
  facet normal -0 0 1
    outer loop
      vertex -3.38074 0.905867 10
      vertex -3.17118 0.872044 10
      vertex -3.03109 1.75 10
    endloop
  endfacet
  facet normal 0 0 1
    outer loop
      vertex -3.5 0 10
      vertex -3.18235 0.830378 10
      vertex -3.38074 0.905867 10
    endloop
  endfacet
  facet normal 0 0 1
    outer loop
      vertex -3.17951 0.851946 10
      vertex -3.38074 0.905867 10
      vertex -3.18235 0.830378 10
    endloop
  endfacet
  facet normal 0 0 1
    outer loop
      vertex -3.17118 0.872044 10
      vertex -3.38074 0.905867 10
      vertex -3.17951 0.851946 10
    endloop
  endfacet
  facet normal 0 -1 0
    outer loop
      vertex 1 -3.5 0
      vertex 6 -3.5 10
      vertex 1 -3.5 10
    endloop
  endfacet
  facet normal 0 -1 -0
    outer loop
      vertex 6 -3.5 10
      vertex 1 -3.5 0
      vertex 6 -3.5 0
    endloop
  endfacet
  facet normal -0.382684 0.923879 0
    outer loop
      vertex -0.905867 3.38074 0
      vertex -1.75 3.03109 10
      vertex -0.905867 3.38074 10
    endloop
  endfacet
  facet normal -0.382684 0.923879 0
    outer loop
      vertex -1.75 3.03109 10
      vertex -0.905867 3.38074 0
      vertex -1.75 3.03109 0
    endloop
  endfacet
  facet normal 0 1 -0
    outer loop
      vertex 6 3.5 0
      vertex 1 3.5 10
      vertex 6 3.5 10
    endloop
  endfacet
  facet normal 0 1 0
    outer loop
      vertex 1 3.5 10
      vertex 6 3.5 0
      vertex 1 3.5 0
    endloop
  endfacet
  facet normal -0.991445 -0.130526 0
    outer loop
      vertex -3.38074 -0.905867 0
      vertex -3.5 0 10
      vertex -3.5 0 0
    endloop
  endfacet
  facet normal -0.991445 -0.130526 0
    outer loop
      vertex -3.5 0 10
      vertex -3.38074 -0.905867 0
      vertex -3.38074 -0.905867 10
    endloop
  endfacet
  facet normal -0.130526 -0.991445 0
    outer loop
      vertex -0.905867 -3.38074 0
      vertex 0 -3.5 10
      vertex -0.905867 -3.38074 10
    endloop
  endfacet
  facet normal -0.130526 -0.991445 -0
    outer loop
      vertex 0 -3.5 10
      vertex -0.905867 -3.38074 0
      vertex 0 -3.5 0
    endloop
  endfacet
  facet normal 0.793353 -0.608762 0
    outer loop
      vertex 9.47487 -2.47487 10
      vertex 10.0311 -1.75 0
      vertex 10.0311 -1.75 10
    endloop
  endfacet
  facet normal 0.793353 -0.608762 0
    outer loop
      vertex 10.0311 -1.75 0
      vertex 9.47487 -2.47487 10
      vertex 9.47487 -2.47487 0
    endloop
  endfacet
  facet normal 0.991445 0.130526 0
    outer loop
      vertex 10.5 0 10
      vertex 10.3807 0.905867 0
      vertex 10.3807 0.905867 10
    endloop
  endfacet
  facet normal 0.991445 0.130526 0
    outer loop
      vertex 10.3807 0.905867 0
      vertex 10.5 0 10
      vertex 10.5 0 0
    endloop
  endfacet
  facet normal 0.991445 -0.130526 0
    outer loop
      vertex 10.3807 -0.905867 10
      vertex 10.5 0 0
      vertex 10.5 0 10
    endloop
  endfacet
  facet normal 0.991445 -0.130526 0
    outer loop
      vertex 10.5 0 0
      vertex 10.3807 -0.905867 10
      vertex 10.3807 -0.905867 0
    endloop
  endfacet
  facet normal 0.608762 0.793353 -0
    outer loop
      vertex 9.47487 2.47487 0
      vertex 8.75 3.03109 10
      vertex 9.47487 2.47487 10
    endloop
  endfacet
  facet normal 0.608762 0.793353 0
    outer loop
      vertex 8.75 3.03109 10
      vertex 9.47487 2.47487 0
      vertex 8.75 3.03109 0
    endloop
  endfacet
  facet normal 0.382683 0.92388 -0
    outer loop
      vertex 8.75 3.03109 0
      vertex 7.90587 3.38074 10
      vertex 8.75 3.03109 10
    endloop
  endfacet
  facet normal 0.382683 0.92388 0
    outer loop
      vertex 7.90587 3.38074 10
      vertex 8.75 3.03109 0
      vertex 7.90587 3.38074 0
    endloop
  endfacet
  facet normal 0.130526 0.991445 -0
    outer loop
      vertex 7.90587 3.38074 0
      vertex 7 3.5 10
      vertex 7.90587 3.38074 10
    endloop
  endfacet
  facet normal 0.130526 0.991445 0
    outer loop
      vertex 7 3.5 10
      vertex 7.90587 3.38074 0
      vertex 7 3.5 0
    endloop
  endfacet
  facet normal -0.130526 0.991445 0
    outer loop
      vertex 0 3.5 0
      vertex -0.905867 3.38074 10
      vertex 0 3.5 10
    endloop
  endfacet
  facet normal -0.130526 0.991445 0
    outer loop
      vertex -0.905867 3.38074 10
      vertex 0 3.5 0
      vertex -0.905867 3.38074 0
    endloop
  endfacet
  facet normal -0.608762 -0.793353 0
    outer loop
      vertex -2.47487 -2.47487 0
      vertex -1.75 -3.03109 10
      vertex -2.47487 -2.47487 10
    endloop
  endfacet
  facet normal -0.608762 -0.793353 -0
    outer loop
      vertex -1.75 -3.03109 10
      vertex -2.47487 -2.47487 0
      vertex -1.75 -3.03109 0
    endloop
  endfacet
  facet normal 0.608762 -0.793353 0
    outer loop
      vertex 8.75 -3.03109 0
      vertex 9.47487 -2.47487 10
      vertex 8.75 -3.03109 10
    endloop
  endfacet
  facet normal 0.608762 -0.793353 0
    outer loop
      vertex 9.47487 -2.47487 10
      vertex 8.75 -3.03109 0
      vertex 9.47487 -2.47487 0
    endloop
  endfacet
  facet normal 0.130526 -0.991445 0
    outer loop
      vertex 7 -3.5 0
      vertex 7.90587 -3.38074 10
      vertex 7 -3.5 10
    endloop
  endfacet
  facet normal 0.130526 -0.991445 0
    outer loop
      vertex 7.90587 -3.38074 10
      vertex 7 -3.5 0
      vertex 7.90587 -3.38074 0
    endloop
  endfacet
  facet normal 0.923879 0.382684 0
    outer loop
      vertex 10.3807 0.905867 10
      vertex 10.0311 1.75 0
      vertex 10.0311 1.75 10
    endloop
  endfacet
  facet normal 0.923879 0.382684 0
    outer loop
      vertex 10.0311 1.75 0
      vertex 10.3807 0.905867 10
      vertex 10.3807 0.905867 0
    endloop
  endfacet
  facet normal 0.92388 -0.382683 0
    outer loop
      vertex 10.0311 -1.75 10
      vertex 10.3807 -0.905867 0
      vertex 10.3807 -0.905867 10
    endloop
  endfacet
  facet normal 0.92388 -0.382683 0
    outer loop
      vertex 10.3807 -0.905867 0
      vertex 10.0311 -1.75 10
      vertex 10.0311 -1.75 0
    endloop
  endfacet
  facet normal 0.793354 0.608761 0
    outer loop
      vertex 10.0311 1.75 10
      vertex 9.47487 2.47487 0
      vertex 9.47487 2.47487 10
    endloop
  endfacet
  facet normal 0.793354 0.608761 0
    outer loop
      vertex 9.47487 2.47487 0
      vertex 10.0311 1.75 10
      vertex 10.0311 1.75 0
    endloop
  endfacet
  facet normal -0.923879 0.382684 0
    outer loop
      vertex -3.38074 0.905867 0
      vertex -3.03109 1.75 10
      vertex -3.03109 1.75 0
    endloop
  endfacet
  facet normal -0.923879 0.382684 0
    outer loop
      vertex -3.03109 1.75 10
      vertex -3.38074 0.905867 0
      vertex -3.38074 0.905867 10
    endloop
  endfacet
  facet normal -0.793354 0.608761 0
    outer loop
      vertex -3.03109 1.75 0
      vertex -2.47487 2.47487 10
      vertex -2.47487 2.47487 0
    endloop
  endfacet
  facet normal -0.793354 0.608761 0
    outer loop
      vertex -2.47487 2.47487 10
      vertex -3.03109 1.75 0
      vertex -3.03109 1.75 10
    endloop
  endfacet
  facet normal -0.608761 0.793354 0
    outer loop
      vertex -1.75 3.03109 0
      vertex -2.47487 2.47487 10
      vertex -1.75 3.03109 10
    endloop
  endfacet
  facet normal -0.608761 0.793354 0
    outer loop
      vertex -2.47487 2.47487 10
      vertex -1.75 3.03109 0
      vertex -2.47487 2.47487 0
    endloop
  endfacet
  facet normal 0.382683 -0.92388 0
    outer loop
      vertex 7.90587 -3.38074 0
      vertex 8.75 -3.03109 10
      vertex 7.90587 -3.38074 10
    endloop
  endfacet
  facet normal 0.382683 -0.92388 0
    outer loop
      vertex 8.75 -3.03109 10
      vertex 7.90587 -3.38074 0
      vertex 8.75 -3.03109 0
    endloop
  endfacet
  facet normal 0.970949 -0.127828 0.202281
    outer loop
      vertex -3.29167 0 10
      vertex -1.1984 0.0754889 0
      vertex -3.18235 0.830378 10
    endloop
  endfacet
  facet normal 0.970949 -0.127829 0.202281
    outer loop
      vertex -1.1984 0.0754889 0
      vertex -3.29167 0 10
      vertex -1.20833 0 0
    endloop
  endfacet
  facet normal 0.374775 -0.904779 0.202281
    outer loop
      vertex -0.533821 1.07558 0
      vertex -0.851946 3.17951 10
      vertex -0.872044 3.17118 10
    endloop
  endfacet
  facet normal 0.374773 -0.904781 0.202281
    outer loop
      vertex -0.851946 3.17951 10
      vertex -0.533821 1.07558 0
      vertex -0.312739 1.16716 0
    endloop
  endfacet
  facet normal 0.970949 -0.127831 0.202281
    outer loop
      vertex -3.18235 0.830378 10
      vertex -1.16716 0.312739 0
      vertex -3.17951 0.851946 10
    endloop
  endfacet
  facet normal 0.970949 -0.12783 0.202281
    outer loop
      vertex -1.16716 0.312739 0
      vertex -3.18235 0.830378 10
      vertex -1.1984 0.0754889 0
    endloop
  endfacet
  facet normal 0.776953 -0.596176 0.202281
    outer loop
      vertex -2.83742 1.66309 10
      vertex -0.85442 0.85442 0
      vertex -2.32756 2.32756 10
    endloop
  endfacet
  facet normal 0.776953 -0.596177 0.202281
    outer loop
      vertex -0.85442 0.85442 0
      vertex -2.83742 1.66309 10
      vertex -0.900772 0.794014 0
    endloop
  endfacet
  facet normal 0.596176 0.776953 0.202281
    outer loop
      vertex -0.794014 -0.900772 0
      vertex -1.64583 -2.85067 10
      vertex -0.604167 -1.04645 0
    endloop
  endfacet
  facet normal 0.596177 0.776953 0.202281
    outer loop
      vertex -1.64583 -2.85067 10
      vertex -0.794014 -0.900772 0
      vertex -1.66309 -2.83742 10
    endloop
  endfacet
  facet normal 0.776953 -0.596177 0.202281
    outer loop
      vertex -2.85067 1.64583 10
      vertex -0.900772 0.794014 0
      vertex -2.83742 1.66309 10
    endloop
  endfacet
  facet normal 0.776954 -0.596175 0.202281
    outer loop
      vertex -0.900772 0.794014 0
      vertex -2.85067 1.64583 10
      vertex -1.04645 0.604166 0
    endloop
  endfacet
  facet normal 0.596177 -0.776953 0.202281
    outer loop
      vertex -0.794014 0.900772 0
      vertex -1.64583 2.85067 10
      vertex -1.66309 2.83742 10
    endloop
  endfacet
  facet normal 0.596175 -0.776954 0.202281
    outer loop
      vertex -1.64583 2.85067 10
      vertex -0.794014 0.900772 0
      vertex -0.604166 1.04645 0
    endloop
  endfacet
  facet normal 0.970949 0.12783 0.202281
    outer loop
      vertex -3.18235 -0.830378 10
      vertex -1.16716 -0.312739 0
      vertex -1.1984 -0.0754889 0
    endloop
  endfacet
  facet normal 0.970949 0.127831 0.202281
    outer loop
      vertex -1.16716 -0.312739 0
      vertex -3.18235 -0.830378 10
      vertex -3.17951 -0.851946 10
    endloop
  endfacet
  facet normal 0.970949 0.127829 0.202281
    outer loop
      vertex -3.29167 0 10
      vertex -1.1984 -0.0754889 0
      vertex -1.20833 0 0
    endloop
  endfacet
  facet normal 0.970949 0.127828 0.202281
    outer loop
      vertex -1.1984 -0.0754889 0
      vertex -3.29167 0 10
      vertex -3.18235 -0.830378 10
    endloop
  endfacet
  facet normal 0.904779 -0.374775 0.202281
    outer loop
      vertex -3.17951 0.851946 10
      vertex -1.07558 0.533821 0
      vertex -3.17118 0.872044 10
    endloop
  endfacet
  facet normal 0.904781 -0.374773 0.202281
    outer loop
      vertex -1.07558 0.533821 0
      vertex -3.17951 0.851946 10
      vertex -1.16716 0.312739 0
    endloop
  endfacet
  facet normal 0.904781 -0.374773 0.202281
    outer loop
      vertex -3.17118 0.872044 10
      vertex -1.04645 0.604166 0
      vertex -2.85067 1.64583 10
    endloop
  endfacet
  facet normal 0.904781 -0.374773 0.202281
    outer loop
      vertex -1.04645 0.604166 0
      vertex -3.17118 0.872044 10
      vertex -1.07558 0.533821 0
    endloop
  endfacet
  facet normal -0.596177 0.776952 0.202281
    outer loop
      vertex 7.85442 -0.85442 0
      vertex 8.66309 -2.83742 10
      vertex 9.32756 -2.32756 10
    endloop
  endfacet
  facet normal -0.596177 0.776953 0.202281
    outer loop
      vertex 8.66309 -2.83742 10
      vertex 7.85442 -0.85442 0
      vertex 7.79401 -0.900772 0
    endloop
  endfacet
  facet normal 0.374773 -0.904781 0.202281
    outer loop
      vertex -0.604166 1.04645 0
      vertex -0.872044 3.17118 10
      vertex -1.64583 2.85067 10
    endloop
  endfacet
  facet normal 0.374773 -0.904781 0.202281
    outer loop
      vertex -0.872044 3.17118 10
      vertex -0.604166 1.04645 0
      vertex -0.533821 1.07558 0
    endloop
  endfacet
  facet normal 0.596178 0.776952 0.202281
    outer loop
      vertex -0.85442 -0.85442 0
      vertex -1.66309 -2.83742 10
      vertex -0.794014 -0.900772 0
    endloop
  endfacet
  facet normal 0.596177 0.776953 0.202281
    outer loop
      vertex -1.66309 -2.83742 10
      vertex -0.85442 -0.85442 0
      vertex -2.32756 -2.32756 10
    endloop
  endfacet
  facet normal 0.127828 -0.970949 0.202281
    outer loop
      vertex -0.0754889 1.1984 0
      vertex 0 3.29167 10
      vertex -0.830378 3.18235 10
    endloop
  endfacet
  facet normal 0.127829 -0.970949 0.202281
    outer loop
      vertex 0 3.29167 10
      vertex -0.0754889 1.1984 0
      vertex 0 1.20833 0
    endloop
  endfacet
  facet normal 0.127831 -0.970949 0.202281
    outer loop
      vertex -0.312739 1.16716 0
      vertex -0.830378 3.18235 10
      vertex -0.851946 3.17951 10
    endloop
  endfacet
  facet normal 0.12783 -0.970949 0.202281
    outer loop
      vertex -0.830378 3.18235 10
      vertex -0.312739 1.16716 0
      vertex -0.0754889 1.1984 0
    endloop
  endfacet
  facet normal 0 0.97898 0.203954
    outer loop
      vertex 7 -1.20833 0
      vertex 0 -3.29167 10
      vertex 7 -3.29167 10
    endloop
  endfacet
  facet normal 0 0.97898 0.203954
    outer loop
      vertex 0 -3.29167 10
      vertex 7 -1.20833 0
      vertex 0 -1.20833 0
    endloop
  endfacet
  facet normal 0 -0.97898 0.203954
    outer loop
      vertex 0 1.20833 0
      vertex 7 3.29167 10
      vertex 0 3.29167 10
    endloop
  endfacet
  facet normal 0 -0.97898 0.203954
    outer loop
      vertex 7 3.29167 10
      vertex 0 1.20833 0
      vertex 7 1.20833 0
    endloop
  endfacet
  facet normal -0.374772 -0.904781 0.202281
    outer loop
      vertex 7.53382 1.07558 0
      vertex 7.85195 3.17951 10
      vertex 7.31274 1.16716 0
    endloop
  endfacet
  facet normal -0.374771 -0.904781 0.202281
    outer loop
      vertex 7.85195 3.17951 10
      vertex 7.53382 1.07558 0
      vertex 7.87204 3.17118 10
    endloop
  endfacet
  facet normal 0.127829 0.970949 0.202281
    outer loop
      vertex -0.0754889 -1.1984 0
      vertex 0 -3.29167 10
      vertex 0 -1.20833 0
    endloop
  endfacet
  facet normal 0.127828 0.970949 0.202281
    outer loop
      vertex 0 -3.29167 10
      vertex -0.0754889 -1.1984 0
      vertex -0.830378 -3.18235 10
    endloop
  endfacet
  facet normal 0.904781 0.374773 0.202281
    outer loop
      vertex -3.17118 -0.872044 10
      vertex -1.04645 -0.604166 0
      vertex -1.07558 -0.533821 0
    endloop
  endfacet
  facet normal 0.904781 0.374773 0.202281
    outer loop
      vertex -1.04645 -0.604166 0
      vertex -3.17118 -0.872044 10
      vertex -2.85067 -1.64583 10
    endloop
  endfacet
  facet normal 0.776954 0.596175 0.202281
    outer loop
      vertex -2.85067 -1.64583 10
      vertex -0.900772 -0.794014 0
      vertex -1.04645 -0.604166 0
    endloop
  endfacet
  facet normal 0.776953 0.596177 0.202281
    outer loop
      vertex -0.900772 -0.794014 0
      vertex -2.85067 -1.64583 10
      vertex -2.83742 -1.66309 10
    endloop
  endfacet
  facet normal 0.374771 0.904781 0.202281
    outer loop
      vertex -0.533822 -1.07558 0
      vertex -0.851946 -3.17951 10
      vertex -0.312739 -1.16716 0
    endloop
  endfacet
  facet normal 0.374774 0.90478 0.202281
    outer loop
      vertex -0.851946 -3.17951 10
      vertex -0.533822 -1.07558 0
      vertex -0.872044 -3.17118 10
    endloop
  endfacet
  facet normal 0.374772 0.904781 0.202281
    outer loop
      vertex -0.604167 -1.04645 0
      vertex -0.872044 -3.17118 10
      vertex -0.533822 -1.07558 0
    endloop
  endfacet
  facet normal 0.374772 0.904781 0.202281
    outer loop
      vertex -0.872044 -3.17118 10
      vertex -0.604167 -1.04645 0
      vertex -1.64583 -2.85067 10
    endloop
  endfacet
  facet normal 0.596176 -0.776953 0.202281
    outer loop
      vertex -0.85442 0.85442 0
      vertex -1.66309 2.83742 10
      vertex -2.32756 2.32756 10
    endloop
  endfacet
  facet normal 0.596177 -0.776953 0.202281
    outer loop
      vertex -1.66309 2.83742 10
      vertex -0.85442 0.85442 0
      vertex -0.794014 0.900772 0
    endloop
  endfacet
  facet normal -0.127828 0.970949 0.202281
    outer loop
      vertex 7.07549 -1.1984 0
      vertex 7 -3.29167 10
      vertex 7.83038 -3.18235 10
    endloop
  endfacet
  facet normal -0.127828 0.970949 0.202281
    outer loop
      vertex 7 -3.29167 10
      vertex 7.07549 -1.1984 0
      vertex 7 -1.20833 0
    endloop
  endfacet
  facet normal -0.374772 0.904781 0.202281
    outer loop
      vertex 7.60417 -1.04645 0
      vertex 7.87204 -3.17118 10
      vertex 8.64583 -2.85067 10
    endloop
  endfacet
  facet normal -0.374772 0.904781 0.202281
    outer loop
      vertex 7.87204 -3.17118 10
      vertex 7.60417 -1.04645 0
      vertex 7.53382 -1.07558 0
    endloop
  endfacet
  facet normal -0.127828 -0.970949 0.202281
    outer loop
      vertex 7.07549 1.1984 0
      vertex 7 3.29167 10
      vertex 7 1.20833 0
    endloop
  endfacet
  facet normal -0.127828 -0.970949 0.202281
    outer loop
      vertex 7 3.29167 10
      vertex 7.07549 1.1984 0
      vertex 7.83038 3.18235 10
    endloop
  endfacet
  facet normal -0.12783 -0.970949 0.202281
    outer loop
      vertex 7.31274 1.16716 0
      vertex 7.83038 3.18235 10
      vertex 7.07549 1.1984 0
    endloop
  endfacet
  facet normal -0.12783 -0.970949 0.202281
    outer loop
      vertex 7.83038 3.18235 10
      vertex 7.31274 1.16716 0
      vertex 7.85195 3.17951 10
    endloop
  endfacet
  facet normal -0.776954 0.596175 0.202281
    outer loop
      vertex 7.85442 -0.85442 0
      vertex 9.83742 -1.66309 10
      vertex 7.90077 -0.794014 0
    endloop
  endfacet
  facet normal -0.776953 0.596177 0.202281
    outer loop
      vertex 9.83742 -1.66309 10
      vertex 7.85442 -0.85442 0
      vertex 9.32756 -2.32756 10
    endloop
  endfacet
  facet normal -0.776953 -0.596176 0.202281
    outer loop
      vertex 7.85442 0.85442 0
      vertex 9.83742 1.66309 10
      vertex 9.32756 2.32756 10
    endloop
  endfacet
  facet normal -0.776955 -0.596174 0.202281
    outer loop
      vertex 9.83742 1.66309 10
      vertex 7.85442 0.85442 0
      vertex 7.90077 0.794014 0
    endloop
  endfacet
  facet normal -0.904781 -0.374773 0.202281
    outer loop
      vertex 8.04645 0.604166 0
      vertex 10.1712 0.872044 10
      vertex 9.85067 1.64583 10
    endloop
  endfacet
  facet normal -0.904781 -0.374773 0.202281
    outer loop
      vertex 10.1712 0.872044 10
      vertex 8.04645 0.604166 0
      vertex 8.07558 0.533821 0
    endloop
  endfacet
  facet normal 0.904781 0.374773 0.202281
    outer loop
      vertex -3.17951 -0.851946 10
      vertex -1.07558 -0.533821 0
      vertex -1.16716 -0.312739 0
    endloop
  endfacet
  facet normal 0.904779 0.374775 0.202281
    outer loop
      vertex -1.07558 -0.533821 0
      vertex -3.17951 -0.851946 10
      vertex -3.17118 -0.872044 10
    endloop
  endfacet
  facet normal 0.776953 0.596177 0.202281
    outer loop
      vertex -2.83742 -1.66309 10
      vertex -0.85442 -0.85442 0
      vertex -0.900772 -0.794014 0
    endloop
  endfacet
  facet normal 0.776953 0.596176 0.202281
    outer loop
      vertex -0.85442 -0.85442 0
      vertex -2.83742 -1.66309 10
      vertex -2.32756 -2.32756 10
    endloop
  endfacet
  facet normal 0.12783 0.970949 0.202281
    outer loop
      vertex -0.312739 -1.16716 0
      vertex -0.830378 -3.18235 10
      vertex -0.0754889 -1.1984 0
    endloop
  endfacet
  facet normal 0.127831 0.970949 0.202281
    outer loop
      vertex -0.830378 -3.18235 10
      vertex -0.312739 -1.16716 0
      vertex -0.851946 -3.17951 10
    endloop
  endfacet
  facet normal -0.12783 0.970949 0.202281
    outer loop
      vertex 7.31274 -1.16716 0
      vertex 7.83038 -3.18235 10
      vertex 7.85195 -3.17951 10
    endloop
  endfacet
  facet normal -0.12783 0.970949 0.202281
    outer loop
      vertex 7.83038 -3.18235 10
      vertex 7.31274 -1.16716 0
      vertex 7.07549 -1.1984 0
    endloop
  endfacet
  facet normal -0.904781 0.374773 0.202281
    outer loop
      vertex 8.07558 -0.533822 0
      vertex 10.1795 -0.851946 10
      vertex 8.16716 -0.312739 0
    endloop
  endfacet
  facet normal -0.904787 0.374756 0.202282
    outer loop
      vertex 10.1795 -0.851946 10
      vertex 8.07558 -0.533822 0
      vertex 10.1712 -0.872044 10
    endloop
  endfacet
  facet normal -0.374772 -0.904781 0.202281
    outer loop
      vertex 7.60417 1.04645 0
      vertex 7.87204 3.17118 10
      vertex 7.53382 1.07558 0
    endloop
  endfacet
  facet normal -0.374772 -0.904781 0.202281
    outer loop
      vertex 7.87204 3.17118 10
      vertex 7.60417 1.04645 0
      vertex 8.64583 2.85067 10
    endloop
  endfacet
  facet normal -0.970949 -0.127827 0.202281
    outer loop
      vertex 10.2917 0 10
      vertex 8.19839 0.0754889 0
      vertex 8.20833 0 0
    endloop
  endfacet
  facet normal -0.970949 -0.127828 0.202281
    outer loop
      vertex 8.19839 0.0754889 0
      vertex 10.2917 0 10
      vertex 10.1823 0.830378 10
    endloop
  endfacet
  facet normal -0.596161 0.776965 0.202282
    outer loop
      vertex 7.79401 -0.900772 0
      vertex 8.64583 -2.85067 10
      vertex 8.66309 -2.83742 10
    endloop
  endfacet
  facet normal -0.596176 0.776953 0.202281
    outer loop
      vertex 8.64583 -2.85067 10
      vertex 7.79401 -0.900772 0
      vertex 7.60417 -1.04645 0
    endloop
  endfacet
  facet normal -0.904781 0.374772 0.202281
    outer loop
      vertex 8.04645 -0.604167 0
      vertex 10.1712 -0.872044 10
      vertex 8.07558 -0.533822 0
    endloop
  endfacet
  facet normal -0.904781 0.374772 0.202281
    outer loop
      vertex 10.1712 -0.872044 10
      vertex 8.04645 -0.604167 0
      vertex 9.85067 -1.64583 10
    endloop
  endfacet
  facet normal -0.970949 0.127827 0.202281
    outer loop
      vertex 8.19839 -0.0754889 0
      vertex 10.2917 0 10
      vertex 8.20833 0 0
    endloop
  endfacet
  facet normal -0.970949 0.127828 0.202281
    outer loop
      vertex 10.2917 0 10
      vertex 8.19839 -0.0754889 0
      vertex 10.1823 -0.830378 10
    endloop
  endfacet
  facet normal -0.970949 0.127828 0.202281
    outer loop
      vertex 8.16716 -0.312739 0
      vertex 10.1823 -0.830378 10
      vertex 8.19839 -0.0754889 0
    endloop
  endfacet
  facet normal -0.970946 0.127852 0.202282
    outer loop
      vertex 10.1823 -0.830378 10
      vertex 8.16716 -0.312739 0
      vertex 10.1795 -0.851946 10
    endloop
  endfacet
  facet normal -0.776943 -0.59619 0.20228
    outer loop
      vertex 7.90077 0.794014 0
      vertex 9.85067 1.64583 10
      vertex 9.83742 1.66309 10
    endloop
  endfacet
  facet normal -0.776954 -0.596175 0.202281
    outer loop
      vertex 9.85067 1.64583 10
      vertex 7.90077 0.794014 0
      vertex 8.04645 0.604166 0
    endloop
  endfacet
  facet normal -0.374771 0.904781 0.202281
    outer loop
      vertex 7.53382 -1.07558 0
      vertex 7.85195 -3.17951 10
      vertex 7.87204 -3.17118 10
    endloop
  endfacet
  facet normal -0.374772 0.904781 0.202281
    outer loop
      vertex 7.85195 -3.17951 10
      vertex 7.53382 -1.07558 0
      vertex 7.31274 -1.16716 0
    endloop
  endfacet
  facet normal -0.776953 0.596177 0.202281
    outer loop
      vertex 7.90077 -0.794014 0
      vertex 9.85067 -1.64583 10
      vertex 8.04645 -0.604167 0
    endloop
  endfacet
  facet normal -0.776943 0.59619 0.20228
    outer loop
      vertex 9.85067 -1.64583 10
      vertex 7.90077 -0.794014 0
      vertex 9.83742 -1.66309 10
    endloop
  endfacet
  facet normal -0.970946 -0.127852 0.202282
    outer loop
      vertex 8.16716 0.312739 0
      vertex 10.1823 0.830378 10
      vertex 10.1795 0.851946 10
    endloop
  endfacet
  facet normal -0.970949 -0.127828 0.202281
    outer loop
      vertex 10.1823 0.830378 10
      vertex 8.16716 0.312739 0
      vertex 8.19839 0.0754889 0
    endloop
  endfacet
  facet normal -0.596176 -0.776953 0.202281
    outer loop
      vertex 7.79401 0.900772 0
      vertex 8.64583 2.85067 10
      vertex 7.60417 1.04645 0
    endloop
  endfacet
  facet normal -0.596161 -0.776965 0.202282
    outer loop
      vertex 8.64583 2.85067 10
      vertex 7.79401 0.900772 0
      vertex 8.66309 2.83742 10
    endloop
  endfacet
  facet normal -0.596177 -0.776953 0.202281
    outer loop
      vertex 7.85442 0.85442 0
      vertex 8.66309 2.83742 10
      vertex 7.79401 0.900772 0
    endloop
  endfacet
  facet normal -0.596177 -0.776952 0.202281
    outer loop
      vertex 8.66309 2.83742 10
      vertex 7.85442 0.85442 0
      vertex 9.32756 2.32756 10
    endloop
  endfacet
  facet normal -0.904787 -0.374757 0.202282
    outer loop
      vertex 8.07558 0.533821 0
      vertex 10.1795 0.851946 10
      vertex 10.1712 0.872044 10
    endloop
  endfacet
  facet normal -0.90478 -0.374774 0.202281
    outer loop
      vertex 10.1795 0.851946 10
      vertex 8.07558 0.533821 0
      vertex 8.16716 0.312739 0
    endloop
  endfacet
  facet normal -1 0 0
    outer loop
      vertex 0 3.5 0
      vertex 0 6.4 10
      vertex 0 6.4 0
    endloop
  endfacet
  facet normal -1 -0 0
    outer loop
      vertex 0 6.4 10
      vertex 0 3.5 0
      vertex 0 3.5 10
    endloop
  endfacet
  facet normal 1 -0 0
    outer loop
      vertex 7 3.5 10
      vertex 7 6.4 0
      vertex 7 6.4 10
    endloop
  endfacet
  facet normal 1 0 0
    outer loop
      vertex 7 6.4 0
      vertex 7 3.5 10
      vertex 7 3.5 0
    endloop
  endfacet
  facet normal 0 1 -0
    outer loop
      vertex 7 6.4 0
      vertex 0 6.4 10
      vertex 7 6.4 10
    endloop
  endfacet
  facet normal 0 1 0
    outer loop
      vertex 0 6.4 10
      vertex 7 6.4 0
      vertex 0 6.4 0
    endloop
  endfacet
  facet normal 1 -0 0
    outer loop
      vertex 1 3.5 10
      vertex 1 5 0
      vertex 1 5 10
    endloop
  endfacet
  facet normal 1 0 0
    outer loop
      vertex 1 5 0
      vertex 1 3.5 10
      vertex 1 3.5 0
    endloop
  endfacet
  facet normal -1 0 0
    outer loop
      vertex 6 3.5 0
      vertex 6 5 10
      vertex 6 5 0
    endloop
  endfacet
  facet normal -1 -0 0
    outer loop
      vertex 6 5 10
      vertex 6 3.5 0
      vertex 6 3.5 10
    endloop
  endfacet
  facet normal 0 -1 0
    outer loop
      vertex 1 5 0
      vertex 6 5 10
      vertex 1 5 10
    endloop
  endfacet
  facet normal 0 -1 -0
    outer loop
      vertex 6 5 10
      vertex 1 5 0
      vertex 6 5 0
    endloop
  endfacet
  facet normal -1 0 0
    outer loop
      vertex 0 -6.4 0
      vertex 0 -3.5 10
      vertex 0 -3.5 0
    endloop
  endfacet
  facet normal -1 -0 0
    outer loop
      vertex 0 -3.5 10
      vertex 0 -6.4 0
      vertex 0 -6.4 10
    endloop
  endfacet
  facet normal 1 -0 0
    outer loop
      vertex 7 -6.4 10
      vertex 7 -3.5 0
      vertex 7 -3.5 10
    endloop
  endfacet
  facet normal 1 0 0
    outer loop
      vertex 7 -3.5 0
      vertex 7 -6.4 10
      vertex 7 -6.4 0
    endloop
  endfacet
  facet normal 0 -1 0
    outer loop
      vertex 0 -6.4 0
      vertex 7 -6.4 10
      vertex 0 -6.4 10
    endloop
  endfacet
  facet normal 0 -1 -0
    outer loop
      vertex 7 -6.4 10
      vertex 0 -6.4 0
      vertex 7 -6.4 0
    endloop
  endfacet
  facet normal 1 -0 0
    outer loop
      vertex 1 -5 10
      vertex 1 -3.5 0
      vertex 1 -3.5 10
    endloop
  endfacet
  facet normal 1 0 0
    outer loop
      vertex 1 -3.5 0
      vertex 1 -5 10
      vertex 1 -5 0
    endloop
  endfacet
  facet normal -1 0 0
    outer loop
      vertex 6 -5 0
      vertex 6 -3.5 10
      vertex 6 -3.5 0
    endloop
  endfacet
  facet normal -1 -0 0
    outer loop
      vertex 6 -3.5 10
      vertex 6 -5 0
      vertex 6 -5 10
    endloop
  endfacet
  facet normal 0 1 -0
    outer loop
      vertex 6 -5 0
      vertex 1 -5 10
      vertex 6 -5 10
    endloop
  endfacet
  facet normal 0 1 0
    outer loop
      vertex 1 -5 10
      vertex 6 -5 0
      vertex 1 -5 0
    endloop
  endfacet
endsolid OpenSCAD_Model
