solid OpenSCAD_Model
  facet normal 0 -1 0
    outer loop
      vertex -24.1 -6.85317 3.92705
      vertex -24.1 -6.85317 2.07295
      vertex -14 -6.85317 2.07295
    endloop
  endfacet
  facet normal 0 -1 0
    outer loop
      vertex -14 -6.85317 3.92705
      vertex -24.1 -6.85317 3.92705
      vertex -14 -6.85317 2.07295
    endloop
  endfacet
  facet normal 0 -0.809017 -0.587785
    outer loop
      vertex -14 -6.85317 2.07295
      vertex -24.1 -6.85317 2.07295
      vertex -24.1 -5.76336 0.572949
    endloop
  endfacet
  facet normal 0 -0.809017 -0.587785
    outer loop
      vertex -14 -5.76336 0.572949
      vertex -14 -6.85317 2.07295
      vertex -24.1 -5.76336 0.572949
    endloop
  endfacet
  facet normal -1 0 0
    outer loop
      vertex -24.1 -6.85317 2.07295
      vertex -24.1 -6.85317 3.92705
      vertex -24.1 -5.76336 0.572949
    endloop
  endfacet
  facet normal -1 0 0
    outer loop
      vertex -24.1 -5.76336 0.572949
      vertex -24.1 -6.85317 3.92705
      vertex -24.1 -5.76336 5.42705
    endloop
  endfacet
  facet normal -1 0 0
    outer loop
      vertex -24.1 -5.72658 3.46353
      vertex -24.1 -5.76336 5.42705
      vertex -24.1 -4 6
    endloop
  endfacet
  facet normal -1 0 0
    outer loop
      vertex -24.1 -4.3 4.5
      vertex -24.1 -4 6
      vertex -24.1 -2.23664 5.42705
    endloop
  endfacet
  facet normal -1 0 0
    outer loop
      vertex -24.1 -2.87341 3.46353
      vertex -24.1 -2.23664 5.42705
      vertex -24.1 -1.14683 3.92705
    endloop
  endfacet
  facet normal -1 0 0
    outer loop
      vertex -24.1 -3.41832 1.78648
      vertex -24.1 -1.14683 3.92705
      vertex -24.1 -1.14683 2.07295
    endloop
  endfacet
  facet normal -1 0 0
    outer loop
      vertex -24.1 -5.76336 0.572949
      vertex -24.1 -1.14683 2.07295
      vertex -24.1 -2.23664 0.572949
    endloop
  endfacet
  facet normal -1 0 0
    outer loop
      vertex -24.1 -5.76336 0.572949
      vertex -24.1 -2.23664 0.572949
      vertex -24.1 -4 0
    endloop
  endfacet
  facet normal -1 0 0
    outer loop
      vertex -24.1 -5.76336 0.572949
      vertex -24.1 -5.76336 5.42705
      vertex -24.1 -5.72658 3.46353
    endloop
  endfacet
  facet normal -1 0 0
    outer loop
      vertex -24.1 -5.18168 1.78648
      vertex -24.1 -5.76336 0.572949
      vertex -24.1 -5.72658 3.46353
    endloop
  endfacet
  facet normal -1 0 0
    outer loop
      vertex -24.1 -2.87341 3.46353
      vertex -24.1 -1.14683 3.92705
      vertex -24.1 -3.41832 1.78648
    endloop
  endfacet
  facet normal -1 0 0
    outer loop
      vertex -24.1 -5.76336 0.572949
      vertex -24.1 -3.41832 1.78648
      vertex -24.1 -1.14683 2.07295
    endloop
  endfacet
  facet normal -1 0 0
    outer loop
      vertex -24.1 -4.3 4.5
      vertex -24.1 -2.23664 5.42705
      vertex -24.1 -2.87341 3.46353
    endloop
  endfacet
  facet normal -1 0 0
    outer loop
      vertex -24.1 -5.72658 3.46353
      vertex -24.1 -4 6
      vertex -24.1 -4.3 4.5
    endloop
  endfacet
  facet normal -1 0 0
    outer loop
      vertex -24.1 -3.41832 1.78648
      vertex -24.1 -5.76336 0.572949
      vertex -24.1 -5.18168 1.78648
    endloop
  endfacet
  facet normal 0 -0.809017 0.587785
    outer loop
      vertex -24.1 -5.76336 5.42705
      vertex -24.1 -6.85317 3.92705
      vertex -14 -6.85317 3.92705
    endloop
  endfacet
  facet normal 0 -0.809017 0.587785
    outer loop
      vertex -14 -5.76336 5.42705
      vertex -24.1 -5.76336 5.42705
      vertex -14 -6.85317 3.92705
    endloop
  endfacet
  facet normal 0.62896 -0.62896 0.456966
    outer loop
      vertex -14 -5.76336 5.42705
      vertex -14 -6.85317 3.92705
      vertex -12.2354 -5.0886 3.92705
    endloop
  endfacet
  facet normal 0.62896 -0.62896 0.456966
    outer loop
      vertex -10 -2.85317 3.92705
      vertex -14 -5.76336 5.42705
      vertex -11.8631 -4.3 4.5
    endloop
  endfacet
  facet normal 0.62896 -0.62896 0.456966
    outer loop
      vertex -11.8631 -4.3 4.5
      vertex -14 -5.76336 5.42705
      vertex -12.2354 -5.0886 3.92705
    endloop
  endfacet
  facet normal 0.62896 -0.62896 0.456966
    outer loop
      vertex -10 -2.85317 3.92705
      vertex -11.8631 -4.3 4.5
      vertex -10.6582 -3.5114 3.92705
    endloop
  endfacet
  facet normal 0.707107 -0.707107 0
    outer loop
      vertex -14 -6.85317 3.92705
      vertex -14 -6.85317 2.07295
      vertex -12.4216 -5.27476 2.07295
    endloop
  endfacet
  facet normal 0.707107 -0.707107 0
    outer loop
      vertex -12.2354 -5.0886 3.92705
      vertex -14 -6.85317 3.92705
      vertex -12.8734 -5.72658 3.46353
    endloop
  endfacet
  facet normal 0.707107 -0.707107 0
    outer loop
      vertex -12.8734 -5.72658 3.46353
      vertex -14 -6.85317 3.92705
      vertex -12.4216 -5.27476 2.07295
    endloop
  endfacet
  facet normal 0.62896 -0.62896 -0.456966
    outer loop
      vertex -12.4216 -5.27476 2.07295
      vertex -14 -6.85317 2.07295
      vertex -14 -5.76336 0.572949
    endloop
  endfacet
  facet normal 0.62896 -0.62896 -0.456966
    outer loop
      vertex -12.5366 -5.18168 1.78648
      vertex -12.4216 -5.27476 2.07295
      vertex -14 -5.76336 0.572949
    endloop
  endfacet
  facet normal 0.62896 -0.62896 -0.456966
    outer loop
      vertex -10 -2.85317 2.07295
      vertex -10.7733 -3.41832 1.78648
      vertex -14 -5.76336 0.572949
    endloop
  endfacet
  facet normal 0.62896 -0.62896 -0.456966
    outer loop
      vertex -10 -2.85317 2.07295
      vertex -10.4721 -3.32524 2.07295
      vertex -10.7733 -3.41832 1.78648
    endloop
  endfacet
  facet normal 0.62896 -0.62896 -0.456966
    outer loop
      vertex -10.7733 -3.41832 1.78648
      vertex -12.5366 -5.18168 1.78648
      vertex -14 -5.76336 0.572949
    endloop
  endfacet
  facet normal 0.62896 -0.62896 -0.456966
    outer loop
      vertex -10 -2.85317 2.07295
      vertex -14 -5.76336 0.572949
      vertex -10 -1.76336 0.572949
    endloop
  endfacet
  facet normal 0.295242 -0.295242 -0.908661
    outer loop
      vertex -14 -5.76336 0.572949
      vertex -14 -4 0
      vertex -10 -1.76336 0.572949
    endloop
  endfacet
  facet normal 0.295242 -0.295242 -0.908661
    outer loop
      vertex -10 -1.76336 0.572949
      vertex -14 -4 0
      vertex -10 0 0
    endloop
  endfacet
  facet normal 0 -0.309017 -0.951057
    outer loop
      vertex -24.1 -5.76336 0.572949
      vertex -24.1 -4 0
      vertex -14 -5.76336 0.572949
    endloop
  endfacet
  facet normal 0 -0.309017 -0.951057
    outer loop
      vertex -14 -5.76336 0.572949
      vertex -24.1 -4 0
      vertex -14.1 -4 0
    endloop
  endfacet
  facet normal 0 -0.309017 -0.951057
    outer loop
      vertex -14 -5.76336 0.572949
      vertex -14.1 -4 0
      vertex -14 -4 0
    endloop
  endfacet
  facet normal 0 0.309017 -0.951057
    outer loop
      vertex -24.1 -4 0
      vertex -24.1 -2.23664 0.572949
      vertex -14.1 -4 0
    endloop
  endfacet
  facet normal 0 0.309017 -0.951057
    outer loop
      vertex -14.1 -4 0
      vertex -24.1 -2.23664 0.572949
      vertex -14.1 -2.23664 0.572949
    endloop
  endfacet
  facet normal 0 0.809017 -0.587785
    outer loop
      vertex -24.1 -2.23664 0.572949
      vertex -24.1 -1.14683 2.07295
      vertex -14.1 -2.23664 0.572949
    endloop
  endfacet
  facet normal 0 0.809017 -0.587785
    outer loop
      vertex -14.1 -2.23664 0.572949
      vertex -24.1 -1.14683 2.07295
      vertex -14.1 -1.14683 2.07295
    endloop
  endfacet
  facet normal 0 1 0
    outer loop
      vertex -24.1 -1.14683 2.07295
      vertex -24.1 -1.14683 3.92705
      vertex -14.1 -1.14683 2.07295
    endloop
  endfacet
  facet normal 0 1 0
    outer loop
      vertex -14.1 -1.14683 2.07295
      vertex -24.1 -1.14683 3.92705
      vertex -14.1 -1.14683 3.92705
    endloop
  endfacet
  facet normal 0 0.809017 0.587785
    outer loop
      vertex -24.1 -2.23664 5.42705
      vertex -14.1 -2.23664 5.42705
      vertex -24.1 -1.14683 3.92705
    endloop
  endfacet
  facet normal 0 0.809017 0.587785
    outer loop
      vertex -24.1 -1.14683 3.92705
      vertex -14.1 -2.23664 5.42705
      vertex -14.1 -1.14683 3.92705
    endloop
  endfacet
  facet normal 0 0.309017 0.951057
    outer loop
      vertex -24.1 -2.23664 5.42705
      vertex -24.1 -4 6
      vertex -14.1 -4 6
    endloop
  endfacet
  facet normal 0 0.309017 0.951057
    outer loop
      vertex -14.1 -2.23664 5.42705
      vertex -24.1 -2.23664 5.42705
      vertex -14.1 -4 6
    endloop
  endfacet
  facet normal 0 -0.309017 0.951057
    outer loop
      vertex -24.1 -4 6
      vertex -24.1 -5.76336 5.42705
      vertex -14 -5.76336 5.42705
    endloop
  endfacet
  facet normal 0 -0.309017 0.951057
    outer loop
      vertex -14.1 -4 6
      vertex -24.1 -4 6
      vertex -14 -5.76336 5.42705
    endloop
  endfacet
  facet normal 0 -0.309017 0.951057
    outer loop
      vertex -14 -4 6
      vertex -14.1 -4 6
      vertex -14 -5.76336 5.42705
    endloop
  endfacet
  facet normal -1.79638e-16 0.587785 -0.809017
    outer loop
      vertex -11.8631 -4.3 4.5
      vertex -12.2354 -5.0886 3.92705
      vertex -24.1 -4.3 4.5
    endloop
  endfacet
  facet normal -1.79638e-16 0.587785 -0.809017
    outer loop
      vertex -24.1 -4.3 4.5
      vertex -12.2354 -5.0886 3.92705
      vertex -12.8734 -5.72658 3.46353
    endloop
  endfacet
  facet normal -1.79638e-16 0.587785 -0.809017
    outer loop
      vertex -24.1 -4.3 4.5
      vertex -12.8734 -5.72658 3.46353
      vertex -24.1 -5.72658 3.46353
    endloop
  endfacet
  facet normal 6.86156e-17 0.951056 0.309017
    outer loop
      vertex -12.4216 -5.27476 2.07295
      vertex -12.5366 -5.18168 1.78648
      vertex -12.8734 -5.72658 3.46353
    endloop
  endfacet
  facet normal 6.86156e-17 0.951056 0.309017
    outer loop
      vertex -12.8734 -5.72658 3.46353
      vertex -12.5366 -5.18168 1.78648
      vertex -24.1 -5.18168 1.78648
    endloop
  endfacet
  facet normal 6.86156e-17 0.951056 0.309017
    outer loop
      vertex -12.8734 -5.72658 3.46353
      vertex -24.1 -5.18168 1.78648
      vertex -24.1 -5.72658 3.46353
    endloop
  endfacet
  facet normal -1.79638e-16 -0.587785 -0.809017
    outer loop
      vertex -10.0202 -2.87341 3.46353
      vertex -10.6582 -3.5114 3.92705
      vertex -24.1 -2.87341 3.46353
    endloop
  endfacet
  facet normal -1.79638e-16 -0.587785 -0.809017
    outer loop
      vertex -24.1 -2.87341 3.46353
      vertex -10.6582 -3.5114 3.92705
      vertex -11.8631 -4.3 4.5
    endloop
  endfacet
  facet normal -1.79638e-16 -0.587785 -0.809017
    outer loop
      vertex -24.1 -2.87341 3.46353
      vertex -11.8631 -4.3 4.5
      vertex -24.1 -4.3 4.5
    endloop
  endfacet
  facet normal 6.86156e-17 -0.951056 0.309017
    outer loop
      vertex -10.7733 -3.41832 1.78648
      vertex -10.4721 -3.32524 2.07295
      vertex -10.0202 -2.87341 3.46353
    endloop
  endfacet
  facet normal 6.86156e-17 -0.951056 0.309017
    outer loop
      vertex -24.1 -3.41832 1.78648
      vertex -10.7733 -3.41832 1.78648
      vertex -24.1 -2.87341 3.46353
    endloop
  endfacet
  facet normal 6.86156e-17 -0.951056 0.309017
    outer loop
      vertex -24.1 -2.87341 3.46353
      vertex -10.7733 -3.41832 1.78648
      vertex -10.0202 -2.87341 3.46353
    endloop
  endfacet
  facet normal 2.22045e-16 0 1
    outer loop
      vertex -12.5366 -5.18168 1.78648
      vertex -10.7733 -3.41832 1.78648
      vertex -24.1 -3.41832 1.78648
    endloop
  endfacet
  facet normal 2.22045e-16 0 1
    outer loop
      vertex -24.1 -5.18168 1.78648
      vertex -12.5366 -5.18168 1.78648
      vertex -24.1 -3.41832 1.78648
    endloop
  endfacet
  facet normal 0.295242 -0.295242 0.908661
    outer loop
      vertex -14 -4 6
      vertex -14 -5.76336 5.42705
      vertex -10 -1.76336 5.42705
    endloop
  endfacet
  facet normal 0.295242 -0.295242 0.908661
    outer loop
      vertex -10 0 6
      vertex -14 -4 6
      vertex -10 -1.76336 5.42705
    endloop
  endfacet
  facet normal 0.62896 -0.62896 0.456966
    outer loop
      vertex -10 -1.76336 5.42705
      vertex -14 -5.76336 5.42705
      vertex -10 -2.85317 3.92705
    endloop
  endfacet
  facet normal -0.0047259 -0.809008 0.587779
    outer loop
      vertex -2.71847 -2.84271 4
      vertex -10 -2.85317 3.92705
      vertex -0.927051 -2.85317 4
    endloop
  endfacet
  facet normal -0.0047259 -0.809008 0.587779
    outer loop
      vertex -10 -1.76336 5.42705
      vertex -10 -2.85317 3.92705
      vertex -2.71847 -2.84271 4
    endloop
  endfacet
  facet normal -0.0047259 -0.809008 0.587779
    outer loop
      vertex -10 -1.76336 5.42705
      vertex -2.71847 -2.84271 4
      vertex -2.99404 -2.65249 4.25959
    endloop
  endfacet
  facet normal -0.0047259 -0.809008 0.587779
    outer loop
      vertex -10 -1.76336 5.42705
      vertex -2.99404 -2.65249 4.25959
      vertex -3.02071 -2.60169 4.3293
    endloop
  endfacet
  facet normal 0 -1 0
    outer loop
      vertex -10 -2.85317 3.92705
      vertex -10 -2.85317 2.07295
      vertex -0.927051 -2.85317 0
    endloop
  endfacet
  facet normal 0 -1 0
    outer loop
      vertex 0.927051 -2.85317 4
      vertex -10 -2.85317 3.92705
      vertex 0.927051 -2.85317 0
    endloop
  endfacet
  facet normal 0 -1 0
    outer loop
      vertex 0.927051 -2.85317 0
      vertex -10 -2.85317 3.92705
      vertex -0.927051 -2.85317 0
    endloop
  endfacet
  facet normal 0 -1 0
    outer loop
      vertex -0.927051 -2.85317 4
      vertex -10 -2.85317 3.92705
      vertex 0.927051 -2.85317 4
    endloop
  endfacet
  facet normal 0.707107 -0.707107 0
    outer loop
      vertex -10 -2.85317 3.92705
      vertex -10.6582 -3.5114 3.92705
      vertex -10.0202 -2.87341 3.46353
    endloop
  endfacet
  facet normal 0.707107 -0.707107 0
    outer loop
      vertex -10 -2.85317 2.07295
      vertex -10 -2.85317 3.92705
      vertex -10.0202 -2.87341 3.46353
    endloop
  endfacet
  facet normal 0.707107 -0.707107 0
    outer loop
      vertex -10.4721 -3.32524 2.07295
      vertex -10 -2.85317 2.07295
      vertex -10.0202 -2.87341 3.46353
    endloop
  endfacet
  facet normal -0.1331 -0.801819 -0.582556
    outer loop
      vertex -0.927051 -2.85317 0
      vertex -10 -2.85317 2.07295
      vertex -10 -1.76336 0.572949
    endloop
  endfacet
  facet normal -0.0967209 -0.307568 -0.946598
    outer loop
      vertex -0.927051 -2.85317 0
      vertex -10 -1.76336 0.572949
      vertex -10 0 0
    endloop
  endfacet
  facet normal 0 0 -1
    outer loop
      vertex -14.1 -4 0
      vertex -10.1 0 0
      vertex -14 -4 0
    endloop
  endfacet
  facet normal 0 0 -1
    outer loop
      vertex -14 -4 0
      vertex -10.1 0 0
      vertex -10 0 0
    endloop
  endfacet
  facet normal 0 0 -1
    outer loop
      vertex 0.463525 -1.42658 0
      vertex -0.927051 -2.85317 0
      vertex -1.21352 -0.881678 0
    endloop
  endfacet
  facet normal 0 0 -1
    outer loop
      vertex 0.463525 1.42658 0
      vertex -0.927051 2.85317 0
      vertex 0.927051 2.85317 0
    endloop
  endfacet
  facet normal 0 0 -1
    outer loop
      vertex 1.5 0 0
      vertex 2.42705 1.76336 0
      vertex 3 0 0
    endloop
  endfacet
  facet normal 0 0 -1
    outer loop
      vertex -0.927051 -2.85317 0
      vertex 3 0 0
      vertex 2.42705 -1.76336 0
    endloop
  endfacet
  facet normal 0 0 -1
    outer loop
      vertex -0.927051 -2.85317 0
      vertex 2.42705 -1.76336 0
      vertex 0.927051 -2.85317 0
    endloop
  endfacet
  facet normal 0 0 -1
    outer loop
      vertex -10 0 0
      vertex -0.927051 2.85317 0
      vertex -1.21352 0.881678 0
    endloop
  endfacet
  facet normal 0 0 -1
    outer loop
      vertex -10 0 0
      vertex -1.21352 0.881678 0
      vertex -1.21352 -0.881678 0
    endloop
  endfacet
  facet normal 0 0 -1
    outer loop
      vertex -10 0 0
      vertex -1.21352 -0.881678 0
      vertex -0.927051 -2.85317 0
    endloop
  endfacet
  facet normal 0 0 -1
    outer loop
      vertex 0.463525 1.42658 0
      vertex 2.42705 1.76336 0
      vertex 1.5 0 0
    endloop
  endfacet
  facet normal 0 0 -1
    outer loop
      vertex -0.927051 -2.85317 0
      vertex 0.463525 -1.42658 0
      vertex 3 0 0
    endloop
  endfacet
  facet normal 0 0 -1
    outer loop
      vertex 0.463525 -1.42658 0
      vertex 1.5 0 0
      vertex 3 0 0
    endloop
  endfacet
  facet normal 0 0 -1
    outer loop
      vertex -1.21352 0.881678 0
      vertex -0.927051 2.85317 0
      vertex 0.463525 1.42658 0
    endloop
  endfacet
  facet normal 0 0 -1
    outer loop
      vertex 0.463525 1.42658 0
      vertex 0.927051 2.85317 0
      vertex 2.42705 1.76336 0
    endloop
  endfacet
  facet normal -0.0967209 0.307568 -0.946598
    outer loop
      vertex -0.927051 2.85317 0
      vertex -10 0 0
      vertex -10 1.76336 0.572949
    endloop
  endfacet
  facet normal 0 0.309017 -0.951057
    outer loop
      vertex -10.1 0 0
      vertex -10.1 1.76336 0.572949
      vertex -10 0 0
    endloop
  endfacet
  facet normal 0 0.309017 -0.951057
    outer loop
      vertex -10 0 0
      vertex -10.1 1.76336 0.572949
      vertex -10 1.76336 0.572949
    endloop
  endfacet
  facet normal -0.295242 0.295242 -0.908661
    outer loop
      vertex -14.1 -4 0
      vertex -14.1 -2.23664 0.572949
      vertex -10.1 0 0
    endloop
  endfacet
  facet normal -0.295242 0.295242 -0.908661
    outer loop
      vertex -10.1 0 0
      vertex -14.1 -2.23664 0.572949
      vertex -10.1 1.76336 0.572949
    endloop
  endfacet
  facet normal -0.62896 0.62896 -0.456966
    outer loop
      vertex -14.1 -2.23664 0.572949
      vertex -14.1 -1.14683 2.07295
      vertex -10.1 1.76336 0.572949
    endloop
  endfacet
  facet normal -0.62896 0.62896 -0.456966
    outer loop
      vertex -10.1 1.76336 0.572949
      vertex -14.1 -1.14683 2.07295
      vertex -10.1 2.85317 2.07295
    endloop
  endfacet
  facet normal -0.707107 0.707107 0
    outer loop
      vertex -14.1 -1.14683 2.07295
      vertex -14.1 -1.14683 3.92705
      vertex -10.1 2.85317 2.07295
    endloop
  endfacet
  facet normal -0.707107 0.707107 0
    outer loop
      vertex -10.1 2.85317 2.07295
      vertex -14.1 -1.14683 3.92705
      vertex -10.1 2.85317 3.92705
    endloop
  endfacet
  facet normal -0.62896 0.62896 0.456966
    outer loop
      vertex -14.1 -2.23664 5.42705
      vertex -10.1 1.76336 5.42705
      vertex -14.1 -1.14683 3.92705
    endloop
  endfacet
  facet normal -0.62896 0.62896 0.456966
    outer loop
      vertex -14.1 -1.14683 3.92705
      vertex -10.1 1.76336 5.42705
      vertex -10.1 2.85317 3.92705
    endloop
  endfacet
  facet normal -0.295242 0.295242 0.908661
    outer loop
      vertex -14.1 -2.23664 5.42705
      vertex -14.1 -4 6
      vertex -10.1 0 6
    endloop
  endfacet
  facet normal -0.295242 0.295242 0.908661
    outer loop
      vertex -10.1 1.76336 5.42705
      vertex -14.1 -2.23664 5.42705
      vertex -10.1 0 6
    endloop
  endfacet
  facet normal 0 0 1
    outer loop
      vertex -10.1 0 6
      vertex -14.1 -4 6
      vertex -14 -4 6
    endloop
  endfacet
  facet normal 0 0 1
    outer loop
      vertex -10 0 6
      vertex -10.1 0 6
      vertex -14 -4 6
    endloop
  endfacet
  facet normal 0 0.309017 0.951057
    outer loop
      vertex -10.1 1.76336 5.42705
      vertex -10.1 0 6
      vertex -10 0 6
    endloop
  endfacet
  facet normal 0 0.309017 0.951057
    outer loop
      vertex -3.88377 0.957263 5.68897
      vertex -10.1 1.76336 5.42705
      vertex -3.88377 0 6
    endloop
  endfacet
  facet normal 0 0.309017 0.951057
    outer loop
      vertex -3.88377 0 6
      vertex -10.1 1.76336 5.42705
      vertex -10 0 6
    endloop
  endfacet
  facet normal 0 0.309017 0.951057
    outer loop
      vertex -10 1.76336 5.42705
      vertex -10.1 1.76336 5.42705
      vertex -3.88377 0.957263 5.68897
    endloop
  endfacet
  facet normal 0 0.309017 0.951057
    outer loop
      vertex -3.4607 1.76336 5.42705
      vertex -10 1.76336 5.42705
      vertex -3.88377 0.957263 5.68897
    endloop
  endfacet
  facet normal 0 -0.309017 0.951057
    outer loop
      vertex -10 0 6
      vertex -10 -1.76336 5.42705
      vertex -3.4607 -1.76336 5.42705
    endloop
  endfacet
  facet normal 0 -0.309017 0.951057
    outer loop
      vertex -3.88377 0 6
      vertex -10 0 6
      vertex -3.88377 -0.957263 5.68897
    endloop
  endfacet
  facet normal 0 -0.309017 0.951057
    outer loop
      vertex -3.88377 -0.957263 5.68897
      vertex -10 0 6
      vertex -3.4607 -1.76336 5.42705
    endloop
  endfacet
  facet normal 0 -0.79475 0.606937
    outer loop
      vertex -3.4607 -1.76336 5.42705
      vertex -10 -1.76336 5.42705
      vertex -3.02071 -2.60169 4.3293
    endloop
  endfacet
  facet normal 0.885456 0.464723 0
    outer loop
      vertex -3.88377 -0.957263 5.68897
      vertex -3.4607 -1.76336 5.42705
      vertex -3.02071 -2.60169 4.3293
    endloop
  endfacet
  facet normal 0.885456 0.464723 0
    outer loop
      vertex -2.99404 -2.65249 4
      vertex -3.88377 -0.957263 5.68897
      vertex -2.99404 -2.65249 4.25959
    endloop
  endfacet
  facet normal 0.885456 0.464723 0
    outer loop
      vertex -2.99404 -2.65249 4.25959
      vertex -3.88377 -0.957263 5.68897
      vertex -3.02071 -2.60169 4.3293
    endloop
  endfacet
  facet normal 0.885456 0.464723 0
    outer loop
      vertex -3.88377 -0.957263 4
      vertex -3.88377 -0.957263 5.68897
      vertex -2.99404 -2.65249 4
    endloop
  endfacet
  facet normal 0.568065 0.822984 0
    outer loop
      vertex -2.99404 -2.65249 4.25959
      vertex -2.71847 -2.84271 4
      vertex -2.99404 -2.65249 4
    endloop
  endfacet
  facet normal 0 0 1
    outer loop
      vertex -2.99404 -2.65249 4
      vertex -2.71847 -2.84271 4
      vertex -0.927051 -2.85317 4
    endloop
  endfacet
  facet normal 0 0 1
    outer loop
      vertex 2.42705 -1.76336 4
      vertex -2.99404 -2.65249 4
      vertex 0.927051 -2.85317 4
    endloop
  endfacet
  facet normal 0 0 1
    outer loop
      vertex 0.927051 -2.85317 4
      vertex -2.99404 -2.65249 4
      vertex -0.927051 -2.85317 4
    endloop
  endfacet
  facet normal 0 0 1
    outer loop
      vertex 0.463525 -1.42658 4
      vertex -2.99404 -2.65249 4
      vertex 2.42705 -1.76336 4
    endloop
  endfacet
  facet normal 0 0 1
    outer loop
      vertex 0.463525 -1.42658 4
      vertex -1.21352 -0.881678 4
      vertex -2.99404 -2.65249 4
    endloop
  endfacet
  facet normal 0 0 1
    outer loop
      vertex 1.5 0 4
      vertex 0.463525 -1.42658 4
      vertex 3 0 4
    endloop
  endfacet
  facet normal 0 0 1
    outer loop
      vertex -2.71847 2.84271 4
      vertex -2.99404 -2.65249 4
      vertex -0.927051 2.85317 4
    endloop
  endfacet
  facet normal 0 0 1
    outer loop
      vertex -2.99404 2.65249 4
      vertex -2.99404 -2.65249 4
      vertex -2.71847 2.84271 4
    endloop
  endfacet
  facet normal 0 0 1
    outer loop
      vertex -3.88377 0.957263 4
      vertex -2.99404 -2.65249 4
      vertex -2.99404 2.65249 4
    endloop
  endfacet
  facet normal 0 0 1
    outer loop
      vertex -3.88377 -0.957263 4
      vertex -2.99404 -2.65249 4
      vertex -3.88377 0.957263 4
    endloop
  endfacet
  facet normal 0 0 1
    outer loop
      vertex -0.927051 2.85317 4
      vertex -1.21352 0.881678 4
      vertex 0.927051 2.85317 4
    endloop
  endfacet
  facet normal 0 0 1
    outer loop
      vertex -0.927051 2.85317 4
      vertex -2.99404 -2.65249 4
      vertex -1.21352 0.881678 4
    endloop
  endfacet
  facet normal 0 0 1
    outer loop
      vertex 0.927051 2.85317 4
      vertex 0.463525 1.42658 4
      vertex 2.42705 1.76336 4
    endloop
  endfacet
  facet normal 0 0 1
    outer loop
      vertex 2.42705 1.76336 4
      vertex 1.5 0 4
      vertex 3 0 4
    endloop
  endfacet
  facet normal 0 0 1
    outer loop
      vertex 3 0 4
      vertex 0.463525 -1.42658 4
      vertex 2.42705 -1.76336 4
    endloop
  endfacet
  facet normal 0 0 1
    outer loop
      vertex 0.463525 1.42658 4
      vertex 1.5 0 4
      vertex 2.42705 1.76336 4
    endloop
  endfacet
  facet normal 0 0 1
    outer loop
      vertex -1.21352 0.881678 4
      vertex 0.463525 1.42658 4
      vertex 0.927051 2.85317 4
    endloop
  endfacet
  facet normal 0 0 1
    outer loop
      vertex -1.21352 -0.881678 4
      vertex -1.21352 0.881678 4
      vertex -2.99404 -2.65249 4
    endloop
  endfacet
  facet normal 0.587785 -0.809017 0
    outer loop
      vertex 0.927051 -2.85317 4
      vertex 0.927051 -2.85317 0
      vertex 2.42705 -1.76336 0
    endloop
  endfacet
  facet normal 0.587785 -0.809017 0
    outer loop
      vertex 2.42705 -1.76336 4
      vertex 0.927051 -2.85317 4
      vertex 2.42705 -1.76336 0
    endloop
  endfacet
  facet normal 0.951057 -0.309017 0
    outer loop
      vertex 2.42705 -1.76336 4
      vertex 2.42705 -1.76336 0
      vertex 3 0 0
    endloop
  endfacet
  facet normal 0.951057 -0.309017 0
    outer loop
      vertex 3 0 4
      vertex 2.42705 -1.76336 4
      vertex 3 0 0
    endloop
  endfacet
  facet normal 0.951057 0.309017 0
    outer loop
      vertex 3 0 0
      vertex 2.42705 1.76336 0
      vertex 2.42705 1.76336 4
    endloop
  endfacet
  facet normal 0.951057 0.309017 0
    outer loop
      vertex 3 0 4
      vertex 3 0 0
      vertex 2.42705 1.76336 4
    endloop
  endfacet
  facet normal 0.587785 0.809017 0
    outer loop
      vertex 0.927051 2.85317 0
      vertex 0.927051 2.85317 4
      vertex 2.42705 1.76336 0
    endloop
  endfacet
  facet normal 0.587785 0.809017 0
    outer loop
      vertex 2.42705 1.76336 0
      vertex 0.927051 2.85317 4
      vertex 2.42705 1.76336 4
    endloop
  endfacet
  facet normal 0 1 0
    outer loop
      vertex -10.1 2.85317 2.07295
      vertex -10.1 2.85317 3.92705
      vertex -10 2.85317 2.07295
    endloop
  endfacet
  facet normal 0 1 0
    outer loop
      vertex -10 2.85317 2.07295
      vertex -10.1 2.85317 3.92705
      vertex -10 2.85317 3.92705
    endloop
  endfacet
  facet normal 0 1 0
    outer loop
      vertex -10 2.85317 2.07295
      vertex -10 2.85317 3.92705
      vertex -0.927051 2.85317 4
    endloop
  endfacet
  facet normal 0 1 0
    outer loop
      vertex -10 2.85317 2.07295
      vertex -0.927051 2.85317 4
      vertex 0.927051 2.85317 4
    endloop
  endfacet
  facet normal 0 1 0
    outer loop
      vertex -10 2.85317 2.07295
      vertex 0.927051 2.85317 4
      vertex 0.927051 2.85317 0
    endloop
  endfacet
  facet normal 0 1 0
    outer loop
      vertex -10 2.85317 2.07295
      vertex 0.927051 2.85317 0
      vertex -0.927051 2.85317 0
    endloop
  endfacet
  facet normal -0.1331 0.801819 -0.582556
    outer loop
      vertex -0.927051 2.85317 0
      vertex -10 1.76336 0.572949
      vertex -10 2.85317 2.07295
    endloop
  endfacet
  facet normal 0.309017 -0.951056 0
    outer loop
      vertex 0.463525 1.42658 0
      vertex 0.463525 1.42658 4
      vertex -1.21352 0.881678 4
    endloop
  endfacet
  facet normal 0.309017 -0.951056 0
    outer loop
      vertex -1.21352 0.881678 0
      vertex 0.463525 1.42658 0
      vertex -1.21352 0.881678 4
    endloop
  endfacet
  facet normal 1 0 0
    outer loop
      vertex -1.21352 0.881678 0
      vertex -1.21352 0.881678 4
      vertex -1.21352 -0.881678 4
    endloop
  endfacet
  facet normal 1 0 0
    outer loop
      vertex -1.21352 -0.881678 0
      vertex -1.21352 0.881678 0
      vertex -1.21352 -0.881678 4
    endloop
  endfacet
  facet normal -0.809017 -0.587785 0
    outer loop
      vertex 1.5 0 4
      vertex 0.463525 1.42658 4
      vertex 1.5 0 0
    endloop
  endfacet
  facet normal -0.809017 -0.587785 0
    outer loop
      vertex 1.5 0 0
      vertex 0.463525 1.42658 4
      vertex 0.463525 1.42658 0
    endloop
  endfacet
  facet normal -0.809017 0.587785 0
    outer loop
      vertex 1.5 0 4
      vertex 1.5 0 0
      vertex 0.463525 -1.42658 4
    endloop
  endfacet
  facet normal -0.809017 0.587785 0
    outer loop
      vertex 0.463525 -1.42658 4
      vertex 1.5 0 0
      vertex 0.463525 -1.42658 0
    endloop
  endfacet
  facet normal 0.309017 0.951056 0
    outer loop
      vertex 0.463525 -1.42658 4
      vertex 0.463525 -1.42658 0
      vertex -1.21352 -0.881678 4
    endloop
  endfacet
  facet normal 0.309017 0.951056 0
    outer loop
      vertex -1.21352 -0.881678 4
      vertex 0.463525 -1.42658 0
      vertex -1.21352 -0.881678 0
    endloop
  endfacet
  facet normal 0 0.809017 -0.587785
    outer loop
      vertex -10.1 1.76336 0.572949
      vertex -10.1 2.85317 2.07295
      vertex -10 1.76336 0.572949
    endloop
  endfacet
  facet normal 0 0.809017 -0.587785
    outer loop
      vertex -10 1.76336 0.572949
      vertex -10.1 2.85317 2.07295
      vertex -10 2.85317 2.07295
    endloop
  endfacet
  facet normal 0 0.809017 0.587785
    outer loop
      vertex -10.1 1.76336 5.42705
      vertex -10 1.76336 5.42705
      vertex -10.1 2.85317 3.92705
    endloop
  endfacet
  facet normal 0 0.809017 0.587785
    outer loop
      vertex -10.1 2.85317 3.92705
      vertex -10 1.76336 5.42705
      vertex -10 2.85317 3.92705
    endloop
  endfacet
  facet normal -0.0047259 0.809008 0.587779
    outer loop
      vertex -10 1.76336 5.42705
      vertex -3.02071 2.60169 4.3293
      vertex -10 2.85317 3.92705
    endloop
  endfacet
  facet normal -0.0047259 0.809008 0.587779
    outer loop
      vertex -10 2.85317 3.92705
      vertex -3.02071 2.60169 4.3293
      vertex -2.99404 2.65249 4.25959
    endloop
  endfacet
  facet normal -0.0047259 0.809008 0.587779
    outer loop
      vertex -10 2.85317 3.92705
      vertex -2.99404 2.65249 4.25959
      vertex -2.71847 2.84271 4
    endloop
  endfacet
  facet normal -0.0047259 0.809008 0.587779
    outer loop
      vertex -2.71847 2.84271 4
      vertex -0.927051 2.85317 4
      vertex -10 2.85317 3.92705
    endloop
  endfacet
  facet normal 0 0.79475 0.606937
    outer loop
      vertex -3.02071 2.60169 4.3293
      vertex -10 1.76336 5.42705
      vertex -3.4607 1.76336 5.42705
    endloop
  endfacet
  facet normal 0.885456 -0.464723 0
    outer loop
      vertex -2.99404 2.65249 4
      vertex -2.99404 2.65249 4.25959
      vertex -3.02071 2.60169 4.3293
    endloop
  endfacet
  facet normal 0.885456 -0.464723 0
    outer loop
      vertex -3.88377 0.957263 5.68897
      vertex -2.99404 2.65249 4
      vertex -3.4607 1.76336 5.42705
    endloop
  endfacet
  facet normal 0.885456 -0.464723 0
    outer loop
      vertex -3.4607 1.76336 5.42705
      vertex -2.99404 2.65249 4
      vertex -3.02071 2.60169 4.3293
    endloop
  endfacet
  facet normal 0.885456 -0.464723 0
    outer loop
      vertex -3.88377 0.957263 4
      vertex -2.99404 2.65249 4
      vertex -3.88377 0.957263 5.68897
    endloop
  endfacet
  facet normal 1 0 0
    outer loop
      vertex -3.88377 0.957263 4
      vertex -3.88377 0.957263 5.68897
      vertex -3.88377 0 6
    endloop
  endfacet
  facet normal 1 0 0
    outer loop
      vertex -3.88377 -0.957263 4
      vertex -3.88377 0.957263 4
      vertex -3.88377 -0.957263 5.68897
    endloop
  endfacet
  facet normal 1 0 0
    outer loop
      vertex -3.88377 -0.957263 5.68897
      vertex -3.88377 0.957263 4
      vertex -3.88377 0 6
    endloop
  endfacet
  facet normal 0.568065 -0.822984 0
    outer loop
      vertex -2.71847 2.84271 4
      vertex -2.99404 2.65249 4.25959
      vertex -2.99404 2.65249 4
    endloop
  endfacet
endsolid OpenSCAD_Model
