solid OpenSCAD_Model
  facet normal -0.0381789 -0.808427 -0.587357
    outer loop
      vertex -5 -13.7 0
      vertex -40 -13.5532 2.07295
      vertex -40 -12.4634 0.572949
    endloop
  endfacet
  facet normal -1 0 0
    outer loop
      vertex -40 -13.5532 2.07295
      vertex -40 -13.5532 3.92705
      vertex -40 -12.4634 0.572949
    endloop
  endfacet
  facet normal -1 0 0
    outer loop
      vertex -40 -12.4634 0.572949
      vertex -40 -13.5532 3.92705
      vertex -40 -12.4634 5.42705
    endloop
  endfacet
  facet normal -1 0 0
    outer loop
      vertex -40 -11.6511 3.30902
      vertex -40 -12.4634 5.42705
      vertex -40 -10.7 6
    endloop
  endfacet
  facet normal -1 0 0
    outer loop
      vertex -40 -10.7 4
      vertex -40 -10.7 6
      vertex -40 -8.93664 5.42705
    endloop
  endfacet
  facet normal -1 0 0
    outer loop
      vertex -40 -9.74894 3.30902
      vertex -40 -8.93664 5.42705
      vertex -40 -7.84683 3.92705
    endloop
  endfacet
  facet normal -1 0 0
    outer loop
      vertex -40 -10.1122 2.19098
      vertex -40 -7.84683 3.92705
      vertex -40 -7.84683 2.07295
    endloop
  endfacet
  facet normal -1 0 0
    outer loop
      vertex -40 -12.4634 0.572949
      vertex -40 -7.84683 2.07295
      vertex -40 -8.93664 0.572949
    endloop
  endfacet
  facet normal -1 0 0
    outer loop
      vertex -40 -12.4634 0.572949
      vertex -40 -8.93664 0.572949
      vertex -40 -10.7 0
    endloop
  endfacet
  facet normal -1 0 0
    outer loop
      vertex -40 -12.4634 0.572949
      vertex -40 -12.4634 5.42705
      vertex -40 -11.6511 3.30902
    endloop
  endfacet
  facet normal -1 0 0
    outer loop
      vertex -40 -11.2878 2.19098
      vertex -40 -12.4634 0.572949
      vertex -40 -11.6511 3.30902
    endloop
  endfacet
  facet normal -1 0 0
    outer loop
      vertex -40 -10.1122 2.19098
      vertex -40 -12.4634 0.572949
      vertex -40 -11.2878 2.19098
    endloop
  endfacet
  facet normal -1 0 0
    outer loop
      vertex -40 -9.74894 3.30902
      vertex -40 -7.84683 3.92705
      vertex -40 -10.1122 2.19098
    endloop
  endfacet
  facet normal -1 0 0
    outer loop
      vertex -40 -12.4634 0.572949
      vertex -40 -10.1122 2.19098
      vertex -40 -7.84683 2.07295
    endloop
  endfacet
  facet normal -1 0 0
    outer loop
      vertex -40 -10.7 4
      vertex -40 -8.93664 5.42705
      vertex -40 -9.74894 3.30902
    endloop
  endfacet
  facet normal -1 0 0
    outer loop
      vertex -40 -11.6511 3.30902
      vertex -40 -10.7 6
      vertex -40 -10.7 4
    endloop
  endfacet
  facet normal -0.00419511 -0.999991 0
    outer loop
      vertex -40 -13.5532 3.92705
      vertex -40 -13.5532 2.07295
      vertex -5 -13.7 0
    endloop
  endfacet
  facet normal -0.00419511 -0.999991 0
    outer loop
      vertex -5 -13.7 13
      vertex -40 -13.5532 3.92705
      vertex -5 -13.7 0
    endloop
  endfacet
  facet normal 0 -1 0
    outer loop
      vertex -5 -13.7 13
      vertex -5 -13.7 0
      vertex 35 -13.7 0
    endloop
  endfacet
  facet normal 0 -1 0
    outer loop
      vertex 35 -13.7 13
      vertex -5 -13.7 13
      vertex 35 -13.7 0
    endloop
  endfacet
  facet normal 0 0 -1
    outer loop
      vertex -40 -10.7 0
      vertex 3.62078 -10.7 0
      vertex -5 -13.7 0
    endloop
  endfacet
  facet normal 0 0 -1
    outer loop
      vertex 1.56379 -9.22833 0
      vertex 3.62078 -10.7 0
      vertex 2.30816 -9.92828 0
    endloop
  endfacet
  facet normal 0 0 -1
    outer loop
      vertex 3.62078 -10.7 0
      vertex 3.15892 -10.4942 0
      vertex 2.30816 -9.92828 0
    endloop
  endfacet
  facet normal 0 0 -1
    outer loop
      vertex 0.946691 -8.41396 0
      vertex 3.62078 -10.7 0
      vertex 1.56379 -9.22833 0
    endloop
  endfacet
  facet normal 0 0 -1
    outer loop
      vertex 0.474182 -7.508 0
      vertex 3.62078 -10.7 0
      vertex 0.946691 -8.41396 0
    endloop
  endfacet
  facet normal 0 0 -1
    outer loop
      vertex 0.159519 -6.53589 0
      vertex 3.62078 -10.7 0
      vertex 0.474182 -7.508 0
    endloop
  endfacet
  facet normal 0 0 -1
    outer loop
      vertex 0.011531 -5.52489 0
      vertex 3.62078 -10.7 0
      vertex 0.159519 -6.53589 0
    endloop
  endfacet
  facet normal 0 0 -1
    outer loop
      vertex 0.034369 -4.50337 0
      vertex 3.62078 -10.7 0
      vertex 0.011531 -5.52489 0
    endloop
  endfacet
  facet normal 0 0 -1
    outer loop
      vertex 0.227394 -3.5 0
      vertex 3.62078 -10.7 0
      vertex 0.034369 -4.50337 0
    endloop
  endfacet
  facet normal 0 0 -1
    outer loop
      vertex 2.14548 -6.23249 0
      vertex 3.62078 -10.7 0
      vertex 0.227394 -3.5 0
    endloop
  endfacet
  facet normal 0 0 -1
    outer loop
      vertex 35 -13.7 0
      vertex -5 -13.7 0
      vertex 35 -13.65 0
    endloop
  endfacet
  facet normal 0 0 -1
    outer loop
      vertex 2.34667 -3.5 0
      vertex 2.12128 -4.16014 0
      vertex 0.227394 -3.5 0
    endloop
  endfacet
  facet normal 0 0 -1
    outer loop
      vertex 2.12128 -4.16014 0
      vertex 2.01107 -4.84894 0
      vertex 0.227394 -3.5 0
    endloop
  endfacet
  facet normal 0 0 -1
    outer loop
      vertex 3.18011 -8.02824 0
      vertex 3.62078 -10.7 0
      vertex 2.73446 -7.4916 0
    endloop
  endfacet
  facet normal 0 0 -1
    outer loop
      vertex 2.01107 -4.84894 0
      vertex 2.01921 -5.54645 0
      vertex 0.227394 -3.5 0
    endloop
  endfacet
  facet normal 0 0 -1
    outer loop
      vertex 2.38622 -6.88719 0
      vertex 3.62078 -10.7 0
      vertex 2.14548 -6.23249 0
    endloop
  endfacet
  facet normal 0 0 -1
    outer loop
      vertex 2.01921 -5.54645 0
      vertex 2.14548 -6.23249 0
      vertex 0.227394 -3.5 0
    endloop
  endfacet
  facet normal 0 0 -1
    outer loop
      vertex 4.30964 -8.83844 0
      vertex 3.62078 -10.7 0
      vertex 3.71029 -8.48156 0
    endloop
  endfacet
  facet normal 0 0 -1
    outer loop
      vertex 3.62078 -10.7 0
      vertex 3.18011 -8.02824 0
      vertex 3.71029 -8.48156 0
    endloop
  endfacet
  facet normal 0 0 -1
    outer loop
      vertex 5.64497 -9.22467 0
      vertex 3.62078 -10.7 0
      vertex 4.96082 -9.08856 0
    endloop
  endfacet
  facet normal 0 0 -1
    outer loop
      vertex 3.62078 -10.7 0
      vertex 4.30964 -8.83844 0
      vertex 4.96082 -9.08856 0
    endloop
  endfacet
  facet normal 0 0 -1
    outer loop
      vertex 7.0326 -9.14253 0
      vertex 3.62078 -10.7 0
      vertex 6.34229 -9.24283 0
    endloop
  endfacet
  facet normal 0 0 -1
    outer loop
      vertex 3.62078 -10.7 0
      vertex 5.64497 -9.22467 0
      vertex 6.34229 -9.24283 0
    endloop
  endfacet
  facet normal 0 0 -1
    outer loop
      vertex -5 -13.7 0
      vertex 3.62078 -10.7 0
      vertex 35.7 0 0
    endloop
  endfacet
  facet normal 0 0 -1
    outer loop
      vertex 3.62078 -10.7 0
      vertex 7.0326 -9.14253 0
      vertex 7.69591 -8.92665 0
    endloop
  endfacet
  facet normal 0 0 -1
    outer loop
      vertex 3.62078 -10.7 0
      vertex 7.69591 -8.92665 0
      vertex 35.7 0 0
    endloop
  endfacet
  facet normal 0 0 -1
    outer loop
      vertex 7.69591 -8.92665 0
      vertex 8.31303 -8.60145 0
      vertex 35.7 0 0
    endloop
  endfacet
  facet normal 0 0 -1
    outer loop
      vertex 8.31303 -8.60145 0
      vertex 8.86609 -8.17635 0
      vertex 35.7 0 0
    endloop
  endfacet
  facet normal 0 0 -1
    outer loop
      vertex 8.86609 -8.17635 0
      vertex 9.33908 -7.66364 0
      vertex 35.7 0 0
    endloop
  endfacet
  facet normal 0 0 -1
    outer loop
      vertex 9.33908 -7.66364 0
      vertex 9.71831 -7.07817 0
      vertex 35.7 0 0
    endloop
  endfacet
  facet normal 0 0 -1
    outer loop
      vertex 35.7 0 0
      vertex 9.9928 -6.43689 0
      vertex 11.7285 0 0
    endloop
  endfacet
  facet normal 0 0 -1
    outer loop
      vertex 9.9928 -6.43689 0
      vertex 10.1546 -5.75836 0
      vertex 11.7285 0 0
    endloop
  endfacet
  facet normal 0 0 -1
    outer loop
      vertex 10.1546 -5.75836 0
      vertex 10.1991 -5.06222 0
      vertex 11.7285 0 0
    endloop
  endfacet
  facet normal 0 0 -1
    outer loop
      vertex 10.1991 -5.06222 0
      vertex 10.1249 -4.36862 0
      vertex 11.7285 0 0
    endloop
  endfacet
  facet normal 0 0 -1
    outer loop
      vertex 10.1249 -4.36862 0
      vertex 9.93414 -3.69764 0
      vertex 11.7285 0 0
    endloop
  endfacet
  facet normal 0 0 -1
    outer loop
      vertex 9.93414 -3.69764 0
      vertex 9.63245 -3.06869 0
      vertex 11.7285 0 0
    endloop
  endfacet
  facet normal 0 0 -1
    outer loop
      vertex 9.63245 -3.06869 0
      vertex 9.2285 -2.5 0
      vertex 11.7285 0 0
    endloop
  endfacet
  facet normal 0 0 -1
    outer loop
      vertex 9.71831 -7.07817 0
      vertex 9.9928 -6.43689 0
      vertex 35.7 0 0
    endloop
  endfacet
  facet normal 0 0 -1
    outer loop
      vertex -5 -13.7 0
      vertex 35.7 0 0
      vertex 35.7 -11.15 0
    endloop
  endfacet
  facet normal 0 0 -1
    outer loop
      vertex -5 -13.7 0
      vertex 35.7 -11.15 0
      vertex 42.1 -11.15 0
    endloop
  endfacet
  facet normal 0 0 -1
    outer loop
      vertex 42.1 -11.15 0
      vertex 42.1 0 0
      vertex 44.6 0 0
    endloop
  endfacet
  facet normal 0 0 -1
    outer loop
      vertex 42.1 -11.15 0
      vertex 44.6 0 0
      vertex 44.6 -13.65 0
    endloop
  endfacet
  facet normal 0 0 -1
    outer loop
      vertex 42.1 -11.15 0
      vertex 44.6 -13.65 0
      vertex 35 -13.65 0
    endloop
  endfacet
  facet normal 0 0 -1
    outer loop
      vertex 42.1 -11.15 0
      vertex 35 -13.65 0
      vertex -5 -13.7 0
    endloop
  endfacet
  facet normal 0 0 -1
    outer loop
      vertex 2.73446 -7.4916 0
      vertex 3.62078 -10.7 0
      vertex 2.38622 -6.88719 0
    endloop
  endfacet
  facet normal -0.0264779 -0.308909 -0.950723
    outer loop
      vertex -5 -13.7 0
      vertex -40 -12.4634 0.572949
      vertex -40 -10.7 0
    endloop
  endfacet
  facet normal 0 0.309017 -0.951057
    outer loop
      vertex -40 -10.7 0
      vertex -40 -8.93664 0.572949
      vertex 3.62078 -10.7 0
    endloop
  endfacet
  facet normal 0 0.309017 -0.951057
    outer loop
      vertex 3.15892 -10.4942 0.0668815
      vertex -40 -8.93664 0.572949
      vertex 2.31297 -9.93148 0.249707
    endloop
  endfacet
  facet normal 0 0.309017 -0.951057
    outer loop
      vertex 3.62078 -10.7 0
      vertex -40 -8.93664 0.572949
      vertex 3.15892 -10.4942 0.0668815
    endloop
  endfacet
  facet normal 0.0145293 0.808932 -0.587723
    outer loop
      vertex -40 -8.93664 0.572949
      vertex -40 -7.84683 2.07295
      vertex 2.31297 -9.93148 0.249707
    endloop
  endfacet
  facet normal 0.0145293 0.808932 -0.587723
    outer loop
      vertex 2.30816 -9.92828 0.253993
      vertex -40 -7.84683 2.07295
      vertex 1.78509 -9.43643 0.918037
    endloop
  endfacet
  facet normal 0.0145293 0.808932 -0.587723
    outer loop
      vertex 2.31297 -9.93148 0.249707
      vertex -40 -7.84683 2.07295
      vertex 2.30816 -9.92828 0.253993
    endloop
  endfacet
  facet normal 0.0380148 0.999277 0
    outer loop
      vertex -40 -7.84683 2.07295
      vertex -40 -7.84683 3.92705
      vertex 1.78509 -9.43643 0.918037
    endloop
  endfacet
  facet normal 0.0380148 0.999277 0
    outer loop
      vertex 1.78509 -9.43643 0.918037
      vertex -40 -7.84683 3.92705
      vertex 1.78509 -9.43643 8.9819
    endloop
  endfacet
  facet normal -0.0860986 0.806013 0.585603
    outer loop
      vertex -40 -7.84683 3.92705
      vertex -40 -8.93664 5.42705
      vertex -5 -10.7 13
    endloop
  endfacet
  facet normal 0 0.953943 0.299987
    outer loop
      vertex -40 -7.84683 3.92705
      vertex -5 -10.7 13
      vertex 1.78509 -9.43643 8.9819
    endloop
  endfacet
  facet normal 0 0.953943 0.299987
    outer loop
      vertex 3.15892 -10.4942 12.3454
      vertex -5 -10.7 13
      vertex 3.62078 -10.7 13
    endloop
  endfacet
  facet normal 0 0.953943 0.299987
    outer loop
      vertex 2.30816 -9.92828 10.546
      vertex -5 -10.7 13
      vertex 3.15892 -10.4942 12.3454
    endloop
  endfacet
  facet normal 0 0.953943 0.299987
    outer loop
      vertex 1.78509 -9.43643 8.9819
      vertex -5 -10.7 13
      vertex 2.30816 -9.92828 10.546
    endloop
  endfacet
  facet normal -0.186861 0.303574 0.934305
    outer loop
      vertex -40 -8.93664 5.42705
      vertex -40 -10.7 6
      vertex -5 -10.7 13
    endloop
  endfacet
  facet normal -0.196116 0 0.980581
    outer loop
      vertex -5 -10.7 13
      vertex -40 -10.7 6
      vertex -5 -13.7 13
    endloop
  endfacet
  facet normal -0.211783 -0.302007 0.929483
    outer loop
      vertex -40 -10.7 6
      vertex -40 -12.4634 5.42705
      vertex -5 -13.7 13
    endloop
  endfacet
  facet normal -0.153908 -0.799378 0.580782
    outer loop
      vertex -40 -12.4634 5.42705
      vertex -40 -13.5532 3.92705
      vertex -5 -13.7 13
    endloop
  endfacet
  facet normal 6.86157e-17 0.951056 0.309018
    outer loop
      vertex -5 -11.2878 2.19098
      vertex -40 -11.2878 2.19098
      vertex -5 -11.6511 3.30902
    endloop
  endfacet
  facet normal 6.86157e-17 0.951056 0.309018
    outer loop
      vertex -5 -11.6511 3.30902
      vertex -40 -11.2878 2.19098
      vertex -40 -11.6511 3.30902
    endloop
  endfacet
  facet normal -1.79638e-16 0.587785 -0.809017
    outer loop
      vertex -5 -10.7 4
      vertex -5 -11.6511 3.30902
      vertex -40 -10.7 4
    endloop
  endfacet
  facet normal -1.79638e-16 0.587785 -0.809017
    outer loop
      vertex -40 -10.7 4
      vertex -5 -11.6511 3.30902
      vertex -40 -11.6511 3.30902
    endloop
  endfacet
  facet normal -1.79638e-16 -0.587785 -0.809017
    outer loop
      vertex -5 -9.74894 3.30902
      vertex -5 -10.7 4
      vertex -40 -9.74894 3.30902
    endloop
  endfacet
  facet normal -1.79638e-16 -0.587785 -0.809017
    outer loop
      vertex -40 -9.74894 3.30902
      vertex -5 -10.7 4
      vertex -40 -10.7 4
    endloop
  endfacet
  facet normal 6.86157e-17 -0.951056 0.309018
    outer loop
      vertex -5 -10.1122 2.19098
      vertex -5 -9.74894 3.30902
      vertex -40 -9.74894 3.30902
    endloop
  endfacet
  facet normal 6.86157e-17 -0.951056 0.309018
    outer loop
      vertex -40 -10.1122 2.19098
      vertex -5 -10.1122 2.19098
      vertex -40 -9.74894 3.30902
    endloop
  endfacet
  facet normal 2.22045e-16 0 1
    outer loop
      vertex -5 -11.2878 2.19098
      vertex -5 -10.1122 2.19098
      vertex -40 -10.1122 2.19098
    endloop
  endfacet
  facet normal 2.22045e-16 0 1
    outer loop
      vertex -40 -11.2878 2.19098
      vertex -5 -11.2878 2.19098
      vertex -40 -10.1122 2.19098
    endloop
  endfacet
  facet normal 0 0 1
    outer loop
      vertex -5 -10.7 13
      vertex -5 -13.7 13
      vertex 35 -13.7 13
    endloop
  endfacet
  facet normal 0 0 1
    outer loop
      vertex 44.6 -13.65 13
      vertex -5 -10.7 13
      vertex 35 -13.65 13
    endloop
  endfacet
  facet normal 0 0 1
    outer loop
      vertex 35 -13.65 13
      vertex -5 -10.7 13
      vertex 35 -13.7 13
    endloop
  endfacet
  facet normal 0 0 1
    outer loop
      vertex 35.7 -11.15 13
      vertex -5 -10.7 13
      vertex 44.6 -13.65 13
    endloop
  endfacet
  facet normal 0 0 1
    outer loop
      vertex 35.7 -11.15 13
      vertex 3.62078 -10.7 13
      vertex -5 -10.7 13
    endloop
  endfacet
  facet normal 0 0 1
    outer loop
      vertex 44.6 0 13
      vertex 42.1 -11.15 13
      vertex 44.6 -13.65 13
    endloop
  endfacet
  facet normal 0 0 1
    outer loop
      vertex 42.1 -11.15 13
      vertex 35.7 -11.15 13
      vertex 44.6 -13.65 13
    endloop
  endfacet
  facet normal 0 0 1
    outer loop
      vertex 11.7285 0 13
      vertex 9.2285 -2.5 13
      vertex 35.7 0 13
    endloop
  endfacet
  facet normal 0 0 1
    outer loop
      vertex 0.474182 -7.508 13
      vertex 2.73446 -7.4916 13
      vertex 2.38622 -6.88719 13
    endloop
  endfacet
  facet normal 0 0 1
    outer loop
      vertex 9.2285 -2.5 13
      vertex 9.63245 -3.06869 13
      vertex 35.7 0 13
    endloop
  endfacet
  facet normal 0 0 1
    outer loop
      vertex 0.011531 -5.52489 13
      vertex 2.01107 -4.84894 13
      vertex 2.12128 -4.16014 13
    endloop
  endfacet
  facet normal 0 0 1
    outer loop
      vertex 9.63245 -3.06869 13
      vertex 9.93414 -3.69764 13
      vertex 35.7 0 13
    endloop
  endfacet
  facet normal 0 0 1
    outer loop
      vertex 9.93414 -3.69764 13
      vertex 10.1249 -4.36862 13
      vertex 35.7 0 13
    endloop
  endfacet
  facet normal 0 0 1
    outer loop
      vertex 10.1249 -4.36862 13
      vertex 10.1991 -5.06222 13
      vertex 35.7 0 13
    endloop
  endfacet
  facet normal 0 0 1
    outer loop
      vertex 10.1991 -5.06222 13
      vertex 10.1546 -5.75836 13
      vertex 35.7 0 13
    endloop
  endfacet
  facet normal 0 0 1
    outer loop
      vertex 10.1546 -5.75836 13
      vertex 9.9928 -6.43689 13
      vertex 35.7 0 13
    endloop
  endfacet
  facet normal 0 0 1
    outer loop
      vertex 1.56379 -9.22833 13
      vertex 5.64497 -9.22467 13
      vertex 4.96082 -9.08856 13
    endloop
  endfacet
  facet normal 0 0 1
    outer loop
      vertex 3.18011 -8.02824 13
      vertex 2.73446 -7.4916 13
      vertex 0.946691 -8.41396 13
    endloop
  endfacet
  facet normal 0 0 1
    outer loop
      vertex 1.56379 -9.22833 13
      vertex 2.30816 -9.92828 13
      vertex 6.34229 -9.24283 13
    endloop
  endfacet
  facet normal 0 0 1
    outer loop
      vertex 0.946691 -8.41396 13
      vertex 3.71029 -8.48156 13
      vertex 3.18011 -8.02824 13
    endloop
  endfacet
  facet normal 0 0 1
    outer loop
      vertex 0.946691 -8.41396 13
      vertex 1.56379 -9.22833 13
      vertex 3.71029 -8.48156 13
    endloop
  endfacet
  facet normal 0 0 1
    outer loop
      vertex 0.011531 -5.52489 13
      vertex 0.159519 -6.53589 13
      vertex 2.01107 -4.84894 13
    endloop
  endfacet
  facet normal 0 0 1
    outer loop
      vertex 0.011531 -5.52489 13
      vertex 2.12128 -4.16014 13
      vertex 2.34667 -3.5 13
    endloop
  endfacet
  facet normal 0 0 1
    outer loop
      vertex 0.474182 -7.508 13
      vertex 0.946691 -8.41396 13
      vertex 2.73446 -7.4916 13
    endloop
  endfacet
  facet normal 0 0 1
    outer loop
      vertex 0.159519 -6.53589 13
      vertex 2.14548 -6.23249 13
      vertex 2.01921 -5.54645 13
    endloop
  endfacet
  facet normal 0 0 1
    outer loop
      vertex 0.159519 -6.53589 13
      vertex 0.474182 -7.508 13
      vertex 2.14548 -6.23249 13
    endloop
  endfacet
  facet normal 0 0 1
    outer loop
      vertex 1.56379 -9.22833 13
      vertex 6.34229 -9.24283 13
      vertex 5.64497 -9.22467 13
    endloop
  endfacet
  facet normal 0 0 1
    outer loop
      vertex 0.227394 -3.5 13
      vertex 0.034369 -4.50337 13
      vertex 2.34667 -3.5 13
    endloop
  endfacet
  facet normal 0 0 1
    outer loop
      vertex 0.034369 -4.50337 13
      vertex 0.011531 -5.52489 13
      vertex 2.34667 -3.5 13
    endloop
  endfacet
  facet normal 0 0 1
    outer loop
      vertex 2.01107 -4.84894 13
      vertex 0.159519 -6.53589 13
      vertex 2.01921 -5.54645 13
    endloop
  endfacet
  facet normal 0 0 1
    outer loop
      vertex 35.7 -11.15 13
      vertex 3.15892 -10.4942 13
      vertex 3.62078 -10.7 13
    endloop
  endfacet
  facet normal 0 0 1
    outer loop
      vertex 9.9928 -6.43689 13
      vertex 9.71831 -7.07817 13
      vertex 35.7 0 13
    endloop
  endfacet
  facet normal 0 0 1
    outer loop
      vertex 2.38622 -6.88719 13
      vertex 2.14548 -6.23249 13
      vertex 0.474182 -7.508 13
    endloop
  endfacet
  facet normal 0 0 1
    outer loop
      vertex 4.30964 -8.83844 13
      vertex 3.71029 -8.48156 13
      vertex 1.56379 -9.22833 13
    endloop
  endfacet
  facet normal 0 0 1
    outer loop
      vertex 42.1 0 13
      vertex 42.1 -11.15 13
      vertex 44.6 0 13
    endloop
  endfacet
  facet normal 0 0 1
    outer loop
      vertex 35.7 -11.15 13
      vertex 2.30816 -9.92828 13
      vertex 3.15892 -10.4942 13
    endloop
  endfacet
  facet normal 0 0 1
    outer loop
      vertex 35.7 -11.15 13
      vertex 6.34229 -9.24283 13
      vertex 2.30816 -9.92828 13
    endloop
  endfacet
  facet normal 0 0 1
    outer loop
      vertex 35.7 -11.15 13
      vertex 7.0326 -9.14253 13
      vertex 6.34229 -9.24283 13
    endloop
  endfacet
  facet normal 0 0 1
    outer loop
      vertex 35.7 -11.15 13
      vertex 7.69591 -8.92665 13
      vertex 7.0326 -9.14253 13
    endloop
  endfacet
  facet normal 0 0 1
    outer loop
      vertex 35.7 -11.15 13
      vertex 8.31303 -8.60145 13
      vertex 7.69591 -8.92665 13
    endloop
  endfacet
  facet normal 0 0 1
    outer loop
      vertex 35.7 -11.15 13
      vertex 8.86609 -8.17635 13
      vertex 8.31303 -8.60145 13
    endloop
  endfacet
  facet normal 0 0 1
    outer loop
      vertex 35.7 -11.15 13
      vertex 9.33908 -7.66364 13
      vertex 8.86609 -8.17635 13
    endloop
  endfacet
  facet normal 0 0 1
    outer loop
      vertex 1.56379 -9.22833 13
      vertex 4.96082 -9.08856 13
      vertex 4.30964 -8.83844 13
    endloop
  endfacet
  facet normal 0 0 1
    outer loop
      vertex 35.7 -11.15 13
      vertex 9.71831 -7.07817 13
      vertex 9.33908 -7.66364 13
    endloop
  endfacet
  facet normal 0 0 1
    outer loop
      vertex 35.7 -11.15 13
      vertex 35.7 0 13
      vertex 9.71831 -7.07817 13
    endloop
  endfacet
  facet normal 1 0 0
    outer loop
      vertex 35 -13.7 13
      vertex 35 -13.7 0
      vertex 35 -13.65 0
    endloop
  endfacet
  facet normal 1 0 0
    outer loop
      vertex 35 -13.65 13
      vertex 35 -13.7 13
      vertex 35 -13.65 0
    endloop
  endfacet
  facet normal 0 -1 0
    outer loop
      vertex 44.6 -13.65 0
      vertex 44.6 -13.65 13
      vertex 35 -13.65 13
    endloop
  endfacet
  facet normal 0 -1 0
    outer loop
      vertex 35 -13.65 0
      vertex 44.6 -13.65 0
      vertex 35 -13.65 13
    endloop
  endfacet
  facet normal 1 0 0
    outer loop
      vertex 44.6 0 0
      vertex 44.6 0 13
      vertex 44.6 -13.65 13
    endloop
  endfacet
  facet normal 1 0 0
    outer loop
      vertex 44.6 -13.65 0
      vertex 44.6 0 0
      vertex 44.6 -13.65 13
    endloop
  endfacet
  facet normal 0 1 0
    outer loop
      vertex 44.6 0 13
      vertex 44.6 0 0
      vertex 42.1 0 13
    endloop
  endfacet
  facet normal 0 1 0
    outer loop
      vertex 42.1 0 13
      vertex 44.6 0 0
      vertex 42.1 0 0
    endloop
  endfacet
  facet normal -1 0 0
    outer loop
      vertex 42.1 0 13
      vertex 42.1 0 0
      vertex 42.1 -11.15 13
    endloop
  endfacet
  facet normal -1 0 0
    outer loop
      vertex 42.1 -11.15 13
      vertex 42.1 0 0
      vertex 42.1 -11.15 0
    endloop
  endfacet
  facet normal 0 1 0
    outer loop
      vertex 42.1 -11.15 13
      vertex 42.1 -11.15 0
      vertex 35.7 -11.15 13
    endloop
  endfacet
  facet normal 0 1 0
    outer loop
      vertex 35.7 -11.15 13
      vertex 42.1 -11.15 0
      vertex 35.7 -11.15 0
    endloop
  endfacet
  facet normal 1 0 0
    outer loop
      vertex 35.7 0 0
      vertex 35.7 0 13
      vertex 35.7 -11.15 13
    endloop
  endfacet
  facet normal 1 0 0
    outer loop
      vertex 35.7 -11.15 0
      vertex 35.7 0 0
      vertex 35.7 -11.15 13
    endloop
  endfacet
  facet normal 0 1 0
    outer loop
      vertex 35.7 0 13
      vertex 35.7 0 0
      vertex 11.7285 0 13
    endloop
  endfacet
  facet normal 0 1 0
    outer loop
      vertex 11.7285 0 13
      vertex 35.7 0 0
      vertex 11.7285 0 0
    endloop
  endfacet
  facet normal -0.707106 0.707107 0
    outer loop
      vertex 11.7285 0 13
      vertex 11.7285 0 0
      vertex 9.2285 -2.5 13
    endloop
  endfacet
  facet normal -0.707106 0.707107 0
    outer loop
      vertex 9.2285 -2.5 13
      vertex 11.7285 0 0
      vertex 9.2285 -2.5 0
    endloop
  endfacet
  facet normal -0.815265 -0.579088 0
    outer loop
      vertex 9.63245 -3.06869 13
      vertex 9.2285 -2.5 13
      vertex 9.63245 -3.06869 0
    endloop
  endfacet
  facet normal -0.815265 -0.579088 0
    outer loop
      vertex 9.63245 -3.06869 0
      vertex 9.2285 -2.5 13
      vertex 9.2285 -2.5 0
    endloop
  endfacet
  facet normal -0.901633 -0.432501 0
    outer loop
      vertex 9.93414 -3.69764 13
      vertex 9.63245 -3.06869 13
      vertex 9.93414 -3.69764 0
    endloop
  endfacet
  facet normal -0.901633 -0.432501 0
    outer loop
      vertex 9.93414 -3.69764 0
      vertex 9.63245 -3.06869 13
      vertex 9.63245 -3.06869 0
    endloop
  endfacet
  facet normal -0.961902 -0.273395 0
    outer loop
      vertex 10.1249 -4.36862 13
      vertex 9.93414 -3.69764 13
      vertex 10.1249 -4.36862 0
    endloop
  endfacet
  facet normal -0.961902 -0.273395 0
    outer loop
      vertex 10.1249 -4.36862 0
      vertex 9.93414 -3.69764 13
      vertex 9.93414 -3.69764 0
    endloop
  endfacet
  facet normal -0.994325 -0.106385 0
    outer loop
      vertex 10.1991 -5.06222 13
      vertex 10.1249 -4.36862 13
      vertex 10.1991 -5.06222 0
    endloop
  endfacet
  facet normal -0.994325 -0.106385 0
    outer loop
      vertex 10.1991 -5.06222 0
      vertex 10.1249 -4.36862 13
      vertex 10.1249 -4.36862 0
    endloop
  endfacet
  facet normal -0.997968 0.0637222 0
    outer loop
      vertex 10.1991 -5.06222 13
      vertex 10.1991 -5.06222 0
      vertex 10.1546 -5.75836 13
    endloop
  endfacet
  facet normal -0.997968 0.0637222 0
    outer loop
      vertex 10.1546 -5.75836 13
      vertex 10.1991 -5.06222 0
      vertex 10.1546 -5.75836 0
    endloop
  endfacet
  facet normal -0.972725 0.231962 0
    outer loop
      vertex 10.1546 -5.75836 13
      vertex 10.1546 -5.75836 0
      vertex 9.9928 -6.43689 13
    endloop
  endfacet
  facet normal -0.972725 0.231962 0
    outer loop
      vertex 9.9928 -6.43689 13
      vertex 10.1546 -5.75836 0
      vertex 9.9928 -6.43689 0
    endloop
  endfacet
  facet normal -0.919321 0.393508 0
    outer loop
      vertex 9.9928 -6.43689 13
      vertex 9.9928 -6.43689 0
      vertex 9.71831 -7.07817 13
    endloop
  endfacet
  facet normal -0.919321 0.393508 0
    outer loop
      vertex 9.71831 -7.07817 13
      vertex 9.9928 -6.43689 0
      vertex 9.71831 -7.07817 0
    endloop
  endfacet
  facet normal -0.839309 0.543655 0
    outer loop
      vertex 9.71831 -7.07817 13
      vertex 9.71831 -7.07817 0
      vertex 9.33908 -7.66364 13
    endloop
  endfacet
  facet normal -0.839309 0.543655 0
    outer loop
      vertex 9.33908 -7.66364 13
      vertex 9.71831 -7.07817 0
      vertex 9.33908 -7.66364 0
    endloop
  endfacet
  facet normal -0.735002 0.678065 0
    outer loop
      vertex 9.33908 -7.66364 13
      vertex 9.33908 -7.66364 0
      vertex 8.86609 -8.17635 13
    endloop
  endfacet
  facet normal -0.735002 0.678065 0
    outer loop
      vertex 8.86609 -8.17635 13
      vertex 9.33908 -7.66364 0
      vertex 8.86609 -8.17635 0
    endloop
  endfacet
  facet normal -0.609417 0.79285 0
    outer loop
      vertex 8.86609 -8.17635 13
      vertex 8.86609 -8.17635 0
      vertex 8.31303 -8.60145 13
    endloop
  endfacet
  facet normal -0.609417 0.79285 0
    outer loop
      vertex 8.31303 -8.60145 13
      vertex 8.86609 -8.17635 0
      vertex 8.31303 -8.60145 0
    endloop
  endfacet
  facet normal -0.466195 0.884682 0
    outer loop
      vertex 8.31303 -8.60145 13
      vertex 8.31303 -8.60145 0
      vertex 7.69591 -8.92665 13
    endloop
  endfacet
  facet normal -0.466195 0.884682 0
    outer loop
      vertex 7.69591 -8.92665 13
      vertex 8.31303 -8.60145 0
      vertex 7.69591 -8.92665 0
    endloop
  endfacet
  facet normal -0.309475 0.950907 0
    outer loop
      vertex 7.69591 -8.92665 13
      vertex 7.69591 -8.92665 0
      vertex 7.0326 -9.14253 13
    endloop
  endfacet
  facet normal -0.309475 0.950907 0
    outer loop
      vertex 7.0326 -9.14253 13
      vertex 7.69591 -8.92665 0
      vertex 7.0326 -9.14253 0
    endloop
  endfacet
  facet normal -0.143799 0.989607 0
    outer loop
      vertex 7.0326 -9.14253 13
      vertex 7.0326 -9.14253 0
      vertex 6.34229 -9.24283 13
    endloop
  endfacet
  facet normal -0.143799 0.989607 0
    outer loop
      vertex 6.34229 -9.24283 13
      vertex 7.0326 -9.14253 0
      vertex 6.34229 -9.24283 0
    endloop
  endfacet
  facet normal 0.0260366 0.999661 0
    outer loop
      vertex 6.34229 -9.24283 13
      vertex 6.34229 -9.24283 0
      vertex 5.64497 -9.22467 13
    endloop
  endfacet
  facet normal 0.0260366 0.999661 0
    outer loop
      vertex 5.64497 -9.22467 13
      vertex 6.34229 -9.24283 0
      vertex 5.64497 -9.22467 0
    endloop
  endfacet
  facet normal 0.195125 0.980778 0
    outer loop
      vertex 5.64497 -9.22467 13
      vertex 5.64497 -9.22467 0
      vertex 4.96082 -9.08856 13
    endloop
  endfacet
  facet normal 0.195125 0.980778 0
    outer loop
      vertex 4.96082 -9.08856 13
      vertex 5.64497 -9.22467 0
      vertex 4.96082 -9.08856 0
    endloop
  endfacet
  facet normal 0.358562 0.933506 0
    outer loop
      vertex 4.96082 -9.08856 13
      vertex 4.96082 -9.08856 0
      vertex 4.30964 -8.83844 13
    endloop
  endfacet
  facet normal 0.358562 0.933506 0
    outer loop
      vertex 4.30964 -8.83844 13
      vertex 4.96082 -9.08856 0
      vertex 4.30964 -8.83844 0
    endloop
  endfacet
  facet normal 0.511618 0.859213 0
    outer loop
      vertex 4.30964 -8.83844 13
      vertex 4.30964 -8.83844 0
      vertex 3.71029 -8.48156 13
    endloop
  endfacet
  facet normal 0.511618 0.859213 0
    outer loop
      vertex 3.71029 -8.48156 13
      vertex 4.30964 -8.83844 0
      vertex 3.71029 -8.48156 0
    endloop
  endfacet
  facet normal 0.649868 0.760047 0
    outer loop
      vertex 3.71029 -8.48156 13
      vertex 3.71029 -8.48156 0
      vertex 3.18011 -8.02824 13
    endloop
  endfacet
  facet normal 0.649868 0.760047 0
    outer loop
      vertex 3.18011 -8.02824 13
      vertex 3.71029 -8.48156 0
      vertex 3.18011 -8.02824 0
    endloop
  endfacet
  facet normal 0.769305 0.638882 0
    outer loop
      vertex 2.73446 -7.4916 13
      vertex 3.18011 -8.02824 13
      vertex 3.18011 -8.02824 0
    endloop
  endfacet
  facet normal 0.769305 0.638882 0
    outer loop
      vertex 2.73446 -7.4916 0
      vertex 2.73446 -7.4916 13
      vertex 3.18011 -8.02824 0
    endloop
  endfacet
  facet normal 0.866473 0.499224 0
    outer loop
      vertex 2.38622 -6.88719 13
      vertex 2.73446 -7.4916 13
      vertex 2.73446 -7.4916 0
    endloop
  endfacet
  facet normal 0.866473 0.499224 0
    outer loop
      vertex 2.38622 -6.88719 0
      vertex 2.38622 -6.88719 13
      vertex 2.73446 -7.4916 0
    endloop
  endfacet
  facet normal 0.938561 0.345114 0
    outer loop
      vertex 2.14548 -6.23249 13
      vertex 2.38622 -6.88719 13
      vertex 2.38622 -6.88719 0
    endloop
  endfacet
  facet normal 0.938561 0.345114 0
    outer loop
      vertex 2.14548 -6.23249 0
      vertex 2.14548 -6.23249 13
      vertex 2.38622 -6.88719 0
    endloop
  endfacet
  facet normal 0.98348 0.181014 0
    outer loop
      vertex 2.01921 -5.54645 13
      vertex 2.14548 -6.23249 13
      vertex 2.14548 -6.23249 0
    endloop
  endfacet
  facet normal 0.98348 0.181014 0
    outer loop
      vertex 2.01921 -5.54645 0
      vertex 2.01921 -5.54645 13
      vertex 2.14548 -6.23249 0
    endloop
  endfacet
  facet normal 0.999932 0.011675 0
    outer loop
      vertex 2.01107 -4.84894 13
      vertex 2.01921 -5.54645 13
      vertex 2.01921 -5.54645 0
    endloop
  endfacet
  facet normal 0.999932 0.011675 0
    outer loop
      vertex 2.01107 -4.84894 0
      vertex 2.01107 -4.84894 13
      vertex 2.01921 -5.54645 0
    endloop
  endfacet
  facet normal 0.987439 -0.158003 0
    outer loop
      vertex 2.12128 -4.16014 0
      vertex 2.12128 -4.16014 13
      vertex 2.01107 -4.84894 13
    endloop
  endfacet
  facet normal 0.987439 -0.158003 0
    outer loop
      vertex 2.01107 -4.84894 0
      vertex 2.12128 -4.16014 0
      vertex 2.01107 -4.84894 13
    endloop
  endfacet
  facet normal 0.946363 -0.323104 0
    outer loop
      vertex 2.34667 -3.5 0
      vertex 2.34667 -3.5 13
      vertex 2.12128 -4.16014 13
    endloop
  endfacet
  facet normal 0.946363 -0.323104 0
    outer loop
      vertex 2.12128 -4.16014 0
      vertex 2.34667 -3.5 0
      vertex 2.12128 -4.16014 13
    endloop
  endfacet
  facet normal 0 1 0
    outer loop
      vertex 2.34667 -3.5 13
      vertex 2.34667 -3.5 0
      vertex 0.227394 -3.5 13
    endloop
  endfacet
  facet normal 0 1 0
    outer loop
      vertex 0.227394 -3.5 13
      vertex 2.34667 -3.5 0
      vertex 0.227394 -3.5 0
    endloop
  endfacet
  facet normal -0.981994 0.188912 0
    outer loop
      vertex 0.227394 -3.5 13
      vertex 0.227394 -3.5 0
      vertex 0.034369 -4.50337 13
    endloop
  endfacet
  facet normal -0.981994 0.188912 0
    outer loop
      vertex 0.034369 -4.50337 13
      vertex 0.227394 -3.5 0
      vertex 0.034369 -4.50337 0
    endloop
  endfacet
  facet normal -0.99975 0.0223514 0
    outer loop
      vertex 0.034369 -4.50337 13
      vertex 0.034369 -4.50337 0
      vertex 0.011531 -5.52489 13
    endloop
  endfacet
  facet normal -0.99975 0.0223514 0
    outer loop
      vertex 0.011531 -5.52489 13
      vertex 0.034369 -4.50337 0
      vertex 0.011531 -5.52489 0
    endloop
  endfacet
  facet normal -0.989456 -0.144835 0
    outer loop
      vertex 0.159519 -6.53589 13
      vertex 0.011531 -5.52489 13
      vertex 0.159519 -6.53589 0
    endloop
  endfacet
  facet normal -0.989456 -0.144835 0
    outer loop
      vertex 0.159519 -6.53589 0
      vertex 0.011531 -5.52489 13
      vertex 0.011531 -5.52489 0
    endloop
  endfacet
  facet normal -0.9514 -0.307958 0
    outer loop
      vertex 0.474182 -7.508 13
      vertex 0.159519 -6.53589 13
      vertex 0.474182 -7.508 0
    endloop
  endfacet
  facet normal -0.9514 -0.307958 0
    outer loop
      vertex 0.474182 -7.508 0
      vertex 0.159519 -6.53589 13
      vertex 0.159519 -6.53589 0
    endloop
  endfacet
  facet normal -0.88665 -0.462441 0
    outer loop
      vertex 0.946691 -8.41396 13
      vertex 0.474182 -7.508 13
      vertex 0.946691 -8.41396 0
    endloop
  endfacet
  facet normal -0.88665 -0.462441 0
    outer loop
      vertex 0.946691 -8.41396 0
      vertex 0.474182 -7.508 13
      vertex 0.474182 -7.508 0
    endloop
  endfacet
  facet normal -0.797023 -0.603949 0
    outer loop
      vertex 1.56379 -9.22833 13
      vertex 0.946691 -8.41396 13
      vertex 1.56379 -9.22833 0
    endloop
  endfacet
  facet normal -0.797023 -0.603949 0
    outer loop
      vertex 1.56379 -9.22833 0
      vertex 0.946691 -8.41396 13
      vertex 0.946691 -8.41396 0
    endloop
  endfacet
  facet normal -0.685034 -0.728511 0
    outer loop
      vertex 1.78509 -9.43643 8.9819
      vertex 1.56379 -9.22833 13
      vertex 1.78509 -9.43643 0.918037
    endloop
  endfacet
  facet normal -0.685034 -0.728511 0
    outer loop
      vertex 2.30816 -9.92828 0
      vertex 2.30816 -9.92828 0.253993
      vertex 1.78509 -9.43643 0.918037
    endloop
  endfacet
  facet normal -0.685034 -0.728511 0
    outer loop
      vertex 1.56379 -9.22833 0
      vertex 2.30816 -9.92828 0
      vertex 1.78509 -9.43643 0.918037
    endloop
  endfacet
  facet normal -0.685034 -0.728511 0
    outer loop
      vertex 2.30816 -9.92828 10.546
      vertex 2.30816 -9.92828 13
      vertex 1.78509 -9.43643 8.9819
    endloop
  endfacet
  facet normal -0.685034 -0.728511 0
    outer loop
      vertex 2.30816 -9.92828 13
      vertex 1.56379 -9.22833 13
      vertex 1.78509 -9.43643 8.9819
    endloop
  endfacet
  facet normal -0.685034 -0.728511 0
    outer loop
      vertex 1.56379 -9.22833 13
      vertex 1.56379 -9.22833 0
      vertex 1.78509 -9.43643 0.918037
    endloop
  endfacet
  facet normal -0.553822 -0.832635 0
    outer loop
      vertex 3.15892 -10.4942 0
      vertex 3.15892 -10.4942 0.0668815
      vertex 2.31297 -9.93148 0.249707
    endloop
  endfacet
  facet normal -0.553822 -0.832635 0
    outer loop
      vertex 2.30816 -9.92828 0
      vertex 3.15892 -10.4942 0
      vertex 2.31297 -9.93148 0.249707
    endloop
  endfacet
  facet normal -0.553822 -0.832635 0
    outer loop
      vertex 2.30816 -9.92828 0.253993
      vertex 2.30816 -9.92828 0
      vertex 2.31297 -9.93148 0.249707
    endloop
  endfacet
  facet normal -0.407077 -0.913394 0
    outer loop
      vertex 3.62078 -10.7 0
      vertex 3.15892 -10.4942 0.0668815
      vertex 3.15892 -10.4942 0
    endloop
  endfacet
  facet normal -0.553822 -0.832635 0
    outer loop
      vertex 3.15892 -10.4942 12.3454
      vertex 3.15892 -10.4942 13
      vertex 2.30816 -9.92828 13
    endloop
  endfacet
  facet normal -0.553822 -0.832635 0
    outer loop
      vertex 2.30816 -9.92828 10.546
      vertex 3.15892 -10.4942 12.3454
      vertex 2.30816 -9.92828 13
    endloop
  endfacet
  facet normal -0.407077 -0.913394 0
    outer loop
      vertex 3.62078 -10.7 13
      vertex 3.15892 -10.4942 13
      vertex 3.15892 -10.4942 12.3454
    endloop
  endfacet
  facet normal -1 0 2.22045e-16
    outer loop
      vertex -5 -10.7 4
      vertex -5 -9.74894 3.30902
      vertex -5 -11.6511 3.30902
    endloop
  endfacet
  facet normal -1 0 2.22045e-16
    outer loop
      vertex -5 -11.6511 3.30902
      vertex -5 -9.74894 3.30902
      vertex -5 -10.1122 2.19098
    endloop
  endfacet
  facet normal -1 0 2.22045e-16
    outer loop
      vertex -5 -11.6511 3.30902
      vertex -5 -10.1122 2.19098
      vertex -5 -11.2878 2.19098
    endloop
  endfacet
endsolid OpenSCAD_Model
