solid OpenSCAD_Model
  facet normal -0.00649337 0 -0.999979
    outer loop
      vertex -35.1184 -0.378773 -4.01222
      vertex -37 0 -4
      vertex -35.1184 0.378773 -4.01222
    endloop
  endfacet
  facet normal -0.0067642 0.00134548 -0.999976
    outer loop
      vertex -37 0 -4
      vertex -36.6194 1.91342 -4
      vertex -35.1184 0.378773 -4.01222
    endloop
  endfacet
  facet normal -0.0067642 0.00134548 -0.999976
    outer loop
      vertex -35.1184 0.915631 -4.0115
      vertex -36.6194 1.91342 -4
      vertex -34.2433 2.27723 -4.01558
    endloop
  endfacet
  facet normal -0.0067642 0.00134548 -0.999976
    outer loop
      vertex -35.1184 0.378773 -4.01222
      vertex -36.6194 1.91342 -4
      vertex -35.1184 0.915631 -4.0115
    endloop
  endfacet
  facet normal -0.980785 0.19509 0
    outer loop
      vertex -37 0 -4
      vertex -37 0 0
      vertex -36.6194 1.91342 -4
    endloop
  endfacet
  facet normal -0.980785 0.19509 0
    outer loop
      vertex -36.6194 1.91342 -4
      vertex -37 0 0
      vertex -36.6194 1.91342 0
    endloop
  endfacet
  facet normal -0.980785 -0.19509 0
    outer loop
      vertex -37 0 -4
      vertex -36.6194 -1.91342 -4
      vertex -37 0 0
    endloop
  endfacet
  facet normal -0.980785 -0.19509 0
    outer loop
      vertex -37 0 0
      vertex -36.6194 -1.91342 -4
      vertex -36.6194 -1.91342 0
    endloop
  endfacet
  facet normal -0.0067642 -0.00134548 -0.999976
    outer loop
      vertex -37 0 -4
      vertex -35.1184 -0.378773 -4.01222
      vertex -36.6194 -1.91342 -4
    endloop
  endfacet
  facet normal -0.0067642 -0.00134548 -0.999976
    outer loop
      vertex -36.6194 -1.91342 -4
      vertex -35.1184 -0.378773 -4.01222
      vertex -35.1184 -0.915631 -4.0115
    endloop
  endfacet
  facet normal -0.0067642 -0.00134548 -0.999976
    outer loop
      vertex -36.6194 -1.91342 -4
      vertex -35.1184 -0.915631 -4.0115
      vertex -34.2433 -2.27723 -4.01558
    endloop
  endfacet
  facet normal 1 0 0
    outer loop
      vertex -35.1184 -0.378773 -4.01222
      vertex -35.1184 0.378773 -4.01222
      vertex -35.1184 0.915631 -4.0115
    endloop
  endfacet
  facet normal 1 0 0
    outer loop
      vertex -35.1184 -0.915631 -0.5
      vertex -35.1184 -0.378773 -4.01222
      vertex -35.1184 0.915631 -0.5
    endloop
  endfacet
  facet normal 1 0 0
    outer loop
      vertex -35.1184 0.915631 -0.5
      vertex -35.1184 -0.378773 -4.01222
      vertex -35.1184 0.915631 -4.0115
    endloop
  endfacet
  facet normal 1 0 0
    outer loop
      vertex -35.1184 -0.915631 -4.0115
      vertex -35.1184 -0.378773 -4.01222
      vertex -35.1184 -0.915631 -0.5
    endloop
  endfacet
  facet normal 0.841253 -0.540641 0
    outer loop
      vertex -34.2433 2.27723 -4.01558
      vertex -34.1283 2.45619 -4.01555
      vertex -34.1283 2.45619 0.264348
    endloop
  endfacet
  facet normal 0.841253 -0.540641 0
    outer loop
      vertex -34.7883 1.42915 0.221639
      vertex -34.2433 2.27723 -4.01558
      vertex -34.2433 2.27723 0.264915
    endloop
  endfacet
  facet normal 0.841253 -0.540641 0
    outer loop
      vertex -34.2433 2.27723 0.264915
      vertex -34.2433 2.27723 -4.01558
      vertex -34.1283 2.45619 0.264348
    endloop
  endfacet
  facet normal 0.841253 -0.540641 0
    outer loop
      vertex -34.7883 1.42915 -0.5
      vertex -34.2433 2.27723 -4.01558
      vertex -34.7883 1.42915 0.221639
    endloop
  endfacet
  facet normal 0.841253 -0.540641 0
    outer loop
      vertex -35.1184 0.915631 -0.5
      vertex -34.2433 2.27723 -4.01558
      vertex -34.7883 1.42915 -0.5
    endloop
  endfacet
  facet normal 0.841253 -0.540641 0
    outer loop
      vertex -35.1184 0.915631 -4.0115
      vertex -34.2433 2.27723 -4.01558
      vertex -35.1184 0.915631 -0.5
    endloop
  endfacet
  facet normal -0.00730549 0.00488137 -0.999961
    outer loop
      vertex -36.6194 1.91342 -4
      vertex -35.5355 3.53553 -4
      vertex -34.2433 2.27723 -4.01558
    endloop
  endfacet
  facet normal -0.00730549 0.00488137 -0.999961
    outer loop
      vertex -32.4625 3.21692 -4.02401
      vertex -35.5355 3.53553 -4
      vertex 1.5 7.75 -4.25
    endloop
  endfacet
  facet normal -0.00730549 0.00488137 -0.999961
    outer loop
      vertex -30.5235 2.84678 -4.03998
      vertex -30.6499 2.9563 -4.03852
      vertex 1.5 7.75 -4.25
    endloop
  endfacet
  facet normal -0.00730549 0.00488137 -0.999961
    outer loop
      vertex -30.6499 2.9563 -4.03852
      vertex -32.4625 3.21692 -4.02401
      vertex 1.5 7.75 -4.25
    endloop
  endfacet
  facet normal -0.00730549 0.00488137 -0.999961
    outer loop
      vertex -34.2433 2.27723 -4.01558
      vertex -35.5355 3.53553 -4
      vertex -34.1283 2.45619 -4.01555
    endloop
  endfacet
  facet normal -0.00730549 0.00488137 -0.999961
    outer loop
      vertex -34.1283 2.45619 -4.01555
      vertex -35.5355 3.53553 -4
      vertex -32.4625 3.21692 -4.02401
    endloop
  endfacet
  facet normal -0.83147 0.55557 0
    outer loop
      vertex -36.6194 1.91342 -4
      vertex -36.6194 1.91342 0
      vertex -35.5355 3.53553 -4
    endloop
  endfacet
  facet normal -0.83147 0.55557 0
    outer loop
      vertex -35.5355 3.53553 -4
      vertex -36.6194 1.91342 0
      vertex -35.5355 3.53553 0
    endloop
  endfacet
  facet normal -0.122835 0.082076 0.989027
    outer loop
      vertex -35.5355 3.53553 0
      vertex -36.6194 1.91342 0
      vertex -34.2433 2.27723 0.264915
    endloop
  endfacet
  facet normal -0.122835 0.082076 0.989027
    outer loop
      vertex -32.4625 3.21692 0.408103
      vertex -35.5355 3.53553 0
      vertex -34.1283 2.45619 0.264348
    endloop
  endfacet
  facet normal -0.122835 0.082076 0.989027
    outer loop
      vertex -34.1283 2.45619 0.264348
      vertex -35.5355 3.53553 0
      vertex -34.2433 2.27723 0.264915
    endloop
  endfacet
  facet normal -0.122835 0.082076 0.989027
    outer loop
      vertex -28.8155 3.10829 0.870067
      vertex -35.5355 3.53553 0
      vertex -32.4625 3.21692 0.408103
    endloop
  endfacet
  facet normal -0.122835 0.082076 0.989027
    outer loop
      vertex -30 3.93596 0.654273
      vertex -35.5355 3.53553 0
      vertex -28.8155 3.10829 0.870067
    endloop
  endfacet
  facet normal -0.122835 0.082076 0.989027
    outer loop
      vertex 1.5 7.75 4.25
      vertex -28.7965 4.30241 0.773338
      vertex -28.8155 3.10829 0.870067
    endloop
  endfacet
  facet normal -0.122835 0.082076 0.989027
    outer loop
      vertex -28.7965 4.30241 0.773338
      vertex -30 3.93596 0.654273
      vertex -28.8155 3.10829 0.870067
    endloop
  endfacet
  facet normal -0.122835 0.082076 0.989027
    outer loop
      vertex -30 4.16545 0.635228
      vertex -35.5355 3.53553 0
      vertex -30 3.93596 0.654273
    endloop
  endfacet
  facet normal -0.114212 0.0227181 0.993197
    outer loop
      vertex -36.6194 1.91342 0
      vertex -37 0 0
      vertex -35.1184 0.378773 0.207714
    endloop
  endfacet
  facet normal -0.114212 0.0227181 0.993197
    outer loop
      vertex -34.7883 1.42915 0.221639
      vertex -36.6194 1.91342 0
      vertex -35.1184 0.915631 0.195434
    endloop
  endfacet
  facet normal -0.114212 0.0227181 0.993197
    outer loop
      vertex -35.1184 0.915631 0.195434
      vertex -36.6194 1.91342 0
      vertex -35.1184 0.378773 0.207714
    endloop
  endfacet
  facet normal -0.114212 0.0227181 0.993197
    outer loop
      vertex -34.2433 2.27723 0.264915
      vertex -36.6194 1.91342 0
      vertex -34.7883 1.42915 0.221639
    endloop
  endfacet
  facet normal -0.114212 -0.0227181 0.993197
    outer loop
      vertex -35.1184 -0.378773 0.207714
      vertex -37 0 0
      vertex -36.6194 -1.91342 0
    endloop
  endfacet
  facet normal -0.114212 -0.0227181 0.993197
    outer loop
      vertex -35.1184 -0.915631 0.195434
      vertex -35.1184 -0.378773 0.207714
      vertex -36.6194 -1.91342 0
    endloop
  endfacet
  facet normal -0.114212 -0.0227181 0.993197
    outer loop
      vertex -34.2433 -2.27723 0.264915
      vertex -34.7883 -1.42915 0.221639
      vertex -36.6194 -1.91342 0
    endloop
  endfacet
  facet normal -0.114212 -0.0227181 0.993197
    outer loop
      vertex -34.7883 -1.42915 0.221639
      vertex -35.1184 -0.915631 0.195434
      vertex -36.6194 -1.91342 0
    endloop
  endfacet
  facet normal -0.109723 0 0.993962
    outer loop
      vertex -35.1184 0.378773 0.207714
      vertex -37 0 0
      vertex -35.1184 -0.378773 0.207714
    endloop
  endfacet
  facet normal -0.122835 -0.082076 0.989027
    outer loop
      vertex -34.2433 -2.27723 0.264915
      vertex -36.6194 -1.91342 0
      vertex -35.5355 -3.53553 0
    endloop
  endfacet
  facet normal -0.122835 -0.082076 0.989027
    outer loop
      vertex -34.1283 -2.45619 0.264348
      vertex -34.2433 -2.27723 0.264915
      vertex -35.5355 -3.53553 0
    endloop
  endfacet
  facet normal -0.122835 -0.082076 0.989027
    outer loop
      vertex 1.5 -7.75 4.25
      vertex -28.8155 -3.10829 0.870067
      vertex -35.5355 -3.53553 0
    endloop
  endfacet
  facet normal -0.122835 -0.082076 0.989027
    outer loop
      vertex -28.8155 -3.10829 0.870067
      vertex -32.4625 -3.21692 0.408103
      vertex -35.5355 -3.53553 0
    endloop
  endfacet
  facet normal -0.122835 -0.082076 0.989027
    outer loop
      vertex -32.4625 -3.21692 0.408103
      vertex -34.1283 -2.45619 0.264348
      vertex -35.5355 -3.53553 0
    endloop
  endfacet
  facet normal -0.83147 -0.55557 0
    outer loop
      vertex -36.6194 -1.91342 -4
      vertex -35.5355 -3.53553 -4
      vertex -36.6194 -1.91342 0
    endloop
  endfacet
  facet normal -0.83147 -0.55557 0
    outer loop
      vertex -36.6194 -1.91342 0
      vertex -35.5355 -3.53553 -4
      vertex -35.5355 -3.53553 0
    endloop
  endfacet
  facet normal -0.00730549 -0.00488137 -0.999961
    outer loop
      vertex -36.6194 -1.91342 -4
      vertex -34.2433 -2.27723 -4.01558
      vertex -35.5355 -3.53553 -4
    endloop
  endfacet
  facet normal -0.00730549 -0.00488137 -0.999961
    outer loop
      vertex -35.5355 -3.53553 -4
      vertex -34.2433 -2.27723 -4.01558
      vertex -34.1283 -2.45619 -4.01555
    endloop
  endfacet
  facet normal -0.00730549 -0.00488137 -0.999961
    outer loop
      vertex -35.5355 -3.53553 -4
      vertex -34.1283 -2.45619 -4.01555
      vertex -32.4625 -3.21692 -4.02401
    endloop
  endfacet
  facet normal -0.00730549 -0.00488137 -0.999961
    outer loop
      vertex -32.4625 -3.21692 -4.02401
      vertex 1.5 -7.75 -4.25
      vertex -35.5355 -3.53553 -4
    endloop
  endfacet
  facet normal -0.00730549 -0.00488137 -0.999961
    outer loop
      vertex -30.6499 -2.9563 -4.03852
      vertex -30.5235 -2.84678 -4.03998
      vertex 1.5 -7.75 -4.25
    endloop
  endfacet
  facet normal -0.00730549 -0.00488137 -0.999961
    outer loop
      vertex -30.6499 -2.9563 -4.03852
      vertex 1.5 -7.75 -4.25
      vertex -32.4625 -3.21692 -4.02401
    endloop
  endfacet
  facet normal 0.841253 0.540641 0
    outer loop
      vertex -34.2433 -2.27723 0.264915
      vertex -34.7883 -1.42915 -0.5
      vertex -34.7883 -1.42915 0.221639
    endloop
  endfacet
  facet normal 0.841253 0.540641 0
    outer loop
      vertex -34.1283 -2.45619 0.264348
      vertex -34.7883 -1.42915 -0.5
      vertex -34.2433 -2.27723 0.264915
    endloop
  endfacet
  facet normal 0.841253 0.540641 0
    outer loop
      vertex -35.1184 -0.915631 -0.5
      vertex -34.7883 -1.42915 -0.5
      vertex -34.1283 -2.45619 -4.01555
    endloop
  endfacet
  facet normal 0.841253 0.540641 0
    outer loop
      vertex -34.1283 -2.45619 -4.01555
      vertex -34.7883 -1.42915 -0.5
      vertex -34.1283 -2.45619 0.264348
    endloop
  endfacet
  facet normal 0.841253 0.540641 0
    outer loop
      vertex -34.2433 -2.27723 -4.01558
      vertex -35.1184 -0.915631 -0.5
      vertex -34.1283 -2.45619 -4.01555
    endloop
  endfacet
  facet normal 0.841253 0.540641 0
    outer loop
      vertex -35.1184 -0.915631 -4.0115
      vertex -35.1184 -0.915631 -0.5
      vertex -34.2433 -2.27723 -4.01558
    endloop
  endfacet
  facet normal 0.841253 -0.540641 0
    outer loop
      vertex -34.7883 1.42915 -0.5
      vertex -34.7883 1.42915 0.221639
      vertex -35.1184 0.915631 0.195434
    endloop
  endfacet
  facet normal 0.841253 -0.540641 0
    outer loop
      vertex -35.1184 0.915631 -0.5
      vertex -34.7883 1.42915 -0.5
      vertex -35.1184 0.915631 0.195434
    endloop
  endfacet
  facet normal 0.415415 -0.909632 0
    outer loop
      vertex -32.4625 3.21692 -4.02401
      vertex -32.4625 3.21692 0.408103
      vertex -34.1283 2.45619 0.264348
    endloop
  endfacet
  facet normal 0.415415 -0.909632 0
    outer loop
      vertex -34.1283 2.45619 -4.01555
      vertex -32.4625 3.21692 -4.02401
      vertex -34.1283 2.45619 0.264348
    endloop
  endfacet
  facet normal -0.142315 -0.989821 0
    outer loop
      vertex -30.6499 2.9563 -4.03852
      vertex -30.6499 2.9563 -0.5
      vertex -32.4625 3.21692 -0.5
    endloop
  endfacet
  facet normal -0.142315 -0.989821 0
    outer loop
      vertex -32.4625 3.21692 -4.02401
      vertex -30.6499 2.9563 -4.03852
      vertex -32.4625 3.21692 -0.5
    endloop
  endfacet
  facet normal -0.142315 -0.989821 0
    outer loop
      vertex -32.4625 3.21692 0.408103
      vertex -32.4625 3.21692 -4.02401
      vertex -32.4625 3.21692 -0.5
    endloop
  endfacet
  facet normal -0.654861 -0.75575 0
    outer loop
      vertex -30.5235 2.84678 -4.03998
      vertex -29.2659 1.75708 -4.04995
      vertex -29.2659 1.75708 -0.5
    endloop
  endfacet
  facet normal -0.654861 -0.75575 0
    outer loop
      vertex -30.6499 2.9563 -4.03852
      vertex -30.5235 2.84678 -4.03998
      vertex -30.6499 2.9563 -0.5
    endloop
  endfacet
  facet normal -0.654861 -0.75575 0
    outer loop
      vertex -30.6499 2.9563 -0.5
      vertex -30.5235 2.84678 -4.03998
      vertex -29.2659 1.75708 -0.5
    endloop
  endfacet
  facet normal -0.0067642 0.00134548 -0.999976
    outer loop
      vertex -30.5235 2.84678 -4.03998
      vertex 1.5 7.75 -4.25
      vertex -29.2659 1.75708 -4.04995
    endloop
  endfacet
  facet normal -0.0067642 0.00134548 -0.999976
    outer loop
      vertex -29.2659 1.75708 -4.04995
      vertex 1.5 7.75 -4.25
      vertex -29.2104 1.56803 -4.05058
    endloop
  endfacet
  facet normal -0.0818144 0.996648 0
    outer loop
      vertex -32 5 -4
      vertex -32 5 0
      vertex -30 5.16418 -2.94665
    endloop
  endfacet
  facet normal -0.0818144 0.996648 0
    outer loop
      vertex -32 5 -4
      vertex -30 5.16418 -2.94665
      vertex 1.5 7.75 -4.25
    endloop
  endfacet
  facet normal -0.0818144 0.996648 0
    outer loop
      vertex -8.82881 6.90211 -1.61803
      vertex 1.5 7.75 -4.25
      vertex -17.6794 6.17557 -2.61803
    endloop
  endfacet
  facet normal -0.0818144 0.996648 0
    outer loop
      vertex -30 5.16418 -2.94665
      vertex -17.6794 6.17557 -2.61803
      vertex 1.5 7.75 -4.25
    endloop
  endfacet
  facet normal -0.0818144 0.996648 0
    outer loop
      vertex 1.5 7.75 -4.25
      vertex -8.82881 6.90211 -1.61803
      vertex -8.82881 6.90211 -0.381966
    endloop
  endfacet
  facet normal -0.0818144 0.996648 0
    outer loop
      vertex -8.82881 6.90211 -0.381966
      vertex 1.5 7.75 4.25
      vertex 1.5 7.75 -4.25
    endloop
  endfacet
  facet normal -0.0818144 0.996648 0
    outer loop
      vertex -17.6794 6.17557 0.618034
      vertex -25.487 5.53465 0.826281
      vertex 1.5 7.75 4.25
    endloop
  endfacet
  facet normal -0.0818144 0.996648 0
    outer loop
      vertex -17.6794 6.17557 0.618034
      vertex 1.5 7.75 4.25
      vertex -8.82881 6.90211 -0.381966
    endloop
  endfacet
  facet normal -0.0818144 0.996648 0
    outer loop
      vertex -30 5.16418 -2.94665
      vertex -32 5 0
      vertex -30 5.16418 0.253731
    endloop
  endfacet
  facet normal -0.0126797 0.0637454 -0.997886
    outer loop
      vertex 1.5 7.75 -4.25
      vertex -33.9134 4.6194 -4
      vertex -32 5 -4
    endloop
  endfacet
  facet normal -0.00813499 0.0121749 -0.999893
    outer loop
      vertex 1.5 7.75 -4.25
      vertex -35.5355 3.53553 -4
      vertex -33.9134 4.6194 -4
    endloop
  endfacet
  facet normal -0.00649337 0 -0.999979
    outer loop
      vertex -29.2104 -1.56803 -4.05058
      vertex -28.75 0 -4.05357
      vertex 1.5 -7.75 -4.25
    endloop
  endfacet
  facet normal -0.00649337 0 -0.999979
    outer loop
      vertex 1.5 -7.75 -4.25
      vertex -28.75 0 -4.05357
      vertex -29.2104 1.56803 -4.05058
    endloop
  endfacet
  facet normal -0.00649337 0 -0.999979
    outer loop
      vertex 1.5 -7.75 -4.25
      vertex -29.2104 1.56803 -4.05058
      vertex 1.5 7.75 -4.25
    endloop
  endfacet
  facet normal 0 0 -1
    outer loop
      vertex 1.5 -7.75 -4.25
      vertex 1.5 7.75 -4.25
      vertex 11 -7.75 -4.25
    endloop
  endfacet
  facet normal 0 0 -1
    outer loop
      vertex 11 -7.75 -4.25
      vertex 1.5 7.75 -4.25
      vertex 11 7.75 -4.25
    endloop
  endfacet
  facet normal 0 1 0
    outer loop
      vertex 1.5 7.75 -4.25
      vertex 1.5 7.75 4.25
      vertex 11 7.75 -4.25
    endloop
  endfacet
  facet normal 0 1 0
    outer loop
      vertex 11 7.75 -4.25
      vertex 1.5 7.75 4.25
      vertex 11 7.75 4.25
    endloop
  endfacet
  facet normal -0.55557 0.83147 0
    outer loop
      vertex -35.5355 3.53553 -4
      vertex -35.5355 3.53553 0
      vertex -33.9134 4.6194 -4
    endloop
  endfacet
  facet normal -0.55557 0.83147 0
    outer loop
      vertex -33.9134 4.6194 -4
      vertex -35.5355 3.53553 0
      vertex -33.9134 4.6194 0
    endloop
  endfacet
  facet normal -0.134213 0.200864 0.970382
    outer loop
      vertex -33.9134 4.6194 0
      vertex -35.5355 3.53553 0
      vertex -30 4.16545 0.635228
    endloop
  endfacet
  facet normal -0.134213 0.200864 0.970382
    outer loop
      vertex -30 4.96535 0.469653
      vertex -33.9134 4.6194 0
      vertex -30 4.16545 0.635228
    endloop
  endfacet
  facet normal 1 0 2.22045e-16
    outer loop
      vertex -30 3.82443 0.618034
      vertex -30 3.14357 -0.319086
      vertex -30 3.14357 -0.5
    endloop
  endfacet
  facet normal 1 0 2.22045e-16
    outer loop
      vertex -30 3.09789 -1.61803
      vertex -30 3.82443 0.618034
      vertex -30 3.14357 -0.5
    endloop
  endfacet
  facet normal 1 0 2.22045e-16
    outer loop
      vertex -30 3.09789 -0.5
      vertex -30 3.09789 -1.61803
      vertex -30 3.14357 -0.5
    endloop
  endfacet
  facet normal 1 0 2.22045e-16
    outer loop
      vertex -30 3.09789 -1.61803
      vertex -30 3.82443 -2.61803
      vertex -30 3.82443 0.618034
    endloop
  endfacet
  facet normal 1 0 2.22045e-16
    outer loop
      vertex -30 3.82443 -2.61803
      vertex -30 5 -3
      vertex -30 3.82443 0.618034
    endloop
  endfacet
  facet normal 1 0 2.22045e-16
    outer loop
      vertex -30 5 -3
      vertex -30 5.16418 -2.94665
      vertex -30 3.82443 0.618034
    endloop
  endfacet
  facet normal 1 0 2.22045e-16
    outer loop
      vertex -30 5.16418 -2.94665
      vertex -30 5.16418 0.253731
      vertex -30 3.82443 0.618034
    endloop
  endfacet
  facet normal 1 0 2.22045e-16
    outer loop
      vertex -30 5.16418 0.253731
      vertex -30 4.96535 0.469653
      vertex -30 3.82443 0.618034
    endloop
  endfacet
  facet normal 1 0 2.22045e-16
    outer loop
      vertex -30 4.96535 0.469653
      vertex -30 4.16545 0.635228
      vertex -30 3.82443 0.618034
    endloop
  endfacet
  facet normal 1 0 2.22045e-16
    outer loop
      vertex -30 4.16545 0.635228
      vertex -30 3.93596 0.654273
      vertex -30 3.82443 0.618034
    endloop
  endfacet
  facet normal 2.11177e-16 0.309017 -0.951057
    outer loop
      vertex -26.1137 5 1
      vertex -0.05 5 1
      vertex -28.7965 4.30241 0.773338
    endloop
  endfacet
  facet normal 2.11177e-16 0.309017 -0.951057
    outer loop
      vertex -28.7965 4.30241 0.773338
      vertex -0.05 5 1
      vertex -0.05 3.82443 0.618034
    endloop
  endfacet
  facet normal 2.11177e-16 0.309017 -0.951057
    outer loop
      vertex -28.7965 4.30241 0.773338
      vertex -0.05 3.82443 0.618034
      vertex -30 3.82443 0.618034
    endloop
  endfacet
  facet normal 2.11177e-16 0.309017 -0.951057
    outer loop
      vertex -28.7965 4.30241 0.773338
      vertex -30 3.82443 0.618034
      vertex -30 3.93596 0.654273
    endloop
  endfacet
  facet normal -0.134213 0.200864 0.970382
    outer loop
      vertex -26.1137 5 1
      vertex -28.7965 4.30241 0.773338
      vertex 1.5 7.75 4.25
    endloop
  endfacet
  facet normal -0.134213 0.200864 0.970382
    outer loop
      vertex -26.3586 5.28726 0.906664
      vertex -26.1137 5 1
      vertex 1.5 7.75 4.25
    endloop
  endfacet
  facet normal -0.144783 0.727873 0.670253
    outer loop
      vertex -25.487 5.53465 0.826281
      vertex -26.3586 5.28726 0.906664
      vertex 1.5 7.75 4.25
    endloop
  endfacet
  facet normal 0 0 1
    outer loop
      vertex 1.5 -1.62868 4.25
      vertex 1.5 -7.75 4.25
      vertex 11 -7.75 4.25
    endloop
  endfacet
  facet normal 0 0 1
    outer loop
      vertex 1.59099 -1.59099 4.25
      vertex 1.5 -1.62868 4.25
      vertex 11 -7.75 4.25
    endloop
  endfacet
  facet normal 0 0 1
    outer loop
      vertex 1.5 7.75 4.25
      vertex 1.5 1.62868 4.25
      vertex 11 7.75 4.25
    endloop
  endfacet
  facet normal 0 0 1
    outer loop
      vertex 1.5 1.62868 4.25
      vertex 1.59099 1.59099 4.25
      vertex 11 7.75 4.25
    endloop
  endfacet
  facet normal 0 0 1
    outer loop
      vertex 1.59099 1.59099 4.25
      vertex 2.25 0 4.25
      vertex 11 7.75 4.25
    endloop
  endfacet
  facet normal 0 0 1
    outer loop
      vertex 11 7.75 4.25
      vertex 1.59099 -1.59099 4.25
      vertex 11 -7.75 4.25
    endloop
  endfacet
  facet normal 0 0 1
    outer loop
      vertex 2.25 0 4.25
      vertex 1.59099 -1.59099 4.25
      vertex 11 7.75 4.25
    endloop
  endfacet
  facet normal -0.109723 0 0.993962
    outer loop
      vertex 1.5 7.75 4.25
      vertex -22.4942 2.92001 1.60129
      vertex 0 2.25 4.08442
    endloop
  endfacet
  facet normal -0.109723 0 0.993962
    outer loop
      vertex 1.5 1.62868 4.25
      vertex 1.5 7.75 4.25
      vertex 0 2.25 4.08442
    endloop
  endfacet
  facet normal -0.114212 0.0227181 0.993197
    outer loop
      vertex 1.5 7.75 4.25
      vertex -28.8155 3.10829 0.870067
      vertex -22.4942 2.92001 1.60129
    endloop
  endfacet
  facet normal -0.0297725 -0.999557 0
    outer loop
      vertex 0 2.25 -0.5
      vertex -30 3.14357 -0.319086
      vertex -28.4662 3.09789 -0.381966
    endloop
  endfacet
  facet normal -0.0297725 -0.999557 0
    outer loop
      vertex -30 3.14357 -0.5
      vertex -30 3.14357 -0.319086
      vertex -32.4625 3.21692 0.408103
    endloop
  endfacet
  facet normal -0.0297725 -0.999557 0
    outer loop
      vertex -28.4662 3.09789 -0.5
      vertex 0 2.25 -0.5
      vertex -28.4662 3.09789 -0.381966
    endloop
  endfacet
  facet normal -0.0297725 -0.999557 0
    outer loop
      vertex 0 2.25 -0.5
      vertex 0 2.25 4.08442
      vertex -30 3.14357 -0.319086
    endloop
  endfacet
  facet normal -0.0297725 -0.999557 0
    outer loop
      vertex 0 2.25 4.08442
      vertex -22.4942 2.92001 1.60129
      vertex -30 3.14357 -0.319086
    endloop
  endfacet
  facet normal -0.0297725 -0.999557 0
    outer loop
      vertex -22.4942 2.92001 1.60129
      vertex -28.8155 3.10829 0.870067
      vertex -30 3.14357 -0.319086
    endloop
  endfacet
  facet normal -0.0297725 -0.999557 0
    outer loop
      vertex -28.8155 3.10829 0.870067
      vertex -32.4625 3.21692 0.408103
      vertex -30 3.14357 -0.319086
    endloop
  endfacet
  facet normal -0.0297725 -0.999557 0
    outer loop
      vertex -32.4625 3.21692 0.408103
      vertex -32.4625 3.21692 -0.5
      vertex -30 3.14357 -0.5
    endloop
  endfacet
  facet normal 1 0 0
    outer loop
      vertex -35.1184 0.915631 -0.5
      vertex -35.1184 0.915631 0.195434
      vertex -35.1184 0.378773 0.207714
    endloop
  endfacet
  facet normal 1 0 0
    outer loop
      vertex -35.1184 -0.915631 0.195434
      vertex -35.1184 0.915631 -0.5
      vertex -35.1184 -0.378773 0.207714
    endloop
  endfacet
  facet normal 1 0 0
    outer loop
      vertex -35.1184 -0.378773 0.207714
      vertex -35.1184 0.915631 -0.5
      vertex -35.1184 0.378773 0.207714
    endloop
  endfacet
  facet normal 1 0 0
    outer loop
      vertex -35.1184 -0.915631 -0.5
      vertex -35.1184 0.915631 -0.5
      vertex -35.1184 -0.915631 0.195434
    endloop
  endfacet
  facet normal 0.841253 0.540641 0
    outer loop
      vertex -35.1184 -0.915631 0.195434
      vertex -34.7883 -1.42915 0.221639
      vertex -34.7883 -1.42915 -0.5
    endloop
  endfacet
  facet normal 0.841253 0.540641 0
    outer loop
      vertex -35.1184 -0.915631 -0.5
      vertex -35.1184 -0.915631 0.195434
      vertex -34.7883 -1.42915 -0.5
    endloop
  endfacet
  facet normal 0.415415 0.909632 0
    outer loop
      vertex -32.4625 -3.21692 0.408103
      vertex -32.4625 -3.21692 -4.02401
      vertex -34.1283 -2.45619 0.264348
    endloop
  endfacet
  facet normal 0.415415 0.909632 0
    outer loop
      vertex -34.1283 -2.45619 0.264348
      vertex -32.4625 -3.21692 -4.02401
      vertex -34.1283 -2.45619 -4.01555
    endloop
  endfacet
  facet normal -0.142315 0.989821 0
    outer loop
      vertex -30.6499 -2.9563 -4.03852
      vertex -32.4625 -3.21692 -0.5
      vertex -30.6499 -2.9563 -0.5
    endloop
  endfacet
  facet normal -0.142315 0.989821 0
    outer loop
      vertex -32.4625 -3.21692 -4.02401
      vertex -32.4625 -3.21692 -0.5
      vertex -30.6499 -2.9563 -4.03852
    endloop
  endfacet
  facet normal -0.142315 0.989821 0
    outer loop
      vertex -32.4625 -3.21692 0.408103
      vertex -32.4625 -3.21692 -0.5
      vertex -32.4625 -3.21692 -4.02401
    endloop
  endfacet
  facet normal -0.0297725 0.999557 0
    outer loop
      vertex -28.8155 -3.10829 0.870067
      vertex -22.4942 -2.92001 1.60129
      vertex -32.4625 -3.21692 0.408103
    endloop
  endfacet
  facet normal -0.0297725 0.999557 0
    outer loop
      vertex -32.4625 -3.21692 0.408103
      vertex -22.4942 -2.92001 1.60129
      vertex 0 -2.25 4.08442
    endloop
  endfacet
  facet normal -0.0297725 0.999557 0
    outer loop
      vertex -32.4625 -3.21692 0.408103
      vertex 0 -2.25 4.08442
      vertex 0 -2.25 -0.5
    endloop
  endfacet
  facet normal -0.0297725 0.999557 0
    outer loop
      vertex -32.4625 -3.21692 0.408103
      vertex 0 -2.25 -0.5
      vertex -32.4625 -3.21692 -0.5
    endloop
  endfacet
  facet normal -0.114212 -0.0227181 0.993197
    outer loop
      vertex -22.4942 -2.92001 1.60129
      vertex -28.8155 -3.10829 0.870067
      vertex 1.5 -7.75 4.25
    endloop
  endfacet
  facet normal -0.0818144 -0.996648 0
    outer loop
      vertex -32 -5 0
      vertex -32 -5 -4
      vertex 1.5 -7.75 -4.25
    endloop
  endfacet
  facet normal -0.0818144 -0.996648 0
    outer loop
      vertex 1.5 -7.75 4.25
      vertex -32 -5 0
      vertex 1.5 -7.75 -4.25
    endloop
  endfacet
  facet normal -0.144783 -0.727873 0.670253
    outer loop
      vertex 1.5 -7.75 4.25
      vertex -33.9134 -4.6194 0
      vertex -32 -5 0
    endloop
  endfacet
  facet normal -0.134213 -0.200864 0.970382
    outer loop
      vertex 1.5 -7.75 4.25
      vertex -35.5355 -3.53553 0
      vertex -33.9134 -4.6194 0
    endloop
  endfacet
  facet normal -0.109723 0 0.993962
    outer loop
      vertex 0 -2.25 4.08442
      vertex -22.4942 -2.92001 1.60129
      vertex 1.5 -7.75 4.25
    endloop
  endfacet
  facet normal -0.109723 0 0.993962
    outer loop
      vertex 1.5 -1.62868 4.25
      vertex 0 -2.25 4.08442
      vertex 1.5 -7.75 4.25
    endloop
  endfacet
  facet normal 0 -1 0
    outer loop
      vertex 1.5 -7.75 4.25
      vertex 1.5 -7.75 -4.25
      vertex 11 -7.75 -4.25
    endloop
  endfacet
  facet normal 0 -1 0
    outer loop
      vertex 11 -7.75 4.25
      vertex 1.5 -7.75 4.25
      vertex 11 -7.75 -4.25
    endloop
  endfacet
  facet normal -0.55557 -0.83147 0
    outer loop
      vertex -35.5355 -3.53553 0
      vertex -35.5355 -3.53553 -4
      vertex -33.9134 -4.6194 -4
    endloop
  endfacet
  facet normal -0.55557 -0.83147 0
    outer loop
      vertex -33.9134 -4.6194 0
      vertex -35.5355 -3.53553 0
      vertex -33.9134 -4.6194 -4
    endloop
  endfacet
  facet normal -0.00813499 -0.0121749 -0.999893
    outer loop
      vertex -33.9134 -4.6194 -4
      vertex -35.5355 -3.53553 -4
      vertex 1.5 -7.75 -4.25
    endloop
  endfacet
  facet normal -0.0126797 -0.0637454 -0.997886
    outer loop
      vertex -32 -5 -4
      vertex -33.9134 -4.6194 -4
      vertex 1.5 -7.75 -4.25
    endloop
  endfacet
  facet normal -0.0067642 -0.00134548 -0.999976
    outer loop
      vertex -30.5235 -2.84678 -4.03998
      vertex -29.2659 -1.75708 -4.04995
      vertex 1.5 -7.75 -4.25
    endloop
  endfacet
  facet normal -0.0067642 -0.00134548 -0.999976
    outer loop
      vertex 1.5 -7.75 -4.25
      vertex -29.2659 -1.75708 -4.04995
      vertex -29.2104 -1.56803 -4.05058
    endloop
  endfacet
  facet normal -0.654861 0.75575 0
    outer loop
      vertex -29.2659 -1.75708 -0.5
      vertex -29.2659 -1.75708 -4.04995
      vertex -30.6499 -2.9563 -0.5
    endloop
  endfacet
  facet normal -0.654861 0.75575 0
    outer loop
      vertex -30.6499 -2.9563 -0.5
      vertex -29.2659 -1.75708 -4.04995
      vertex -30.5235 -2.84678 -4.03998
    endloop
  endfacet
  facet normal -0.654861 0.75575 0
    outer loop
      vertex -30.6499 -2.9563 -0.5
      vertex -30.5235 -2.84678 -4.03998
      vertex -30.6499 -2.9563 -4.03852
    endloop
  endfacet
  facet normal 0 0 1
    outer loop
      vertex -32.4625 -3.21692 -0.5
      vertex 0 -2.25 -0.5
      vertex 1.59099 -1.59099 -0.5
    endloop
  endfacet
  facet normal 0 0 1
    outer loop
      vertex -30.6499 -2.9563 -0.5
      vertex -32.4625 -3.21692 -0.5
      vertex 1.78065 -1.13312 -0.5
    endloop
  endfacet
  facet normal 0 0 1
    outer loop
      vertex 1.78065 -1.13312 -0.5
      vertex -32.4625 -3.21692 -0.5
      vertex 1.59099 -1.59099 -0.5
    endloop
  endfacet
  facet normal 0 0 1
    outer loop
      vertex -29.2659 -1.75708 -0.5
      vertex 0.530771 2.03015 -0.5
      vertex 0 2.25 -0.5
    endloop
  endfacet
  facet normal 0 0 1
    outer loop
      vertex -29.2659 -1.75708 -0.5
      vertex -30.6499 -2.9563 -0.5
      vertex 0.530771 2.03015 -0.5
    endloop
  endfacet
  facet normal 0 0 1
    outer loop
      vertex -30.6499 2.9563 -0.5
      vertex -30 3.09789 -0.5
      vertex -30 3.14357 -0.5
    endloop
  endfacet
  facet normal 0 0 1
    outer loop
      vertex -32.4625 3.21692 -0.5
      vertex -30.6499 2.9563 -0.5
      vertex -30 3.14357 -0.5
    endloop
  endfacet
  facet normal 0 0 1
    outer loop
      vertex -28.4662 3.09789 -0.5
      vertex -29.2659 1.75708 -0.5
      vertex 0 2.25 -0.5
    endloop
  endfacet
  facet normal 0 0 1
    outer loop
      vertex -29.2659 1.75708 -0.5
      vertex -28.75 0 -0.5
      vertex 0 2.25 -0.5
    endloop
  endfacet
  facet normal 0 0 1
    outer loop
      vertex -28.75 0 -0.5
      vertex -29.2659 -1.75708 -0.5
      vertex 0 2.25 -0.5
    endloop
  endfacet
  facet normal 0 0 1
    outer loop
      vertex 0.530771 2.03015 -0.5
      vertex -30.6499 -2.9563 -0.5
      vertex 1.78065 -1.13312 -0.5
    endloop
  endfacet
  facet normal 0 0 1
    outer loop
      vertex -30.6499 2.9563 -0.5
      vertex -28.4662 3.09789 -0.5
      vertex -30 3.09789 -0.5
    endloop
  endfacet
  facet normal 0 0 1
    outer loop
      vertex -30.6499 2.9563 -0.5
      vertex -29.2659 1.75708 -0.5
      vertex -28.4662 3.09789 -0.5
    endloop
  endfacet
  facet normal -0.959493 -0.281732 0
    outer loop
      vertex -28.75 0 -4.05357
      vertex -28.75 0 -0.5
      vertex -29.2104 1.56803 -4.05058
    endloop
  endfacet
  facet normal -0.959493 -0.281732 0
    outer loop
      vertex -29.2104 1.56803 -4.05058
      vertex -28.75 0 -0.5
      vertex -29.2659 1.75708 -0.5
    endloop
  endfacet
  facet normal -0.959493 -0.281732 0
    outer loop
      vertex -29.2104 1.56803 -4.05058
      vertex -29.2659 1.75708 -0.5
      vertex -29.2659 1.75708 -4.04995
    endloop
  endfacet
  facet normal 2.11177e-16 -0.309017 -0.951057
    outer loop
      vertex -17.6794 6.17557 0.618034
      vertex -0.05 6.17557 0.618034
      vertex -25.487 5.53465 0.826281
    endloop
  endfacet
  facet normal 2.11177e-16 -0.309017 -0.951057
    outer loop
      vertex -25.487 5.53465 0.826281
      vertex -0.05 6.17557 0.618034
      vertex -0.05 5 1
    endloop
  endfacet
  facet normal 2.11177e-16 -0.309017 -0.951057
    outer loop
      vertex -25.487 5.53465 0.826281
      vertex -0.05 5 1
      vertex -26.1137 5 1
    endloop
  endfacet
  facet normal 2.11177e-16 -0.309017 -0.951057
    outer loop
      vertex -25.487 5.53465 0.826281
      vertex -26.1137 5 1
      vertex -26.3586 5.28726 0.906664
    endloop
  endfacet
  facet normal 1.30514e-16 -0.809017 -0.587785
    outer loop
      vertex -8.82881 6.90211 -0.381966
      vertex -1.37231e-16 6.90211 -0.381966
      vertex -2.59181e-16 6.50309 0.167247
    endloop
  endfacet
  facet normal 1.30514e-16 -0.809017 -0.587785
    outer loop
      vertex -0.05 6.17557 0.618034
      vertex -8.82881 6.90211 -0.381966
      vertex -0.05 6.5 0.171495
    endloop
  endfacet
  facet normal 1.30514e-16 -0.809017 -0.587785
    outer loop
      vertex -0.05 6.5 0.171495
      vertex -8.82881 6.90211 -0.381966
      vertex -2.59181e-16 6.50309 0.167247
    endloop
  endfacet
  facet normal 1.30514e-16 -0.809017 -0.587785
    outer loop
      vertex -17.6794 6.17557 0.618034
      vertex -8.82881 6.90211 -0.381966
      vertex -0.05 6.17557 0.618034
    endloop
  endfacet
  facet normal 0 -1 0
    outer loop
      vertex 1.37231e-16 6.90211 -1.61803
      vertex -1.37231e-16 6.90211 -0.381966
      vertex -8.82881 6.90211 -0.381966
    endloop
  endfacet
  facet normal 0 -1 0
    outer loop
      vertex -8.82881 6.90211 -1.61803
      vertex 1.37231e-16 6.90211 -1.61803
      vertex -8.82881 6.90211 -0.381966
    endloop
  endfacet
  facet normal -1.30514e-16 -0.809017 0.587785
    outer loop
      vertex 1.37231e-16 6.90211 -1.61803
      vertex -0.05 6.5 -2.1715
      vertex 2.59181e-16 6.50309 -2.16725
    endloop
  endfacet
  facet normal -1.30514e-16 -0.809017 0.587785
    outer loop
      vertex -8.82881 6.90211 -1.61803
      vertex -0.05 6.5 -2.1715
      vertex 1.37231e-16 6.90211 -1.61803
    endloop
  endfacet
  facet normal -1.30514e-16 -0.809017 0.587785
    outer loop
      vertex -0.05 6.17557 -2.61803
      vertex -0.05 6.5 -2.1715
      vertex -8.82881 6.90211 -1.61803
    endloop
  endfacet
  facet normal -1.30514e-16 -0.809017 0.587785
    outer loop
      vertex -17.6794 6.17557 -2.61803
      vertex -0.05 6.17557 -2.61803
      vertex -8.82881 6.90211 -1.61803
    endloop
  endfacet
  facet normal -2.11177e-16 -0.309017 0.951057
    outer loop
      vertex -30 5 -3
      vertex -0.05 5 -3
      vertex -0.05 6.17557 -2.61803
    endloop
  endfacet
  facet normal -2.11177e-16 -0.309017 0.951057
    outer loop
      vertex -30 5.16418 -2.94665
      vertex -30 5 -3
      vertex -17.6794 6.17557 -2.61803
    endloop
  endfacet
  facet normal -2.11177e-16 -0.309017 0.951057
    outer loop
      vertex -17.6794 6.17557 -2.61803
      vertex -30 5 -3
      vertex -0.05 6.17557 -2.61803
    endloop
  endfacet
  facet normal -0.144783 0.727873 0.670253
    outer loop
      vertex -33.9134 4.6194 0
      vertex -30 4.96535 0.469653
      vertex -32 5 0
    endloop
  endfacet
  facet normal -0.144783 0.727873 0.670253
    outer loop
      vertex -32 5 0
      vertex -30 4.96535 0.469653
      vertex -30 5.16418 0.253731
    endloop
  endfacet
  facet normal -0.19509 0.980785 0
    outer loop
      vertex -33.9134 4.6194 -4
      vertex -33.9134 4.6194 0
      vertex -32 5 -4
    endloop
  endfacet
  facet normal -0.19509 0.980785 0
    outer loop
      vertex -32 5 -4
      vertex -33.9134 4.6194 0
      vertex -32 5 0
    endloop
  endfacet
  facet normal -0.959493 0.281732 0
    outer loop
      vertex -28.75 0 -0.5
      vertex -28.75 0 -4.05357
      vertex -29.2659 -1.75708 -0.5
    endloop
  endfacet
  facet normal -0.959493 0.281732 0
    outer loop
      vertex -29.2659 -1.75708 -0.5
      vertex -28.75 0 -4.05357
      vertex -29.2104 -1.56803 -4.05058
    endloop
  endfacet
  facet normal -0.959493 0.281732 0
    outer loop
      vertex -29.2659 -1.75708 -0.5
      vertex -29.2104 -1.56803 -4.05058
      vertex -29.2659 -1.75708 -4.04995
    endloop
  endfacet
  facet normal 1 0 0
    outer loop
      vertex 11 -6.75 -3
      vertex 11 -7.75 -4.25
      vertex 11 7.75 -4.25
    endloop
  endfacet
  facet normal 1 0 0
    outer loop
      vertex 11 -7.75 4.25
      vertex 11 -7.75 -4.25
      vertex 11 -6.75 -3
    endloop
  endfacet
  facet normal 1 0 0
    outer loop
      vertex 11 -6.75 3
      vertex 11 6.75 3
      vertex 11 -7.75 4.25
    endloop
  endfacet
  facet normal 1 0 0
    outer loop
      vertex 11 -7.75 4.25
      vertex 11 -6.75 -3
      vertex 11 -6.75 3
    endloop
  endfacet
  facet normal 1 0 0
    outer loop
      vertex 11 7.75 4.25
      vertex 11 6.75 3
      vertex 11 7.75 -4.25
    endloop
  endfacet
  facet normal 1 0 0
    outer loop
      vertex 11 7.75 4.25
      vertex 11 -7.75 4.25
      vertex 11 6.75 3
    endloop
  endfacet
  facet normal 1 0 0
    outer loop
      vertex 11 6.75 3
      vertex 11 6.75 -3
      vertex 11 7.75 -4.25
    endloop
  endfacet
  facet normal 1 0 0
    outer loop
      vertex 11 6.75 -3
      vertex 11 -6.75 -3
      vertex 11 7.75 -4.25
    endloop
  endfacet
  facet normal 1.30514e-16 0.809017 -0.587785
    outer loop
      vertex -0.05 3.5 0.171495
      vertex -2.2145e-16 3.37346 -0.00267645
      vertex -1.37231e-16 3.09789 -0.381966
    endloop
  endfacet
  facet normal 1.30514e-16 0.809017 -0.587785
    outer loop
      vertex -0.05 3.5 0.171495
      vertex -1.37231e-16 3.09789 -0.381966
      vertex -28.4662 3.09789 -0.381966
    endloop
  endfacet
  facet normal 1.30514e-16 0.809017 -0.587785
    outer loop
      vertex -0.05 3.5 0.171495
      vertex -28.4662 3.09789 -0.381966
      vertex -0.05 3.82443 0.618034
    endloop
  endfacet
  facet normal 1.30514e-16 0.809017 -0.587785
    outer loop
      vertex -28.4662 3.09789 -0.381966
      vertex -30 3.14357 -0.319086
      vertex -0.05 3.82443 0.618034
    endloop
  endfacet
  facet normal 1.30514e-16 0.809017 -0.587785
    outer loop
      vertex -30 3.14357 -0.319086
      vertex -30 3.82443 0.618034
      vertex -0.05 3.82443 0.618034
    endloop
  endfacet
  facet normal -2.11177e-16 0.309017 0.951057
    outer loop
      vertex -0.05 3.82443 -2.61803
      vertex -0.05 5 -3
      vertex -30 5 -3
    endloop
  endfacet
  facet normal -2.11177e-16 0.309017 0.951057
    outer loop
      vertex -30 3.82443 -2.61803
      vertex -0.05 3.82443 -2.61803
      vertex -30 5 -3
    endloop
  endfacet
  facet normal -1.30514e-16 0.809017 0.587785
    outer loop
      vertex 2.2145e-16 3.37346 -1.99732
      vertex -0.05 3.5 -2.1715
      vertex 1.37231e-16 3.09789 -1.61803
    endloop
  endfacet
  facet normal -1.30514e-16 0.809017 0.587785
    outer loop
      vertex -30 3.82443 -2.61803
      vertex -0.05 3.5 -2.1715
      vertex -0.05 3.82443 -2.61803
    endloop
  endfacet
  facet normal -1.30514e-16 0.809017 0.587785
    outer loop
      vertex 1.37231e-16 3.09789 -1.61803
      vertex -0.05 3.5 -2.1715
      vertex -30 3.82443 -2.61803
    endloop
  endfacet
  facet normal -1.30514e-16 0.809017 0.587785
    outer loop
      vertex 1.37231e-16 3.09789 -1.61803
      vertex -30 3.82443 -2.61803
      vertex -30 3.09789 -1.61803
    endloop
  endfacet
  facet normal 0 1 0
    outer loop
      vertex -28.4662 3.09789 -0.381966
      vertex -1.37231e-16 3.09789 -0.381966
      vertex -28.4662 3.09789 -0.5
    endloop
  endfacet
  facet normal 0 1 0
    outer loop
      vertex -28.4662 3.09789 -0.5
      vertex -1.37231e-16 3.09789 -0.381966
      vertex 1.37231e-16 3.09789 -1.61803
    endloop
  endfacet
  facet normal 0 1 0
    outer loop
      vertex -28.4662 3.09789 -0.5
      vertex 1.37231e-16 3.09789 -1.61803
      vertex -30 3.09789 -1.61803
    endloop
  endfacet
  facet normal 0 1 0
    outer loop
      vertex -28.4662 3.09789 -0.5
      vertex -30 3.09789 -1.61803
      vertex -30 3.09789 -0.5
    endloop
  endfacet
  facet normal 1 0 0
    outer loop
      vertex -0.05 6.5 3
      vertex -0.05 5 1
      vertex -0.05 6.17557 0.618034
    endloop
  endfacet
  facet normal 1 0 0
    outer loop
      vertex -0.05 3.82443 0.618034
      vertex -0.05 5 1
      vertex -0.05 6.5 3
    endloop
  endfacet
  facet normal 1 0 0
    outer loop
      vertex -0.05 6.5 0.171495
      vertex -0.05 6.5 3
      vertex -0.05 6.17557 0.618034
    endloop
  endfacet
  facet normal 1 0 0
    outer loop
      vertex -0.05 6.5 3
      vertex -0.05 3.5 3
      vertex -0.05 3.82443 0.618034
    endloop
  endfacet
  facet normal 1 0 0
    outer loop
      vertex -0.05 3.5 3
      vertex -0.05 3.5 0.171495
      vertex -0.05 3.82443 0.618034
    endloop
  endfacet
  facet normal -0.382684 0.923879 0
    outer loop
      vertex 1.5 -1.62868 4.25
      vertex 1.59099 -1.59099 4.25
      vertex 0 -2.25 4.08442
    endloop
  endfacet
  facet normal -0.382684 0.923879 0
    outer loop
      vertex 0 -2.25 4.08442
      vertex 1.59099 -1.59099 4.25
      vertex 1.59099 -1.59099 -0.5
    endloop
  endfacet
  facet normal -0.382684 0.923879 0
    outer loop
      vertex 0 -2.25 4.08442
      vertex 1.59099 -1.59099 -0.5
      vertex 0 -2.25 -0.5
    endloop
  endfacet
  facet normal -0.923879 0.382684 0
    outer loop
      vertex 2.25 0 4.25
      vertex 2.25 0 3
      vertex 1.59099 -1.59099 4.25
    endloop
  endfacet
  facet normal -0.923879 0.382684 0
    outer loop
      vertex 1.59099 -1.59099 4.25
      vertex 2.25 0 3
      vertex 1.78065 -1.13312 3
    endloop
  endfacet
  facet normal -0.923879 0.382684 0
    outer loop
      vertex 1.59099 -1.59099 4.25
      vertex 1.78065 -1.13312 3
      vertex 1.78065 -1.13312 -0.5
    endloop
  endfacet
  facet normal -0.923879 0.382684 0
    outer loop
      vertex 1.59099 -1.59099 4.25
      vertex 1.78065 -1.13312 -0.5
      vertex 1.59099 -1.59099 -0.5
    endloop
  endfacet
  facet normal -0.923879 -0.382684 0
    outer loop
      vertex 2.25 0 4.25
      vertex 1.59099 1.59099 4.25
      vertex 2.25 0 3
    endloop
  endfacet
  facet normal -0.923879 -0.382684 0
    outer loop
      vertex 2.25 0 3
      vertex 1.59099 1.59099 4.25
      vertex 1.59099 1.59099 3
    endloop
  endfacet
  facet normal -0.382684 -0.923879 0
    outer loop
      vertex 1.59099 1.59099 4.25
      vertex 0.530771 2.03015 3
      vertex 1.59099 1.59099 3
    endloop
  endfacet
  facet normal -0.382684 -0.923879 0
    outer loop
      vertex 1.5 1.62868 4.25
      vertex 0.530771 2.03015 3
      vertex 1.59099 1.59099 4.25
    endloop
  endfacet
  facet normal -0.382684 -0.923879 0
    outer loop
      vertex 0.530771 2.03015 -0.5
      vertex 0.530771 2.03015 3
      vertex 0 2.25 4.08442
    endloop
  endfacet
  facet normal -0.382684 -0.923879 0
    outer loop
      vertex 0 2.25 4.08442
      vertex 0.530771 2.03015 3
      vertex 1.5 1.62868 4.25
    endloop
  endfacet
  facet normal -0.382684 -0.923879 0
    outer loop
      vertex 0 2.25 -0.5
      vertex 0.530771 2.03015 -0.5
      vertex 0 2.25 4.08442
    endloop
  endfacet
  facet normal -0.19509 -0.980785 0
    outer loop
      vertex -33.9134 -4.6194 0
      vertex -33.9134 -4.6194 -4
      vertex -32 -5 -4
    endloop
  endfacet
  facet normal -0.19509 -0.980785 0
    outer loop
      vertex -32 -5 0
      vertex -33.9134 -4.6194 0
      vertex -32 -5 -4
    endloop
  endfacet
  facet normal 0.930033 0.367476 0
    outer loop
      vertex 0.530771 2.03015 3
      vertex 2.2145e-16 3.37346 -1.99732
      vertex -2.2145e-16 3.37346 -0.00267645
    endloop
  endfacet
  facet normal 0.930033 0.367476 0
    outer loop
      vertex 1.78065 -1.13312 -0.5
      vertex 4 -6.75 -3
      vertex -0.05 3.5 -2.1715
    endloop
  endfacet
  facet normal 0.930033 0.367476 0
    outer loop
      vertex -0.05 3.5 -2.1715
      vertex 2.2145e-16 3.37346 -1.99732
      vertex 0.530771 2.03015 -0.5
    endloop
  endfacet
  facet normal 0.930033 0.367476 0
    outer loop
      vertex -0.05 3.5 0.171495
      vertex -0.05 3.5 3
      vertex -2.2145e-16 3.37346 -0.00267645
    endloop
  endfacet
  facet normal 0.930033 0.367476 0
    outer loop
      vertex -0.05 3.5 3
      vertex 0.530771 2.03015 3
      vertex -2.2145e-16 3.37346 -0.00267645
    endloop
  endfacet
  facet normal 0.930033 0.367476 0
    outer loop
      vertex 0.530771 2.03015 3
      vertex 0.530771 2.03015 -0.5
      vertex 2.2145e-16 3.37346 -1.99732
    endloop
  endfacet
  facet normal 0.930033 0.367476 0
    outer loop
      vertex 0.530771 2.03015 -0.5
      vertex 1.78065 -1.13312 -0.5
      vertex -0.05 3.5 -2.1715
    endloop
  endfacet
  facet normal 0.930033 0.367476 0
    outer loop
      vertex 1.78065 -1.13312 3
      vertex 4 -6.75 3
      vertex 1.78065 -1.13312 -0.5
    endloop
  endfacet
  facet normal 0.930033 0.367476 0
    outer loop
      vertex 4 -6.75 3
      vertex 4 -6.75 -3
      vertex 1.78065 -1.13312 -0.5
    endloop
  endfacet
  facet normal 0.930033 0.367476 0
    outer loop
      vertex 4 -6.75 -3
      vertex -0.05 3.5 -3
      vertex -0.05 3.5 -2.1715
    endloop
  endfacet
  facet normal 0.0616111 -0.9981 0
    outer loop
      vertex 4 6.75 -3
      vertex 4 6.75 3
      vertex -0.05 6.5 3
    endloop
  endfacet
  facet normal 0.0616111 -0.9981 0
    outer loop
      vertex -2.59181e-16 6.50309 0.167247
      vertex 4 6.75 -3
      vertex -0.05 6.5 3
    endloop
  endfacet
  facet normal 0.0616111 -0.9981 0
    outer loop
      vertex -0.05 6.5 0.171495
      vertex -2.59181e-16 6.50309 0.167247
      vertex -0.05 6.5 3
    endloop
  endfacet
  facet normal 0.0616111 -0.9981 0
    outer loop
      vertex -0.05 6.5 -2.1715
      vertex 4 6.75 -3
      vertex 2.59181e-16 6.50309 -2.16725
    endloop
  endfacet
  facet normal 0.0616111 -0.9981 0
    outer loop
      vertex -0.05 6.5 -3
      vertex 4 6.75 -3
      vertex -0.05 6.5 -2.1715
    endloop
  endfacet
  facet normal 0.0616111 -0.9981 0
    outer loop
      vertex -2.59181e-16 6.50309 0.167247
      vertex 2.59181e-16 6.50309 -2.16725
      vertex 4 6.75 -3
    endloop
  endfacet
  facet normal -1 0 -2.22045e-16
    outer loop
      vertex 1.37231e-16 6.90211 -1.61803
      vertex 2.59181e-16 6.50309 -2.16725
      vertex -1.37231e-16 6.90211 -0.381966
    endloop
  endfacet
  facet normal -1 0 -2.22045e-16
    outer loop
      vertex -1.37231e-16 6.90211 -0.381966
      vertex 2.59181e-16 6.50309 -2.16725
      vertex -2.59181e-16 6.50309 0.167247
    endloop
  endfacet
  facet normal 1 0 0
    outer loop
      vertex -0.05 5 -3
      vertex -0.05 3.5 -3
      vertex -0.05 6.5 -3
    endloop
  endfacet
  facet normal 1 0 0
    outer loop
      vertex -0.05 6.5 -3
      vertex -0.05 6.5 -2.1715
      vertex -0.05 6.17557 -2.61803
    endloop
  endfacet
  facet normal 1 0 0
    outer loop
      vertex -0.05 3.82443 -2.61803
      vertex -0.05 3.5 -3
      vertex -0.05 5 -3
    endloop
  endfacet
  facet normal 1 0 0
    outer loop
      vertex -0.05 5 -3
      vertex -0.05 6.5 -3
      vertex -0.05 6.17557 -2.61803
    endloop
  endfacet
  facet normal 1 0 0
    outer loop
      vertex -0.05 3.5 -2.1715
      vertex -0.05 3.5 -3
      vertex -0.05 3.82443 -2.61803
    endloop
  endfacet
  facet normal 0 1 0
    outer loop
      vertex 11 -6.75 3
      vertex 11 -6.75 -3
      vertex 4 -6.75 3
    endloop
  endfacet
  facet normal 0 1 0
    outer loop
      vertex 4 -6.75 3
      vertex 11 -6.75 -3
      vertex 4 -6.75 -3
    endloop
  endfacet
  facet normal 0 0 1
    outer loop
      vertex 4 -6.75 -3
      vertex 11 -6.75 -3
      vertex 11 6.75 -3
    endloop
  endfacet
  facet normal 0 0 1
    outer loop
      vertex -0.05 6.5 -3
      vertex 4 -6.75 -3
      vertex 4 6.75 -3
    endloop
  endfacet
  facet normal 0 0 1
    outer loop
      vertex 4 6.75 -3
      vertex 4 -6.75 -3
      vertex 11 6.75 -3
    endloop
  endfacet
  facet normal 0 0 1
    outer loop
      vertex -0.05 3.5 -3
      vertex 4 -6.75 -3
      vertex -0.05 6.5 -3
    endloop
  endfacet
  facet normal 0 -1 0
    outer loop
      vertex 11 6.75 -3
      vertex 11 6.75 3
      vertex 4 6.75 3
    endloop
  endfacet
  facet normal 0 -1 0
    outer loop
      vertex 4 6.75 -3
      vertex 11 6.75 -3
      vertex 4 6.75 3
    endloop
  endfacet
  facet normal 0 0 -1
    outer loop
      vertex 4 6.75 3
      vertex 11 6.75 3
      vertex -0.05 6.5 3
    endloop
  endfacet
  facet normal 0 0 -1
    outer loop
      vertex -0.05 6.5 3
      vertex 11 6.75 3
      vertex 11 -6.75 3
    endloop
  endfacet
  facet normal 0 0 -1
    outer loop
      vertex 2.25 0 3
      vertex 11 -6.75 3
      vertex 4 -6.75 3
    endloop
  endfacet
  facet normal 0 0 -1
    outer loop
      vertex -0.05 6.5 3
      vertex 11 -6.75 3
      vertex 2.25 0 3
    endloop
  endfacet
  facet normal 0 0 -1
    outer loop
      vertex 0.530771 2.03015 3
      vertex -0.05 6.5 3
      vertex 1.59099 1.59099 3
    endloop
  endfacet
  facet normal 0 0 -1
    outer loop
      vertex -0.05 6.5 3
      vertex 2.25 0 3
      vertex 1.59099 1.59099 3
    endloop
  endfacet
  facet normal 0 0 -1
    outer loop
      vertex -0.05 6.5 3
      vertex 0.530771 2.03015 3
      vertex -0.05 3.5 3
    endloop
  endfacet
  facet normal 0 0 -1
    outer loop
      vertex 2.25 0 3
      vertex 4 -6.75 3
      vertex 1.78065 -1.13312 3
    endloop
  endfacet
  facet normal -1 0 -2.22045e-16
    outer loop
      vertex 1.37231e-16 3.09789 -1.61803
      vertex -1.37231e-16 3.09789 -0.381966
      vertex 2.2145e-16 3.37346 -1.99732
    endloop
  endfacet
  facet normal -1 0 -2.22045e-16
    outer loop
      vertex 2.2145e-16 3.37346 -1.99732
      vertex -1.37231e-16 3.09789 -0.381966
      vertex -2.2145e-16 3.37346 -0.00267645
    endloop
  endfacet
endsolid OpenSCAD_Model
