solid OpenSCAD_Model
  facet normal 0.908749 -0.417344 0
    outer loop
      vertex 55.4113 0 13
      vertex 55.8367 0.926314 0
      vertex 55.8367 0.926314 13
    endloop
  endfacet
  facet normal 0.908749 -0.417344 0
    outer loop
      vertex 55.8367 0.926314 0
      vertex 55.4113 0 13
      vertex 55.4113 0 0
    endloop
  endfacet
  facet normal 0.96556 -0.260181 0
    outer loop
      vertex 55.8367 0.926314 13
      vertex 56.1019 1.91053 0
      vertex 56.1019 1.91053 13
    endloop
  endfacet
  facet normal 0.96556 -0.260181 0
    outer loop
      vertex 56.1019 1.91053 0
      vertex 55.8367 0.926314 13
      vertex 55.8367 0.926314 0
    endloop
  endfacet
  facet normal 0.995404 -0.0957674 0
    outer loop
      vertex 56.1019 1.91053 13
      vertex 56.1995 2.92517 0
      vertex 56.1995 2.92517 13
    endloop
  endfacet
  facet normal 0.995404 -0.0957674 0
    outer loop
      vertex 56.1995 2.92517 0
      vertex 56.1019 1.91053 13
      vertex 56.1019 1.91053 0
    endloop
  endfacet
  facet normal 0.997453 0.0713221 0
    outer loop
      vertex 56.1995 2.92517 13
      vertex 56.1268 3.9419 0
      vertex 56.1268 3.9419 13
    endloop
  endfacet
  facet normal 0.997453 0.0713221 0
    outer loop
      vertex 56.1268 3.9419 0
      vertex 56.1995 2.92517 13
      vertex 56.1995 2.92517 0
    endloop
  endfacet
  facet normal 0.971651 0.236421 0
    outer loop
      vertex 56.1268 3.9419 13
      vertex 55.8858 4.93233 0
      vertex 55.8858 4.93233 13
    endloop
  endfacet
  facet normal 0.971651 0.236421 0
    outer loop
      vertex 55.8858 4.93233 0
      vertex 56.1268 3.9419 13
      vertex 56.1268 3.9419 0
    endloop
  endfacet
  facet normal 0.918716 0.394918 0
    outer loop
      vertex 55.8858 4.93233 13
      vertex 55.4833 5.8688 0
      vertex 55.4833 5.8688 13
    endloop
  endfacet
  facet normal 0.918716 0.394918 0
    outer loop
      vertex 55.4833 5.8688 0
      vertex 55.8858 4.93233 13
      vertex 55.8858 4.93233 0
    endloop
  endfacet
  facet normal 0.840133 0.54238 0
    outer loop
      vertex 55.4833 5.8688 13
      vertex 54.9304 6.72517 0
      vertex 54.9304 6.72517 13
    endloop
  endfacet
  facet normal 0.840133 0.54238 0
    outer loop
      vertex 54.9304 6.72517 0
      vertex 55.4833 5.8688 13
      vertex 55.4833 5.8688 0
    endloop
  endfacet
  facet normal 0.738083 0.67471 0
    outer loop
      vertex 54.9304 6.72517 13
      vertex 54.2427 7.47752 0
      vertex 54.2427 7.47752 13
    endloop
  endfacet
  facet normal 0.738083 0.67471 0
    outer loop
      vertex 54.2427 7.47752 0
      vertex 54.9304 6.72517 13
      vertex 54.9304 6.72517 0
    endloop
  endfacet
  facet normal -0.984507 0.175347 0
    outer loop
      vertex 44.0302 3.60626 0
      vertex 44.1941 4.52677 13
      vertex 44.1941 4.52677 0
    endloop
  endfacet
  facet normal -0.984507 0.175347 0
    outer loop
      vertex 44.1941 4.52677 13
      vertex 44.0302 3.60626 0
      vertex 44.0302 3.60626 13
    endloop
  endfacet
  facet normal -0.999739 0.0228353 0
    outer loop
      vertex 44.0089 2.67151 0
      vertex 44.0302 3.60626 13
      vertex 44.0302 3.60626 0
    endloop
  endfacet
  facet normal -0.999739 0.0228353 0
    outer loop
      vertex 44.0302 3.60626 13
      vertex 44.0089 2.67151 0
      vertex 44.0089 2.67151 13
    endloop
  endfacet
  facet normal -0.991486 -0.130215 0
    outer loop
      vertex 44.1306 1.74448 0
      vertex 44.0089 2.67151 13
      vertex 44.0089 2.67151 0
    endloop
  endfacet
  facet normal -0.991486 -0.130215 0
    outer loop
      vertex 44.0089 2.67151 13
      vertex 44.1306 1.74448 0
      vertex 44.1306 1.74448 13
    endloop
  endfacet
  facet normal -0.959937 -0.280217 0
    outer loop
      vertex 44.3926 0.84695 0
      vertex 44.1306 1.74448 13
      vertex 44.1306 1.74448 0
    endloop
  endfacet
  facet normal -0.959937 -0.280217 0
    outer loop
      vertex 44.1306 1.74448 13
      vertex 44.3926 0.84695 0
      vertex 44.3926 0.84695 13
    endloop
  endfacet
  facet normal -0.905837 -0.423627 0
    outer loop
      vertex 44.7887 0 0
      vertex 44.3926 0.84695 13
      vertex 44.3926 0.84695 0
    endloop
  endfacet
  facet normal -0.905837 -0.423627 0
    outer loop
      vertex 44.3926 0.84695 13
      vertex 44.7887 0 0
      vertex 44.7887 0 13
    endloop
  endfacet
  facet normal 0 -1 0
    outer loop
      vertex 44.7887 0 0
      vertex 47.2325 0 13
      vertex 44.7887 0 13
    endloop
  endfacet
  facet normal 0 -1 -0
    outer loop
      vertex 47.2325 0 13
      vertex 44.7887 0 0
      vertex 47.2325 0 0
    endloop
  endfacet
  facet normal 0.749806 0.661658 0
    outer loop
      vertex 47.2325 0 13
      vertex 46.7665 0.528082 0
      vertex 46.7665 0.528082 13
    endloop
  endfacet
  facet normal 0.749806 0.661658 0
    outer loop
      vertex 46.7665 0.528082 0
      vertex 47.2325 0 13
      vertex 47.2325 0 0
    endloop
  endfacet
  facet normal 0.850893 0.525339 0
    outer loop
      vertex 46.7665 0.528082 13
      vertex 46.3965 1.12736 0
      vertex 46.3965 1.12736 13
    endloop
  endfacet
  facet normal 0.850893 0.525339 0
    outer loop
      vertex 46.3965 1.12736 0
      vertex 46.7665 0.528082 13
      vertex 46.7665 0.528082 0
    endloop
  endfacet
  facet normal 0.927478 0.373879 0
    outer loop
      vertex 46.3965 1.12736 13
      vertex 46.1332 1.78057 0
      vertex 46.1332 1.78057 13
    endloop
  endfacet
  facet normal 0.927478 0.373879 0
    outer loop
      vertex 46.1332 1.78057 0
      vertex 46.3965 1.12736 13
      vertex 46.3965 1.12736 0
    endloop
  endfacet
  facet normal 0.97734 0.211677 0
    outer loop
      vertex 46.1332 1.78057 13
      vertex 45.9841 2.4689 0
      vertex 45.9841 2.4689 13
    endloop
  endfacet
  facet normal 0.97734 0.211677 0
    outer loop
      vertex 45.9841 2.4689 0
      vertex 46.1332 1.78057 13
      vertex 46.1332 1.78057 0
    endloop
  endfacet
  facet normal 0.99906 0.0433473 0
    outer loop
      vertex 45.9841 2.4689 13
      vertex 45.9536 3.17252 0
      vertex 45.9536 3.17252 13
    endloop
  endfacet
  facet normal 0.99906 0.0433473 0
    outer loop
      vertex 45.9536 3.17252 0
      vertex 45.9841 2.4689 13
      vertex 45.9841 2.4689 0
    endloop
  endfacet
  facet normal 0.992005 -0.126196 0
    outer loop
      vertex 45.9536 3.17252 13
      vertex 46.0425 3.87118 0
      vertex 46.0425 3.87118 13
    endloop
  endfacet
  facet normal 0.992005 -0.126196 0
    outer loop
      vertex 46.0425 3.87118 0
      vertex 45.9536 3.17252 13
      vertex 45.9536 3.17252 0
    endloop
  endfacet
  facet normal 0.956379 -0.292127 0
    outer loop
      vertex 46.0425 3.87118 13
      vertex 46.2482 4.54475 0
      vertex 46.2482 4.54475 13
    endloop
  endfacet
  facet normal 0.956379 -0.292127 0
    outer loop
      vertex 46.2482 4.54475 0
      vertex 46.0425 3.87118 13
      vertex 46.0425 3.87118 0
    endloop
  endfacet
  facet normal 0.893207 -0.449645 0
    outer loop
      vertex 46.2482 4.54475 13
      vertex 46.5649 5.17383 0
      vertex 46.5649 5.17383 13
    endloop
  endfacet
  facet normal 0.893207 -0.449645 0
    outer loop
      vertex 46.5649 5.17383 0
      vertex 46.2482 4.54475 13
      vertex 46.2482 4.54475 0
    endloop
  endfacet
  facet normal 0.804316 -0.594202 0
    outer loop
      vertex 46.5649 5.17383 13
      vertex 46.9834 5.74029 0
      vertex 46.9834 5.74029 13
    endloop
  endfacet
  facet normal 0.804316 -0.594202 0
    outer loop
      vertex 46.9834 5.74029 0
      vertex 46.5649 5.17383 13
      vertex 46.5649 5.17383 0
    endloop
  endfacet
  facet normal 0.692255 -0.721653 0
    outer loop
      vertex 46.9834 5.74029 0
      vertex 47.4916 6.22784 13
      vertex 46.9834 5.74029 13
    endloop
  endfacet
  facet normal 0.692255 -0.721653 0
    outer loop
      vertex 47.4916 6.22784 13
      vertex 46.9834 5.74029 0
      vertex 47.4916 6.22784 0
    endloop
  endfacet
  facet normal 0.560256 -0.82832 0
    outer loop
      vertex 47.4916 6.22784 0
      vertex 48.075 6.62242 13
      vertex 47.4916 6.22784 13
    endloop
  endfacet
  facet normal 0.560256 -0.82832 0
    outer loop
      vertex 48.075 6.62242 13
      vertex 47.4916 6.22784 0
      vertex 48.075 6.62242 0
    endloop
  endfacet
  facet normal 0.412119 -0.91113 0
    outer loop
      vertex 48.075 6.62242 0
      vertex 48.7167 6.91267 13
      vertex 48.075 6.62242 13
    endloop
  endfacet
  facet normal 0.412119 -0.91113 0
    outer loop
      vertex 48.7167 6.91267 13
      vertex 48.075 6.62242 0
      vertex 48.7167 6.91267 0
    endloop
  endfacet
  facet normal 0.252116 -0.967697 0
    outer loop
      vertex 48.7167 6.91267 0
      vertex 49.3983 7.09024 13
      vertex 48.7167 6.91267 13
    endloop
  endfacet
  facet normal 0.252116 -0.967697 0
    outer loop
      vertex 49.3983 7.09024 13
      vertex 48.7167 6.91267 0
      vertex 49.3983 7.09024 0
    endloop
  endfacet
  facet normal 0.0848545 -0.996393 0
    outer loop
      vertex 49.3983 7.09024 0
      vertex 50.1 7.15 13
      vertex 49.3983 7.09024 13
    endloop
  endfacet
  facet normal 0.0848545 -0.996393 0
    outer loop
      vertex 50.1 7.15 13
      vertex 49.3983 7.09024 0
      vertex 50.1 7.15 0
    endloop
  endfacet
  facet normal -0.084854 -0.996393 0
    outer loop
      vertex 50.1 7.15 0
      vertex 50.8018 7.09024 13
      vertex 50.1 7.15 13
    endloop
  endfacet
  facet normal -0.084854 -0.996393 -0
    outer loop
      vertex 50.8018 7.09024 13
      vertex 50.1 7.15 0
      vertex 50.8018 7.09024 0
    endloop
  endfacet
  facet normal -0.25212 -0.967696 0
    outer loop
      vertex 50.8018 7.09024 0
      vertex 51.4833 6.91267 13
      vertex 50.8018 7.09024 13
    endloop
  endfacet
  facet normal -0.25212 -0.967696 -0
    outer loop
      vertex 51.4833 6.91267 13
      vertex 50.8018 7.09024 0
      vertex 51.4833 6.91267 0
    endloop
  endfacet
  facet normal -0.412119 -0.91113 0
    outer loop
      vertex 51.4833 6.91267 0
      vertex 52.125 6.62242 13
      vertex 51.4833 6.91267 13
    endloop
  endfacet
  facet normal -0.412119 -0.91113 -0
    outer loop
      vertex 52.125 6.62242 13
      vertex 51.4833 6.91267 0
      vertex 52.125 6.62242 0
    endloop
  endfacet
  facet normal -0.560256 -0.82832 0
    outer loop
      vertex 52.125 6.62242 0
      vertex 52.7084 6.22784 13
      vertex 52.125 6.62242 13
    endloop
  endfacet
  facet normal -0.560256 -0.82832 -0
    outer loop
      vertex 52.7084 6.22784 13
      vertex 52.125 6.62242 0
      vertex 52.7084 6.22784 0
    endloop
  endfacet
  facet normal -0.692255 -0.721653 0
    outer loop
      vertex 52.7084 6.22784 0
      vertex 53.2166 5.74029 13
      vertex 52.7084 6.22784 13
    endloop
  endfacet
  facet normal -0.692255 -0.721653 -0
    outer loop
      vertex 53.2166 5.74029 13
      vertex 52.7084 6.22784 0
      vertex 53.2166 5.74029 0
    endloop
  endfacet
  facet normal -0.804308 -0.594213 0
    outer loop
      vertex 53.6351 5.17383 0
      vertex 53.2166 5.74029 13
      vertex 53.2166 5.74029 0
    endloop
  endfacet
  facet normal -0.804308 -0.594213 0
    outer loop
      vertex 53.2166 5.74029 13
      vertex 53.6351 5.17383 0
      vertex 53.6351 5.17383 13
    endloop
  endfacet
  facet normal -0.893207 -0.449645 0
    outer loop
      vertex 53.9518 4.54475 0
      vertex 53.6351 5.17383 13
      vertex 53.6351 5.17383 0
    endloop
  endfacet
  facet normal -0.893207 -0.449645 0
    outer loop
      vertex 53.6351 5.17383 13
      vertex 53.9518 4.54475 0
      vertex 53.9518 4.54475 13
    endloop
  endfacet
  facet normal -0.956384 -0.292113 0
    outer loop
      vertex 54.1575 3.87118 0
      vertex 53.9518 4.54475 13
      vertex 53.9518 4.54475 0
    endloop
  endfacet
  facet normal -0.956384 -0.292113 0
    outer loop
      vertex 53.9518 4.54475 13
      vertex 54.1575 3.87118 0
      vertex 54.1575 3.87118 13
    endloop
  endfacet
  facet normal -0.992003 -0.126212 0
    outer loop
      vertex 54.2464 3.17252 0
      vertex 54.1575 3.87118 13
      vertex 54.1575 3.87118 0
    endloop
  endfacet
  facet normal -0.992003 -0.126212 0
    outer loop
      vertex 54.1575 3.87118 13
      vertex 54.2464 3.17252 0
      vertex 54.2464 3.17252 13
    endloop
  endfacet
  facet normal -0.999059 0.0433635 0
    outer loop
      vertex 54.2159 2.4689 0
      vertex 54.2464 3.17252 13
      vertex 54.2464 3.17252 0
    endloop
  endfacet
  facet normal -0.999059 0.0433635 0
    outer loop
      vertex 54.2464 3.17252 13
      vertex 54.2159 2.4689 0
      vertex 54.2159 2.4689 13
    endloop
  endfacet
  facet normal -0.977343 0.211662 0
    outer loop
      vertex 54.0668 1.78057 0
      vertex 54.2159 2.4689 13
      vertex 54.2159 2.4689 0
    endloop
  endfacet
  facet normal -0.977343 0.211662 0
    outer loop
      vertex 54.2159 2.4689 13
      vertex 54.0668 1.78057 0
      vertex 54.0668 1.78057 13
    endloop
  endfacet
  facet normal -0.927472 0.373893 0
    outer loop
      vertex 53.8035 1.12736 0
      vertex 54.0668 1.78057 13
      vertex 54.0668 1.78057 0
    endloop
  endfacet
  facet normal -0.927472 0.373893 0
    outer loop
      vertex 54.0668 1.78057 13
      vertex 53.8035 1.12736 0
      vertex 53.8035 1.12736 13
    endloop
  endfacet
  facet normal -0.850901 0.525327 0
    outer loop
      vertex 53.4335 0.528082 0
      vertex 53.8035 1.12736 13
      vertex 53.8035 1.12736 0
    endloop
  endfacet
  facet normal -0.850901 0.525327 0
    outer loop
      vertex 53.8035 1.12736 13
      vertex 53.4335 0.528082 0
      vertex 53.4335 0.528082 13
    endloop
  endfacet
  facet normal -0.749806 0.661658 0
    outer loop
      vertex 52.9675 0 0
      vertex 53.4335 0.528082 13
      vertex 53.4335 0.528082 0
    endloop
  endfacet
  facet normal -0.749806 0.661658 0
    outer loop
      vertex 53.4335 0.528082 13
      vertex 52.9675 0 0
      vertex 52.9675 0 13
    endloop
  endfacet
  facet normal 0 -1 0
    outer loop
      vertex 52.9675 0 0
      vertex 55.4113 0 13
      vertex 52.9675 0 13
    endloop
  endfacet
  facet normal 0 -1 -0
    outer loop
      vertex 55.4113 0 13
      vertex 52.9675 0 0
      vertex 55.4113 0 0
    endloop
  endfacet
  facet normal -0.738081 0.674712 0
    outer loop
      vertex 1.26956 6.72517 0
      vertex 1.95731 7.47752 13
      vertex 1.95731 7.47752 0
    endloop
  endfacet
  facet normal -0.738081 0.674712 0
    outer loop
      vertex 1.95731 7.47752 13
      vertex 1.26956 6.72517 0
      vertex 1.26956 6.72517 13
    endloop
  endfacet
  facet normal -0.84013 0.542385 0
    outer loop
      vertex 0.716693 5.8688 0
      vertex 1.26956 6.72517 13
      vertex 1.26956 6.72517 0
    endloop
  endfacet
  facet normal -0.84013 0.542385 0
    outer loop
      vertex 1.26956 6.72517 13
      vertex 0.716693 5.8688 0
      vertex 0.716693 5.8688 13
    endloop
  endfacet
  facet normal -0.918717 0.394915 0
    outer loop
      vertex 0.314146 4.93233 0
      vertex 0.716693 5.8688 13
      vertex 0.716693 5.8688 0
    endloop
  endfacet
  facet normal -0.918717 0.394915 0
    outer loop
      vertex 0.716693 5.8688 13
      vertex 0.314146 4.93233 0
      vertex 0.314146 4.93233 13
    endloop
  endfacet
  facet normal -0.971651 0.236421 0
    outer loop
      vertex 0.0731564 3.9419 0
      vertex 0.314146 4.93233 13
      vertex 0.314146 4.93233 0
    endloop
  endfacet
  facet normal -0.971651 0.236421 0
    outer loop
      vertex 0.314146 4.93233 13
      vertex 0.0731564 3.9419 0
      vertex 0.0731564 3.9419 13
    endloop
  endfacet
  facet normal -0.997453 0.0713203 0
    outer loop
      vertex 0.000457764 2.92517 0
      vertex 0.0731564 3.9419 13
      vertex 0.0731564 3.9419 0
    endloop
  endfacet
  facet normal -0.997453 0.0713203 0
    outer loop
      vertex 0.0731564 3.9419 13
      vertex 0.000457764 2.92517 0
      vertex 0.000457764 2.92517 13
    endloop
  endfacet
  facet normal -0.995404 -0.0957665 0
    outer loop
      vertex 0.0980749 1.91053 0
      vertex 0.000457764 2.92517 13
      vertex 0.000457764 2.92517 0
    endloop
  endfacet
  facet normal -0.995404 -0.0957665 0
    outer loop
      vertex 0.000457764 2.92517 13
      vertex 0.0980749 1.91053 0
      vertex 0.0980749 1.91053 13
    endloop
  endfacet
  facet normal -0.965558 -0.260186 0
    outer loop
      vertex 0.36329 0.926314 0
      vertex 0.0980749 1.91053 13
      vertex 0.0980749 1.91053 0
    endloop
  endfacet
  facet normal -0.965558 -0.260186 0
    outer loop
      vertex 0.0980749 1.91053 13
      vertex 0.36329 0.926314 0
      vertex 0.36329 0.926314 13
    endloop
  endfacet
  facet normal -0.908753 -0.417334 0
    outer loop
      vertex 0.788689 0 0
      vertex 0.36329 0.926314 13
      vertex 0.36329 0.926314 0
    endloop
  endfacet
  facet normal -0.908753 -0.417334 0
    outer loop
      vertex 0.36329 0.926314 13
      vertex 0.788689 0 0
      vertex 0.788689 0 13
    endloop
  endfacet
  facet normal 0 -1 0
    outer loop
      vertex 0.788689 0 0
      vertex 3.23251 0 13
      vertex 0.788689 0 13
    endloop
  endfacet
  facet normal 0 -1 -0
    outer loop
      vertex 3.23251 0 13
      vertex 0.788689 0 0
      vertex 3.23251 0 0
    endloop
  endfacet
  facet normal 0.749808 0.661655 0
    outer loop
      vertex 3.23251 0 13
      vertex 2.76651 0.528082 0
      vertex 2.76651 0.528082 13
    endloop
  endfacet
  facet normal 0.749808 0.661655 0
    outer loop
      vertex 2.76651 0.528082 0
      vertex 3.23251 0 13
      vertex 3.23251 0 0
    endloop
  endfacet
  facet normal 0.850895 0.525336 0
    outer loop
      vertex 2.76651 0.528082 13
      vertex 2.39652 1.12736 0
      vertex 2.39652 1.12736 13
    endloop
  endfacet
  facet normal 0.850895 0.525336 0
    outer loop
      vertex 2.39652 1.12736 0
      vertex 2.76651 0.528082 13
      vertex 2.76651 0.528082 0
    endloop
  endfacet
  facet normal 0.927475 0.373884 0
    outer loop
      vertex 2.39652 1.12736 13
      vertex 2.1332 1.78057 0
      vertex 2.1332 1.78057 13
    endloop
  endfacet
  facet normal 0.927475 0.373884 0
    outer loop
      vertex 2.1332 1.78057 0
      vertex 2.39652 1.12736 13
      vertex 2.39652 1.12736 0
    endloop
  endfacet
  facet normal 0.97734 0.211673 0
    outer loop
      vertex 2.1332 1.78057 13
      vertex 1.98412 2.4689 0
      vertex 1.98412 2.4689 13
    endloop
  endfacet
  facet normal 0.97734 0.211673 0
    outer loop
      vertex 1.98412 2.4689 0
      vertex 2.1332 1.78057 13
      vertex 2.1332 1.78057 0
    endloop
  endfacet
  facet normal 0.99906 0.0433568 0
    outer loop
      vertex 1.98412 2.4689 13
      vertex 1.95359 3.17252 0
      vertex 1.95359 3.17252 13
    endloop
  endfacet
  facet normal 0.99906 0.0433568 0
    outer loop
      vertex 1.95359 3.17252 0
      vertex 1.98412 2.4689 13
      vertex 1.98412 2.4689 0
    endloop
  endfacet
  facet normal 0.992005 -0.126202 0
    outer loop
      vertex 1.95359 3.17252 13
      vertex 2.04247 3.87118 0
      vertex 2.04247 3.87118 13
    endloop
  endfacet
  facet normal 0.992005 -0.126202 0
    outer loop
      vertex 2.04247 3.87118 0
      vertex 1.95359 3.17252 13
      vertex 1.95359 3.17252 0
    endloop
  endfacet
  facet normal 0.956379 -0.29213 0
    outer loop
      vertex 2.04247 3.87118 13
      vertex 2.24821 4.54475 0
      vertex 2.24821 4.54475 13
    endloop
  endfacet
  facet normal 0.956379 -0.29213 0
    outer loop
      vertex 2.24821 4.54475 0
      vertex 2.04247 3.87118 13
      vertex 2.04247 3.87118 0
    endloop
  endfacet
  facet normal 0.893208 -0.449643 0
    outer loop
      vertex 2.24821 4.54475 13
      vertex 2.56489 5.17383 0
      vertex 2.56489 5.17383 13
    endloop
  endfacet
  facet normal 0.893208 -0.449643 0
    outer loop
      vertex 2.56489 5.17383 0
      vertex 2.24821 4.54475 13
      vertex 2.24821 4.54475 0
    endloop
  endfacet
  facet normal 0.804313 -0.594206 0
    outer loop
      vertex 2.56489 5.17383 13
      vertex 2.98338 5.74029 0
      vertex 2.98338 5.74029 13
    endloop
  endfacet
  facet normal 0.804313 -0.594206 0
    outer loop
      vertex 2.98338 5.74029 0
      vertex 2.56489 5.17383 13
      vertex 2.56489 5.17383 0
    endloop
  endfacet
  facet normal 0.692254 -0.721654 0
    outer loop
      vertex 2.98338 5.74029 0
      vertex 3.49164 6.22784 13
      vertex 2.98338 5.74029 13
    endloop
  endfacet
  facet normal 0.692254 -0.721654 0
    outer loop
      vertex 3.49164 6.22784 13
      vertex 2.98338 5.74029 0
      vertex 3.49164 6.22784 0
    endloop
  endfacet
  facet normal 0.560256 -0.82832 0
    outer loop
      vertex 3.49164 6.22784 0
      vertex 4.07501 6.62242 13
      vertex 3.49164 6.22784 13
    endloop
  endfacet
  facet normal 0.560256 -0.82832 0
    outer loop
      vertex 4.07501 6.62242 13
      vertex 3.49164 6.22784 0
      vertex 4.07501 6.62242 0
    endloop
  endfacet
  facet normal 0.41212 -0.91113 0
    outer loop
      vertex 4.07501 6.62242 0
      vertex 4.71671 6.91267 13
      vertex 4.07501 6.62242 13
    endloop
  endfacet
  facet normal 0.41212 -0.91113 0
    outer loop
      vertex 4.71671 6.91267 13
      vertex 4.07501 6.62242 0
      vertex 4.71671 6.91267 0
    endloop
  endfacet
  facet normal 0.252118 -0.967697 0
    outer loop
      vertex 4.71671 6.91267 0
      vertex 5.39825 7.09024 13
      vertex 4.71671 6.91267 13
    endloop
  endfacet
  facet normal 0.252118 -0.967697 0
    outer loop
      vertex 5.39825 7.09024 13
      vertex 4.71671 6.91267 0
      vertex 5.39825 7.09024 0
    endloop
  endfacet
  facet normal 0.0848545 -0.996393 0
    outer loop
      vertex 5.39825 7.09024 0
      vertex 6.1 7.15 13
      vertex 5.39825 7.09024 13
    endloop
  endfacet
  facet normal 0.0848545 -0.996393 0
    outer loop
      vertex 6.1 7.15 13
      vertex 5.39825 7.09024 0
      vertex 6.1 7.15 0
    endloop
  endfacet
  facet normal -0.0848545 -0.996393 0
    outer loop
      vertex 6.1 7.15 0
      vertex 6.80175 7.09024 13
      vertex 6.1 7.15 13
    endloop
  endfacet
  facet normal -0.0848545 -0.996393 -0
    outer loop
      vertex 6.80175 7.09024 13
      vertex 6.1 7.15 0
      vertex 6.80175 7.09024 0
    endloop
  endfacet
  facet normal -0.252117 -0.967697 0
    outer loop
      vertex 6.80175 7.09024 0
      vertex 7.48328 6.91267 13
      vertex 6.80175 7.09024 13
    endloop
  endfacet
  facet normal -0.252117 -0.967697 -0
    outer loop
      vertex 7.48328 6.91267 13
      vertex 6.80175 7.09024 0
      vertex 7.48328 6.91267 0
    endloop
  endfacet
  facet normal -0.412122 -0.911129 0
    outer loop
      vertex 7.48328 6.91267 0
      vertex 8.12498 6.62242 13
      vertex 7.48328 6.91267 13
    endloop
  endfacet
  facet normal -0.412122 -0.911129 -0
    outer loop
      vertex 8.12498 6.62242 13
      vertex 7.48328 6.91267 0
      vertex 8.12498 6.62242 0
    endloop
  endfacet
  facet normal -0.560256 -0.828319 0
    outer loop
      vertex 8.12498 6.62242 0
      vertex 8.70836 6.22784 13
      vertex 8.12498 6.62242 13
    endloop
  endfacet
  facet normal -0.560256 -0.828319 -0
    outer loop
      vertex 8.70836 6.22784 13
      vertex 8.12498 6.62242 0
      vertex 8.70836 6.22784 0
    endloop
  endfacet
  facet normal -0.692251 -0.721657 0
    outer loop
      vertex 8.70836 6.22784 0
      vertex 9.21661 5.74029 13
      vertex 8.70836 6.22784 13
    endloop
  endfacet
  facet normal -0.692251 -0.721657 -0
    outer loop
      vertex 9.21661 5.74029 13
      vertex 8.70836 6.22784 0
      vertex 9.21661 5.74029 0
    endloop
  endfacet
  facet normal -0.804312 -0.594207 0
    outer loop
      vertex 9.63511 5.17383 0
      vertex 9.21661 5.74029 13
      vertex 9.21661 5.74029 0
    endloop
  endfacet
  facet normal -0.804312 -0.594207 0
    outer loop
      vertex 9.21661 5.74029 13
      vertex 9.63511 5.17383 0
      vertex 9.63511 5.17383 13
    endloop
  endfacet
  facet normal -0.893208 -0.449643 0
    outer loop
      vertex 9.95179 4.54475 0
      vertex 9.63511 5.17383 13
      vertex 9.63511 5.17383 0
    endloop
  endfacet
  facet normal -0.893208 -0.449643 0
    outer loop
      vertex 9.63511 5.17383 13
      vertex 9.95179 4.54475 0
      vertex 9.95179 4.54475 13
    endloop
  endfacet
  facet normal -0.956378 -0.292131 0
    outer loop
      vertex 10.1575 3.87118 0
      vertex 9.95179 4.54475 13
      vertex 9.95179 4.54475 0
    endloop
  endfacet
  facet normal -0.956378 -0.292131 0
    outer loop
      vertex 9.95179 4.54475 13
      vertex 10.1575 3.87118 0
      vertex 10.1575 3.87118 13
    endloop
  endfacet
  facet normal -0.992005 -0.126199 0
    outer loop
      vertex 10.2464 3.17252 0
      vertex 10.1575 3.87118 13
      vertex 10.1575 3.87118 0
    endloop
  endfacet
  facet normal -0.992005 -0.126199 0
    outer loop
      vertex 10.1575 3.87118 13
      vertex 10.2464 3.17252 0
      vertex 10.2464 3.17252 13
    endloop
  endfacet
  facet normal -0.999059 0.0433635 0
    outer loop
      vertex 10.2159 2.4689 0
      vertex 10.2464 3.17252 13
      vertex 10.2464 3.17252 0
    endloop
  endfacet
  facet normal -0.999059 0.0433635 0
    outer loop
      vertex 10.2464 3.17252 13
      vertex 10.2159 2.4689 0
      vertex 10.2159 2.4689 13
    endloop
  endfacet
  facet normal -0.977343 0.21166 0
    outer loop
      vertex 10.0668 1.78057 0
      vertex 10.2159 2.4689 13
      vertex 10.2159 2.4689 0
    endloop
  endfacet
  facet normal -0.977343 0.21166 0
    outer loop
      vertex 10.2159 2.4689 13
      vertex 10.0668 1.78057 0
      vertex 10.0668 1.78057 13
    endloop
  endfacet
  facet normal -0.927472 0.373894 0
    outer loop
      vertex 9.80347 1.12736 0
      vertex 10.0668 1.78057 13
      vertex 10.0668 1.78057 0
    endloop
  endfacet
  facet normal -0.927472 0.373894 0
    outer loop
      vertex 10.0668 1.78057 13
      vertex 9.80347 1.12736 0
      vertex 9.80347 1.12736 13
    endloop
  endfacet
  facet normal -0.850895 0.525336 0
    outer loop
      vertex 9.43348 0.528082 0
      vertex 9.80347 1.12736 13
      vertex 9.80347 1.12736 0
    endloop
  endfacet
  facet normal -0.850895 0.525336 0
    outer loop
      vertex 9.80347 1.12736 13
      vertex 9.43348 0.528082 0
      vertex 9.43348 0.528082 13
    endloop
  endfacet
  facet normal -0.749811 0.661652 0
    outer loop
      vertex 8.96749 0 0
      vertex 9.43348 0.528082 13
      vertex 9.43348 0.528082 0
    endloop
  endfacet
  facet normal -0.749811 0.661652 0
    outer loop
      vertex 9.43348 0.528082 13
      vertex 8.96749 0 0
      vertex 8.96749 0 13
    endloop
  endfacet
  facet normal 0 -1 0
    outer loop
      vertex 8.96749 0 0
      vertex 11.4113 0 13
      vertex 8.96749 0 13
    endloop
  endfacet
  facet normal 0 -1 -0
    outer loop
      vertex 11.4113 0 13
      vertex 8.96749 0 0
      vertex 11.4113 0 0
    endloop
  endfacet
  facet normal 0.905522 -0.4243 0
    outer loop
      vertex 11.4113 0 13
      vertex 11.8042 0.838403 0
      vertex 11.8042 0.838403 13
    endloop
  endfacet
  facet normal 0.905522 -0.4243 0
    outer loop
      vertex 11.8042 0.838403 0
      vertex 11.4113 0 13
      vertex 11.4113 0 0
    endloop
  endfacet
  facet normal 0.959306 -0.282369 0
    outer loop
      vertex 11.8042 0.838403 13
      vertex 12.0656 1.72661 0
      vertex 12.0656 1.72661 13
    endloop
  endfacet
  facet normal 0.959306 -0.282369 0
    outer loop
      vertex 12.0656 1.72661 0
      vertex 11.8042 0.838403 13
      vertex 11.8042 0.838403 0
    endloop
  endfacet
  facet normal 0.99099 -0.133936 0
    outer loop
      vertex 12.0656 1.72661 13
      vertex 12.1896 2.64415 0
      vertex 12.1896 2.64415 13
    endloop
  endfacet
  facet normal 0.99099 -0.133936 0
    outer loop
      vertex 12.1896 2.64415 0
      vertex 12.0656 1.72661 13
      vertex 12.0656 1.72661 0
    endloop
  endfacet
  facet normal 0.999845 0.0175937 0
    outer loop
      vertex 12.1896 2.64415 13
      vertex 12.1733 3.56988 0
      vertex 12.1733 3.56988 13
    endloop
  endfacet
  facet normal 0.999845 0.0175937 0
    outer loop
      vertex 12.1733 3.56988 0
      vertex 12.1896 2.64415 13
      vertex 12.1896 2.64415 0
    endloop
  endfacet
  facet normal 0.985665 0.168715 0
    outer loop
      vertex 12.1733 3.56988 13
      vertex 12.0171 4.48249 0
      vertex 12.0171 4.48249 13
    endloop
  endfacet
  facet normal 0.985665 0.168715 0
    outer loop
      vertex 12.0171 4.48249 0
      vertex 12.1733 3.56988 13
      vertex 12.1733 3.56988 0
    endloop
  endfacet
  facet normal -0 0 1
    outer loop
      vertex 10.2464 3.17252 13
      vertex 12.1896 2.64415 13
      vertex 12.1733 3.56988 13
    endloop
  endfacet
  facet normal -0 0 1
    outer loop
      vertex 10.1575 3.87118 13
      vertex 12.1733 3.56988 13
      vertex 12.0171 4.48249 13
    endloop
  endfacet
  facet normal -0 0 1
    outer loop
      vertex 9.95179 4.54475 13
      vertex 12.0171 4.48249 13
      vertex 11.9364 4.97659 13
    endloop
  endfacet
  facet normal 0 0 1
    outer loop
      vertex 12.1896 2.64415 13
      vertex 10.2464 3.17252 13
      vertex 10.2159 2.4689 13
    endloop
  endfacet
  facet normal 0 0 1
    outer loop
      vertex 12.0656 1.72661 13
      vertex 10.0668 1.78057 13
      vertex 11.8042 0.838403 13
    endloop
  endfacet
  facet normal -0 0 1
    outer loop
      vertex 9.80347 1.12736 13
      vertex 11.8042 0.838403 13
      vertex 10.0668 1.78057 13
    endloop
  endfacet
  facet normal 0 0 1
    outer loop
      vertex 11.8042 0.838403 13
      vertex 9.80347 1.12736 13
      vertex 11.4113 0 13
    endloop
  endfacet
  facet normal -0 0 1
    outer loop
      vertex 9.43348 0.528082 13
      vertex 11.4113 0 13
      vertex 9.80347 1.12736 13
    endloop
  endfacet
  facet normal 0 0 1
    outer loop
      vertex 11.4113 0 13
      vertex 9.43348 0.528082 13
      vertex 8.96749 0 13
    endloop
  endfacet
  facet normal -0 0 1
    outer loop
      vertex 16.775 20.1 13
      vertex 34 16 13
      vertex 39.425 20.1 13
    endloop
  endfacet
  facet normal -0 0 1
    outer loop
      vertex 14.7376 19.3021 13
      vertex 21 16 13
      vertex 16.775 20.1 13
    endloop
  endfacet
  facet normal 0 0 1
    outer loop
      vertex 34 16 13
      vertex 16.775 20.1 13
      vertex 21 16 13
    endloop
  endfacet
  facet normal 0 0 1
    outer loop
      vertex 53.2166 5.74029 13
      vertex 54.9304 6.72517 13
      vertex 54.2427 7.47752 13
    endloop
  endfacet
  facet normal 0 0 1
    outer loop
      vertex 54.9304 6.72517 13
      vertex 54.1575 3.87118 13
      vertex 54.2464 3.17252 13
    endloop
  endfacet
  facet normal 0 0 1
    outer loop
      vertex 54.9304 6.72517 13
      vertex 53.9518 4.54475 13
      vertex 54.1575 3.87118 13
    endloop
  endfacet
  facet normal 0 0 1
    outer loop
      vertex 54.9304 6.72517 13
      vertex 53.6351 5.17383 13
      vertex 53.9518 4.54475 13
    endloop
  endfacet
  facet normal 0 0 1
    outer loop
      vertex 54.9304 6.72517 13
      vertex 53.2166 5.74029 13
      vertex 53.6351 5.17383 13
    endloop
  endfacet
  facet normal 0 0 1
    outer loop
      vertex 54.2427 7.47752 13
      vertex 52.7084 6.22784 13
      vertex 53.2166 5.74029 13
    endloop
  endfacet
  facet normal 0 0 1
    outer loop
      vertex 54.2427 7.47752 13
      vertex 52.125 6.62242 13
      vertex 52.7084 6.22784 13
    endloop
  endfacet
  facet normal 0 0 1
    outer loop
      vertex 54.2427 7.47752 13
      vertex 51.4833 6.91267 13
      vertex 52.125 6.62242 13
    endloop
  endfacet
  facet normal 0 0 1
    outer loop
      vertex 54.2427 7.47752 13
      vertex 50.8018 7.09024 13
      vertex 51.4833 6.91267 13
    endloop
  endfacet
  facet normal 0 0 1
    outer loop
      vertex 54.2427 7.47752 13
      vertex 50.1 7.15 13
      vertex 50.8018 7.09024 13
    endloop
  endfacet
  facet normal -0 0 1
    outer loop
      vertex 44.0302 3.60626 13
      vertex 45.9536 3.17252 13
      vertex 46.0425 3.87118 13
    endloop
  endfacet
  facet normal -0 0 1
    outer loop
      vertex 44.1941 4.52677 13
      vertex 46.0425 3.87118 13
      vertex 46.2482 4.54475 13
    endloop
  endfacet
  facet normal 0 0 1
    outer loop
      vertex 45.9536 3.17252 13
      vertex 44.3926 0.84695 13
      vertex 44.7887 0 13
    endloop
  endfacet
  facet normal -0 0 1
    outer loop
      vertex 44.2782 5.01618 13
      vertex 46.2482 4.54475 13
      vertex 44.2804 5.51275 13
    endloop
  endfacet
  facet normal 0 0 1
    outer loop
      vertex 46.5649 5.17383 13
      vertex 44.2804 5.51275 13
      vertex 46.2482 4.54475 13
    endloop
  endfacet
  facet normal 0 0 1
    outer loop
      vertex 44.2007 6.00288 13
      vertex 46.5649 5.17383 13
      vertex 46.9834 5.74029 13
    endloop
  endfacet
  facet normal 0 0 1
    outer loop
      vertex 44.0411 6.47314 13
      vertex 46.9834 5.74029 13
      vertex 47.4916 6.22784 13
    endloop
  endfacet
  facet normal 0 0 1
    outer loop
      vertex 43.8063 6.91064 13
      vertex 47.4916 6.22784 13
      vertex 48.075 6.62242 13
    endloop
  endfacet
  facet normal 0 0 1
    outer loop
      vertex 43.1379 7.64066 13
      vertex 48.075 6.62242 13
      vertex 48.7167 6.91267 13
    endloop
  endfacet
  facet normal 0 0 1
    outer loop
      vertex 46.5649 5.17383 13
      vertex 44.2007 6.00288 13
      vertex 44.2804 5.51275 13
    endloop
  endfacet
  facet normal 0 0 1
    outer loop
      vertex 41.4624 19.3021 13
      vertex 48.7167 6.91267 13
      vertex 49.3983 7.09024 13
    endloop
  endfacet
  facet normal 0 0 1
    outer loop
      vertex 46.9834 5.74029 13
      vertex 44.0411 6.47314 13
      vertex 44.2007 6.00288 13
    endloop
  endfacet
  facet normal 0 0 1
    outer loop
      vertex 47.4916 6.22784 13
      vertex 43.8063 6.91064 13
      vertex 44.0411 6.47314 13
    endloop
  endfacet
  facet normal 0 0 1
    outer loop
      vertex 41.4624 19.3021 13
      vertex 49.3983 7.09024 13
      vertex 50.1 7.15 13
    endloop
  endfacet
  facet normal 0 0 1
    outer loop
      vertex 41.4624 19.3021 13
      vertex 50.1 7.15 13
      vertex 54.2427 7.47752 13
    endloop
  endfacet
  facet normal 0 0 1
    outer loop
      vertex 48.075 6.62242 13
      vertex 43.5024 7.3034 13
      vertex 43.8063 6.91064 13
    endloop
  endfacet
  facet normal 0 0 1
    outer loop
      vertex 48.075 6.62242 13
      vertex 43.1379 7.64066 13
      vertex 43.5024 7.3034 13
    endloop
  endfacet
  facet normal 0 0 1
    outer loop
      vertex 48.7167 6.91267 13
      vertex 41.4624 19.3021 13
      vertex 42.7228 7.91318 13
    endloop
  endfacet
  facet normal 0 0 1
    outer loop
      vertex 48.7167 6.91267 13
      vertex 42.7228 7.91318 13
      vertex 43.1379 7.64066 13
    endloop
  endfacet
  facet normal 0 0 1
    outer loop
      vertex 42.7228 7.91318 13
      vertex 41.4624 19.3021 13
      vertex 42.2684 8.11348 13
    endloop
  endfacet
  facet normal 0 0 1
    outer loop
      vertex 42.2684 8.11348 13
      vertex 41.4624 19.3021 13
      vertex 41.728 8.3 13
    endloop
  endfacet
  facet normal 0 0 1
    outer loop
      vertex 39.425 20.1 13
      vertex 41.4624 19.3021 13
      vertex 41.1122 19.5806 13
    endloop
  endfacet
  facet normal 0 0 1
    outer loop
      vertex 39.425 20.1 13
      vertex 41.1122 19.5806 13
      vertex 40.7244 19.804 13
    endloop
  endfacet
  facet normal 0 0 1
    outer loop
      vertex 39.425 20.1 13
      vertex 40.7244 19.804 13
      vertex 40.3077 19.9672 13
    endloop
  endfacet
  facet normal 0 0 1
    outer loop
      vertex 39.425 20.1 13
      vertex 40.3077 19.9672 13
      vertex 39.8713 20.0666 13
    endloop
  endfacet
  facet normal 0 0 1
    outer loop
      vertex 41.4624 19.3021 13
      vertex 39.425 20.1 13
      vertex 34 16 13
    endloop
  endfacet
  facet normal 0 0 1
    outer loop
      vertex 41.4624 19.3021 13
      vertex 34 16 13
      vertex 41.728 8.3 13
    endloop
  endfacet
  facet normal -0 0 1
    outer loop
      vertex 34 10 13
      vertex 41.728 8.3 13
      vertex 34 16 13
    endloop
  endfacet
  facet normal 0 0 1
    outer loop
      vertex 28.9074 8.3 13
      vertex 34 10 13
      vertex 28.9074 10 13
    endloop
  endfacet
  facet normal 0 0 1
    outer loop
      vertex 34 10 13
      vertex 28.9074 8.3 13
      vertex 41.728 8.3 13
    endloop
  endfacet
  facet normal -0 0 1
    outer loop
      vertex 54.2464 3.17252 13
      vertex 56.1995 2.92517 13
      vertex 56.1268 3.9419 13
    endloop
  endfacet
  facet normal 0 0 1
    outer loop
      vertex 54.2464 3.17252 13
      vertex 56.1268 3.9419 13
      vertex 55.8858 4.93233 13
    endloop
  endfacet
  facet normal 0 0 1
    outer loop
      vertex 54.2159 2.4689 13
      vertex 56.1995 2.92517 13
      vertex 54.2464 3.17252 13
    endloop
  endfacet
  facet normal 0 0 1
    outer loop
      vertex 54.2464 3.17252 13
      vertex 55.8858 4.93233 13
      vertex 55.4833 5.8688 13
    endloop
  endfacet
  facet normal 0 0 1
    outer loop
      vertex 56.1995 2.92517 13
      vertex 54.2159 2.4689 13
      vertex 56.1019 1.91053 13
    endloop
  endfacet
  facet normal 0 0 1
    outer loop
      vertex 54.2464 3.17252 13
      vertex 55.4833 5.8688 13
      vertex 54.9304 6.72517 13
    endloop
  endfacet
  facet normal 0 0 1
    outer loop
      vertex 54.0668 1.78057 13
      vertex 56.1019 1.91053 13
      vertex 54.2159 2.4689 13
    endloop
  endfacet
  facet normal 0 0 1
    outer loop
      vertex 56.1019 1.91053 13
      vertex 54.0668 1.78057 13
      vertex 55.8367 0.926314 13
    endloop
  endfacet
  facet normal -0 0 1
    outer loop
      vertex 53.8035 1.12736 13
      vertex 55.8367 0.926314 13
      vertex 54.0668 1.78057 13
    endloop
  endfacet
  facet normal 0 0 1
    outer loop
      vertex 55.8367 0.926314 13
      vertex 53.8035 1.12736 13
      vertex 55.4113 0 13
    endloop
  endfacet
  facet normal -0 0 1
    outer loop
      vertex 53.4335 0.528082 13
      vertex 55.4113 0 13
      vertex 53.8035 1.12736 13
    endloop
  endfacet
  facet normal 0 0 1
    outer loop
      vertex 55.4113 0 13
      vertex 53.4335 0.528082 13
      vertex 52.9675 0 13
    endloop
  endfacet
  facet normal 0 0 1
    outer loop
      vertex 46.7665 0.528082 13
      vertex 44.7887 0 13
      vertex 47.2325 0 13
    endloop
  endfacet
  facet normal 0 0 1
    outer loop
      vertex 46.3965 1.12736 13
      vertex 44.7887 0 13
      vertex 46.7665 0.528082 13
    endloop
  endfacet
  facet normal 0 0 1
    outer loop
      vertex 46.1332 1.78057 13
      vertex 44.7887 0 13
      vertex 46.3965 1.12736 13
    endloop
  endfacet
  facet normal 0 0 1
    outer loop
      vertex 45.9841 2.4689 13
      vertex 44.7887 0 13
      vertex 46.1332 1.78057 13
    endloop
  endfacet
  facet normal 0 0 1
    outer loop
      vertex 44.7887 0 13
      vertex 45.9841 2.4689 13
      vertex 45.9536 3.17252 13
    endloop
  endfacet
  facet normal 0 0 1
    outer loop
      vertex 44.1941 4.52677 13
      vertex 46.2482 4.54475 13
      vertex 44.2782 5.01618 13
    endloop
  endfacet
  facet normal 0 0 1
    outer loop
      vertex 46.0425 3.87118 13
      vertex 44.1941 4.52677 13
      vertex 44.0302 3.60626 13
    endloop
  endfacet
  facet normal 0 0 1
    outer loop
      vertex 45.9536 3.17252 13
      vertex 44.1306 1.74448 13
      vertex 44.3926 0.84695 13
    endloop
  endfacet
  facet normal 0 0 1
    outer loop
      vertex 45.9536 3.17252 13
      vertex 44.0302 3.60626 13
      vertex 44.0089 2.67151 13
    endloop
  endfacet
  facet normal 0 0 1
    outer loop
      vertex 45.9536 3.17252 13
      vertex 44.0089 2.67151 13
      vertex 44.1306 1.74448 13
    endloop
  endfacet
  facet normal -0 0 1
    outer loop
      vertex 21 10 13
      vertex 26.0926 8.3 13
      vertex 26.0926 10 13
    endloop
  endfacet
  facet normal 0 0 1
    outer loop
      vertex 14.7376 19.3021 13
      vertex 16.775 20.1 13
      vertex 16.3287 20.0666 13
    endloop
  endfacet
  facet normal 0 0 1
    outer loop
      vertex 14.7376 19.3021 13
      vertex 16.3287 20.0666 13
      vertex 15.8923 19.9672 13
    endloop
  endfacet
  facet normal 0 0 1
    outer loop
      vertex 14.7376 19.3021 13
      vertex 15.8923 19.9672 13
      vertex 15.4756 19.804 13
    endloop
  endfacet
  facet normal 0 0 1
    outer loop
      vertex 14.7376 19.3021 13
      vertex 15.4756 19.804 13
      vertex 15.0878 19.5806 13
    endloop
  endfacet
  facet normal 0 0 1
    outer loop
      vertex 14.728 8.3 13
      vertex 21 16 13
      vertex 14.7376 19.3021 13
    endloop
  endfacet
  facet normal 0 0 1
    outer loop
      vertex 21 10 13
      vertex 14.728 8.3 13
      vertex 26.0926 8.3 13
    endloop
  endfacet
  facet normal 0 0 1
    outer loop
      vertex 21 16 13
      vertex 14.728 8.3 13
      vertex 21 10 13
    endloop
  endfacet
  facet normal 0 0 1
    outer loop
      vertex 14.7376 19.3021 13
      vertex 14.0046 8.06622 13
      vertex 14.728 8.3 13
    endloop
  endfacet
  facet normal 0 0 1
    outer loop
      vertex 14.7376 19.3021 13
      vertex 13.5427 7.87304 13
      vertex 14.0046 8.06622 13
    endloop
  endfacet
  facet normal 0 0 1
    outer loop
      vertex 7.48328 6.91267 13
      vertex 13.5427 7.87304 13
      vertex 14.7376 19.3021 13
    endloop
  endfacet
  facet normal 0 0 1
    outer loop
      vertex 13.5427 7.87304 13
      vertex 7.48328 6.91267 13
      vertex 13.1194 7.60575 13
    endloop
  endfacet
  facet normal 0 -0 1
    outer loop
      vertex 8.12498 6.62242 13
      vertex 13.1194 7.60575 13
      vertex 7.48328 6.91267 13
    endloop
  endfacet
  facet normal 0 0 1
    outer loop
      vertex 13.1194 7.60575 13
      vertex 8.12498 6.62242 13
      vertex 12.7464 7.27178 13
    endloop
  endfacet
  facet normal 0 0 1
    outer loop
      vertex 12.7464 7.27178 13
      vertex 8.12498 6.62242 13
      vertex 12.4342 6.88043 13
    endloop
  endfacet
  facet normal 0 0 1
    outer loop
      vertex 9.95179 4.54475 13
      vertex 11.9364 4.97659 13
      vertex 11.9389 5.47724 13
    endloop
  endfacet
  facet normal 0 0 1
    outer loop
      vertex 12.1896 2.64415 13
      vertex 10.2159 2.4689 13
      vertex 12.0656 1.72661 13
    endloop
  endfacet
  facet normal -0 0 1
    outer loop
      vertex 10.0668 1.78057 13
      vertex 12.0656 1.72661 13
      vertex 10.2159 2.4689 13
    endloop
  endfacet
  facet normal 0 0 1
    outer loop
      vertex 9.63511 5.17383 13
      vertex 11.9389 5.47724 13
      vertex 12.0247 5.97049 13
    endloop
  endfacet
  facet normal 0 0 1
    outer loop
      vertex 12.4342 6.88043 13
      vertex 8.70836 6.22784 13
      vertex 12.1914 6.4426 13
    endloop
  endfacet
  facet normal 0 0 1
    outer loop
      vertex 12.1733 3.56988 13
      vertex 10.1575 3.87118 13
      vertex 10.2464 3.17252 13
    endloop
  endfacet
  facet normal 0 0 1
    outer loop
      vertex 12.0171 4.48249 13
      vertex 9.95179 4.54475 13
      vertex 10.1575 3.87118 13
    endloop
  endfacet
  facet normal 0 0 1
    outer loop
      vertex 11.9389 5.47724 13
      vertex 9.63511 5.17383 13
      vertex 9.95179 4.54475 13
    endloop
  endfacet
  facet normal 0 0 1
    outer loop
      vertex 12.0247 5.97049 13
      vertex 9.21661 5.74029 13
      vertex 9.63511 5.17383 13
    endloop
  endfacet
  facet normal 0 0 1
    outer loop
      vertex 12.1914 6.4426 13
      vertex 9.21661 5.74029 13
      vertex 12.0247 5.97049 13
    endloop
  endfacet
  facet normal 0 -0 1
    outer loop
      vertex 9.21661 5.74029 13
      vertex 12.1914 6.4426 13
      vertex 8.70836 6.22784 13
    endloop
  endfacet
  facet normal 0 -0 1
    outer loop
      vertex 8.70836 6.22784 13
      vertex 12.4342 6.88043 13
      vertex 8.12498 6.62242 13
    endloop
  endfacet
  facet normal 0 0 1
    outer loop
      vertex 14.7376 19.3021 13
      vertex 6.80175 7.09024 13
      vertex 7.48328 6.91267 13
    endloop
  endfacet
  facet normal 0 0 1
    outer loop
      vertex 14.7376 19.3021 13
      vertex 6.1 7.15 13
      vertex 6.80175 7.09024 13
    endloop
  endfacet
  facet normal 0 0 1
    outer loop
      vertex 14.7376 19.3021 13
      vertex 5.39825 7.09024 13
      vertex 6.1 7.15 13
    endloop
  endfacet
  facet normal -0 0 1
    outer loop
      vertex 1.95731 7.47752 13
      vertex 5.39825 7.09024 13
      vertex 14.7376 19.3021 13
    endloop
  endfacet
  facet normal 0 0 1
    outer loop
      vertex 5.39825 7.09024 13
      vertex 1.95731 7.47752 13
      vertex 4.71671 6.91267 13
    endloop
  endfacet
  facet normal 0 0 1
    outer loop
      vertex 4.71671 6.91267 13
      vertex 1.95731 7.47752 13
      vertex 4.07501 6.62242 13
    endloop
  endfacet
  facet normal 0 0 1
    outer loop
      vertex 4.07501 6.62242 13
      vertex 1.95731 7.47752 13
      vertex 3.49164 6.22784 13
    endloop
  endfacet
  facet normal 0 0 1
    outer loop
      vertex 3.49164 6.22784 13
      vertex 1.95731 7.47752 13
      vertex 2.98338 5.74029 13
    endloop
  endfacet
  facet normal -0 0 1
    outer loop
      vertex 1.26956 6.72517 13
      vertex 2.98338 5.74029 13
      vertex 1.95731 7.47752 13
    endloop
  endfacet
  facet normal 0 0 1
    outer loop
      vertex 2.98338 5.74029 13
      vertex 1.26956 6.72517 13
      vertex 2.56489 5.17383 13
    endloop
  endfacet
  facet normal -0 0 1
    outer loop
      vertex 0.716693 5.8688 13
      vertex 2.56489 5.17383 13
      vertex 1.26956 6.72517 13
    endloop
  endfacet
  facet normal 0 0 1
    outer loop
      vertex 2.56489 5.17383 13
      vertex 0.716693 5.8688 13
      vertex 2.24821 4.54475 13
    endloop
  endfacet
  facet normal -0 0 1
    outer loop
      vertex 0.314146 4.93233 13
      vertex 2.24821 4.54475 13
      vertex 0.716693 5.8688 13
    endloop
  endfacet
  facet normal 0 0 1
    outer loop
      vertex 2.24821 4.54475 13
      vertex 0.314146 4.93233 13
      vertex 2.04247 3.87118 13
    endloop
  endfacet
  facet normal 0 0 1
    outer loop
      vertex 2.76651 0.528082 13
      vertex 0.788689 0 13
      vertex 3.23251 0 13
    endloop
  endfacet
  facet normal 0 0 1
    outer loop
      vertex 2.39652 1.12736 13
      vertex 0.788689 0 13
      vertex 2.76651 0.528082 13
    endloop
  endfacet
  facet normal 0 0 1
    outer loop
      vertex 0.36329 0.926314 13
      vertex 2.39652 1.12736 13
      vertex 2.1332 1.78057 13
    endloop
  endfacet
  facet normal -0 0 1
    outer loop
      vertex 0.0980749 1.91053 13
      vertex 2.1332 1.78057 13
      vertex 1.98412 2.4689 13
    endloop
  endfacet
  facet normal -0 0 1
    outer loop
      vertex 0.0731564 3.9419 13
      vertex 2.04247 3.87118 13
      vertex 0.314146 4.93233 13
    endloop
  endfacet
  facet normal 0 0 1
    outer loop
      vertex 2.04247 3.87118 13
      vertex 0.0731564 3.9419 13
      vertex 1.95359 3.17252 13
    endloop
  endfacet
  facet normal 0 0 1
    outer loop
      vertex 2.39652 1.12736 13
      vertex 0.36329 0.926314 13
      vertex 0.788689 0 13
    endloop
  endfacet
  facet normal 0 0 1
    outer loop
      vertex 0.000457764 2.92517 13
      vertex 1.95359 3.17252 13
      vertex 0.0731564 3.9419 13
    endloop
  endfacet
  facet normal 0 0 1
    outer loop
      vertex 2.1332 1.78057 13
      vertex 0.0980749 1.91053 13
      vertex 0.36329 0.926314 13
    endloop
  endfacet
  facet normal 0 0 1
    outer loop
      vertex 1.95359 3.17252 13
      vertex 0.000457764 2.92517 13
      vertex 1.98412 2.4689 13
    endloop
  endfacet
  facet normal 0 0 1
    outer loop
      vertex 1.98412 2.4689 13
      vertex 0.000457764 2.92517 13
      vertex 0.0980749 1.91053 13
    endloop
  endfacet
  facet normal 0 0 -1
    outer loop
      vertex 10.2159 2.4689 0
      vertex 12.1896 2.64415 0
      vertex 12.0656 1.72661 0
    endloop
  endfacet
  facet normal 0 -0 -1
    outer loop
      vertex 10.2464 3.17252 0
      vertex 12.1896 2.64415 0
      vertex 10.2159 2.4689 0
    endloop
  endfacet
  facet normal 0 0 -1
    outer loop
      vertex 10.1575 3.87118 0
      vertex 12.1733 3.56988 0
      vertex 10.2464 3.17252 0
    endloop
  endfacet
  facet normal 0 0 -1
    outer loop
      vertex 10.0668 1.78057 0
      vertex 12.0656 1.72661 0
      vertex 11.8042 0.838403 0
    endloop
  endfacet
  facet normal 0 0 -1
    outer loop
      vertex 44.1306 1.74448 0
      vertex 46.1332 1.78057 0
      vertex 44.3926 0.84695 0
    endloop
  endfacet
  facet normal -0 0 -1
    outer loop
      vertex 46.3965 1.12736 0
      vertex 44.3926 0.84695 0
      vertex 46.1332 1.78057 0
    endloop
  endfacet
  facet normal 0 0 -1
    outer loop
      vertex 44.3926 0.84695 0
      vertex 46.3965 1.12736 0
      vertex 44.7887 0 0
    endloop
  endfacet
  facet normal -0 0 -1
    outer loop
      vertex 46.7665 0.528082 0
      vertex 44.7887 0 0
      vertex 46.3965 1.12736 0
    endloop
  endfacet
  facet normal 0 0 -1
    outer loop
      vertex 44.7887 0 0
      vertex 46.7665 0.528082 0
      vertex 47.2325 0 0
    endloop
  endfacet
  facet normal 0 0 -1
    outer loop
      vertex 54.2159 2.4689 0
      vertex 56.1995 2.92517 0
      vertex 56.1019 1.91053 0
    endloop
  endfacet
  facet normal 0 0 -1
    outer loop
      vertex 56.1995 2.92517 0
      vertex 54.2464 3.17252 0
      vertex 56.1268 3.9419 0
    endloop
  endfacet
  facet normal 0 0 -1
    outer loop
      vertex 54.0668 1.78057 0
      vertex 56.1019 1.91053 0
      vertex 55.8367 0.926314 0
    endloop
  endfacet
  facet normal 0 0 -1
    outer loop
      vertex 54.1575 3.87118 0
      vertex 56.1268 3.9419 0
      vertex 54.2464 3.17252 0
    endloop
  endfacet
  facet normal 0 0 -1
    outer loop
      vertex 53.8035 1.12736 0
      vertex 55.8367 0.926314 0
      vertex 55.4113 0 0
    endloop
  endfacet
  facet normal -0 0 -1
    outer loop
      vertex 56.1268 3.9419 0
      vertex 54.1575 3.87118 0
      vertex 55.8858 4.93233 0
    endloop
  endfacet
  facet normal 0 0 -1
    outer loop
      vertex 53.9518 4.54475 0
      vertex 55.8858 4.93233 0
      vertex 54.1575 3.87118 0
    endloop
  endfacet
  facet normal -0 0 -1
    outer loop
      vertex 56.1995 2.92517 0
      vertex 54.2159 2.4689 0
      vertex 54.2464 3.17252 0
    endloop
  endfacet
  facet normal -0 0 -1
    outer loop
      vertex 56.1019 1.91053 0
      vertex 54.0668 1.78057 0
      vertex 54.2159 2.4689 0
    endloop
  endfacet
  facet normal 0 0 -1
    outer loop
      vertex 55.8367 0.926314 0
      vertex 53.8035 1.12736 0
      vertex 54.0668 1.78057 0
    endloop
  endfacet
  facet normal 0 0 -1
    outer loop
      vertex 55.4113 0 0
      vertex 53.4335 0.528082 0
      vertex 53.8035 1.12736 0
    endloop
  endfacet
  facet normal 0 -0 -1
    outer loop
      vertex 53.4335 0.528082 0
      vertex 55.4113 0 0
      vertex 52.9675 0 0
    endloop
  endfacet
  facet normal -0 0 -1
    outer loop
      vertex 55.8858 4.93233 0
      vertex 53.9518 4.54475 0
      vertex 55.4833 5.8688 0
    endloop
  endfacet
  facet normal 0 0 -1
    outer loop
      vertex 53.6351 5.17383 0
      vertex 55.4833 5.8688 0
      vertex 53.9518 4.54475 0
    endloop
  endfacet
  facet normal -0 0 -1
    outer loop
      vertex 55.4833 5.8688 0
      vertex 53.6351 5.17383 0
      vertex 54.9304 6.72517 0
    endloop
  endfacet
  facet normal 0 0 -1
    outer loop
      vertex 53.2166 5.74029 0
      vertex 54.9304 6.72517 0
      vertex 53.6351 5.17383 0
    endloop
  endfacet
  facet normal -0 0 -1
    outer loop
      vertex 54.9304 6.72517 0
      vertex 53.2166 5.74029 0
      vertex 54.2427 7.47752 0
    endloop
  endfacet
  facet normal 0 0 -1
    outer loop
      vertex 52.7084 6.22784 0
      vertex 54.2427 7.47752 0
      vertex 53.2166 5.74029 0
    endloop
  endfacet
  facet normal 0 0 -1
    outer loop
      vertex 52.125 6.62242 0
      vertex 54.2427 7.47752 0
      vertex 52.7084 6.22784 0
    endloop
  endfacet
  facet normal 0 0 -1
    outer loop
      vertex 51.4833 6.91267 0
      vertex 54.2427 7.47752 0
      vertex 52.125 6.62242 0
    endloop
  endfacet
  facet normal 0 0 -1
    outer loop
      vertex 50.8018 7.09024 0
      vertex 54.2427 7.47752 0
      vertex 51.4833 6.91267 0
    endloop
  endfacet
  facet normal 0 0 -1
    outer loop
      vertex 50.1 7.15 0
      vertex 54.2427 7.47752 0
      vertex 50.8018 7.09024 0
    endloop
  endfacet
  facet normal -0 0 -1
    outer loop
      vertex 46.1332 1.78057 0
      vertex 44.1306 1.74448 0
      vertex 45.9841 2.4689 0
    endloop
  endfacet
  facet normal 0 0 -1
    outer loop
      vertex 44.0089 2.67151 0
      vertex 45.9841 2.4689 0
      vertex 44.1306 1.74448 0
    endloop
  endfacet
  facet normal 0 0 -1
    outer loop
      vertex 45.9841 2.4689 0
      vertex 44.0089 2.67151 0
      vertex 45.9536 3.17252 0
    endloop
  endfacet
  facet normal 0 -0 -1
    outer loop
      vertex 44.0302 3.60626 0
      vertex 45.9536 3.17252 0
      vertex 44.0089 2.67151 0
    endloop
  endfacet
  facet normal 0 0 -1
    outer loop
      vertex 44.2804 5.51275 0
      vertex 46.5649 5.17383 0
      vertex 46.2482 4.54475 0
    endloop
  endfacet
  facet normal 0 0 -1
    outer loop
      vertex 44.2007 6.00288 0
      vertex 46.5649 5.17383 0
      vertex 44.2804 5.51275 0
    endloop
  endfacet
  facet normal 0 0 -1
    outer loop
      vertex 46.5649 5.17383 0
      vertex 44.2007 6.00288 0
      vertex 46.9834 5.74029 0
    endloop
  endfacet
  facet normal 0 0 -1
    outer loop
      vertex 44.0411 6.47314 0
      vertex 46.9834 5.74029 0
      vertex 44.2007 6.00288 0
    endloop
  endfacet
  facet normal 0 0 -1
    outer loop
      vertex 46.9834 5.74029 0
      vertex 44.0411 6.47314 0
      vertex 47.4916 6.22784 0
    endloop
  endfacet
  facet normal 0 0 -1
    outer loop
      vertex 43.8063 6.91064 0
      vertex 47.4916 6.22784 0
      vertex 44.0411 6.47314 0
    endloop
  endfacet
  facet normal 0 0 -1
    outer loop
      vertex 47.4916 6.22784 0
      vertex 43.8063 6.91064 0
      vertex 48.075 6.62242 0
    endloop
  endfacet
  facet normal 0 0 -1
    outer loop
      vertex 43.5024 7.3034 0
      vertex 48.075 6.62242 0
      vertex 43.8063 6.91064 0
    endloop
  endfacet
  facet normal 0 0 -1
    outer loop
      vertex 43.1379 7.64066 0
      vertex 48.075 6.62242 0
      vertex 43.5024 7.3034 0
    endloop
  endfacet
  facet normal 0 0 -1
    outer loop
      vertex 48.075 6.62242 0
      vertex 43.1379 7.64066 0
      vertex 48.7167 6.91267 0
    endloop
  endfacet
  facet normal 0 0 -1
    outer loop
      vertex 42.7228 7.91318 0
      vertex 48.7167 6.91267 0
      vertex 43.1379 7.64066 0
    endloop
  endfacet
  facet normal 0 0 -1
    outer loop
      vertex 41.4624 19.3021 0
      vertex 48.7167 6.91267 0
      vertex 42.7228 7.91318 0
    endloop
  endfacet
  facet normal 0 0 -1
    outer loop
      vertex 49.3983 7.09024 0
      vertex 41.4624 19.3021 0
      vertex 50.1 7.15 0
    endloop
  endfacet
  facet normal 0 0 -1
    outer loop
      vertex 48.7167 6.91267 0
      vertex 41.4624 19.3021 0
      vertex 49.3983 7.09024 0
    endloop
  endfacet
  facet normal 0 0 -1
    outer loop
      vertex 41.4624 19.3021 0
      vertex 42.7228 7.91318 0
      vertex 42.2684 8.11348 0
    endloop
  endfacet
  facet normal 0 0 -1
    outer loop
      vertex 41.4624 19.3021 0
      vertex 42.2684 8.11348 0
      vertex 41.728 8.3 0
    endloop
  endfacet
  facet normal 0 0 -1
    outer loop
      vertex 50.1 7.15 0
      vertex 41.4624 19.3021 0
      vertex 54.2427 7.47752 0
    endloop
  endfacet
  facet normal 0 0 -1
    outer loop
      vertex 34 14.1333 0
      vertex 41.4624 19.3021 0
      vertex 41.728 8.3 0
    endloop
  endfacet
  facet normal 0 -0 -1
    outer loop
      vertex 39.425 20.1 0
      vertex 41.4624 19.3021 0
      vertex 34 14.1333 0
    endloop
  endfacet
  facet normal 0 0 -1
    outer loop
      vertex 41.4624 19.3021 0
      vertex 39.425 20.1 0
      vertex 41.1122 19.5806 0
    endloop
  endfacet
  facet normal 0 0 -1
    outer loop
      vertex 41.1122 19.5806 0
      vertex 39.425 20.1 0
      vertex 40.7244 19.804 0
    endloop
  endfacet
  facet normal 0 0 -1
    outer loop
      vertex 40.7244 19.804 0
      vertex 39.425 20.1 0
      vertex 40.3077 19.9672 0
    endloop
  endfacet
  facet normal 0 0 -1
    outer loop
      vertex 34 14.1333 0
      vertex 41.728 8.3 0
      vertex 34 8.3 0
    endloop
  endfacet
  facet normal 0 0 -1
    outer loop
      vertex 40.3077 19.9672 0
      vertex 39.425 20.1 0
      vertex 39.8713 20.0666 0
    endloop
  endfacet
  facet normal 0 0 -1
    outer loop
      vertex 16.775 20.1 0
      vertex 34 14.1333 0
      vertex 21 14.1333 0
    endloop
  endfacet
  facet normal 0 0 -1
    outer loop
      vertex 34 14.1333 0
      vertex 16.775 20.1 0
      vertex 39.425 20.1 0
    endloop
  endfacet
  facet normal 0 0 -1
    outer loop
      vertex 14.728 8.3 0
      vertex 21 14.1333 0
      vertex 21 8.3 0
    endloop
  endfacet
  facet normal 0 0 -1
    outer loop
      vertex 21 14.1333 0
      vertex 14.7376 19.3021 0
      vertex 16.775 20.1 0
    endloop
  endfacet
  facet normal 0 0 -1
    outer loop
      vertex 16.775 20.1 0
      vertex 14.7376 19.3021 0
      vertex 16.3287 20.0666 0
    endloop
  endfacet
  facet normal 0 0 -1
    outer loop
      vertex 16.3287 20.0666 0
      vertex 14.7376 19.3021 0
      vertex 15.8923 19.9672 0
    endloop
  endfacet
  facet normal 0 0 -1
    outer loop
      vertex 15.8923 19.9672 0
      vertex 14.7376 19.3021 0
      vertex 15.4756 19.804 0
    endloop
  endfacet
  facet normal 0 0 -1
    outer loop
      vertex 15.4756 19.804 0
      vertex 14.7376 19.3021 0
      vertex 15.0878 19.5806 0
    endloop
  endfacet
  facet normal -0 0 -1
    outer loop
      vertex 21 14.1333 0
      vertex 14.728 8.3 0
      vertex 14.7376 19.3021 0
    endloop
  endfacet
  facet normal 0 0 -1
    outer loop
      vertex 14.0046 8.06622 0
      vertex 14.7376 19.3021 0
      vertex 14.728 8.3 0
    endloop
  endfacet
  facet normal 0 0 -1
    outer loop
      vertex 13.5427 7.87304 0
      vertex 14.7376 19.3021 0
      vertex 14.0046 8.06622 0
    endloop
  endfacet
  facet normal 0 0 -1
    outer loop
      vertex 7.48328 6.91267 0
      vertex 13.5427 7.87304 0
      vertex 13.1194 7.60575 0
    endloop
  endfacet
  facet normal 0 0 -1
    outer loop
      vertex 8.12498 6.62242 0
      vertex 13.1194 7.60575 0
      vertex 12.7464 7.27178 0
    endloop
  endfacet
  facet normal 0 0 -1
    outer loop
      vertex 8.12498 6.62242 0
      vertex 12.7464 7.27178 0
      vertex 12.4342 6.88043 0
    endloop
  endfacet
  facet normal 0 0 -1
    outer loop
      vertex 8.70836 6.22784 0
      vertex 12.4342 6.88043 0
      vertex 12.1914 6.4426 0
    endloop
  endfacet
  facet normal 0 0 -1
    outer loop
      vertex 9.21661 5.74029 0
      vertex 12.1914 6.4426 0
      vertex 12.0247 5.97049 0
    endloop
  endfacet
  facet normal 0 0 -1
    outer loop
      vertex 12.1733 3.56988 0
      vertex 10.1575 3.87118 0
      vertex 12.0171 4.48249 0
    endloop
  endfacet
  facet normal 0 0 -1
    outer loop
      vertex 9.80347 1.12736 0
      vertex 11.8042 0.838403 0
      vertex 11.4113 0 0
    endloop
  endfacet
  facet normal 0 0 -1
    outer loop
      vertex 12.1896 2.64415 0
      vertex 10.2464 3.17252 0
      vertex 12.1733 3.56988 0
    endloop
  endfacet
  facet normal 0 0 -1
    outer loop
      vertex 12.0171 4.48249 0
      vertex 9.95179 4.54475 0
      vertex 11.9364 4.97659 0
    endloop
  endfacet
  facet normal -0 0 -1
    outer loop
      vertex 11.9364 4.97659 0
      vertex 9.95179 4.54475 0
      vertex 11.9389 5.47724 0
    endloop
  endfacet
  facet normal 0 0 -1
    outer loop
      vertex 9.63511 5.17383 0
      vertex 11.9389 5.47724 0
      vertex 9.95179 4.54475 0
    endloop
  endfacet
  facet normal -0 0 -1
    outer loop
      vertex 11.9389 5.47724 0
      vertex 9.63511 5.17383 0
      vertex 12.0247 5.97049 0
    endloop
  endfacet
  facet normal 0 0 -1
    outer loop
      vertex 9.21661 5.74029 0
      vertex 12.0247 5.97049 0
      vertex 9.63511 5.17383 0
    endloop
  endfacet
  facet normal 0 0 -1
    outer loop
      vertex 12.1914 6.4426 0
      vertex 9.21661 5.74029 0
      vertex 8.70836 6.22784 0
    endloop
  endfacet
  facet normal 0 0 -1
    outer loop
      vertex 12.4342 6.88043 0
      vertex 8.70836 6.22784 0
      vertex 8.12498 6.62242 0
    endloop
  endfacet
  facet normal 0 0 -1
    outer loop
      vertex 13.1194 7.60575 0
      vertex 8.12498 6.62242 0
      vertex 7.48328 6.91267 0
    endloop
  endfacet
  facet normal -0 0 -1
    outer loop
      vertex 13.5427 7.87304 0
      vertex 7.48328 6.91267 0
      vertex 14.7376 19.3021 0
    endloop
  endfacet
  facet normal 0 0 -1
    outer loop
      vertex 6.80175 7.09024 0
      vertex 14.7376 19.3021 0
      vertex 7.48328 6.91267 0
    endloop
  endfacet
  facet normal 0 0 -1
    outer loop
      vertex 6.1 7.15 0
      vertex 14.7376 19.3021 0
      vertex 6.80175 7.09024 0
    endloop
  endfacet
  facet normal 0 0 -1
    outer loop
      vertex 5.39825 7.09024 0
      vertex 14.7376 19.3021 0
      vertex 6.1 7.15 0
    endloop
  endfacet
  facet normal 0 0 -1
    outer loop
      vertex 1.95731 7.47752 0
      vertex 5.39825 7.09024 0
      vertex 4.71671 6.91267 0
    endloop
  endfacet
  facet normal 0 0 -1
    outer loop
      vertex 1.95731 7.47752 0
      vertex 4.71671 6.91267 0
      vertex 4.07501 6.62242 0
    endloop
  endfacet
  facet normal 0 0 -1
    outer loop
      vertex 1.95731 7.47752 0
      vertex 4.07501 6.62242 0
      vertex 3.49164 6.22784 0
    endloop
  endfacet
  facet normal 0 0 -1
    outer loop
      vertex 1.95731 7.47752 0
      vertex 3.49164 6.22784 0
      vertex 2.98338 5.74029 0
    endloop
  endfacet
  facet normal 0 0 -1
    outer loop
      vertex 5.39825 7.09024 0
      vertex 1.95731 7.47752 0
      vertex 14.7376 19.3021 0
    endloop
  endfacet
  facet normal 0 0 -1
    outer loop
      vertex 1.26956 6.72517 0
      vertex 2.98338 5.74029 0
      vertex 2.56489 5.17383 0
    endloop
  endfacet
  facet normal 0 0 -1
    outer loop
      vertex 0.716693 5.8688 0
      vertex 2.56489 5.17383 0
      vertex 2.24821 4.54475 0
    endloop
  endfacet
  facet normal 0 0 -1
    outer loop
      vertex 0.314146 4.93233 0
      vertex 2.24821 4.54475 0
      vertex 2.04247 3.87118 0
    endloop
  endfacet
  facet normal 0 0 -1
    outer loop
      vertex 0.0731564 3.9419 0
      vertex 2.04247 3.87118 0
      vertex 1.95359 3.17252 0
    endloop
  endfacet
  facet normal 0 0 -1
    outer loop
      vertex 2.98338 5.74029 0
      vertex 1.26956 6.72517 0
      vertex 1.95731 7.47752 0
    endloop
  endfacet
  facet normal 0 0 -1
    outer loop
      vertex 46.2482 4.54475 0
      vertex 44.2782 5.01618 0
      vertex 44.2804 5.51275 0
    endloop
  endfacet
  facet normal -0 0 -1
    outer loop
      vertex 46.2482 4.54475 0
      vertex 44.1941 4.52677 0
      vertex 44.2782 5.01618 0
    endloop
  endfacet
  facet normal 0 0 -1
    outer loop
      vertex 45.9536 3.17252 0
      vertex 44.0302 3.60626 0
      vertex 46.0425 3.87118 0
    endloop
  endfacet
  facet normal 0 0 -1
    outer loop
      vertex 46.0425 3.87118 0
      vertex 44.1941 4.52677 0
      vertex 46.2482 4.54475 0
    endloop
  endfacet
  facet normal 0 -0 -1
    outer loop
      vertex 44.1941 4.52677 0
      vertex 46.0425 3.87118 0
      vertex 44.0302 3.60626 0
    endloop
  endfacet
  facet normal 0 0 -1
    outer loop
      vertex 0.000457764 2.92517 0
      vertex 1.95359 3.17252 0
      vertex 1.98412 2.4689 0
    endloop
  endfacet
  facet normal 0 0 -1
    outer loop
      vertex 0.788689 0 0
      vertex 2.76651 0.528082 0
      vertex 3.23251 0 0
    endloop
  endfacet
  facet normal 0 0 -1
    outer loop
      vertex 0.788689 0 0
      vertex 2.39652 1.12736 0
      vertex 2.76651 0.528082 0
    endloop
  endfacet
  facet normal 0 0 -1
    outer loop
      vertex 0.36329 0.926314 0
      vertex 2.39652 1.12736 0
      vertex 0.788689 0 0
    endloop
  endfacet
  facet normal -0 0 -1
    outer loop
      vertex 2.39652 1.12736 0
      vertex 0.36329 0.926314 0
      vertex 2.1332 1.78057 0
    endloop
  endfacet
  facet normal 0 0 -1
    outer loop
      vertex 0.0980749 1.91053 0
      vertex 2.1332 1.78057 0
      vertex 0.36329 0.926314 0
    endloop
  endfacet
  facet normal 0 0 -1
    outer loop
      vertex 2.56489 5.17383 0
      vertex 0.716693 5.8688 0
      vertex 1.26956 6.72517 0
    endloop
  endfacet
  facet normal 0 0 -1
    outer loop
      vertex 2.1332 1.78057 0
      vertex 0.0980749 1.91053 0
      vertex 1.98412 2.4689 0
    endloop
  endfacet
  facet normal 0 0 -1
    outer loop
      vertex 2.24821 4.54475 0
      vertex 0.314146 4.93233 0
      vertex 0.716693 5.8688 0
    endloop
  endfacet
  facet normal 0 0 -1
    outer loop
      vertex 0.000457764 2.92517 0
      vertex 1.98412 2.4689 0
      vertex 0.0980749 1.91053 0
    endloop
  endfacet
  facet normal 0 0 -1
    outer loop
      vertex 2.04247 3.87118 0
      vertex 0.0731564 3.9419 0
      vertex 0.314146 4.93233 0
    endloop
  endfacet
  facet normal -0 0 -1
    outer loop
      vertex 1.95359 3.17252 0
      vertex 0.000457764 2.92517 0
      vertex 0.0731564 3.9419 0
    endloop
  endfacet
  facet normal 0 0 -1
    outer loop
      vertex 9.95179 4.54475 0
      vertex 12.0171 4.48249 0
      vertex 10.1575 3.87118 0
    endloop
  endfacet
  facet normal 0 0 -1
    outer loop
      vertex 12.0656 1.72661 0
      vertex 10.0668 1.78057 0
      vertex 10.2159 2.4689 0
    endloop
  endfacet
  facet normal 0 0 -1
    outer loop
      vertex 11.8042 0.838403 0
      vertex 9.80347 1.12736 0
      vertex 10.0668 1.78057 0
    endloop
  endfacet
  facet normal 0 0 -1
    outer loop
      vertex 11.4113 0 0
      vertex 9.43348 0.528082 0
      vertex 9.80347 1.12736 0
    endloop
  endfacet
  facet normal 0 -0 -1
    outer loop
      vertex 9.43348 0.528082 0
      vertex 11.4113 0 0
      vertex 8.96749 0 0
    endloop
  endfacet
  facet normal 0 1 -0
    outer loop
      vertex 39.425 20.1 0
      vertex 16.775 20.1 13
      vertex 39.425 20.1 13
    endloop
  endfacet
  facet normal 0 1 0
    outer loop
      vertex 16.775 20.1 13
      vertex 39.425 20.1 0
      vertex 16.775 20.1 0
    endloop
  endfacet
  facet normal -0.679129 0.734019 0
    outer loop
      vertex 14.7376 19.3021 0
      vertex 1.95731 7.47752 13
      vertex 14.7376 19.3021 13
    endloop
  endfacet
  facet normal -0.679129 0.734019 0
    outer loop
      vertex 1.95731 7.47752 13
      vertex 14.7376 19.3021 0
      vertex 1.95731 7.47752 0
    endloop
  endfacet
  facet normal 0.679129 0.734019 -0
    outer loop
      vertex 54.2427 7.47752 0
      vertex 41.4624 19.3021 13
      vertex 54.2427 7.47752 13
    endloop
  endfacet
  facet normal 0.679129 0.734019 0
    outer loop
      vertex 41.4624 19.3021 13
      vertex 54.2427 7.47752 0
      vertex 41.4624 19.3021 0
    endloop
  endfacet
  facet normal 0.307515 -0.951543 0
    outer loop
      vertex 14.0046 8.06622 0
      vertex 14.728 8.3 13
      vertex 14.0046 8.06622 13
    endloop
  endfacet
  facet normal 0.307515 -0.951543 0
    outer loop
      vertex 14.728 8.3 13
      vertex 14.0046 8.06622 0
      vertex 14.728 8.3 0
    endloop
  endfacet
  facet normal 0 -1 0
    outer loop
      vertex 14.728 8.3 13
      vertex 21 8.3 0.5
      vertex 26.0926 8.3 13
    endloop
  endfacet
  facet normal 0 -1 0
    outer loop
      vertex 14.728 8.3 0
      vertex 21 8.3 0.5
      vertex 14.728 8.3 13
    endloop
  endfacet
  facet normal 0 -1 -0
    outer loop
      vertex 21 8.3 0.5
      vertex 14.728 8.3 0
      vertex 21 8.3 0
    endloop
  endfacet
  facet normal 0 -1 0
    outer loop
      vertex 34 8.3 0.5
      vertex 41.728 8.3 13
      vertex 28.9074 8.3 13
    endloop
  endfacet
  facet normal 0 -1 0
    outer loop
      vertex 41.728 8.3 0
      vertex 34 8.3 0.5
      vertex 34 8.3 0
    endloop
  endfacet
  facet normal 0 -1 0
    outer loop
      vertex 34 8.3 0.5
      vertex 41.728 8.3 0
      vertex 41.728 8.3 13
    endloop
  endfacet
  facet normal -0.326256 -0.945281 0
    outer loop
      vertex 41.728 8.3 0
      vertex 42.2684 8.11348 13
      vertex 41.728 8.3 13
    endloop
  endfacet
  facet normal -0.326256 -0.945281 -0
    outer loop
      vertex 42.2684 8.11348 13
      vertex 41.728 8.3 0
      vertex 42.2684 8.11348 0
    endloop
  endfacet
  facet normal -0.403367 -0.915038 0
    outer loop
      vertex 42.2684 8.11348 0
      vertex 42.7228 7.91318 13
      vertex 42.2684 8.11348 13
    endloop
  endfacet
  facet normal -0.403367 -0.915038 -0
    outer loop
      vertex 42.7228 7.91318 13
      vertex 42.2684 8.11348 0
      vertex 42.7228 7.91318 0
    endloop
  endfacet
  facet normal -0.548786 -0.835963 0
    outer loop
      vertex 42.7228 7.91318 0
      vertex 43.1379 7.64066 13
      vertex 42.7228 7.91318 13
    endloop
  endfacet
  facet normal -0.548786 -0.835963 -0
    outer loop
      vertex 43.1379 7.64066 13
      vertex 42.7228 7.91318 0
      vertex 43.1379 7.64066 0
    endloop
  endfacet
  facet normal -0.679168 -0.733983 0
    outer loop
      vertex 43.1379 7.64066 0
      vertex 43.5024 7.3034 13
      vertex 43.1379 7.64066 13
    endloop
  endfacet
  facet normal -0.679168 -0.733983 -0
    outer loop
      vertex 43.5024 7.3034 13
      vertex 43.1379 7.64066 0
      vertex 43.5024 7.3034 0
    endloop
  endfacet
  facet normal -0.79094 -0.611894 0
    outer loop
      vertex 43.8063 6.91064 0
      vertex 43.5024 7.3034 13
      vertex 43.5024 7.3034 0
    endloop
  endfacet
  facet normal -0.79094 -0.611894 0
    outer loop
      vertex 43.5024 7.3034 13
      vertex 43.8063 6.91064 0
      vertex 43.8063 6.91064 13
    endloop
  endfacet
  facet normal -0.881044 -0.473035 0
    outer loop
      vertex 44.0411 6.47314 0
      vertex 43.8063 6.91064 13
      vertex 43.8063 6.91064 0
    endloop
  endfacet
  facet normal -0.881044 -0.473035 0
    outer loop
      vertex 43.8063 6.91064 13
      vertex 44.0411 6.47314 0
      vertex 44.0411 6.47314 13
    endloop
  endfacet
  facet normal -0.947004 -0.321223 0
    outer loop
      vertex 44.2007 6.00288 0
      vertex 44.0411 6.47314 13
      vertex 44.0411 6.47314 0
    endloop
  endfacet
  facet normal -0.947004 -0.321223 0
    outer loop
      vertex 44.0411 6.47314 13
      vertex 44.2007 6.00288 0
      vertex 44.2007 6.00288 13
    endloop
  endfacet
  facet normal -0.987017 -0.160615 0
    outer loop
      vertex 44.2804 5.51275 0
      vertex 44.2007 6.00288 13
      vertex 44.2007 6.00288 0
    endloop
  endfacet
  facet normal -0.987017 -0.160615 0
    outer loop
      vertex 44.2007 6.00288 13
      vertex 44.2804 5.51275 0
      vertex 44.2804 5.51275 13
    endloop
  endfacet
  facet normal -0.99999 0.00442484 0
    outer loop
      vertex 44.2782 5.01618 0
      vertex 44.2804 5.51275 13
      vertex 44.2804 5.51275 0
    endloop
  endfacet
  facet normal -0.99999 0.00442484 0
    outer loop
      vertex 44.2804 5.51275 13
      vertex 44.2782 5.01618 0
      vertex 44.2782 5.01618 13
    endloop
  endfacet
  facet normal -0.985564 0.169303 0
    outer loop
      vertex 44.1941 4.52677 0
      vertex 44.2782 5.01618 13
      vertex 44.2782 5.01618 0
    endloop
  endfacet
  facet normal -0.985564 0.169303 0
    outer loop
      vertex 44.2782 5.01618 13
      vertex 44.1941 4.52677 0
      vertex 44.1941 4.52677 13
    endloop
  endfacet
  facet normal 0.986914 0.161248 0
    outer loop
      vertex 12.0171 4.48249 13
      vertex 11.9364 4.97659 0
      vertex 11.9364 4.97659 13
    endloop
  endfacet
  facet normal 0.986914 0.161248 0
    outer loop
      vertex 11.9364 4.97659 0
      vertex 12.0171 4.48249 13
      vertex 12.0171 4.48249 0
    endloop
  endfacet
  facet normal 0.999987 -0.0051317 0
    outer loop
      vertex 11.9364 4.97659 13
      vertex 11.9389 5.47724 0
      vertex 11.9389 5.47724 13
    endloop
  endfacet
  facet normal 0.999987 -0.0051317 0
    outer loop
      vertex 11.9389 5.47724 0
      vertex 11.9364 4.97659 13
      vertex 11.9364 4.97659 0
    endloop
  endfacet
  facet normal 0.985209 -0.171358 0
    outer loop
      vertex 11.9389 5.47724 13
      vertex 12.0247 5.97049 0
      vertex 12.0247 5.97049 13
    endloop
  endfacet
  facet normal 0.985209 -0.171358 0
    outer loop
      vertex 12.0247 5.97049 0
      vertex 11.9389 5.47724 13
      vertex 11.9389 5.47724 0
    endloop
  endfacet
  facet normal 0.942995 -0.332807 0
    outer loop
      vertex 12.0247 5.97049 13
      vertex 12.1914 6.4426 0
      vertex 12.1914 6.4426 13
    endloop
  endfacet
  facet normal 0.942995 -0.332807 0
    outer loop
      vertex 12.1914 6.4426 0
      vertex 12.0247 5.97049 13
      vertex 12.0247 5.97049 0
    endloop
  endfacet
  facet normal 0.874511 -0.485006 0
    outer loop
      vertex 12.1914 6.4426 13
      vertex 12.4342 6.88043 0
      vertex 12.4342 6.88043 13
    endloop
  endfacet
  facet normal 0.874511 -0.485006 0
    outer loop
      vertex 12.4342 6.88043 0
      vertex 12.1914 6.4426 13
      vertex 12.1914 6.4426 0
    endloop
  endfacet
  facet normal 0.781688 -0.62367 0
    outer loop
      vertex 12.4342 6.88043 13
      vertex 12.7464 7.27178 0
      vertex 12.7464 7.27178 13
    endloop
  endfacet
  facet normal 0.781688 -0.62367 0
    outer loop
      vertex 12.7464 7.27178 0
      vertex 12.4342 6.88043 13
      vertex 12.4342 6.88043 0
    endloop
  endfacet
  facet normal 0.667067 -0.744998 0
    outer loop
      vertex 12.7464 7.27178 0
      vertex 13.1194 7.60575 13
      vertex 12.7464 7.27178 13
    endloop
  endfacet
  facet normal 0.667067 -0.744998 0
    outer loop
      vertex 13.1194 7.60575 13
      vertex 12.7464 7.27178 0
      vertex 13.1194 7.60575 0
    endloop
  endfacet
  facet normal 0.533899 -0.845548 0
    outer loop
      vertex 13.1194 7.60575 0
      vertex 13.5427 7.87304 13
      vertex 13.1194 7.60575 13
    endloop
  endfacet
  facet normal 0.533899 -0.845548 0
    outer loop
      vertex 13.5427 7.87304 13
      vertex 13.1194 7.60575 0
      vertex 13.5427 7.87304 0
    endloop
  endfacet
  facet normal 0.38584 -0.922566 0
    outer loop
      vertex 13.5427 7.87304 0
      vertex 14.0046 8.06622 13
      vertex 13.5427 7.87304 13
    endloop
  endfacet
  facet normal 0.38584 -0.922566 0
    outer loop
      vertex 14.0046 8.06622 13
      vertex 13.5427 7.87304 0
      vertex 14.0046 8.06622 0
    endloop
  endfacet
  facet normal 0.622475 0.78264 -0
    outer loop
      vertex 41.4624 19.3021 0
      vertex 41.1122 19.5806 13
      vertex 41.4624 19.3021 13
    endloop
  endfacet
  facet normal 0.622475 0.78264 0
    outer loop
      vertex 41.1122 19.5806 13
      vertex 41.4624 19.3021 0
      vertex 41.1122 19.5806 0
    endloop
  endfacet
  facet normal 0.499142 0.86652 -0
    outer loop
      vertex 41.1122 19.5806 0
      vertex 40.7244 19.804 13
      vertex 41.1122 19.5806 13
    endloop
  endfacet
  facet normal 0.499142 0.86652 0
    outer loop
      vertex 40.7244 19.804 13
      vertex 41.1122 19.5806 0
      vertex 40.7244 19.804 0
    endloop
  endfacet
  facet normal 0.364671 0.931137 -0
    outer loop
      vertex 40.7244 19.804 0
      vertex 40.3077 19.9672 13
      vertex 40.7244 19.804 13
    endloop
  endfacet
  facet normal 0.364671 0.931137 0
    outer loop
      vertex 40.3077 19.9672 13
      vertex 40.7244 19.804 0
      vertex 40.3077 19.9672 0
    endloop
  endfacet
  facet normal 0.222109 0.975022 -0
    outer loop
      vertex 40.3077 19.9672 0
      vertex 39.8713 20.0666 13
      vertex 40.3077 19.9672 13
    endloop
  endfacet
  facet normal 0.222109 0.975022 0
    outer loop
      vertex 39.8713 20.0666 13
      vertex 40.3077 19.9672 0
      vertex 39.8713 20.0666 0
    endloop
  endfacet
  facet normal 0.0745886 0.997214 -0
    outer loop
      vertex 39.8713 20.0666 0
      vertex 39.425 20.1 13
      vertex 39.8713 20.0666 13
    endloop
  endfacet
  facet normal 0.0745886 0.997214 0
    outer loop
      vertex 39.425 20.1 13
      vertex 39.8713 20.0666 0
      vertex 39.425 20.1 0
    endloop
  endfacet
  facet normal -0.074589 0.997214 0
    outer loop
      vertex 16.775 20.1 0
      vertex 16.3287 20.0666 13
      vertex 16.775 20.1 13
    endloop
  endfacet
  facet normal -0.074589 0.997214 0
    outer loop
      vertex 16.3287 20.0666 13
      vertex 16.775 20.1 0
      vertex 16.3287 20.0666 0
    endloop
  endfacet
  facet normal -0.222107 0.975022 0
    outer loop
      vertex 16.3287 20.0666 0
      vertex 15.8923 19.9672 13
      vertex 16.3287 20.0666 13
    endloop
  endfacet
  facet normal -0.222107 0.975022 0
    outer loop
      vertex 15.8923 19.9672 13
      vertex 16.3287 20.0666 0
      vertex 15.8923 19.9672 0
    endloop
  endfacet
  facet normal -0.364671 0.931137 0
    outer loop
      vertex 15.8923 19.9672 0
      vertex 15.4756 19.804 13
      vertex 15.8923 19.9672 13
    endloop
  endfacet
  facet normal -0.364671 0.931137 0
    outer loop
      vertex 15.4756 19.804 13
      vertex 15.8923 19.9672 0
      vertex 15.4756 19.804 0
    endloop
  endfacet
  facet normal -0.499133 0.866526 0
    outer loop
      vertex 15.4756 19.804 0
      vertex 15.0878 19.5806 13
      vertex 15.4756 19.804 13
    endloop
  endfacet
  facet normal -0.499133 0.866526 0
    outer loop
      vertex 15.0878 19.5806 13
      vertex 15.4756 19.804 0
      vertex 15.0878 19.5806 0
    endloop
  endfacet
  facet normal -0.622488 0.782629 0
    outer loop
      vertex 15.0878 19.5806 0
      vertex 14.7376 19.3021 13
      vertex 15.0878 19.5806 13
    endloop
  endfacet
  facet normal -0.622488 0.782629 0
    outer loop
      vertex 14.7376 19.3021 13
      vertex 15.0878 19.5806 0
      vertex 14.7376 19.3021 0
    endloop
  endfacet
  facet normal 1 0 0
    outer loop
      vertex 21 10 7
      vertex 21 16 7
      vertex 21 16 13
    endloop
  endfacet
  facet normal 1 0 -0
    outer loop
      vertex 21 11.7333 0.5
      vertex 21 16 7
      vertex 21 10 7
    endloop
  endfacet
  facet normal 1 0 0
    outer loop
      vertex 21 10 7
      vertex 21 16 13
      vertex 21 10 13
    endloop
  endfacet
  facet normal 1 0 0
    outer loop
      vertex 21 16 7
      vertex 21 11.7333 0.5
      vertex 21 14.1333 0
    endloop
  endfacet
  facet normal 1 0 0
    outer loop
      vertex 21 8.3 0
      vertex 21 11.7333 0.5
      vertex 21 8.3 0.5
    endloop
  endfacet
  facet normal 1 0 0
    outer loop
      vertex 21 11.7333 0.5
      vertex 21 8.3 0
      vertex 21 14.1333 0
    endloop
  endfacet
  facet normal 0 1 -0
    outer loop
      vertex 23.6481 10 7
      vertex 21 10 13
      vertex 26.0926 10 13
    endloop
  endfacet
  facet normal 0 1 0
    outer loop
      vertex 21 10 13
      vertex 23.6481 10 7
      vertex 21 10 7
    endloop
  endfacet
  facet normal 0 1 0
    outer loop
      vertex 31.3519 10 7
      vertex 34 10 13
      vertex 34 10 7
    endloop
  endfacet
  facet normal 0 1 0
    outer loop
      vertex 34 10 13
      vertex 31.3519 10 7
      vertex 28.9074 10 13
    endloop
  endfacet
  facet normal 0 0.966235 0.257663
    outer loop
      vertex 23.6481 10 7
      vertex 21 11.7333 0.5
      vertex 21 10 7
    endloop
  endfacet
  facet normal 0 0.966235 0.257663
    outer loop
      vertex 34 10 7
      vertex 34 11.7333 0.5
      vertex 31.3519 10 7
    endloop
  endfacet
  facet normal -1 0 0
    outer loop
      vertex 34 8.3 0
      vertex 34 11.7333 0.5
      vertex 34 14.1333 0
    endloop
  endfacet
  facet normal -1 -0 0
    outer loop
      vertex 34 11.7333 0.5
      vertex 34 8.3 0
      vertex 34 8.3 0.5
    endloop
  endfacet
  facet normal -1 0 0
    outer loop
      vertex 34 11.7333 0.5
      vertex 34 16 7
      vertex 34 14.1333 0
    endloop
  endfacet
  facet normal -1 -0 0
    outer loop
      vertex 34 16 7
      vertex 34 11.7333 0.5
      vertex 34 10 7
    endloop
  endfacet
  facet normal -1 0 0
    outer loop
      vertex 34 16 7
      vertex 34 10 7
      vertex 34 16 13
    endloop
  endfacet
  facet normal -1 -0 0
    outer loop
      vertex 34 16 13
      vertex 34 10 7
      vertex 34 10 13
    endloop
  endfacet
  facet normal 0 -1 0
    outer loop
      vertex 21 16 7
      vertex 34 16 13
      vertex 21 16 13
    endloop
  endfacet
  facet normal 0 -1 -0
    outer loop
      vertex 34 16 13
      vertex 21 16 7
      vertex 34 16 7
    endloop
  endfacet
  facet normal 0 -0.966235 0.257663
    outer loop
      vertex 21 14.1333 0
      vertex 34 16 7
      vertex 21 16 7
    endloop
  endfacet
  facet normal 0 -0.966235 0.257663
    outer loop
      vertex 34 16 7
      vertex 21 14.1333 0
      vertex 34 14.1333 0
    endloop
  endfacet
  facet normal -0.926092 0 -0.377297
    outer loop
      vertex 34 8.3 0.5
      vertex 31.3519 10 7
      vertex 34 11.7333 0.5
    endloop
  endfacet
  facet normal -0.926092 2.0781e-07 -0.377297
    outer loop
      vertex 28.9074 8.3 13
      vertex 31.3519 10 7
      vertex 34 8.3 0.5
    endloop
  endfacet
  facet normal -0.926092 0 -0.377297
    outer loop
      vertex 31.3519 10 7
      vertex 28.9074 8.3 13
      vertex 28.9074 10 13
    endloop
  endfacet
  facet normal 0.926092 0 -0.377297
    outer loop
      vertex 26.0926 10 13
      vertex 26.0926 8.3 13
      vertex 23.6481 10 7
    endloop
  endfacet
  facet normal 0.926092 2.0781e-07 -0.377297
    outer loop
      vertex 21 8.3 0.5
      vertex 23.6481 10 7
      vertex 26.0926 8.3 13
    endloop
  endfacet
  facet normal 0.926092 0 -0.377297
    outer loop
      vertex 23.6481 10 7
      vertex 21 8.3 0.5
      vertex 21 11.7333 0.5
    endloop
  endfacet
endsolid OpenSCAD_Model
