  0
SECTION
  2
BLOCKS
  0
ENDSEC
  0
SECTION
  2
ENTITIES
  0
LINE
  8
0
 10
-26.457
 11
-26.248
 20
0
 21
3.316
  0
LINE
  8
0
 10
-26.248
 11
-25.626
 20
3.316
 21
6.58
  0
LINE
  8
0
 10
-25.626
 11
-24.599
 20
6.58
 21
9.739
  0
LINE
  8
0
 10
-24.599
 11
-23.184
 20
9.739
 21
12.746
  0
LINE
  8
0
 10
-23.184
 11
-21.404
 20
12.746
 21
15.551
  0
LINE
  8
0
 10
-21.404
 11
-19.286
 20
15.551
 21
18.111
  0
LINE
  8
0
 10
-19.286
 11
-16.864
 20
18.111
 21
20.385
  0
LINE
  8
0
 10
-16.864
 11
-14.176
 20
20.385
 21
22.338
  0
LINE
  8
0
 10
-14.176
 11
-11.265
 20
22.338
 21
23.939
  0
LINE
  8
0
 10
-11.265
 11
-8.176
 20
23.939
 21
25.162
  0
LINE
  8
0
 10
-8.176
 11
-4.958
 20
25.162
 21
25.988
  0
LINE
  8
0
 10
-4.958
 11
-1.661
 20
25.988
 21
26.405
  0
LINE
  8
0
 10
-1.661
 11
1.661
 20
26.405
 21
26.405
  0
LINE
  8
0
 10
1.661
 11
4.958
 20
26.405
 21
25.988
  0
LINE
  8
0
 10
4.958
 11
8.176
 20
25.988
 21
25.162
  0
LINE
  8
0
 10
8.176
 11
11.265
 20
25.162
 21
23.939
  0
LINE
  8
0
 10
11.265
 11
14.176
 20
23.939
 21
22.338
  0
LINE
  8
0
 10
14.176
 11
16.864
 20
22.338
 21
20.385
  0
LINE
  8
0
 10
16.864
 11
19.286
 20
20.385
 21
18.111
  0
LINE
  8
0
 10
19.286
 11
21.404
 20
18.111
 21
15.551
  0
LINE
  8
0
 10
21.404
 11
23.184
 20
15.551
 21
12.746
  0
LINE
  8
0
 10
23.184
 11
24.599
 20
12.746
 21
9.739
  0
LINE
  8
0
 10
24.599
 11
25.626
 20
9.739
 21
6.58
  0
LINE
  8
0
 10
25.626
 11
26.248
 20
6.58
 21
3.316
  0
LINE
  8
0
 10
26.248
 11
26.457
 20
3.316
 21
0
  0
LINE
  8
0
 10
26.457
 11
26.248
 20
0
 21
-3.316
  0
LINE
  8
0
 10
26.248
 11
25.626
 20
-3.316
 21
-6.58
  0
LINE
  8
0
 10
25.626
 11
24.599
 20
-6.58
 21
-9.739
  0
LINE
  8
0
 10
24.599
 11
23.184
 20
-9.739
 21
-12.746
  0
LINE
  8
0
 10
23.184
 11
21.404
 20
-12.746
 21
-15.551
  0
LINE
  8
0
 10
21.404
 11
19.286
 20
-15.551
 21
-18.111
  0
LINE
  8
0
 10
19.286
 11
16.864
 20
-18.111
 21
-20.385
  0
LINE
  8
0
 10
16.864
 11
14.176
 20
-20.385
 21
-22.338
  0
LINE
  8
0
 10
14.176
 11
11.265
 20
-22.338
 21
-23.939
  0
LINE
  8
0
 10
11.265
 11
8.176
 20
-23.939
 21
-25.162
  0
LINE
  8
0
 10
8.176
 11
4.958
 20
-25.162
 21
-25.988
  0
LINE
  8
0
 10
4.958
 11
1.661
 20
-25.988
 21
-26.405
  0
LINE
  8
0
 10
1.661
 11
-1.661
 20
-26.405
 21
-26.405
  0
LINE
  8
0
 10
-1.661
 11
-4.958
 20
-26.405
 21
-25.988
  0
LINE
  8
0
 10
-4.958
 11
-8.176
 20
-25.988
 21
-25.162
  0
LINE
  8
0
 10
-8.176
 11
-11.265
 20
-25.162
 21
-23.939
  0
LINE
  8
0
 10
-11.265
 11
-14.176
 20
-23.939
 21
-22.338
  0
LINE
  8
0
 10
-14.176
 11
-16.864
 20
-22.338
 21
-20.385
  0
LINE
  8
0
 10
-16.864
 11
-19.286
 20
-20.385
 21
-18.111
  0
LINE
  8
0
 10
-19.286
 11
-21.404
 20
-18.111
 21
-15.551
  0
LINE
  8
0
 10
-21.404
 11
-23.184
 20
-15.551
 21
-12.746
  0
LINE
  8
0
 10
-23.184
 11
-24.599
 20
-12.746
 21
-9.739
  0
LINE
  8
0
 10
-24.599
 11
-25.626
 20
-9.739
 21
-6.58
  0
LINE
  8
0
 10
-25.626
 11
-26.248
 20
-6.58
 21
-3.316
  0
LINE
  8
0
 10
-26.248
 11
-26.457
 20
-3.316
 21
0
  0
LINE
  8
0
 10
-14.405
 11
-14.405
 20
-0.005
 21
0.005
  0
LINE
  8
0
 10
-14.405
 11
-12.405
 20
0.005
 21
0.005
  0
LINE
  8
0
 10
-12.405
 11
-12.397
 20
0.005
 21
0.125
  0
LINE
  8
0
 10
-12.397
 11
-12.374
 20
0.125
 21
0.249
  0
LINE
  8
0
 10
-12.374
 11
-12.335
 20
0.249
 21
0.368
  0
LINE
  8
0
 10
-12.335
 11
-12.281
 20
0.368
 21
0.482
  0
LINE
  8
0
 10
-12.281
 11
-12.214
 20
0.482
 21
0.588
  0
LINE
  8
0
 10
-12.214
 11
-12.134
 20
0.588
 21
0.685
  0
LINE
  8
0
 10
-12.134
 11
-12.042
 20
0.685
 21
0.771
  0
LINE
  8
0
 10
-12.042
 11
-11.941
 20
0.771
 21
0.844
  0
LINE
  8
0
 10
-11.941
 11
-11.831
 20
0.844
 21
0.905
  0
LINE
  8
0
 10
-11.831
 11
-11.714
 20
0.905
 21
0.951
  0
LINE
  8
0
 10
-11.714
 11
-11.592
 20
0.951
 21
0.982
  0
LINE
  8
0
 10
-11.592
 11
-11.468
 20
0.982
 21
0.998
  0
LINE
  8
0
 10
-11.468
 11
-11.342
 20
0.998
 21
0.998
  0
LINE
  8
0
 10
-11.342
 11
-11.218
 20
0.998
 21
0.982
  0
LINE
  8
0
 10
-11.218
 11
-11.096
 20
0.982
 21
0.951
  0
LINE
  8
0
 10
-11.096
 11
-10.979
 20
0.951
 21
0.905
  0
LINE
  8
0
 10
-10.979
 11
-10.869
 20
0.905
 21
0.844
  0
LINE
  8
0
 10
-10.869
 11
-10.768
 20
0.844
 21
0.771
  0
LINE
  8
0
 10
-10.768
 11
-10.676
 20
0.771
 21
0.685
  0
LINE
  8
0
 10
-10.676
 11
-10.596
 20
0.685
 21
0.588
  0
LINE
  8
0
 10
-10.596
 11
-10.529
 20
0.588
 21
0.482
  0
LINE
  8
0
 10
-10.529
 11
-10.475
 20
0.482
 21
0.368
  0
LINE
  8
0
 10
-10.475
 11
-10.436
 20
0.368
 21
0.249
  0
LINE
  8
0
 10
-10.436
 11
-10.413
 20
0.249
 21
0.125
  0
LINE
  8
0
 10
-10.413
 11
-10.405
 20
0.125
 21
0.005
  0
LINE
  8
0
 10
-10.405
 11
-8.405
 20
0.005
 21
0.005
  0
LINE
  8
0
 10
-8.405
 11
-8.405
 20
0.005
 21
-0.005
  0
LINE
  8
0
 10
-8.405
 11
-10.405
 20
-0.005
 21
-0.005
  0
LINE
  8
0
 10
-10.405
 11
-10.413
 20
-0.005
 21
-0.125
  0
LINE
  8
0
 10
-10.413
 11
-10.436
 20
-0.125
 21
-0.249
  0
LINE
  8
0
 10
-10.436
 11
-10.475
 20
-0.249
 21
-0.368
  0
LINE
  8
0
 10
-10.475
 11
-10.529
 20
-0.368
 21
-0.482
  0
LINE
  8
0
 10
-10.529
 11
-10.596
 20
-0.482
 21
-0.588
  0
LINE
  8
0
 10
-10.596
 11
-10.676
 20
-0.588
 21
-0.685
  0
LINE
  8
0
 10
-10.676
 11
-10.768
 20
-0.685
 21
-0.771
  0
LINE
  8
0
 10
-10.768
 11
-10.869
 20
-0.771
 21
-0.844
  0
LINE
  8
0
 10
-10.869
 11
-10.979
 20
-0.844
 21
-0.905
  0
LINE
  8
0
 10
-10.979
 11
-11.096
 20
-0.905
 21
-0.951
  0
LINE
  8
0
 10
-11.096
 11
-11.218
 20
-0.951
 21
-0.982
  0
LINE
  8
0
 10
-11.218
 11
-11.342
 20
-0.982
 21
-0.998
  0
LINE
  8
0
 10
-11.342
 11
-11.468
 20
-0.998
 21
-0.998
  0
LINE
  8
0
 10
-11.468
 11
-11.592
 20
-0.998
 21
-0.982
  0
LINE
  8
0
 10
-11.592
 11
-11.714
 20
-0.982
 21
-0.951
  0
LINE
  8
0
 10
-11.714
 11
-11.831
 20
-0.951
 21
-0.905
  0
LINE
  8
0
 10
-11.831
 11
-11.941
 20
-0.905
 21
-0.844
  0
LINE
  8
0
 10
-11.941
 11
-12.042
 20
-0.844
 21
-0.771
  0
LINE
  8
0
 10
-12.042
 11
-12.134
 20
-0.771
 21
-0.685
  0
LINE
  8
0
 10
-12.134
 11
-12.214
 20
-0.685
 21
-0.588
  0
LINE
  8
0
 10
-12.214
 11
-12.281
 20
-0.588
 21
-0.482
  0
LINE
  8
0
 10
-12.281
 11
-12.335
 20
-0.482
 21
-0.368
  0
LINE
  8
0
 10
-12.335
 11
-12.374
 20
-0.368
 21
-0.249
  0
LINE
  8
0
 10
-12.374
 11
-12.397
 20
-0.249
 21
-0.125
  0
LINE
  8
0
 10
-12.397
 11
-12.405
 20
-0.125
 21
-0.005
  0
LINE
  8
0
 10
-12.405
 11
-14.405
 20
-0.005
 21
-0.005
  0
LINE
  8
0
 10
-8.24
 11
-6.74
 20
-14.262
 21
-11.664
  0
LINE
  8
0
 10
-6.74
 11
-6.893
 20
-11.664
 21
-11.562
  0
LINE
  8
0
 10
-6.893
 11
-7.035
 20
-11.562
 21
-11.439
  0
LINE
  8
0
 10
-7.035
 11
-7.161
 20
-11.439
 21
-11.299
  0
LINE
  8
0
 10
-7.161
 11
-7.269
 20
-11.299
 21
-11.144
  0
LINE
  8
0
 10
-7.269
 11
-7.356
 20
-11.144
 21
-10.978
  0
LINE
  8
0
 10
-7.356
 11
-7.422
 20
-10.978
 21
-10.801
  0
LINE
  8
0
 10
-7.422
 11
-7.465
 20
-10.801
 21
-10.618
  0
LINE
  8
0
 10
-7.465
 11
-7.484
 20
-10.618
 21
-10.43
  0
LINE
  8
0
 10
-7.484
 11
-7.48
 20
-10.43
 21
-10.242
  0
LINE
  8
0
 10
-7.48
 11
-7.453
 20
-10.242
 21
-10.056
  0
LINE
  8
0
 10
-7.453
 11
-7.402
 20
-10.056
 21
-9.874
  0
LINE
  8
0
 10
-7.402
 11
-7.329
 20
-9.874
 21
-9.7
  0
LINE
  8
0
 10
-7.329
 11
-7.235
 20
-9.7
 21
-9.537
  0
LINE
  8
0
 10
-7.235
 11
-7.121
 20
-9.537
 21
-9.387
  0
LINE
  8
0
 10
-7.121
 11
-6.989
 20
-9.387
 21
-9.253
  0
LINE
  8
0
 10
-6.989
 11
-6.842
 20
-9.253
 21
-9.136
  0
LINE
  8
0
 10
-6.842
 11
-6.681
 20
-9.136
 21
-9.038
  0
LINE
  8
0
 10
-6.681
 11
-6.508
 20
-9.038
 21
-8.961
  0
LINE
  8
0
 10
-6.508
 11
-6.328
 20
-8.961
 21
-8.907
  0
LINE
  8
0
 10
-6.328
 11
-6.142
 20
-8.907
 21
-8.876
  0
LINE
  8
0
 10
-6.142
 11
-5.954
 20
-8.876
 21
-8.868
  0
LINE
  8
0
 10
-5.954
 11
-5.767
 20
-8.868
 21
-8.884
  0
LINE
  8
0
 10
-5.767
 11
-5.582
 20
-8.884
 21
-8.923
  0
LINE
  8
0
 10
-5.582
 11
-5.404
 20
-8.923
 21
-8.985
  0
LINE
  8
0
 10
-5.404
 11
-5.24
 20
-8.985
 21
-9.066
  0
LINE
  8
0
 10
-5.24
 11
-3.74
 20
-9.066
 21
-6.468
  0
LINE
  8
0
 10
-3.74
 11
-3.731
 20
-6.468
 21
-6.473
  0
LINE
  8
0
 10
-3.731
 11
-5.231
 20
-6.473
 21
-9.071
  0
LINE
  8
0
 10
-5.231
 11
-5.079
 20
-9.071
 21
-9.173
  0
LINE
  8
0
 10
-5.079
 11
-4.936
 20
-9.173
 21
-9.296
  0
LINE
  8
0
 10
-4.936
 11
-4.81
 20
-9.296
 21
-9.436
  0
LINE
  8
0
 10
-4.81
 11
-4.703
 20
-9.436
 21
-9.59
  0
LINE
  8
0
 10
-4.703
 11
-4.615
 20
-9.59
 21
-9.757
  0
LINE
  8
0
 10
-4.615
 11
-4.55
 20
-9.757
 21
-9.934
  0
LINE
  8
0
 10
-4.55
 11
-4.507
 20
-9.934
 21
-10.117
  0
LINE
  8
0
 10
-4.507
 11
-4.487
 20
-10.117
 21
-10.305
  0
LINE
  8
0
 10
-4.487
 11
-4.491
 20
-10.305
 21
-10.493
  0
LINE
  8
0
 10
-4.491
 11
-4.518
 20
-10.493
 21
-10.679
  0
LINE
  8
0
 10
-4.518
 11
-4.569
 20
-10.679
 21
-10.861
  0
LINE
  8
0
 10
-4.569
 11
-4.642
 20
-10.861
 21
-11.034
  0
LINE
  8
0
 10
-4.642
 11
-4.736
 20
-11.034
 21
-11.198
  0
LINE
  8
0
 10
-4.736
 11
-4.85
 20
-11.198
 21
-11.348
  0
LINE
  8
0
 10
-4.85
 11
-4.982
 20
-11.348
 21
-11.482
  0
LINE
  8
0
 10
-4.982
 11
-5.13
 20
-11.482
 21
-11.599
  0
LINE
  8
0
 10
-5.13
 11
-5.291
 20
-11.599
 21
-11.697
  0
LINE
  8
0
 10
-5.291
 11
-5.463
 20
-11.697
 21
-11.773
  0
LINE
  8
0
 10
-5.463
 11
-5.643
 20
-11.773
 21
-11.828
  0
LINE
  8
0
 10
-5.643
 11
-5.829
 20
-11.828
 21
-11.859
  0
LINE
  8
0
 10
-5.829
 11
-6.017
 20
-11.859
 21
-11.867
  0
LINE
  8
0
 10
-6.017
 11
-6.205
 20
-11.867
 21
-11.851
  0
LINE
  8
0
 10
-6.205
 11
-6.389
 20
-11.851
 21
-11.812
  0
LINE
  8
0
 10
-6.389
 11
-6.567
 20
-11.812
 21
-11.75
  0
LINE
  8
0
 10
-6.567
 11
-6.731
 20
-11.75
 21
-11.669
  0
LINE
  8
0
 10
-6.731
 11
-8.231
 20
-11.669
 21
-14.267
  0
LINE
  8
0
 10
-8.231
 11
-8.24
 20
-14.267
 21
-14.262
  0
LINE
  8
0
 10
-8.24
 11
-8.231
 20
14.262
 21
14.267
  0
LINE
  8
0
 10
-8.231
 11
-6.731
 20
14.267
 21
11.669
  0
LINE
  8
0
 10
-6.731
 11
-6.567
 20
11.669
 21
11.75
  0
LINE
  8
0
 10
-6.567
 11
-6.389
 20
11.75
 21
11.812
  0
LINE
  8
0
 10
-6.389
 11
-6.205
 20
11.812
 21
11.851
  0
LINE
  8
0
 10
-6.205
 11
-6.017
 20
11.851
 21
11.867
  0
LINE
  8
0
 10
-6.017
 11
-5.829
 20
11.867
 21
11.859
  0
LINE
  8
0
 10
-5.829
 11
-5.643
 20
11.859
 21
11.828
  0
LINE
  8
0
 10
-5.643
 11
-5.463
 20
11.828
 21
11.773
  0
LINE
  8
0
 10
-5.463
 11
-5.291
 20
11.773
 21
11.697
  0
LINE
  8
0
 10
-5.291
 11
-5.13
 20
11.697
 21
11.599
  0
LINE
  8
0
 10
-5.13
 11
-4.982
 20
11.599
 21
11.482
  0
LINE
  8
0
 10
-4.982
 11
-4.85
 20
11.482
 21
11.348
  0
LINE
  8
0
 10
-4.85
 11
-4.736
 20
11.348
 21
11.198
  0
LINE
  8
0
 10
-4.736
 11
-4.642
 20
11.198
 21
11.034
  0
LINE
  8
0
 10
-4.642
 11
-4.569
 20
11.034
 21
10.861
  0
LINE
  8
0
 10
-4.569
 11
-4.518
 20
10.861
 21
10.679
  0
LINE
  8
0
 10
-4.518
 11
-4.491
 20
10.679
 21
10.493
  0
LINE
  8
0
 10
-4.491
 11
-4.487
 20
10.493
 21
10.305
  0
LINE
  8
0
 10
-4.487
 11
-4.507
 20
10.305
 21
10.117
  0
LINE
  8
0
 10
-4.507
 11
-4.55
 20
10.117
 21
9.934
  0
LINE
  8
0
 10
-4.55
 11
-4.615
 20
9.934
 21
9.757
  0
LINE
  8
0
 10
-4.615
 11
-4.703
 20
9.757
 21
9.59
  0
LINE
  8
0
 10
-4.703
 11
-4.81
 20
9.59
 21
9.436
  0
LINE
  8
0
 10
-4.81
 11
-4.936
 20
9.436
 21
9.296
  0
LINE
  8
0
 10
-4.936
 11
-5.079
 20
9.296
 21
9.173
  0
LINE
  8
0
 10
-5.079
 11
-5.231
 20
9.173
 21
9.071
  0
LINE
  8
0
 10
-5.231
 11
-3.731
 20
9.071
 21
6.473
  0
LINE
  8
0
 10
-3.731
 11
-3.74
 20
6.473
 21
6.468
  0
LINE
  8
0
 10
-3.74
 11
-5.24
 20
6.468
 21
9.066
  0
LINE
  8
0
 10
-5.24
 11
-5.404
 20
9.066
 21
8.985
  0
LINE
  8
0
 10
-5.404
 11
-5.582
 20
8.985
 21
8.923
  0
LINE
  8
0
 10
-5.582
 11
-5.767
 20
8.923
 21
8.884
  0
LINE
  8
0
 10
-5.767
 11
-5.954
 20
8.884
 21
8.868
  0
LINE
  8
0
 10
-5.954
 11
-6.142
 20
8.868
 21
8.876
  0
LINE
  8
0
 10
-6.142
 11
-6.328
 20
8.876
 21
8.907
  0
LINE
  8
0
 10
-6.328
 11
-6.508
 20
8.907
 21
8.961
  0
LINE
  8
0
 10
-6.508
 11
-6.681
 20
8.961
 21
9.038
  0
LINE
  8
0
 10
-6.681
 11
-6.842
 20
9.038
 21
9.136
  0
LINE
  8
0
 10
-6.842
 11
-6.989
 20
9.136
 21
9.253
  0
LINE
  8
0
 10
-6.989
 11
-7.121
 20
9.253
 21
9.387
  0
LINE
  8
0
 10
-7.121
 11
-7.235
 20
9.387
 21
9.537
  0
LINE
  8
0
 10
-7.235
 11
-7.329
 20
9.537
 21
9.7
  0
LINE
  8
0
 10
-7.329
 11
-7.402
 20
9.7
 21
9.874
  0
LINE
  8
0
 10
-7.402
 11
-7.453
 20
9.874
 21
10.056
  0
LINE
  8
0
 10
-7.453
 11
-7.48
 20
10.056
 21
10.242
  0
LINE
  8
0
 10
-7.48
 11
-7.484
 20
10.242
 21
10.43
  0
LINE
  8
0
 10
-7.484
 11
-7.465
 20
10.43
 21
10.618
  0
LINE
  8
0
 10
-7.465
 11
-7.422
 20
10.618
 21
10.801
  0
LINE
  8
0
 10
-7.422
 11
-7.356
 20
10.801
 21
10.978
  0
LINE
  8
0
 10
-7.356
 11
-7.269
 20
10.978
 21
11.144
  0
LINE
  8
0
 10
-7.269
 11
-7.161
 20
11.144
 21
11.299
  0
LINE
  8
0
 10
-7.161
 11
-7.035
 20
11.299
 21
11.439
  0
LINE
  8
0
 10
-7.035
 11
-6.893
 20
11.439
 21
11.562
  0
LINE
  8
0
 10
-6.893
 11
-6.74
 20
11.562
 21
11.664
  0
LINE
  8
0
 10
-6.74
 11
-8.24
 20
11.664
 21
14.262
  0
LINE
  8
0
 10
-3.398
 11
-3.371
 20
0
 21
0.426
  0
LINE
  8
0
 10
-3.371
 11
-3.291
 20
0.426
 21
0.845
  0
LINE
  8
0
 10
-3.291
 11
-3.159
 20
0.845
 21
1.251
  0
LINE
  8
0
 10
-3.159
 11
-2.977
 20
1.251
 21
1.637
  0
LINE
  8
0
 10
-2.977
 11
-2.749
 20
1.637
 21
1.997
  0
LINE
  8
0
 10
-2.749
 11
-2.477
 20
1.997
 21
2.326
  0
LINE
  8
0
 10
-2.477
 11
-2.166
 20
2.326
 21
2.618
  0
LINE
  8
0
 10
-2.166
 11
-1.821
 20
2.618
 21
2.869
  0
LINE
  8
0
 10
-1.821
 11
-1.447
 20
2.869
 21
3.074
  0
LINE
  8
0
 10
-1.447
 11
-1.05
 20
3.074
 21
3.231
  0
LINE
  8
0
 10
-1.05
 11
-0.637
 20
3.231
 21
3.338
  0
LINE
  8
0
 10
-0.637
 11
-0.213
 20
3.338
 21
3.391
  0
LINE
  8
0
 10
-0.213
 11
0.213
 20
3.391
 21
3.391
  0
LINE
  8
0
 10
0.213
 11
0.637
 20
3.391
 21
3.338
  0
LINE
  8
0
 10
0.637
 11
1.05
 20
3.338
 21
3.231
  0
LINE
  8
0
 10
1.05
 11
1.447
 20
3.231
 21
3.074
  0
LINE
  8
0
 10
1.447
 11
1.821
 20
3.074
 21
2.869
  0
LINE
  8
0
 10
1.821
 11
2.166
 20
2.869
 21
2.618
  0
LINE
  8
0
 10
2.166
 11
2.477
 20
2.618
 21
2.326
  0
LINE
  8
0
 10
2.477
 11
2.749
 20
2.326
 21
1.997
  0
LINE
  8
0
 10
2.749
 11
2.977
 20
1.997
 21
1.637
  0
LINE
  8
0
 10
2.977
 11
3.159
 20
1.637
 21
1.251
  0
LINE
  8
0
 10
3.159
 11
3.291
 20
1.251
 21
0.845
  0
LINE
  8
0
 10
3.291
 11
3.371
 20
0.845
 21
0.426
  0
LINE
  8
0
 10
3.371
 11
3.398
 20
0.426
 21
0
  0
LINE
  8
0
 10
3.398
 11
3.371
 20
0
 21
-0.426
  0
LINE
  8
0
 10
3.371
 11
3.291
 20
-0.426
 21
-0.845
  0
LINE
  8
0
 10
3.291
 11
3.159
 20
-0.845
 21
-1.251
  0
LINE
  8
0
 10
3.159
 11
2.977
 20
-1.251
 21
-1.637
  0
LINE
  8
0
 10
2.977
 11
2.749
 20
-1.637
 21
-1.997
  0
LINE
  8
0
 10
2.749
 11
2.477
 20
-1.997
 21
-2.326
  0
LINE
  8
0
 10
2.477
 11
2.166
 20
-2.326
 21
-2.618
  0
LINE
  8
0
 10
2.166
 11
1.821
 20
-2.618
 21
-2.869
  0
LINE
  8
0
 10
1.821
 11
1.447
 20
-2.869
 21
-3.074
  0
LINE
  8
0
 10
1.447
 11
1.05
 20
-3.074
 21
-3.231
  0
LINE
  8
0
 10
1.05
 11
0.637
 20
-3.231
 21
-3.338
  0
LINE
  8
0
 10
0.637
 11
0.213
 20
-3.338
 21
-3.391
  0
LINE
  8
0
 10
0.213
 11
-0.213
 20
-3.391
 21
-3.391
  0
LINE
  8
0
 10
-0.213
 11
-0.637
 20
-3.391
 21
-3.338
  0
LINE
  8
0
 10
-0.637
 11
-1.05
 20
-3.338
 21
-3.231
  0
LINE
  8
0
 10
-1.05
 11
-1.447
 20
-3.231
 21
-3.074
  0
LINE
  8
0
 10
-1.447
 11
-1.821
 20
-3.074
 21
-2.869
  0
LINE
  8
0
 10
-1.821
 11
-2.166
 20
-2.869
 21
-2.618
  0
LINE
  8
0
 10
-2.166
 11
-2.477
 20
-2.618
 21
-2.326
  0
LINE
  8
0
 10
-2.477
 11
-2.749
 20
-2.326
 21
-1.997
  0
LINE
  8
0
 10
-2.749
 11
-2.977
 20
-1.997
 21
-1.637
  0
LINE
  8
0
 10
-2.977
 11
-3.159
 20
-1.637
 21
-1.251
  0
LINE
  8
0
 10
-3.159
 11
-3.291
 20
-1.251
 21
-0.845
  0
LINE
  8
0
 10
-3.291
 11
-3.371
 20
-0.845
 21
-0.426
  0
LINE
  8
0
 10
-3.371
 11
-3.398
 20
-0.426
 21
0
  0
LINE
  8
0
 10
7.471
 11
7.471
 20
-0.005
 21
0.005
  0
LINE
  8
0
 10
7.471
 11
10.472
 20
0.005
 21
0.005
  0
LINE
  8
0
 10
10.472
 11
10.483
 20
0.005
 21
0.188
  0
LINE
  8
0
 10
10.483
 11
10.518
 20
0.188
 21
0.373
  0
LINE
  8
0
 10
10.518
 11
10.577
 20
0.373
 21
0.552
  0
LINE
  8
0
 10
10.577
 11
10.657
 20
0.552
 21
0.723
  0
LINE
  8
0
 10
10.657
 11
10.758
 20
0.723
 21
0.882
  0
LINE
  8
0
 10
10.758
 11
10.878
 20
0.882
 21
1.027
  0
LINE
  8
0
 10
10.878
 11
11.015
 20
1.027
 21
1.156
  0
LINE
  8
0
 10
11.015
 11
11.168
 20
1.156
 21
1.266
  0
LINE
  8
0
 10
11.168
 11
11.333
 20
1.266
 21
1.357
  0
LINE
  8
0
 10
11.333
 11
11.508
 20
1.357
 21
1.427
  0
LINE
  8
0
 10
11.508
 11
11.69
 20
1.427
 21
1.473
  0
LINE
  8
0
 10
11.69
 11
11.877
 20
1.473
 21
1.497
  0
LINE
  8
0
 10
11.877
 11
12.065
 20
1.497
 21
1.497
  0
LINE
  8
0
 10
12.065
 11
12.252
 20
1.497
 21
1.473
  0
LINE
  8
0
 10
12.252
 11
12.435
 20
1.473
 21
1.427
  0
LINE
  8
0
 10
12.435
 11
12.61
 20
1.427
 21
1.357
  0
LINE
  8
0
 10
12.61
 11
12.775
 20
1.357
 21
1.266
  0
LINE
  8
0
 10
12.775
 11
12.927
 20
1.266
 21
1.156
  0
LINE
  8
0
 10
12.927
 11
13.065
 20
1.156
 21
1.027
  0
LINE
  8
0
 10
13.065
 11
13.185
 20
1.027
 21
0.882
  0
LINE
  8
0
 10
13.185
 11
13.286
 20
0.882
 21
0.723
  0
LINE
  8
0
 10
13.286
 11
13.366
 20
0.723
 21
0.552
  0
LINE
  8
0
 10
13.366
 11
13.424
 20
0.552
 21
0.373
  0
LINE
  8
0
 10
13.424
 11
13.459
 20
0.373
 21
0.188
  0
LINE
  8
0
 10
13.459
 11
13.471
 20
0.188
 21
0.005
  0
LINE
  8
0
 10
13.471
 11
16.471
 20
0.005
 21
0.005
  0
LINE
  8
0
 10
16.471
 11
16.471
 20
0.005
 21
-0.005
  0
LINE
  8
0
 10
16.471
 11
13.471
 20
-0.005
 21
-0.005
  0
LINE
  8
0
 10
13.471
 11
13.459
 20
-0.005
 21
-0.188
  0
LINE
  8
0
 10
13.459
 11
13.424
 20
-0.188
 21
-0.373
  0
LINE
  8
0
 10
13.424
 11
13.366
 20
-0.373
 21
-0.552
  0
LINE
  8
0
 10
13.366
 11
13.286
 20
-0.552
 21
-0.723
  0
LINE
  8
0
 10
13.286
 11
13.185
 20
-0.723
 21
-0.882
  0
LINE
  8
0
 10
13.185
 11
13.065
 20
-0.882
 21
-1.027
  0
LINE
  8
0
 10
13.065
 11
12.927
 20
-1.027
 21
-1.156
  0
LINE
  8
0
 10
12.927
 11
12.775
 20
-1.156
 21
-1.266
  0
LINE
  8
0
 10
12.775
 11
12.61
 20
-1.266
 21
-1.357
  0
LINE
  8
0
 10
12.61
 11
12.435
 20
-1.357
 21
-1.427
  0
LINE
  8
0
 10
12.435
 11
12.252
 20
-1.427
 21
-1.473
  0
LINE
  8
0
 10
12.252
 11
12.065
 20
-1.473
 21
-1.497
  0
LINE
  8
0
 10
12.065
 11
11.877
 20
-1.497
 21
-1.497
  0
LINE
  8
0
 10
11.877
 11
11.69
 20
-1.497
 21
-1.473
  0
LINE
  8
0
 10
11.69
 11
11.508
 20
-1.473
 21
-1.427
  0
LINE
  8
0
 10
11.508
 11
11.333
 20
-1.427
 21
-1.357
  0
LINE
  8
0
 10
11.333
 11
11.168
 20
-1.357
 21
-1.266
  0
LINE
  8
0
 10
11.168
 11
11.015
 20
-1.266
 21
-1.156
  0
LINE
  8
0
 10
11.015
 11
10.878
 20
-1.156
 21
-1.027
  0
LINE
  8
0
 10
10.878
 11
10.758
 20
-1.027
 21
-0.882
  0
LINE
  8
0
 10
10.758
 11
10.657
 20
-0.882
 21
-0.723
  0
LINE
  8
0
 10
10.657
 11
10.577
 20
-0.723
 21
-0.552
  0
LINE
  8
0
 10
10.577
 11
10.518
 20
-0.552
 21
-0.373
  0
LINE
  8
0
 10
10.518
 11
10.483
 20
-0.373
 21
-0.188
  0
LINE
  8
0
 10
10.483
 11
10.472
 20
-0.188
 21
-0.005
  0
LINE
  8
0
 10
10.472
 11
7.471
 20
-0.005
 21
-0.005
  0
ENDSEC
  0
SECTION
  2
OBJECTS
  0
DICTIONARY
  0
ENDSEC
  0
EOF
