solid OpenSCAD_Model
  facet normal 0 -0.999629 0.0272511
    outer loop
      vertex 0 -21.3941 -3.42215
      vertex 27 -20.9452 13.0453
      vertex 0 -20.9452 13.0453
    endloop
  endfacet
  facet normal 0 -0.999629 0.0272511
    outer loop
      vertex 27 -20.9452 13.0453
      vertex 0 -21.3941 -3.42215
      vertex 27 -21.3941 -3.42215
    endloop
  endfacet
  facet normal -1 0 0
    outer loop
      vertex 0 -6.89089 2
      vertex 0 0.0999994 22
      vertex 0 0.0999994 2
    endloop
  endfacet
  facet normal -1 0 0
    outer loop
      vertex 0 -6.89089 2
      vertex 0 -11 22
      vertex 0 0.0999994 22
    endloop
  endfacet
  facet normal -1 0 0
    outer loop
      vertex 0 -20.9452 13.0453
      vertex 0 -11 22
      vertex 0 -6.89089 2
    endloop
  endfacet
  facet normal -1 0 0
    outer loop
      vertex 0 -11 22
      vertex 0 -20.9452 13.0453
      vertex 0 -13.0791 21.7815
    endloop
  endfacet
  facet normal -1 0 0
    outer loop
      vertex 0 -13.0791 21.7815
      vertex 0 -20.9452 13.0453
      vertex 0 -15.0674 21.1355
    endloop
  endfacet
  facet normal -1 0 0
    outer loop
      vertex 0 -15.0674 21.1355
      vertex 0 -20.9452 13.0453
      vertex 0 -16.8779 20.0902
    endloop
  endfacet
  facet normal -1 0 0
    outer loop
      vertex 0 -21.3941 -3.42215
      vertex 0 -6.89089 2
      vertex 0 -18.906 -9.9658
    endloop
  endfacet
  facet normal -1 0 0
    outer loop
      vertex 0 -21.3941 -3.42215
      vertex 0 -18.906 -9.9658
      vertex 0 -19 -10
    endloop
  endfacet
  facet normal -1 0 -0
    outer loop
      vertex 0 -20.9452 13.0453
      vertex 0 -6.89089 2
      vertex 0 -21.3941 -3.42215
    endloop
  endfacet
  facet normal -1 0 0
    outer loop
      vertex 0 -18.4314 18.6913
      vertex 0 -20.9452 13.0453
      vertex 0 -19.6603 17
    endloop
  endfacet
  facet normal -1 0 0
    outer loop
      vertex 0 -19.6603 17
      vertex 0 -20.9452 13.0453
      vertex 0 -20.5106 15.0902
    endloop
  endfacet
  facet normal -1 0 0
    outer loop
      vertex 0 -16.8779 20.0902
      vertex 0 -20.9452 13.0453
      vertex 0 -18.4314 18.6913
    endloop
  endfacet
  facet normal 1 -0 0
    outer loop
      vertex 27 0 22
      vertex 27 0.0999994 2
      vertex 27 0.0999994 22
    endloop
  endfacet
  facet normal 1 0 0
    outer loop
      vertex 27 0 22
      vertex 27 -6.89089 2
      vertex 27 0.0999994 2
    endloop
  endfacet
  facet normal 1 -0 0
    outer loop
      vertex 27 -18.4314 18.6913
      vertex 27 -6.89089 2
      vertex 27 0 22
    endloop
  endfacet
  facet normal 1 -0 0
    outer loop
      vertex 27 -20.9452 13.0453
      vertex 27 -6.89089 2
      vertex 27 -18.4314 18.6913
    endloop
  endfacet
  facet normal 1 0 0
    outer loop
      vertex 27 -6.89089 2
      vertex 27 -21.3941 -3.42215
      vertex 27 -18.906 -9.9658
    endloop
  endfacet
  facet normal 1 0 0
    outer loop
      vertex 27 -20.9452 13.0453
      vertex 27 -18.4314 18.6913
      vertex 27 -19.6603 17
    endloop
  endfacet
  facet normal 1 0 0
    outer loop
      vertex 27 -20.9452 13.0453
      vertex 27 -19.6603 17
      vertex 27 -20.5106 15.0902
    endloop
  endfacet
  facet normal 1 0 0
    outer loop
      vertex 27 -6.89089 2
      vertex 27 -20.9452 13.0453
      vertex 27 -21.3941 -3.42215
    endloop
  endfacet
  facet normal 1 0 0
    outer loop
      vertex 27 -18.906 -9.9658
      vertex 27 -21.3941 -3.42215
      vertex 27 -19 -10
    endloop
  endfacet
  facet normal 0 -0.939693 -0.34202
    outer loop
      vertex 0 -21.3941 -3.42215
      vertex 2 -20.7912 -5.07874
      vertex 27 -21.3941 -3.42215
    endloop
  endfacet
  facet normal -2.92997e-07 -0.939693 -0.34202
    outer loop
      vertex 0 -19 -10
      vertex 2 -20.7912 -5.07874
      vertex 0 -21.3941 -3.42215
    endloop
  endfacet
  facet normal 0 -0.939693 -0.34202
    outer loop
      vertex 2 -19.5182 -8.57629
      vertex 0 -19 -10
      vertex 25 -19.5182 -8.57629
    endloop
  endfacet
  facet normal 1.59525e-07 -0.939693 -0.34202
    outer loop
      vertex 2 -20.7912 -5.07874
      vertex 0 -19 -10
      vertex 2 -19.5182 -8.57629
    endloop
  endfacet
  facet normal -0 -0.939693 -0.34202
    outer loop
      vertex 25 -20.7912 -5.07874
      vertex 27 -21.3941 -3.42215
      vertex 2 -20.7912 -5.07874
    endloop
  endfacet
  facet normal -1.59525e-07 -0.939693 -0.34202
    outer loop
      vertex 27 -19 -10
      vertex 25 -20.7912 -5.07874
      vertex 25 -19.5182 -8.57629
    endloop
  endfacet
  facet normal 2.92997e-07 -0.939693 -0.34202
    outer loop
      vertex 25 -20.7912 -5.07874
      vertex 27 -19 -10
      vertex 27 -21.3941 -3.42215
    endloop
  endfacet
  facet normal -0 -0.939693 -0.34202
    outer loop
      vertex 27 -19 -10
      vertex 25 -19.5182 -8.57629
      vertex 0 -19 -10
    endloop
  endfacet
  facet normal 0 0.70565 -0.70856
    outer loop
      vertex 0 -18.906 -9.9658
      vertex 27 -6.89089 2
      vertex 27 -18.906 -9.9658
    endloop
  endfacet
  facet normal 0 0.70565 -0.70856
    outer loop
      vertex 27 -6.89089 2
      vertex 0 -18.906 -9.9658
      vertex 0 -6.89089 2
    endloop
  endfacet
  facet normal 1 0 0
    outer loop
      vertex 27 -15.0674 21.1355
      vertex 27 -16.8779 20.0902
      vertex 27 -18.4314 18.6913
    endloop
  endfacet
  facet normal 0 0.342025 -0.939691
    outer loop
      vertex 0 -19 -10
      vertex 27 -18.906 -9.9658
      vertex 27 -19 -10
    endloop
  endfacet
  facet normal 0 0.342025 -0.939691
    outer loop
      vertex 27 -18.906 -9.9658
      vertex 0 -19 -10
      vertex 0 -18.906 -9.9658
    endloop
  endfacet
  facet normal 0 -0.978148 0.207911
    outer loop
      vertex 0 -20.9452 13.0453
      vertex 27 -20.5106 15.0902
      vertex 0 -20.5106 15.0902
    endloop
  endfacet
  facet normal 0 -0.978148 0.207911
    outer loop
      vertex 27 -20.5106 15.0902
      vertex 0 -20.9452 13.0453
      vertex 27 -20.9452 13.0453
    endloop
  endfacet
  facet normal 0 -0.5 0.866026
    outer loop
      vertex 0 -15.0674 21.1355
      vertex 27 -16.8779 20.0902
      vertex 27 -15.0674 21.1355
    endloop
  endfacet
  facet normal 0 -0.5 0.866026
    outer loop
      vertex 27 -16.8779 20.0902
      vertex 0 -15.0674 21.1355
      vertex 0 -16.8779 20.0902
    endloop
  endfacet
  facet normal 0 -0.809017 0.587785
    outer loop
      vertex 0 -19.6603 17
      vertex 27 -18.4314 18.6913
      vertex 0 -18.4314 18.6913
    endloop
  endfacet
  facet normal 0 -0.809017 0.587785
    outer loop
      vertex 27 -18.4314 18.6913
      vertex 0 -19.6603 17
      vertex 27 -19.6603 17
    endloop
  endfacet
  facet normal 0 -0.669131 0.743144
    outer loop
      vertex 0 -16.8779 20.0902
      vertex 27 -18.4314 18.6913
      vertex 27 -16.8779 20.0902
    endloop
  endfacet
  facet normal 0 -0.669131 0.743144
    outer loop
      vertex 27 -18.4314 18.6913
      vertex 0 -16.8779 20.0902
      vertex 0 -18.4314 18.6913
    endloop
  endfacet
  facet normal 0 -0.913545 0.406737
    outer loop
      vertex 0 -20.5106 15.0902
      vertex 27 -19.6603 17
      vertex 0 -19.6603 17
    endloop
  endfacet
  facet normal 0 -0.913545 0.406737
    outer loop
      vertex 27 -19.6603 17
      vertex 0 -20.5106 15.0902
      vertex 27 -20.5106 15.0902
    endloop
  endfacet
  facet normal 1 0 0
    outer loop
      vertex 27 -13.0791 21.7815
      vertex 27 -15.0674 21.1355
      vertex 27 -18.4314 18.6913
    endloop
  endfacet
  facet normal 0 -0.309017 0.951057
    outer loop
      vertex 0 -13.0791 21.7815
      vertex 27 -15.0674 21.1355
      vertex 27 -13.0791 21.7815
    endloop
  endfacet
  facet normal 0 -0.309017 0.951057
    outer loop
      vertex 27 -15.0674 21.1355
      vertex 0 -13.0791 21.7815
      vertex 0 -15.0674 21.1355
    endloop
  endfacet
  facet normal 0 -0.104529 0.994522
    outer loop
      vertex 0 -11 22
      vertex 27 -13.0791 21.7815
      vertex 27 -11 22
    endloop
  endfacet
  facet normal 0 -0.104529 0.994522
    outer loop
      vertex 27 -13.0791 21.7815
      vertex 0 -11 22
      vertex 0 -13.0791 21.7815
    endloop
  endfacet
  facet normal 0 0 1
    outer loop
      vertex 14.8858 -2.92597 22
      vertex 27 0 22
      vertex 27 0.0999994 22
    endloop
  endfacet
  facet normal 0 0 1
    outer loop
      vertex 27 0 22
      vertex 15 -3.5 22
      vertex 14.8858 -4.07402 22
    endloop
  endfacet
  facet normal 0 0 1
    outer loop
      vertex 27 0 22
      vertex 14.8858 -2.92597 22
      vertex 15 -3.5 22
    endloop
  endfacet
  facet normal 0 0 1
    outer loop
      vertex 27 0.0999994 22
      vertex 14.5607 -2.43934 22
      vertex 14.8858 -2.92597 22
    endloop
  endfacet
  facet normal 0 0 1
    outer loop
      vertex 27 0.0999994 22
      vertex 14.074 -2.11418 22
      vertex 14.5607 -2.43934 22
    endloop
  endfacet
  facet normal 0 0 1
    outer loop
      vertex 27 0.0999994 22
      vertex 13.5 -2 22
      vertex 14.074 -2.11418 22
    endloop
  endfacet
  facet normal 0 0 1
    outer loop
      vertex 12.1142 -2.92597 22
      vertex 0 0.0999994 22
      vertex 12 -3.5 22
    endloop
  endfacet
  facet normal 0 0 1
    outer loop
      vertex 12.4393 -2.43934 22
      vertex 0 0.0999994 22
      vertex 12.1142 -2.92597 22
    endloop
  endfacet
  facet normal 0 0 1
    outer loop
      vertex 12.926 -2.11418 22
      vertex 0 0.0999994 22
      vertex 12.4393 -2.43934 22
    endloop
  endfacet
  facet normal 0 0 1
    outer loop
      vertex 13.5 -2 22
      vertex 0 0.0999994 22
      vertex 12.926 -2.11418 22
    endloop
  endfacet
  facet normal -0 0 1
    outer loop
      vertex 0 0.0999994 22
      vertex 13.5 -2 22
      vertex 27 0.0999994 22
    endloop
  endfacet
  facet normal 0 0 1
    outer loop
      vertex 27 0 22
      vertex 14.8858 -4.07402 22
      vertex 27 -11 22
    endloop
  endfacet
  facet normal -0 0 1
    outer loop
      vertex 14.5607 -4.56066 22
      vertex 27 -11 22
      vertex 14.8858 -4.07402 22
    endloop
  endfacet
  facet normal -0 0 1
    outer loop
      vertex 14.074 -4.88582 22
      vertex 27 -11 22
      vertex 14.5607 -4.56066 22
    endloop
  endfacet
  facet normal -0 0 1
    outer loop
      vertex 13.5 -5 22
      vertex 27 -11 22
      vertex 14.074 -4.88582 22
    endloop
  endfacet
  facet normal 0 0 1
    outer loop
      vertex 0 -11 22
      vertex 13.5 -5 22
      vertex 12.926 -4.88582 22
    endloop
  endfacet
  facet normal 0 0 1
    outer loop
      vertex 0 0.0999994 22
      vertex 12.1142 -4.07402 22
      vertex 12 -3.5 22
    endloop
  endfacet
  facet normal 0 0 1
    outer loop
      vertex 0 -11 22
      vertex 12.1142 -4.07402 22
      vertex 0 0.0999994 22
    endloop
  endfacet
  facet normal 0 0 1
    outer loop
      vertex 12.1142 -4.07402 22
      vertex 0 -11 22
      vertex 12.4393 -4.56066 22
    endloop
  endfacet
  facet normal 0 0 1
    outer loop
      vertex 12.4393 -4.56066 22
      vertex 0 -11 22
      vertex 12.926 -4.88582 22
    endloop
  endfacet
  facet normal 0 0 1
    outer loop
      vertex 13.5 -5 22
      vertex 0 -11 22
      vertex 27 -11 22
    endloop
  endfacet
  facet normal 0 1 0
    outer loop
      vertex 27 0.0999994 22
      vertex 25 0.0999994 20
      vertex 0 0.0999994 22
    endloop
  endfacet
  facet normal 0 1 0
    outer loop
      vertex 27 0.0999994 22
      vertex 25 0.0999994 4
      vertex 25 0.0999994 20
    endloop
  endfacet
  facet normal 0 1 0
    outer loop
      vertex 25 0.0999994 4
      vertex 27 0.0999994 2
      vertex 2 0.0999994 4
    endloop
  endfacet
  facet normal 0 1 -0
    outer loop
      vertex 27 0.0999994 2
      vertex 25 0.0999994 4
      vertex 27 0.0999994 22
    endloop
  endfacet
  facet normal 0 1 -0
    outer loop
      vertex 2 0.0999994 20
      vertex 0 0.0999994 22
      vertex 25 0.0999994 20
    endloop
  endfacet
  facet normal 0 1 -0
    outer loop
      vertex 2 0.0999994 4
      vertex 0 0.0999994 22
      vertex 2 0.0999994 20
    endloop
  endfacet
  facet normal 0 1 0
    outer loop
      vertex 2 0.0999994 4
      vertex 0 0.0999994 2
      vertex 0 0.0999994 22
    endloop
  endfacet
  facet normal 0 1 0
    outer loop
      vertex 0 0.0999994 2
      vertex 2 0.0999994 4
      vertex 27 0.0999994 2
    endloop
  endfacet
  facet normal 1 -0 0
    outer loop
      vertex 27 -11 22
      vertex 27 -13.0791 21.7815
      vertex 27 0 22
    endloop
  endfacet
  facet normal 0 0 -1
    outer loop
      vertex 27 -6.89089 2
      vertex 15 -3.5 2
      vertex 27 0.0999994 2
    endloop
  endfacet
  facet normal 0 0 -1
    outer loop
      vertex 27 -6.89089 2
      vertex 14.8858 -4.07402 2
      vertex 15 -3.5 2
    endloop
  endfacet
  facet normal 0 0 -1
    outer loop
      vertex 27 -6.89089 2
      vertex 14.5607 -4.56066 2
      vertex 14.8858 -4.07402 2
    endloop
  endfacet
  facet normal 0 0 -1
    outer loop
      vertex 27 -6.89089 2
      vertex 14.074 -4.88582 2
      vertex 14.5607 -4.56066 2
    endloop
  endfacet
  facet normal 0 0 -1
    outer loop
      vertex 27 -6.89089 2
      vertex 13.5 -5 2
      vertex 14.074 -4.88582 2
    endloop
  endfacet
  facet normal -0 0 -1
    outer loop
      vertex 12.1142 -4.07402 2
      vertex 0 -6.89089 2
      vertex 12 -3.5 2
    endloop
  endfacet
  facet normal -0 0 -1
    outer loop
      vertex 12.4393 -4.56066 2
      vertex 0 -6.89089 2
      vertex 12.1142 -4.07402 2
    endloop
  endfacet
  facet normal -0 0 -1
    outer loop
      vertex 12.926 -4.88582 2
      vertex 0 -6.89089 2
      vertex 12.4393 -4.56066 2
    endloop
  endfacet
  facet normal -0 0 -1
    outer loop
      vertex 13.5 -5 2
      vertex 0 -6.89089 2
      vertex 12.926 -4.88582 2
    endloop
  endfacet
  facet normal 0 0 -1
    outer loop
      vertex 0 -6.89089 2
      vertex 13.5 -5 2
      vertex 27 -6.89089 2
    endloop
  endfacet
  facet normal 0 0 -1
    outer loop
      vertex 14.8858 -2.92597 2
      vertex 27 0.0999994 2
      vertex 15 -3.5 2
    endloop
  endfacet
  facet normal 0 0 -1
    outer loop
      vertex 14.5607 -2.43934 2
      vertex 27 0.0999994 2
      vertex 14.8858 -2.92597 2
    endloop
  endfacet
  facet normal 0 0 -1
    outer loop
      vertex 14.074 -2.11418 2
      vertex 27 0.0999994 2
      vertex 14.5607 -2.43934 2
    endloop
  endfacet
  facet normal 0 0 -1
    outer loop
      vertex 13.5 -2 2
      vertex 27 0.0999994 2
      vertex 14.074 -2.11418 2
    endloop
  endfacet
  facet normal 0 0 -1
    outer loop
      vertex 0 0.0999994 2
      vertex 12 -3.5 2
      vertex 0 -6.89089 2
    endloop
  endfacet
  facet normal 0 0 -1
    outer loop
      vertex 12 -3.5 2
      vertex 0 0.0999994 2
      vertex 12.1142 -2.92597 2
    endloop
  endfacet
  facet normal 0 0 -1
    outer loop
      vertex 12.1142 -2.92597 2
      vertex 0 0.0999994 2
      vertex 12.4393 -2.43934 2
    endloop
  endfacet
  facet normal 0 0 -1
    outer loop
      vertex 13.5 -2 2
      vertex 0 0.0999994 2
      vertex 27 0.0999994 2
    endloop
  endfacet
  facet normal 0 0 -1
    outer loop
      vertex 12.926 -2.11418 2
      vertex 0 0.0999994 2
      vertex 13.5 -2 2
    endloop
  endfacet
  facet normal 0 0 -1
    outer loop
      vertex 12.4393 -2.43934 2
      vertex 0 0.0999994 2
      vertex 12.926 -2.11418 2
    endloop
  endfacet
  facet normal 1 0 0
    outer loop
      vertex 27 0 22
      vertex 27 -13.0791 21.7815
      vertex 27 -18.4314 18.6913
    endloop
  endfacet
  facet normal 0 0 -1
    outer loop
      vertex 2 0 20
      vertex 25 0.0999994 20
      vertex 25 0 20
    endloop
  endfacet
  facet normal -0 0 -1
    outer loop
      vertex 25 0.0999994 20
      vertex 2 0 20
      vertex 2 0.0999994 20
    endloop
  endfacet
  facet normal -0 0 1
    outer loop
      vertex 2 0.0999994 4
      vertex 25 0 4
      vertex 25 0.0999994 4
    endloop
  endfacet
  facet normal 0 0 1
    outer loop
      vertex 25 0 4
      vertex 2 0.0999994 4
      vertex 2 0 4
    endloop
  endfacet
  facet normal 0 0.866028 -0.499996
    outer loop
      vertex 25 -18.2583 11.5
      vertex 2 -18.2083 11.5866
      vertex 25 -18.2083 11.5866
    endloop
  endfacet
  facet normal 0 0.866028 -0.499996
    outer loop
      vertex 2 -18.2083 11.5866
      vertex 25 -18.2583 11.5
      vertex 2 -18.2583 11.5
    endloop
  endfacet
  facet normal -4.44761e-08 0.419451 -0.907778
    outer loop
      vertex 14.8858 -4.07402 18.1175
      vertex 25 0 20
      vertex 25 -18.2083 11.5866
    endloop
  endfacet
  facet normal 9.33487e-07 0.419449 -0.907779
    outer loop
      vertex 25 0 20
      vertex 14.8858 -4.07402 18.1175
      vertex 15 -3.5 18.3828
    endloop
  endfacet
  facet normal 1.52614e-06 0.419452 -0.907778
    outer loop
      vertex 25 -18.2083 11.5866
      vertex 14.5607 -4.56066 17.8927
      vertex 14.8858 -4.07402 18.1175
    endloop
  endfacet
  facet normal -2.96337e-07 0.419451 -0.907778
    outer loop
      vertex 25 -18.2083 11.5866
      vertex 14.074 -4.88582 17.7424
      vertex 14.5607 -4.56066 17.8927
    endloop
  endfacet
  facet normal 1.43523e-07 0.419451 -0.907778
    outer loop
      vertex 25 -18.2083 11.5866
      vertex 13.5 -5 17.6897
      vertex 14.074 -4.88582 17.7424
    endloop
  endfacet
  facet normal 0 0.419451 -0.907778
    outer loop
      vertex 2 -18.2083 11.5866
      vertex 13.5 -5 17.6897
      vertex 25 -18.2083 11.5866
    endloop
  endfacet
  facet normal -1.43523e-07 0.419451 -0.907778
    outer loop
      vertex 13.5 -5 17.6897
      vertex 2 -18.2083 11.5866
      vertex 12.926 -4.88582 17.7424
    endloop
  endfacet
  facet normal 4.44761e-08 0.419451 -0.907778
    outer loop
      vertex 2 0 20
      vertex 12.1142 -4.07402 18.1175
      vertex 2 -18.2083 11.5866
    endloop
  endfacet
  facet normal -1.52614e-06 0.419452 -0.907778
    outer loop
      vertex 12.4393 -4.56066 17.8927
      vertex 2 -18.2083 11.5866
      vertex 12.1142 -4.07402 18.1175
    endloop
  endfacet
  facet normal 2.96337e-07 0.419451 -0.907778
    outer loop
      vertex 12.926 -4.88582 17.7424
      vertex 2 -18.2083 11.5866
      vertex 12.4393 -4.56066 17.8927
    endloop
  endfacet
  facet normal 5.29939e-08 0.419451 -0.907778
    outer loop
      vertex 14.8858 -2.92597 18.648
      vertex 25 0 20
      vertex 15 -3.5 18.3828
    endloop
  endfacet
  facet normal -4.53991e-07 0.419452 -0.907777
    outer loop
      vertex 14.5607 -2.43934 18.8729
      vertex 25 0 20
      vertex 14.8858 -2.92597 18.648
    endloop
  endfacet
  facet normal 1.05787e-07 0.41945 -0.907778
    outer loop
      vertex 14.074 -2.11418 19.0231
      vertex 25 0 20
      vertex 14.5607 -2.43934 18.8729
    endloop
  endfacet
  facet normal -4.24131e-07 0.419453 -0.907777
    outer loop
      vertex 13.5 -2 19.0759
      vertex 25 0 20
      vertex 14.074 -2.11418 19.0231
    endloop
  endfacet
  facet normal -9.33486e-07 0.419449 -0.907779
    outer loop
      vertex 12.1142 -4.07402 18.1175
      vertex 2 0 20
      vertex 12 -3.5 18.3828
    endloop
  endfacet
  facet normal 0 0.419451 -0.907778
    outer loop
      vertex 13.5 -2 19.0759
      vertex 2 0 20
      vertex 25 0 20
    endloop
  endfacet
  facet normal 4.24131e-07 0.419453 -0.907777
    outer loop
      vertex 12.926 -2.11418 19.0231
      vertex 2 0 20
      vertex 13.5 -2 19.0759
    endloop
  endfacet
  facet normal -1.05787e-07 0.41945 -0.907778
    outer loop
      vertex 12.4393 -2.43934 18.8729
      vertex 2 0 20
      vertex 12.926 -2.11418 19.0231
    endloop
  endfacet
  facet normal 4.53991e-07 0.419452 -0.907777
    outer loop
      vertex 12.1142 -2.92597 18.648
      vertex 2 0 20
      vertex 12.4393 -2.43934 18.8729
    endloop
  endfacet
  facet normal -5.29939e-08 0.419451 -0.907778
    outer loop
      vertex 12 -3.5 18.3828
      vertex 2 0 20
      vertex 12.1142 -2.92597 18.648
    endloop
  endfacet
  facet normal -0 0.5 0.866025
    outer loop
      vertex 2 -17.3679 10.9859
      vertex 25 -18.2583 11.5
      vertex 25 -17.3679 10.9859
    endloop
  endfacet
  facet normal 0 0.5 0.866025
    outer loop
      vertex 25 -18.2583 11.5
      vertex 2 -17.3679 10.9859
      vertex 2 -18.2583 11.5
    endloop
  endfacet
  facet normal 1 -0 0
    outer loop
      vertex 2 0 20
      vertex 2 0.0999994 4
      vertex 2 0.0999994 20
    endloop
  endfacet
  facet normal 1 0 0
    outer loop
      vertex 2 0 20
      vertex 2 0 4
      vertex 2 0.0999994 4
    endloop
  endfacet
  facet normal 1 0 0
    outer loop
      vertex 2 0 20
      vertex 2 -6.12453 4.87493
      vertex 2 0 4
    endloop
  endfacet
  facet normal 1 0 0
    outer loop
      vertex 2 0 20
      vertex 2 -17.3679 10.9859
      vertex 2 -6.12453 4.87493
    endloop
  endfacet
  facet normal 1 -0 0
    outer loop
      vertex 2 -18.2083 11.5866
      vertex 2 -17.3679 10.9859
      vertex 2 0 20
    endloop
  endfacet
  facet normal 1 0 0
    outer loop
      vertex 2 -17.3679 10.9859
      vertex 2 -18.2083 11.5866
      vertex 2 -18.2583 11.5
    endloop
  endfacet
  facet normal 1 0 0
    outer loop
      vertex 2 -20.7912 -5.07874
      vertex 2 -6.12453 4.87493
      vertex 2 -17.3679 10.9859
    endloop
  endfacet
  facet normal 1 0 0
    outer loop
      vertex 2 -6.12453 4.87493
      vertex 2 -20.7912 -5.07874
      vertex 2 -19.5182 -8.57629
    endloop
  endfacet
  facet normal -1 0 0
    outer loop
      vertex 25 -20.7912 -5.07874
      vertex 25 -6.12453 4.87493
      vertex 25 -19.5182 -8.57629
    endloop
  endfacet
  facet normal -1 -0 0
    outer loop
      vertex 25 -6.12453 4.87493
      vertex 25 -20.7912 -5.07874
      vertex 25 -17.3679 10.9859
    endloop
  endfacet
  facet normal -1 0 0
    outer loop
      vertex 25 0 4
      vertex 25 0.0999994 20
      vertex 25 0.0999994 4
    endloop
  endfacet
  facet normal -1 0 0
    outer loop
      vertex 25 0 4
      vertex 25 0 20
      vertex 25 0.0999994 20
    endloop
  endfacet
  facet normal -1 0 0
    outer loop
      vertex 25 -6.12453 4.87493
      vertex 25 0 20
      vertex 25 0 4
    endloop
  endfacet
  facet normal -1 0 0
    outer loop
      vertex 25 -17.3679 10.9859
      vertex 25 0 20
      vertex 25 -6.12453 4.87493
    endloop
  endfacet
  facet normal -1 0 0
    outer loop
      vertex 25 -17.3679 10.9859
      vertex 25 -18.2083 11.5866
      vertex 25 0 20
    endloop
  endfacet
  facet normal -1 0 -0
    outer loop
      vertex 25 -18.2083 11.5866
      vertex 25 -17.3679 10.9859
      vertex 25 -18.2583 11.5
    endloop
  endfacet
  facet normal -7.70744e-09 0.141421 0.989949
    outer loop
      vertex 25 0 4
      vertex 15 -3.5 4.5
      vertex 25 -6.12453 4.87493
    endloop
  endfacet
  facet normal 0 0.141421 0.989949
    outer loop
      vertex 25 0 4
      vertex 14.8858 -2.92597 4.418
      vertex 15 -3.5 4.5
    endloop
  endfacet
  facet normal -1.00784e-07 0.141422 0.989949
    outer loop
      vertex 25 0 4
      vertex 14.5607 -2.43934 4.34848
      vertex 14.8858 -2.92597 4.418
    endloop
  endfacet
  facet normal 9.33554e-08 0.141421 0.98995
    outer loop
      vertex 25 0 4
      vertex 14.074 -2.11418 4.30203
      vertex 14.5607 -2.43934 4.34848
    endloop
  endfacet
  facet normal -1.15857e-07 0.141422 0.989949
    outer loop
      vertex 25 0 4
      vertex 13.5 -2 4.28571
      vertex 14.074 -2.11418 4.30203
    endloop
  endfacet
  facet normal 0 0.141421 0.989949
    outer loop
      vertex 12.1142 -2.92597 4.418
      vertex 2 0 4
      vertex 12 -3.5 4.5
    endloop
  endfacet
  facet normal 1.00784e-07 0.141422 0.989949
    outer loop
      vertex 12.4393 -2.43934 4.34848
      vertex 2 0 4
      vertex 12.1142 -2.92597 4.418
    endloop
  endfacet
  facet normal -9.33554e-08 0.141421 0.98995
    outer loop
      vertex 12.926 -2.11418 4.30203
      vertex 2 0 4
      vertex 12.4393 -2.43934 4.34848
    endloop
  endfacet
  facet normal 1.15857e-07 0.141422 0.989949
    outer loop
      vertex 13.5 -2 4.28571
      vertex 2 0 4
      vertex 12.926 -2.11418 4.30203
    endloop
  endfacet
  facet normal -0 0.141421 0.98995
    outer loop
      vertex 2 0 4
      vertex 13.5 -2 4.28571
      vertex 25 0 4
    endloop
  endfacet
  facet normal 4.57874e-08 0.141422 0.989949
    outer loop
      vertex 14.8858 -4.07402 4.582
      vertex 25 -6.12453 4.87493
      vertex 15 -3.5 4.5
    endloop
  endfacet
  facet normal -9.89689e-08 0.141421 0.98995
    outer loop
      vertex 14.5607 -4.56066 4.65152
      vertex 25 -6.12453 4.87493
      vertex 14.8858 -4.07402 4.582
    endloop
  endfacet
  facet normal 8.04071e-08 0.141422 0.989949
    outer loop
      vertex 14.074 -4.88582 4.69797
      vertex 25 -6.12453 4.87493
      vertex 14.5607 -4.56066 4.65152
    endloop
  endfacet
  facet normal 0 0.141421 0.989949
    outer loop
      vertex 13.5 -5 4.71429
      vertex 25 -6.12453 4.87493
      vertex 14.074 -4.88582 4.69797
    endloop
  endfacet
  facet normal 7.70744e-09 0.141421 0.989949
    outer loop
      vertex 2 -6.12453 4.87493
      vertex 12 -3.5 4.5
      vertex 2 0 4
    endloop
  endfacet
  facet normal -4.57874e-08 0.141422 0.989949
    outer loop
      vertex 12 -3.5 4.5
      vertex 2 -6.12453 4.87493
      vertex 12.1142 -4.07402 4.582
    endloop
  endfacet
  facet normal 9.8969e-08 0.141421 0.98995
    outer loop
      vertex 12.1142 -4.07402 4.582
      vertex 2 -6.12453 4.87493
      vertex 12.4393 -4.56066 4.65152
    endloop
  endfacet
  facet normal 0 0.141421 0.989949
    outer loop
      vertex 13.5 -5 4.71429
      vertex 2 -6.12453 4.87493
      vertex 25 -6.12453 4.87493
    endloop
  endfacet
  facet normal 0 0.141421 0.989949
    outer loop
      vertex 12.926 -4.88582 4.69797
      vertex 2 -6.12453 4.87493
      vertex 13.5 -5 4.71429
    endloop
  endfacet
  facet normal -8.04071e-08 0.141422 0.989949
    outer loop
      vertex 12.4393 -4.56066 4.65152
      vertex 2 -6.12453 4.87493
      vertex 12.926 -4.88582 4.69797
    endloop
  endfacet
  facet normal 0 0.97804 -0.208416
    outer loop
      vertex 25 -20.7912 -5.07874
      vertex 2 -17.3679 10.9859
      vertex 25 -17.3679 10.9859
    endloop
  endfacet
  facet normal 0 0.97804 -0.208416
    outer loop
      vertex 2 -17.3679 10.9859
      vertex 25 -20.7912 -5.07874
      vertex 2 -20.7912 -5.07874
    endloop
  endfacet
  facet normal 0 -0.708621 0.705589
    outer loop
      vertex 2 -19.5182 -8.57629
      vertex 25 -6.12453 4.87493
      vertex 2 -6.12453 4.87493
    endloop
  endfacet
  facet normal 0 -0.708621 0.705589
    outer loop
      vertex 25 -6.12453 4.87493
      vertex 2 -19.5182 -8.57629
      vertex 25 -19.5182 -8.57629
    endloop
  endfacet
  facet normal -0.980785 -0.195092 0
    outer loop
      vertex 15 -3.5 2
      vertex 14.8858 -2.92597 4.418
      vertex 14.8858 -2.92597 2
    endloop
  endfacet
  facet normal -0.980785 -0.195092 0
    outer loop
      vertex 14.8858 -2.92597 4.418
      vertex 15 -3.5 2
      vertex 15 -3.5 4.5
    endloop
  endfacet
  facet normal -0.980785 -0.195092 -0
    outer loop
      vertex 15 -3.5 22
      vertex 14.8858 -2.92597 18.648
      vertex 15 -3.5 18.3828
    endloop
  endfacet
  facet normal -0.980785 -0.195092 0
    outer loop
      vertex 14.8858 -2.92597 18.648
      vertex 15 -3.5 22
      vertex 14.8858 -2.92597 22
    endloop
  endfacet
  facet normal 0.980785 0.19509 -0
    outer loop
      vertex 12.1142 -4.07402 2
      vertex 12 -3.5 4.5
      vertex 12.1142 -4.07402 4.582
    endloop
  endfacet
  facet normal 0.980785 0.19509 0
    outer loop
      vertex 12 -3.5 4.5
      vertex 12.1142 -4.07402 2
      vertex 12 -3.5 2
    endloop
  endfacet
  facet normal 0.980785 0.19509 0
    outer loop
      vertex 12.1142 -4.07402 22
      vertex 12 -3.5 18.3828
      vertex 12 -3.5 22
    endloop
  endfacet
  facet normal 0.980785 0.19509 0
    outer loop
      vertex 12 -3.5 18.3828
      vertex 12.1142 -4.07402 22
      vertex 12.1142 -4.07402 18.1175
    endloop
  endfacet
  facet normal -0.195092 0.980785 0
    outer loop
      vertex 13.5 -5 2
      vertex 14.074 -4.88582 4.69797
      vertex 14.074 -4.88582 2
    endloop
  endfacet
  facet normal -0.195092 0.980785 0
    outer loop
      vertex 14.074 -4.88582 4.69797
      vertex 13.5 -5 2
      vertex 13.5 -5 4.71429
    endloop
  endfacet
  facet normal -0.195092 0.980785 0
    outer loop
      vertex 14.074 -4.88582 17.7424
      vertex 13.5 -5 22
      vertex 14.074 -4.88582 22
    endloop
  endfacet
  facet normal -0.195092 0.980785 0
    outer loop
      vertex 13.5 -5 22
      vertex 14.074 -4.88582 17.7424
      vertex 13.5 -5 17.6897
    endloop
  endfacet
  facet normal 0.19509 -0.980785 0
    outer loop
      vertex 12.926 -2.11418 2
      vertex 13.5 -2 4.28571
      vertex 12.926 -2.11418 4.30203
    endloop
  endfacet
  facet normal 0.19509 -0.980785 0
    outer loop
      vertex 13.5 -2 4.28571
      vertex 12.926 -2.11418 2
      vertex 13.5 -2 2
    endloop
  endfacet
  facet normal 0.19509 -0.980785 0
    outer loop
      vertex 12.926 -2.11418 22
      vertex 13.5 -2 19.0759
      vertex 13.5 -2 22
    endloop
  endfacet
  facet normal 0.19509 -0.980785 0
    outer loop
      vertex 13.5 -2 19.0759
      vertex 12.926 -2.11418 22
      vertex 12.926 -2.11418 19.0231
    endloop
  endfacet
  facet normal -0.55557 -0.83147 0
    outer loop
      vertex 14.5607 -2.43934 2
      vertex 14.074 -2.11418 4.30203
      vertex 14.074 -2.11418 2
    endloop
  endfacet
  facet normal -0.55557 -0.83147 0
    outer loop
      vertex 14.074 -2.11418 4.30203
      vertex 14.5607 -2.43934 2
      vertex 14.5607 -2.43934 4.34848
    endloop
  endfacet
  facet normal -0.55557 -0.83147 0
    outer loop
      vertex 14.074 -2.11418 19.0231
      vertex 14.5607 -2.43934 22
      vertex 14.074 -2.11418 22
    endloop
  endfacet
  facet normal -0.55557 -0.83147 -0
    outer loop
      vertex 14.5607 -2.43934 22
      vertex 14.074 -2.11418 19.0231
      vertex 14.5607 -2.43934 18.8729
    endloop
  endfacet
  facet normal -0.83147 -0.55557 0
    outer loop
      vertex 14.8858 -2.92597 2
      vertex 14.5607 -2.43934 4.34848
      vertex 14.5607 -2.43934 2
    endloop
  endfacet
  facet normal -0.83147 -0.55557 0
    outer loop
      vertex 14.5607 -2.43934 4.34848
      vertex 14.8858 -2.92597 2
      vertex 14.8858 -2.92597 4.418
    endloop
  endfacet
  facet normal -0.83147 -0.55557 -0
    outer loop
      vertex 14.8858 -2.92597 22
      vertex 14.5607 -2.43934 18.8729
      vertex 14.8858 -2.92597 18.648
    endloop
  endfacet
  facet normal -0.83147 -0.55557 0
    outer loop
      vertex 14.5607 -2.43934 18.8729
      vertex 14.8858 -2.92597 22
      vertex 14.5607 -2.43934 22
    endloop
  endfacet
  facet normal -0.19509 -0.980785 0
    outer loop
      vertex 14.074 -2.11418 2
      vertex 13.5 -2 4.28571
      vertex 13.5 -2 2
    endloop
  endfacet
  facet normal -0.19509 -0.980785 0
    outer loop
      vertex 13.5 -2 4.28571
      vertex 14.074 -2.11418 2
      vertex 14.074 -2.11418 4.30203
    endloop
  endfacet
  facet normal -0.19509 -0.980785 0
    outer loop
      vertex 13.5 -2 19.0759
      vertex 14.074 -2.11418 22
      vertex 13.5 -2 22
    endloop
  endfacet
  facet normal -0.19509 -0.980785 -0
    outer loop
      vertex 14.074 -2.11418 22
      vertex 13.5 -2 19.0759
      vertex 14.074 -2.11418 19.0231
    endloop
  endfacet
  facet normal 0.83147 -0.55557 0
    outer loop
      vertex 12.1142 -2.92597 2
      vertex 12.4393 -2.43934 4.34848
      vertex 12.1142 -2.92597 4.418
    endloop
  endfacet
  facet normal 0.83147 -0.55557 0
    outer loop
      vertex 12.4393 -2.43934 4.34848
      vertex 12.1142 -2.92597 2
      vertex 12.4393 -2.43934 2
    endloop
  endfacet
  facet normal 0.83147 -0.55557 0
    outer loop
      vertex 12.1142 -2.92597 22
      vertex 12.4393 -2.43934 18.8729
      vertex 12.4393 -2.43934 22
    endloop
  endfacet
  facet normal 0.83147 -0.55557 0
    outer loop
      vertex 12.4393 -2.43934 18.8729
      vertex 12.1142 -2.92597 22
      vertex 12.1142 -2.92597 18.648
    endloop
  endfacet
  facet normal 0.980785 -0.19509 0
    outer loop
      vertex 12 -3.5 2
      vertex 12.1142 -2.92597 4.418
      vertex 12 -3.5 4.5
    endloop
  endfacet
  facet normal 0.980785 -0.19509 0
    outer loop
      vertex 12.1142 -2.92597 4.418
      vertex 12 -3.5 2
      vertex 12.1142 -2.92597 2
    endloop
  endfacet
  facet normal 0.980785 -0.19509 0
    outer loop
      vertex 12 -3.5 22
      vertex 12.1142 -2.92597 18.648
      vertex 12.1142 -2.92597 22
    endloop
  endfacet
  facet normal 0.980785 -0.19509 0
    outer loop
      vertex 12.1142 -2.92597 18.648
      vertex 12 -3.5 22
      vertex 12 -3.5 18.3828
    endloop
  endfacet
  facet normal 0.55557 -0.83147 0
    outer loop
      vertex 12.4393 -2.43934 2
      vertex 12.926 -2.11418 4.30203
      vertex 12.4393 -2.43934 4.34848
    endloop
  endfacet
  facet normal 0.55557 -0.83147 0
    outer loop
      vertex 12.926 -2.11418 4.30203
      vertex 12.4393 -2.43934 2
      vertex 12.926 -2.11418 2
    endloop
  endfacet
  facet normal 0.55557 -0.83147 0
    outer loop
      vertex 12.4393 -2.43934 22
      vertex 12.926 -2.11418 19.0231
      vertex 12.926 -2.11418 22
    endloop
  endfacet
  facet normal 0.55557 -0.83147 0
    outer loop
      vertex 12.926 -2.11418 19.0231
      vertex 12.4393 -2.43934 22
      vertex 12.4393 -2.43934 18.8729
    endloop
  endfacet
  facet normal -0.980785 0.195092 0
    outer loop
      vertex 14.8858 -4.07402 2
      vertex 15 -3.5 4.5
      vertex 15 -3.5 2
    endloop
  endfacet
  facet normal -0.980785 0.195092 0
    outer loop
      vertex 15 -3.5 4.5
      vertex 14.8858 -4.07402 2
      vertex 14.8858 -4.07402 4.582
    endloop
  endfacet
  facet normal -0.980785 0.195092 0
    outer loop
      vertex 14.8858 -4.07402 22
      vertex 15 -3.5 18.3828
      vertex 14.8858 -4.07402 18.1175
    endloop
  endfacet
  facet normal -0.980785 0.195092 0
    outer loop
      vertex 15 -3.5 18.3828
      vertex 14.8858 -4.07402 22
      vertex 15 -3.5 22
    endloop
  endfacet
  facet normal -0.55557 0.83147 0
    outer loop
      vertex 14.074 -4.88582 2
      vertex 14.5607 -4.56066 4.65152
      vertex 14.5607 -4.56066 2
    endloop
  endfacet
  facet normal -0.55557 0.83147 0
    outer loop
      vertex 14.5607 -4.56066 4.65152
      vertex 14.074 -4.88582 2
      vertex 14.074 -4.88582 4.69797
    endloop
  endfacet
  facet normal -0.55557 0.83147 0
    outer loop
      vertex 14.5607 -4.56066 17.8927
      vertex 14.074 -4.88582 22
      vertex 14.5607 -4.56066 22
    endloop
  endfacet
  facet normal -0.55557 0.83147 0
    outer loop
      vertex 14.074 -4.88582 22
      vertex 14.5607 -4.56066 17.8927
      vertex 14.074 -4.88582 17.7424
    endloop
  endfacet
  facet normal 0.195092 0.980785 -0
    outer loop
      vertex 13.5 -5 2
      vertex 12.926 -4.88582 4.69797
      vertex 13.5 -5 4.71429
    endloop
  endfacet
  facet normal 0.195092 0.980785 0
    outer loop
      vertex 12.926 -4.88582 4.69797
      vertex 13.5 -5 2
      vertex 12.926 -4.88582 2
    endloop
  endfacet
  facet normal 0.195092 0.980785 0
    outer loop
      vertex 13.5 -5 22
      vertex 12.926 -4.88582 17.7424
      vertex 12.926 -4.88582 22
    endloop
  endfacet
  facet normal 0.195092 0.980785 0
    outer loop
      vertex 12.926 -4.88582 17.7424
      vertex 13.5 -5 22
      vertex 13.5 -5 17.6897
    endloop
  endfacet
  facet normal 0.55557 0.83147 -0
    outer loop
      vertex 12.926 -4.88582 2
      vertex 12.4393 -4.56066 4.65152
      vertex 12.926 -4.88582 4.69797
    endloop
  endfacet
  facet normal 0.55557 0.83147 0
    outer loop
      vertex 12.4393 -4.56066 4.65152
      vertex 12.926 -4.88582 2
      vertex 12.4393 -4.56066 2
    endloop
  endfacet
  facet normal 0.55557 0.83147 0
    outer loop
      vertex 12.926 -4.88582 22
      vertex 12.4393 -4.56066 17.8927
      vertex 12.4393 -4.56066 22
    endloop
  endfacet
  facet normal 0.55557 0.83147 0
    outer loop
      vertex 12.4393 -4.56066 17.8927
      vertex 12.926 -4.88582 22
      vertex 12.926 -4.88582 17.7424
    endloop
  endfacet
  facet normal 0.83147 0.55557 -0
    outer loop
      vertex 12.4393 -4.56066 2
      vertex 12.1142 -4.07402 4.582
      vertex 12.4393 -4.56066 4.65152
    endloop
  endfacet
  facet normal 0.83147 0.55557 0
    outer loop
      vertex 12.1142 -4.07402 4.582
      vertex 12.4393 -4.56066 2
      vertex 12.1142 -4.07402 2
    endloop
  endfacet
  facet normal 0.83147 0.55557 0
    outer loop
      vertex 12.4393 -4.56066 22
      vertex 12.1142 -4.07402 18.1175
      vertex 12.1142 -4.07402 22
    endloop
  endfacet
  facet normal 0.83147 0.55557 0
    outer loop
      vertex 12.1142 -4.07402 18.1175
      vertex 12.4393 -4.56066 22
      vertex 12.4393 -4.56066 17.8927
    endloop
  endfacet
  facet normal -0.83147 0.55557 0
    outer loop
      vertex 14.5607 -4.56066 2
      vertex 14.8858 -4.07402 4.582
      vertex 14.8858 -4.07402 2
    endloop
  endfacet
  facet normal -0.83147 0.55557 0
    outer loop
      vertex 14.8858 -4.07402 4.582
      vertex 14.5607 -4.56066 2
      vertex 14.5607 -4.56066 4.65152
    endloop
  endfacet
  facet normal -0.83147 0.55557 0
    outer loop
      vertex 14.5607 -4.56066 22
      vertex 14.8858 -4.07402 18.1175
      vertex 14.5607 -4.56066 17.8927
    endloop
  endfacet
  facet normal -0.83147 0.55557 0
    outer loop
      vertex 14.8858 -4.07402 18.1175
      vertex 14.5607 -4.56066 22
      vertex 14.8858 -4.07402 22
    endloop
  endfacet
endsolid OpenSCAD_Model
