<?xml version="1.0" standalone="no"?>
<!DOCTYPE svg PUBLIC "-//W3C//DTD SVG 1.1//EN" "http://www.w3.org/Graphics/SVG/1.1/DTD/svg11.dtd">
<svg width="220mm" height="220mm" viewBox="-110 -110 220 220" xmlns="http://www.w3.org/2000/svg" version="1.1">
<title>OpenSCAD Model</title>
<path d="
M 102.079,109.781 L 104.067,109.135 L 105.878,108.09 L 107.431,106.691 L 108.66,105 L 109.511,103.09
 L 110,100 L 110,-100 L 109.781,-102.079 L 109.135,-104.067 L 108.09,-105.878 L 106.691,-107.431
 L 105,-108.66 L 103.09,-109.511 L 100,-110 L -100,-110 L -102.079,-109.781 L -104.067,-109.135
 L -105.878,-108.09 L -107.431,-106.691 L -108.66,-105 L -109.511,-103.09 L -110,-100 L -110,100
 L -109.781,102.079 L -109.135,104.067 L -108.09,105.878 L -106.691,107.431 L -105,108.66 L -103.09,109.511
 L -100,110 L 100,110 z
M 98.1981,-99.1322 L 98.1981,-100.868 L 99.5549,-101.95 L 101.247,-101.564 L 102,-100 L 101.247,-98.4363
 L 99.5549,-98.0501 z
M -101.802,-99.1322 L -101.802,-100.868 L -100.445,-101.95 L -98.753,-101.564 L -98,-100 L -98.753,-98.4363
 L -100.445,-98.0501 z
M 15,-5 L 11.9098,-5.48944 L 10,-6.33975 L 8.3087,-7.56856 L 6.90984,-9.12215 L 5.86455,-10.9326
 L 5.21852,-12.9209 L 5,-15 L 5,-85 L 5.48944,-88.0902 L 6.33975,-90 L 7.56856,-91.6913
 L 9.12215,-93.0902 L 10.9326,-94.1355 L 12.9209,-94.7815 L 15,-95 L 85,-95 L 88.0902,-94.5106
 L 90,-93.6602 L 91.6913,-92.4314 L 93.0902,-90.8779 L 94.1355,-89.0674 L 94.7815,-87.0791 L 95,-85
 L 95,-15 L 94.5106,-11.9098 L 93.6602,-10 L 92.4314,-8.3087 L 90.8779,-6.90984 L 89.0674,-5.86455
 L 87.0791,-5.21852 L 85,-5 z
M -85,-5 L -88.0902,-5.48944 L -90,-6.33975 L -91.6913,-7.56856 L -93.0902,-9.12215 L -94.1355,-10.9326
 L -94.7815,-12.9209 L -95,-15 L -95,-85 L -94.5106,-88.0902 L -93.6602,-90 L -92.4314,-91.6913
 L -90.8779,-93.0902 L -89.0674,-94.1355 L -87.0791,-94.7815 L -85,-95 L -15,-95 L -11.9098,-94.5106
 L -10,-93.6602 L -8.3087,-92.4314 L -6.90984,-90.8779 L -5.86455,-89.0674 L -5.21852,-87.0791 L -5,-85
 L -5,-15 L -5.48944,-11.9098 L -6.33975,-10 L -7.56856,-8.3087 L -9.12215,-6.90984 L -10.9326,-5.86455
 L -12.9209,-5.21852 L -15,-5 z
M -1.80193,0.867767 L -1.80193,-0.867767 L -0.445038,-1.94984 L 1.24698,-1.56366 L 2,-0 L 1.24698,1.56366
 L -0.445038,1.94984 z
M 15,95 L 11.9098,94.5106 L 10,93.6602 L 8.3087,92.4314 L 6.90984,90.8779 L 5.86455,89.0674
 L 5.21852,87.0791 L 5,85 L 5,15 L 5.48944,11.9098 L 6.33975,10 L 7.56856,8.3087
 L 9.12215,6.90984 L 10.9326,5.86455 L 12.9209,5.21852 L 15,5 L 85,5 L 88.0902,5.48944
 L 90,6.33975 L 91.6913,7.56856 L 93.0902,9.12215 L 94.1355,10.9326 L 94.7815,12.9209 L 95,15
 L 95,85 L 94.5106,88.0902 L 93.6602,90 L 92.4314,91.6913 L 90.8779,93.0902 L 89.0674,94.1355
 L 87.0791,94.7815 L 85,95 z
M -85,95 L -88.0902,94.5106 L -90,93.6602 L -91.6913,92.4314 L -93.0902,90.8779 L -94.1355,89.0674
 L -94.7815,87.0791 L -95,85 L -95,15 L -94.5106,11.9098 L -93.6602,10 L -92.4314,8.3087
 L -90.8779,6.90984 L -89.0674,5.86455 L -87.0791,5.21852 L -85,5 L -15,5 L -11.9098,5.48944
 L -10,6.33975 L -8.3087,7.56856 L -6.90984,9.12215 L -5.86455,10.9326 L -5.21852,12.9209 L -5,15
 L -5,85 L -5.48944,88.0902 L -6.33975,90 L -7.56856,91.6913 L -9.12215,93.0902 L -10.9326,94.1355
 L -12.9209,94.7815 L -15,95 z
M 98.1981,100.868 L 98.1981,99.1322 L 99.5549,98.0501 L 101.247,98.4363 L 102,100 L 101.247,101.564
 L 99.5549,101.95 z
M -101.802,100.868 L -101.802,99.1322 L -100.445,98.0501 L -98.753,98.4363 L -98,100 L -98.753,101.564
 L -100.445,101.95 z
" stroke="black" fill="lightgray" stroke-width="0.5"/>
</svg>
