solid OpenSCAD_Model
  facet normal -0.406738 -0.913545 0
    outer loop
      vertex -17.5 -30.3109 0
      vertex -10.8156 -33.287 10
      vertex -17.5 -30.3109 10
    endloop
  endfacet
  facet normal -0.406738 -0.913545 -0
    outer loop
      vertex -10.8156 -33.287 10
      vertex -17.5 -30.3109 0
      vertex -10.8156 -33.287 0
    endloop
  endfacet
  facet normal -0.743147 -0.669128 0
    outer loop
      vertex -23.4196 -26.0101 0
      vertex -28.3156 -20.5725 10
      vertex -28.3156 -20.5725 0
    endloop
  endfacet
  facet normal -0.743147 -0.669128 0
    outer loop
      vertex -28.3156 -20.5725 10
      vertex -23.4196 -26.0101 0
      vertex -23.4196 -26.0101 10
    endloop
  endfacet
  facet normal 0.994522 -0.104524 0
    outer loop
      vertex 34.2352 -7.27691 10
      vertex 35 0 0
      vertex 35 0 10
    endloop
  endfacet
  facet normal 0.994522 -0.104524 0
    outer loop
      vertex 35 0 0
      vertex 34.2352 -7.27691 10
      vertex 34.2352 -7.27691 0
    endloop
  endfacet
  facet normal 0.866025 -0.5 0
    outer loop
      vertex 28.3156 -20.5725 10
      vertex 31.9741 -14.2358 0
      vertex 31.9741 -14.2358 10
    endloop
  endfacet
  facet normal 0.866025 -0.5 0
    outer loop
      vertex 31.9741 -14.2358 0
      vertex 28.3156 -20.5725 10
      vertex 28.3156 -20.5725 0
    endloop
  endfacet
  facet normal 0 0 1
    outer loop
      vertex 25 35 10
      vertex 21.7467 24.1522 10
      vertex 25 25 10
    endloop
  endfacet
  facet normal 0 0 1
    outer loop
      vertex 25 35 10
      vertex 16.25 28.1458 10
      vertex 21.7467 24.1522 10
    endloop
  endfacet
  facet normal 0 0 1
    outer loop
      vertex 25 35 10
      vertex 10.0431 30.9093 10
      vertex 16.25 28.1458 10
    endloop
  endfacet
  facet normal 0 0 1
    outer loop
      vertex 25 35 10
      vertex 3.39717 32.322 10
      vertex 10.0431 30.9093 10
    endloop
  endfacet
  facet normal 0 0 1
    outer loop
      vertex 25 35 10
      vertex -3.39717 32.322 10
      vertex 3.39717 32.322 10
    endloop
  endfacet
  facet normal -0 0 1
    outer loop
      vertex -25 35 10
      vertex -3.39717 32.322 10
      vertex 25 35 10
    endloop
  endfacet
  facet normal 0 0 1
    outer loop
      vertex -25 35 10
      vertex -10.0431 30.9093 10
      vertex -3.39717 32.322 10
    endloop
  endfacet
  facet normal 0 0 1
    outer loop
      vertex -25 35 10
      vertex -16.25 28.1458 10
      vertex -10.0431 30.9093 10
    endloop
  endfacet
  facet normal 0 0 1
    outer loop
      vertex -25 35 10
      vertex -21.7467 24.1522 10
      vertex -16.25 28.1458 10
    endloop
  endfacet
  facet normal -0 0 1
    outer loop
      vertex -25 25 10
      vertex -21.7467 24.1522 10
      vertex -25 35 10
    endloop
  endfacet
  facet normal 0 0 1
    outer loop
      vertex -25 25 10
      vertex -26.2931 19.103 10
      vertex -21.7467 24.1522 10
    endloop
  endfacet
  facet normal -0 0 1
    outer loop
      vertex -35 25 10
      vertex -26.2931 19.103 10
      vertex -25 25 10
    endloop
  endfacet
  facet normal 0 0 1
    outer loop
      vertex -35 0 10
      vertex -32.5 0 10
      vertex -31.7898 6.75713 10
    endloop
  endfacet
  facet normal 0 0 1
    outer loop
      vertex -26.2931 19.103 10
      vertex -35 25 10
      vertex -29.6902 13.2189 10
    endloop
  endfacet
  facet normal 0 0 1
    outer loop
      vertex -35 25 10
      vertex -31.7898 6.75713 10
      vertex -29.6902 13.2189 10
    endloop
  endfacet
  facet normal 0 0 1
    outer loop
      vertex -35 0 10
      vertex -31.7898 6.75713 10
      vertex -35 25 10
    endloop
  endfacet
  facet normal 0 0 1
    outer loop
      vertex -32.5 0 10
      vertex -35 0 10
      vertex -34.2352 -7.27691 10
    endloop
  endfacet
  facet normal -0 0 1
    outer loop
      vertex 31.7898 6.75713 10
      vertex 35 0 10
      vertex 35 25 10
    endloop
  endfacet
  facet normal 0 0 1
    outer loop
      vertex 35 0 10
      vertex 32.5 0 10
      vertex 34.2352 -7.27691 10
    endloop
  endfacet
  facet normal 0 0 1
    outer loop
      vertex 35 0 10
      vertex 31.7898 6.75713 10
      vertex 32.5 0 10
    endloop
  endfacet
  facet normal 0 0 1
    outer loop
      vertex 35 25 10
      vertex 29.6902 13.2189 10
      vertex 31.7898 6.75713 10
    endloop
  endfacet
  facet normal 0 0 1
    outer loop
      vertex 35 25 10
      vertex 26.2931 19.103 10
      vertex 29.6902 13.2189 10
    endloop
  endfacet
  facet normal -0 0 1
    outer loop
      vertex 25 25 10
      vertex 26.2931 19.103 10
      vertex 35 25 10
    endloop
  endfacet
  facet normal 0 0 1
    outer loop
      vertex 26.2931 19.103 10
      vertex 25 25 10
      vertex 21.7467 24.1522 10
    endloop
  endfacet
  facet normal -0 0 1
    outer loop
      vertex 31.7898 -6.75713 10
      vertex 34.2352 -7.27691 10
      vertex 32.5 0 10
    endloop
  endfacet
  facet normal 0 0 1
    outer loop
      vertex 34.2352 -7.27691 10
      vertex 31.7898 -6.75713 10
      vertex 31.9741 -14.2358 10
    endloop
  endfacet
  facet normal -0 0 1
    outer loop
      vertex 29.6902 -13.2189 10
      vertex 31.9741 -14.2358 10
      vertex 31.7898 -6.75713 10
    endloop
  endfacet
  facet normal 0 0 1
    outer loop
      vertex 29.6902 -13.2189 10
      vertex 28.3156 -20.5725 10
      vertex 31.9741 -14.2358 10
    endloop
  endfacet
  facet normal -0 0 1
    outer loop
      vertex 26.2931 -19.103 10
      vertex 28.3156 -20.5725 10
      vertex 29.6902 -13.2189 10
    endloop
  endfacet
  facet normal 0 0 1
    outer loop
      vertex 26.2931 -19.103 10
      vertex 23.4196 -26.0101 10
      vertex 28.3156 -20.5725 10
    endloop
  endfacet
  facet normal -0 0 1
    outer loop
      vertex 21.7467 -24.1522 10
      vertex 23.4196 -26.0101 10
      vertex 26.2931 -19.103 10
    endloop
  endfacet
  facet normal 0 0 1
    outer loop
      vertex 21.7467 -24.1522 10
      vertex 17.5 -30.3109 10
      vertex 23.4196 -26.0101 10
    endloop
  endfacet
  facet normal -0 0 1
    outer loop
      vertex 16.25 -28.1458 10
      vertex 17.5 -30.3109 10
      vertex 21.7467 -24.1522 10
    endloop
  endfacet
  facet normal 0 0 1
    outer loop
      vertex 16.25 -28.1458 10
      vertex 10.8156 -33.287 10
      vertex 17.5 -30.3109 10
    endloop
  endfacet
  facet normal -0 0 1
    outer loop
      vertex 10.0431 -30.9093 10
      vertex 10.8156 -33.287 10
      vertex 16.25 -28.1458 10
    endloop
  endfacet
  facet normal 0 0 1
    outer loop
      vertex 10.0431 -30.9093 10
      vertex 3.6585 -34.8083 10
      vertex 10.8156 -33.287 10
    endloop
  endfacet
  facet normal -0 0 1
    outer loop
      vertex 3.39717 -32.322 10
      vertex 3.6585 -34.8083 10
      vertex 10.0431 -30.9093 10
    endloop
  endfacet
  facet normal -0 0 1
    outer loop
      vertex -3.39717 -32.322 10
      vertex 3.6585 -34.8083 10
      vertex 3.39717 -32.322 10
    endloop
  endfacet
  facet normal 0 0 1
    outer loop
      vertex -3.39717 -32.322 10
      vertex -3.6585 -34.8083 10
      vertex 3.6585 -34.8083 10
    endloop
  endfacet
  facet normal 0 0 1
    outer loop
      vertex -10.0431 -30.9093 10
      vertex -3.6585 -34.8083 10
      vertex -3.39717 -32.322 10
    endloop
  endfacet
  facet normal 0 0 1
    outer loop
      vertex -10.0431 -30.9093 10
      vertex -10.8156 -33.287 10
      vertex -3.6585 -34.8083 10
    endloop
  endfacet
  facet normal 0 0 1
    outer loop
      vertex -16.25 -28.1458 10
      vertex -10.8156 -33.287 10
      vertex -10.0431 -30.9093 10
    endloop
  endfacet
  facet normal 0 0 1
    outer loop
      vertex -16.25 -28.1458 10
      vertex -17.5 -30.3109 10
      vertex -10.8156 -33.287 10
    endloop
  endfacet
  facet normal 0 0 1
    outer loop
      vertex -21.7467 -24.1522 10
      vertex -17.5 -30.3109 10
      vertex -16.25 -28.1458 10
    endloop
  endfacet
  facet normal 0 0 1
    outer loop
      vertex -21.7467 -24.1522 10
      vertex -23.4196 -26.0101 10
      vertex -17.5 -30.3109 10
    endloop
  endfacet
  facet normal 0 0 1
    outer loop
      vertex -26.2931 -19.103 10
      vertex -23.4196 -26.0101 10
      vertex -21.7467 -24.1522 10
    endloop
  endfacet
  facet normal 0 0 1
    outer loop
      vertex -26.2931 -19.103 10
      vertex -28.3156 -20.5725 10
      vertex -23.4196 -26.0101 10
    endloop
  endfacet
  facet normal 0 0 1
    outer loop
      vertex -29.6902 -13.2189 10
      vertex -28.3156 -20.5725 10
      vertex -26.2931 -19.103 10
    endloop
  endfacet
  facet normal 0 0 1
    outer loop
      vertex -31.9741 -14.2358 10
      vertex -29.6902 -13.2189 10
      vertex -31.7898 -6.75713 10
    endloop
  endfacet
  facet normal 0 0 1
    outer loop
      vertex -29.6902 -13.2189 10
      vertex -31.9741 -14.2358 10
      vertex -28.3156 -20.5725 10
    endloop
  endfacet
  facet normal 0 0 1
    outer loop
      vertex -34.2352 -7.27691 10
      vertex -31.7898 -6.75713 10
      vertex -32.5 0 10
    endloop
  endfacet
  facet normal 0 0 1
    outer loop
      vertex -31.7898 -6.75713 10
      vertex -34.2352 -7.27691 10
      vertex -31.9741 -14.2358 10
    endloop
  endfacet
  facet normal -0.951056 -0.309019 0
    outer loop
      vertex -31.9741 -14.2358 0
      vertex -34.2352 -7.27691 10
      vertex -34.2352 -7.27691 0
    endloop
  endfacet
  facet normal -0.951056 -0.309019 0
    outer loop
      vertex -34.2352 -7.27691 10
      vertex -31.9741 -14.2358 0
      vertex -31.9741 -14.2358 10
    endloop
  endfacet
  facet normal 0.207913 -0.978147 0
    outer loop
      vertex 3.6585 -34.8083 0
      vertex 10.8156 -33.287 10
      vertex 3.6585 -34.8083 10
    endloop
  endfacet
  facet normal 0.207913 -0.978147 0
    outer loop
      vertex 10.8156 -33.287 10
      vertex 3.6585 -34.8083 0
      vertex 10.8156 -33.287 0
    endloop
  endfacet
  facet normal -0.994522 -0.104524 0
    outer loop
      vertex -34.2352 -7.27691 0
      vertex -35 0 10
      vertex -35 0 0
    endloop
  endfacet
  facet normal -0.994522 -0.104524 0
    outer loop
      vertex -35 0 10
      vertex -34.2352 -7.27691 0
      vertex -34.2352 -7.27691 10
    endloop
  endfacet
  facet normal 0.743147 -0.669128 0
    outer loop
      vertex 23.4196 -26.0101 10
      vertex 28.3156 -20.5725 0
      vertex 28.3156 -20.5725 10
    endloop
  endfacet
  facet normal 0.743147 -0.669128 0
    outer loop
      vertex 28.3156 -20.5725 0
      vertex 23.4196 -26.0101 10
      vertex 23.4196 -26.0101 0
    endloop
  endfacet
  facet normal 0 -1 0
    outer loop
      vertex -3.6585 -34.8083 0
      vertex 3.6585 -34.8083 10
      vertex -3.6585 -34.8083 10
    endloop
  endfacet
  facet normal 0 -1 -0
    outer loop
      vertex 3.6585 -34.8083 10
      vertex -3.6585 -34.8083 0
      vertex 3.6585 -34.8083 0
    endloop
  endfacet
  facet normal 0.406738 -0.913545 0
    outer loop
      vertex 10.8156 -33.287 0
      vertex 17.5 -30.3109 10
      vertex 10.8156 -33.287 10
    endloop
  endfacet
  facet normal 0.406738 -0.913545 0
    outer loop
      vertex 17.5 -30.3109 10
      vertex 10.8156 -33.287 0
      vertex 17.5 -30.3109 0
    endloop
  endfacet
  facet normal 0.951056 -0.309019 0
    outer loop
      vertex 31.9741 -14.2358 10
      vertex 34.2352 -7.27691 0
      vertex 34.2352 -7.27691 10
    endloop
  endfacet
  facet normal 0.951056 -0.309019 0
    outer loop
      vertex 34.2352 -7.27691 0
      vertex 31.9741 -14.2358 10
      vertex 31.9741 -14.2358 0
    endloop
  endfacet
  facet normal -0.207913 -0.978147 0
    outer loop
      vertex -10.8156 -33.287 0
      vertex -3.6585 -34.8083 10
      vertex -10.8156 -33.287 10
    endloop
  endfacet
  facet normal -0.207913 -0.978147 -0
    outer loop
      vertex -3.6585 -34.8083 10
      vertex -10.8156 -33.287 0
      vertex -3.6585 -34.8083 0
    endloop
  endfacet
  facet normal -0.866025 -0.5 0
    outer loop
      vertex -28.3156 -20.5725 0
      vertex -31.9741 -14.2358 10
      vertex -31.9741 -14.2358 0
    endloop
  endfacet
  facet normal -0.866025 -0.5 0
    outer loop
      vertex -31.9741 -14.2358 10
      vertex -28.3156 -20.5725 0
      vertex -28.3156 -20.5725 10
    endloop
  endfacet
  facet normal 0.587782 -0.80902 0
    outer loop
      vertex 17.5 -30.3109 0
      vertex 23.4196 -26.0101 10
      vertex 17.5 -30.3109 10
    endloop
  endfacet
  facet normal 0.587782 -0.80902 0
    outer loop
      vertex 23.4196 -26.0101 10
      vertex 17.5 -30.3109 0
      vertex 23.4196 -26.0101 0
    endloop
  endfacet
  facet normal -0.587782 -0.80902 0
    outer loop
      vertex -23.4196 -26.0101 0
      vertex -17.5 -30.3109 10
      vertex -23.4196 -26.0101 10
    endloop
  endfacet
  facet normal -0.587782 -0.80902 -0
    outer loop
      vertex -17.5 -30.3109 10
      vertex -23.4196 -26.0101 0
      vertex -17.5 -30.3109 0
    endloop
  endfacet
  facet normal 0 0 -1
    outer loop
      vertex -35 0 0
      vertex 35 0 0
      vertex 34.2352 -7.27691 0
    endloop
  endfacet
  facet normal 0 0 -1
    outer loop
      vertex -35 0 0
      vertex 34.2352 -7.27691 0
      vertex 31.9741 -14.2358 0
    endloop
  endfacet
  facet normal 0 0 -1
    outer loop
      vertex -35 0 0
      vertex 31.9741 -14.2358 0
      vertex 28.3156 -20.5725 0
    endloop
  endfacet
  facet normal 0 0 -1
    outer loop
      vertex -35 0 0
      vertex 28.3156 -20.5725 0
      vertex 23.4196 -26.0101 0
    endloop
  endfacet
  facet normal 0 0 -1
    outer loop
      vertex -35 0 0
      vertex 23.4196 -26.0101 0
      vertex 17.5 -30.3109 0
    endloop
  endfacet
  facet normal 0 0 -1
    outer loop
      vertex -35 0 0
      vertex 17.5 -30.3109 0
      vertex 10.8156 -33.287 0
    endloop
  endfacet
  facet normal 0 0 -1
    outer loop
      vertex -35 0 0
      vertex 10.8156 -33.287 0
      vertex 3.6585 -34.8083 0
    endloop
  endfacet
  facet normal 0 0 -1
    outer loop
      vertex -35 0 0
      vertex 3.6585 -34.8083 0
      vertex -3.6585 -34.8083 0
    endloop
  endfacet
  facet normal 0 0 -1
    outer loop
      vertex -35 0 0
      vertex -3.6585 -34.8083 0
      vertex -10.8156 -33.287 0
    endloop
  endfacet
  facet normal 0 0 -1
    outer loop
      vertex -35 0 0
      vertex -10.8156 -33.287 0
      vertex -17.5 -30.3109 0
    endloop
  endfacet
  facet normal 0 0 -1
    outer loop
      vertex -35 0 0
      vertex -17.5 -30.3109 0
      vertex -23.4196 -26.0101 0
    endloop
  endfacet
  facet normal 0 0 -1
    outer loop
      vertex -35 0 0
      vertex -23.4196 -26.0101 0
      vertex -28.3156 -20.5725 0
    endloop
  endfacet
  facet normal 0 0 -1
    outer loop
      vertex -35 0 0
      vertex -28.3156 -20.5725 0
      vertex -31.9741 -14.2358 0
    endloop
  endfacet
  facet normal 0 0 -1
    outer loop
      vertex -35 0 0
      vertex -31.9741 -14.2358 0
      vertex -34.2352 -7.27691 0
    endloop
  endfacet
  facet normal 0 0 -1
    outer loop
      vertex 35 0 0
      vertex -35 0 0
      vertex 35 35 0
    endloop
  endfacet
  facet normal -0 0 -1
    outer loop
      vertex 35 35 0
      vertex -35 0 0
      vertex -35 35 0
    endloop
  endfacet
  facet normal 1 0 0
    outer loop
      vertex 35 25 10
      vertex 35 35 23
      vertex 35 33 23
    endloop
  endfacet
  facet normal 1 0 0
    outer loop
      vertex 35 35 23
      vertex 35 25 10
      vertex 35 35 0
    endloop
  endfacet
  facet normal 1 0 0
    outer loop
      vertex 35 0 0
      vertex 35 25 10
      vertex 35 0 10
    endloop
  endfacet
  facet normal 1 0 0
    outer loop
      vertex 35 25 10
      vertex 35 0 0
      vertex 35 35 0
    endloop
  endfacet
  facet normal -1 0 0
    outer loop
      vertex -35 25 10
      vertex -35 35 23
      vertex -35 35 0
    endloop
  endfacet
  facet normal -1 -0 0
    outer loop
      vertex -35 35 23
      vertex -35 25 10
      vertex -35 33 23
    endloop
  endfacet
  facet normal -1 0 0
    outer loop
      vertex -35 0 0
      vertex -35 25 10
      vertex -35 35 0
    endloop
  endfacet
  facet normal -1 -0 0
    outer loop
      vertex -35 25 10
      vertex -35 0 0
      vertex -35 0 10
    endloop
  endfacet
  facet normal 0 1 0
    outer loop
      vertex 35 35 23
      vertex 29.555 35 16.9499
      vertex 25 35 23
    endloop
  endfacet
  facet normal 0 1 0
    outer loop
      vertex 35 35 23
      vertex 31.247 35 16.5637
      vertex 29.555 35 16.9499
    endloop
  endfacet
  facet normal 0 1 0
    outer loop
      vertex 35 35 23
      vertex 32 35 15
      vertex 31.247 35 16.5637
    endloop
  endfacet
  facet normal 0 1 0
    outer loop
      vertex 35 35 0
      vertex 29.555 35 13.0501
      vertex 31.247 35 13.4363
    endloop
  endfacet
  facet normal 0 1 0
    outer loop
      vertex 25 35 10
      vertex 35 35 0
      vertex -25 35 10
    endloop
  endfacet
  facet normal 0 1 0
    outer loop
      vertex 29.555 35 13.0501
      vertex 35 35 0
      vertex 25 35 10
    endloop
  endfacet
  facet normal 0 1 0
    outer loop
      vertex 32 35 15
      vertex 35 35 0
      vertex 31.247 35 13.4363
    endloop
  endfacet
  facet normal 0 1 -0
    outer loop
      vertex 35 35 0
      vertex 32 35 15
      vertex 35 35 23
    endloop
  endfacet
  facet normal 0 1 -0
    outer loop
      vertex 28.1981 35 15.8678
      vertex 25 35 23
      vertex 29.555 35 16.9499
    endloop
  endfacet
  facet normal 0 1 0
    outer loop
      vertex 25 35 10
      vertex 28.1981 35 15.8678
      vertex 28.1981 35 14.1322
    endloop
  endfacet
  facet normal 0 1 0
    outer loop
      vertex 28.1981 35 15.8678
      vertex 25 35 10
      vertex 25 35 23
    endloop
  endfacet
  facet normal 0 1 0
    outer loop
      vertex 25 35 10
      vertex 28.1981 35 14.1322
      vertex 29.555 35 13.0501
    endloop
  endfacet
  facet normal 0 1 0
    outer loop
      vertex -25 35 23
      vertex -29.555 35 16.9499
      vertex -35 35 23
    endloop
  endfacet
  facet normal 0 1 0
    outer loop
      vertex -25 35 23
      vertex -28.1981 35 15.8678
      vertex -29.555 35 16.9499
    endloop
  endfacet
  facet normal 0 1 -0
    outer loop
      vertex -25 35 10
      vertex -28.1981 35 15.8678
      vertex -25 35 23
    endloop
  endfacet
  facet normal 0 1 0
    outer loop
      vertex -28.1981 35 14.1322
      vertex -25 35 10
      vertex -29.555 35 13.0501
    endloop
  endfacet
  facet normal 0 1 0
    outer loop
      vertex -28.1981 35 15.8678
      vertex -25 35 10
      vertex -28.1981 35 14.1322
    endloop
  endfacet
  facet normal 0 1 -0
    outer loop
      vertex -31.247 35 16.5637
      vertex -35 35 23
      vertex -29.555 35 16.9499
    endloop
  endfacet
  facet normal 0 1 -0
    outer loop
      vertex -32 35 15
      vertex -35 35 23
      vertex -31.247 35 16.5637
    endloop
  endfacet
  facet normal 0 1 0
    outer loop
      vertex -35 35 0
      vertex -29.555 35 13.0501
      vertex -25 35 10
    endloop
  endfacet
  facet normal 0 1 0
    outer loop
      vertex -32 35 15
      vertex -35 35 0
      vertex -35 35 23
    endloop
  endfacet
  facet normal 0 1 0
    outer loop
      vertex -31.247 35 13.4363
      vertex -35 35 0
      vertex -32 35 15
    endloop
  endfacet
  facet normal 0 1 0
    outer loop
      vertex -29.555 35 13.0501
      vertex -35 35 0
      vertex -31.247 35 13.4363
    endloop
  endfacet
  facet normal 0 1 0
    outer loop
      vertex -35 35 0
      vertex -25 35 10
      vertex 35 35 0
    endloop
  endfacet
  facet normal 0.951055 -0.309023 0
    outer loop
      vertex -31.7898 6.75713 10
      vertex -29.6902 13.2189 7
      vertex -29.6902 13.2189 10
    endloop
  endfacet
  facet normal 0.951055 -0.309023 0
    outer loop
      vertex -29.6902 13.2189 7
      vertex -31.7898 6.75713 10
      vertex -31.7898 6.75713 7
    endloop
  endfacet
  facet normal -0.951055 -0.309023 0
    outer loop
      vertex 31.7898 6.75713 7
      vertex 29.6902 13.2189 10
      vertex 29.6902 13.2189 7
    endloop
  endfacet
  facet normal -0.951055 -0.309023 0
    outer loop
      vertex 29.6902 13.2189 10
      vertex 31.7898 6.75713 7
      vertex 31.7898 6.75713 10
    endloop
  endfacet
  facet normal -0.994522 -0.104528 0
    outer loop
      vertex 32.5 0 7
      vertex 31.7898 6.75713 10
      vertex 31.7898 6.75713 7
    endloop
  endfacet
  facet normal -0.994522 -0.104528 0
    outer loop
      vertex 31.7898 6.75713 10
      vertex 32.5 0 7
      vertex 32.5 0 10
    endloop
  endfacet
  facet normal -0.866031 -0.49999 0
    outer loop
      vertex 29.6902 13.2189 7
      vertex 26.2931 19.103 10
      vertex 26.2931 19.103 7
    endloop
  endfacet
  facet normal -0.866031 -0.49999 0
    outer loop
      vertex 26.2931 19.103 10
      vertex 29.6902 13.2189 7
      vertex 29.6902 13.2189 10
    endloop
  endfacet
  facet normal 0.866031 0.49999 0
    outer loop
      vertex -26.2931 -19.103 10
      vertex -29.6902 -13.2189 7
      vertex -29.6902 -13.2189 10
    endloop
  endfacet
  facet normal 0.866031 0.49999 0
    outer loop
      vertex -29.6902 -13.2189 7
      vertex -26.2931 -19.103 10
      vertex -26.2931 -19.103 7
    endloop
  endfacet
  facet normal -0.406738 -0.913545 0
    outer loop
      vertex 10.0431 30.9093 7
      vertex 16.25 28.1458 10
      vertex 10.0431 30.9093 10
    endloop
  endfacet
  facet normal -0.406738 -0.913545 -0
    outer loop
      vertex 16.25 28.1458 10
      vertex 10.0431 30.9093 7
      vertex 16.25 28.1458 7
    endloop
  endfacet
  facet normal -0.994522 0.104528 0
    outer loop
      vertex 31.7898 -6.75713 7
      vertex 32.5 0 10
      vertex 32.5 0 7
    endloop
  endfacet
  facet normal -0.994522 0.104528 0
    outer loop
      vertex 32.5 0 10
      vertex 31.7898 -6.75713 7
      vertex 31.7898 -6.75713 10
    endloop
  endfacet
  facet normal -0.866031 0.49999 0
    outer loop
      vertex 26.2931 -19.103 7
      vertex 29.6902 -13.2189 10
      vertex 29.6902 -13.2189 7
    endloop
  endfacet
  facet normal -0.866031 0.49999 0
    outer loop
      vertex 29.6902 -13.2189 10
      vertex 26.2931 -19.103 7
      vertex 26.2931 -19.103 10
    endloop
  endfacet
  facet normal 0.951055 0.309023 0
    outer loop
      vertex -29.6902 -13.2189 10
      vertex -31.7898 -6.75713 7
      vertex -31.7898 -6.75713 10
    endloop
  endfacet
  facet normal 0.951055 0.309023 0
    outer loop
      vertex -31.7898 -6.75713 7
      vertex -29.6902 -13.2189 10
      vertex -29.6902 -13.2189 7
    endloop
  endfacet
  facet normal -0.587787 -0.809016 0
    outer loop
      vertex 16.25 28.1458 7
      vertex 21.7467 24.1522 10
      vertex 16.25 28.1458 10
    endloop
  endfacet
  facet normal -0.587787 -0.809016 -0
    outer loop
      vertex 21.7467 24.1522 10
      vertex 16.25 28.1458 7
      vertex 21.7467 24.1522 7
    endloop
  endfacet
  facet normal 0.994522 -0.104528 0
    outer loop
      vertex -32.5 0 10
      vertex -31.7898 6.75713 7
      vertex -31.7898 6.75713 10
    endloop
  endfacet
  facet normal 0.994522 -0.104528 0
    outer loop
      vertex -31.7898 6.75713 7
      vertex -32.5 0 10
      vertex -32.5 0 7
    endloop
  endfacet
  facet normal 0.207921 0.978146 -0
    outer loop
      vertex -3.39717 -32.322 7
      vertex -10.0431 -30.9093 10
      vertex -3.39717 -32.322 10
    endloop
  endfacet
  facet normal 0.207921 0.978146 0
    outer loop
      vertex -10.0431 -30.9093 10
      vertex -3.39717 -32.322 7
      vertex -10.0431 -30.9093 7
    endloop
  endfacet
  facet normal 0.994522 0.104528 0
    outer loop
      vertex -31.7898 -6.75713 10
      vertex -32.5 0 7
      vertex -32.5 0 10
    endloop
  endfacet
  facet normal 0.994522 0.104528 0
    outer loop
      vertex -32.5 0 7
      vertex -31.7898 -6.75713 10
      vertex -31.7898 -6.75713 7
    endloop
  endfacet
  facet normal -0.743139 0.669137 0
    outer loop
      vertex 21.7467 -24.1522 7
      vertex 26.2931 -19.103 10
      vertex 26.2931 -19.103 7
    endloop
  endfacet
  facet normal -0.743139 0.669137 0
    outer loop
      vertex 26.2931 -19.103 10
      vertex 21.7467 -24.1522 7
      vertex 21.7467 -24.1522 10
    endloop
  endfacet
  facet normal -0.951055 0.309023 0
    outer loop
      vertex 29.6902 -13.2189 7
      vertex 31.7898 -6.75713 10
      vertex 31.7898 -6.75713 7
    endloop
  endfacet
  facet normal -0.951055 0.309023 0
    outer loop
      vertex 31.7898 -6.75713 10
      vertex 29.6902 -13.2189 7
      vertex 29.6902 -13.2189 10
    endloop
  endfacet
  facet normal 0 -1 0
    outer loop
      vertex -3.39717 32.322 7
      vertex 3.39717 32.322 10
      vertex -3.39717 32.322 10
    endloop
  endfacet
  facet normal 0 -1 -0
    outer loop
      vertex 3.39717 32.322 10
      vertex -3.39717 32.322 7
      vertex 3.39717 32.322 7
    endloop
  endfacet
  facet normal 0.587787 -0.809016 0
    outer loop
      vertex -21.7467 24.1522 7
      vertex -16.25 28.1458 10
      vertex -21.7467 24.1522 10
    endloop
  endfacet
  facet normal 0.587787 -0.809016 0
    outer loop
      vertex -16.25 28.1458 10
      vertex -21.7467 24.1522 7
      vertex -16.25 28.1458 7
    endloop
  endfacet
  facet normal 0.406738 0.913545 -0
    outer loop
      vertex -10.0431 -30.9093 7
      vertex -16.25 -28.1458 10
      vertex -10.0431 -30.9093 10
    endloop
  endfacet
  facet normal 0.406738 0.913545 0
    outer loop
      vertex -16.25 -28.1458 10
      vertex -10.0431 -30.9093 7
      vertex -16.25 -28.1458 7
    endloop
  endfacet
  facet normal 0.406738 -0.913545 0
    outer loop
      vertex -16.25 28.1458 7
      vertex -10.0431 30.9093 10
      vertex -16.25 28.1458 10
    endloop
  endfacet
  facet normal 0.406738 -0.913545 0
    outer loop
      vertex -10.0431 30.9093 10
      vertex -16.25 28.1458 7
      vertex -10.0431 30.9093 7
    endloop
  endfacet
  facet normal 0.743139 -0.669137 0
    outer loop
      vertex -26.2931 19.103 10
      vertex -21.7467 24.1522 7
      vertex -21.7467 24.1522 10
    endloop
  endfacet
  facet normal 0.743139 -0.669137 0
    outer loop
      vertex -21.7467 24.1522 7
      vertex -26.2931 19.103 10
      vertex -26.2931 19.103 7
    endloop
  endfacet
  facet normal -0.207921 -0.978146 0
    outer loop
      vertex 3.39717 32.322 7
      vertex 10.0431 30.9093 10
      vertex 3.39717 32.322 10
    endloop
  endfacet
  facet normal -0.207921 -0.978146 -0
    outer loop
      vertex 10.0431 30.9093 10
      vertex 3.39717 32.322 7
      vertex 10.0431 30.9093 7
    endloop
  endfacet
  facet normal -0.743139 -0.669137 0
    outer loop
      vertex 26.2931 19.103 7
      vertex 21.7467 24.1522 10
      vertex 21.7467 24.1522 7
    endloop
  endfacet
  facet normal -0.743139 -0.669137 0
    outer loop
      vertex 21.7467 24.1522 10
      vertex 26.2931 19.103 7
      vertex 26.2931 19.103 10
    endloop
  endfacet
  facet normal 0.207921 -0.978146 0
    outer loop
      vertex -10.0431 30.9093 7
      vertex -3.39717 32.322 10
      vertex -10.0431 30.9093 10
    endloop
  endfacet
  facet normal 0.207921 -0.978146 0
    outer loop
      vertex -3.39717 32.322 10
      vertex -10.0431 30.9093 7
      vertex -3.39717 32.322 7
    endloop
  endfacet
  facet normal 0.743139 0.669137 0
    outer loop
      vertex -21.7467 -24.1522 10
      vertex -26.2931 -19.103 7
      vertex -26.2931 -19.103 10
    endloop
  endfacet
  facet normal 0.743139 0.669137 0
    outer loop
      vertex -26.2931 -19.103 7
      vertex -21.7467 -24.1522 10
      vertex -21.7467 -24.1522 7
    endloop
  endfacet
  facet normal 0.866031 -0.49999 0
    outer loop
      vertex -29.6902 13.2189 10
      vertex -26.2931 19.103 7
      vertex -26.2931 19.103 10
    endloop
  endfacet
  facet normal 0.866031 -0.49999 0
    outer loop
      vertex -26.2931 19.103 7
      vertex -29.6902 13.2189 10
      vertex -29.6902 13.2189 7
    endloop
  endfacet
  facet normal 0 1 -0
    outer loop
      vertex 3.39717 -32.322 7
      vertex -3.39717 -32.322 10
      vertex 3.39717 -32.322 10
    endloop
  endfacet
  facet normal 0 1 0
    outer loop
      vertex -3.39717 -32.322 10
      vertex 3.39717 -32.322 7
      vertex -3.39717 -32.322 7
    endloop
  endfacet
  facet normal -0.587787 0.809016 0
    outer loop
      vertex 21.7467 -24.1522 7
      vertex 16.25 -28.1458 10
      vertex 21.7467 -24.1522 10
    endloop
  endfacet
  facet normal -0.587787 0.809016 0
    outer loop
      vertex 16.25 -28.1458 10
      vertex 21.7467 -24.1522 7
      vertex 16.25 -28.1458 7
    endloop
  endfacet
  facet normal -0.207921 0.978146 0
    outer loop
      vertex 10.0431 -30.9093 7
      vertex 3.39717 -32.322 10
      vertex 10.0431 -30.9093 10
    endloop
  endfacet
  facet normal -0.207921 0.978146 0
    outer loop
      vertex 3.39717 -32.322 10
      vertex 10.0431 -30.9093 7
      vertex 3.39717 -32.322 7
    endloop
  endfacet
  facet normal -0.406738 0.913545 0
    outer loop
      vertex 16.25 -28.1458 7
      vertex 10.0431 -30.9093 10
      vertex 16.25 -28.1458 10
    endloop
  endfacet
  facet normal -0.406738 0.913545 0
    outer loop
      vertex 10.0431 -30.9093 10
      vertex 16.25 -28.1458 7
      vertex 10.0431 -30.9093 7
    endloop
  endfacet
  facet normal 0.587787 0.809016 -0
    outer loop
      vertex -16.25 -28.1458 7
      vertex -21.7467 -24.1522 10
      vertex -16.25 -28.1458 10
    endloop
  endfacet
  facet normal 0.587787 0.809016 0
    outer loop
      vertex -21.7467 -24.1522 10
      vertex -16.25 -28.1458 7
      vertex -21.7467 -24.1522 7
    endloop
  endfacet
  facet normal 0 0 1
    outer loop
      vertex 31.7898 6.75713 7
      vertex 31.7898 -6.75713 7
      vertex 32.5 0 7
    endloop
  endfacet
  facet normal 0 0 1
    outer loop
      vertex 29.6902 13.2189 7
      vertex 31.7898 -6.75713 7
      vertex 31.7898 6.75713 7
    endloop
  endfacet
  facet normal 0 0 1
    outer loop
      vertex 29.6902 13.2189 7
      vertex 29.6902 -13.2189 7
      vertex 31.7898 -6.75713 7
    endloop
  endfacet
  facet normal 0 0 1
    outer loop
      vertex 26.2931 19.103 7
      vertex 29.6902 -13.2189 7
      vertex 29.6902 13.2189 7
    endloop
  endfacet
  facet normal 0 0 1
    outer loop
      vertex 26.2931 19.103 7
      vertex 26.2931 -19.103 7
      vertex 29.6902 -13.2189 7
    endloop
  endfacet
  facet normal 0 0 1
    outer loop
      vertex 21.7467 24.1522 7
      vertex 26.2931 -19.103 7
      vertex 26.2931 19.103 7
    endloop
  endfacet
  facet normal 0 0 1
    outer loop
      vertex 21.7467 24.1522 7
      vertex 21.7467 -24.1522 7
      vertex 26.2931 -19.103 7
    endloop
  endfacet
  facet normal 0 0 1
    outer loop
      vertex 16.25 28.1458 7
      vertex 21.7467 -24.1522 7
      vertex 21.7467 24.1522 7
    endloop
  endfacet
  facet normal 0 0 1
    outer loop
      vertex 16.25 28.1458 7
      vertex 16.25 -28.1458 7
      vertex 21.7467 -24.1522 7
    endloop
  endfacet
  facet normal 0 0 1
    outer loop
      vertex 10.0431 30.9093 7
      vertex 16.25 -28.1458 7
      vertex 16.25 28.1458 7
    endloop
  endfacet
  facet normal 0 0 1
    outer loop
      vertex 10.0431 30.9093 7
      vertex 10.0431 -30.9093 7
      vertex 16.25 -28.1458 7
    endloop
  endfacet
  facet normal 0 0 1
    outer loop
      vertex 3.39717 32.322 7
      vertex 10.0431 -30.9093 7
      vertex 10.0431 30.9093 7
    endloop
  endfacet
  facet normal 0 0 1
    outer loop
      vertex 3.39717 32.322 7
      vertex 3.39717 -32.322 7
      vertex 10.0431 -30.9093 7
    endloop
  endfacet
  facet normal -0 0 1
    outer loop
      vertex -3.39717 32.322 7
      vertex 3.39717 -32.322 7
      vertex 3.39717 32.322 7
    endloop
  endfacet
  facet normal 0 0 1
    outer loop
      vertex -3.39717 32.322 7
      vertex -3.39717 -32.322 7
      vertex 3.39717 -32.322 7
    endloop
  endfacet
  facet normal -0 0 1
    outer loop
      vertex -10.0431 30.9093 7
      vertex -3.39717 -32.322 7
      vertex -3.39717 32.322 7
    endloop
  endfacet
  facet normal 0 0 1
    outer loop
      vertex -10.0431 30.9093 7
      vertex -10.0431 -30.9093 7
      vertex -3.39717 -32.322 7
    endloop
  endfacet
  facet normal -0 0 1
    outer loop
      vertex -16.25 28.1458 7
      vertex -10.0431 -30.9093 7
      vertex -10.0431 30.9093 7
    endloop
  endfacet
  facet normal 0 0 1
    outer loop
      vertex -16.25 28.1458 7
      vertex -16.25 -28.1458 7
      vertex -10.0431 -30.9093 7
    endloop
  endfacet
  facet normal -0 0 1
    outer loop
      vertex -21.7467 24.1522 7
      vertex -16.25 -28.1458 7
      vertex -16.25 28.1458 7
    endloop
  endfacet
  facet normal 0 0 1
    outer loop
      vertex -21.7467 24.1522 7
      vertex -21.7467 -24.1522 7
      vertex -16.25 -28.1458 7
    endloop
  endfacet
  facet normal -0 0 1
    outer loop
      vertex -26.2931 19.103 7
      vertex -21.7467 -24.1522 7
      vertex -21.7467 24.1522 7
    endloop
  endfacet
  facet normal 0 0 1
    outer loop
      vertex -26.2931 19.103 7
      vertex -26.2931 -19.103 7
      vertex -21.7467 -24.1522 7
    endloop
  endfacet
  facet normal -0 0 1
    outer loop
      vertex -29.6902 13.2189 7
      vertex -26.2931 -19.103 7
      vertex -26.2931 19.103 7
    endloop
  endfacet
  facet normal 0 0 1
    outer loop
      vertex -29.6902 13.2189 7
      vertex -29.6902 -13.2189 7
      vertex -26.2931 -19.103 7
    endloop
  endfacet
  facet normal -0 0 1
    outer loop
      vertex -31.7898 6.75713 7
      vertex -29.6902 -13.2189 7
      vertex -29.6902 13.2189 7
    endloop
  endfacet
  facet normal 0 0 1
    outer loop
      vertex -31.7898 6.75713 7
      vertex -31.7898 -6.75713 7
      vertex -29.6902 -13.2189 7
    endloop
  endfacet
  facet normal 0 -0 1
    outer loop
      vertex -31.7898 -6.75713 7
      vertex -31.7898 6.75713 7
      vertex -32.5 0 7
    endloop
  endfacet
  facet normal -1 0 0
    outer loop
      vertex 25 35 10
      vertex 25 33 23
      vertex 25 35 23
    endloop
  endfacet
  facet normal -1 0 -0
    outer loop
      vertex 25 33 23
      vertex 25 35 10
      vertex 25 25 10
    endloop
  endfacet
  facet normal 0 -0.851654 0.524104
    outer loop
      vertex 25 33 23
      vertex 29.555 29.2768 16.9499
      vertex 35 33 23
    endloop
  endfacet
  facet normal -7.33334e-06 -0.851657 0.5241
    outer loop
      vertex 25 33 23
      vertex 28.1981 28.6109 15.8678
      vertex 29.555 29.2768 16.9499
    endloop
  endfacet
  facet normal -1.43393e-05 -0.851658 0.524097
    outer loop
      vertex 25 25 10
      vertex 28.1981 28.6109 15.8678
      vertex 25 33 23
    endloop
  endfacet
  facet normal 3.76724e-06 -0.851659 0.524096
    outer loop
      vertex 28.1981 27.5429 14.1322
      vertex 25 25 10
      vertex 29.555 26.877 13.0501
    endloop
  endfacet
  facet normal 4.10659e-05 -0.851672 0.524076
    outer loop
      vertex 28.1981 28.6109 15.8678
      vertex 25 25 10
      vertex 28.1981 27.5429 14.1322
    endloop
  endfacet
  facet normal 2.73369e-05 -0.851665 0.524086
    outer loop
      vertex 31.247 29.0392 16.5637
      vertex 35 33 23
      vertex 29.555 29.2768 16.9499
    endloop
  endfacet
  facet normal -1.18054e-05 -0.851655 0.524102
    outer loop
      vertex 32 28.0769 15
      vertex 35 33 23
      vertex 31.247 29.0392 16.5637
    endloop
  endfacet
  facet normal 0 -0.851656 0.524101
    outer loop
      vertex 35 25 10
      vertex 29.555 26.877 13.0501
      vertex 25 25 10
    endloop
  endfacet
  facet normal 6.55122e-06 -0.851658 0.524097
    outer loop
      vertex 32 28.0769 15
      vertex 35 25 10
      vertex 35 33 23
    endloop
  endfacet
  facet normal -3.51027e-05 -0.851669 0.524079
    outer loop
      vertex 31.247 27.1147 13.4363
      vertex 35 25 10
      vertex 32 28.0769 15
    endloop
  endfacet
  facet normal 1.30579e-05 -0.851646 0.524117
    outer loop
      vertex 29.555 26.877 13.0501
      vertex 35 25 10
      vertex 31.247 27.1147 13.4363
    endloop
  endfacet
  facet normal -0 0 1
    outer loop
      vertex 25 35 23
      vertex 35 33 23
      vertex 35 35 23
    endloop
  endfacet
  facet normal 0 0 1
    outer loop
      vertex 35 33 23
      vertex 25 35 23
      vertex 25 33 23
    endloop
  endfacet
  facet normal -0.222528 0 -0.974926
    outer loop
      vertex 29.555 29.2768 16.9499
      vertex 31.247 35 16.5637
      vertex 31.247 29.0392 16.5637
    endloop
  endfacet
  facet normal -0.222528 0 -0.974926
    outer loop
      vertex 31.247 35 16.5637
      vertex 29.555 29.2768 16.9499
      vertex 29.555 35 16.9499
    endloop
  endfacet
  facet normal -0.900977 0 -0.433866
    outer loop
      vertex 32 35 15
      vertex 31.247 29.0392 16.5637
      vertex 31.247 35 16.5637
    endloop
  endfacet
  facet normal -0.900977 0 -0.433866
    outer loop
      vertex 31.247 29.0392 16.5637
      vertex 32 35 15
      vertex 32 28.0769 15
    endloop
  endfacet
  facet normal 0.623493 0 -0.781829
    outer loop
      vertex 28.1981 35 15.8678
      vertex 29.555 29.2768 16.9499
      vertex 28.1981 28.6109 15.8678
    endloop
  endfacet
  facet normal 0.623493 0 -0.781829
    outer loop
      vertex 29.555 29.2768 16.9499
      vertex 28.1981 35 15.8678
      vertex 29.555 35 16.9499
    endloop
  endfacet
  facet normal 0.623493 -0 0.781829
    outer loop
      vertex 28.1981 27.5429 14.1322
      vertex 29.555 35 13.0501
      vertex 28.1981 35 14.1322
    endloop
  endfacet
  facet normal 0.623493 0 0.781829
    outer loop
      vertex 29.555 35 13.0501
      vertex 28.1981 27.5429 14.1322
      vertex 29.555 26.877 13.0501
    endloop
  endfacet
  facet normal -0.222528 0 0.974926
    outer loop
      vertex 29.555 35 13.0501
      vertex 31.247 27.1147 13.4363
      vertex 31.247 35 13.4363
    endloop
  endfacet
  facet normal -0.222528 0 0.974926
    outer loop
      vertex 31.247 27.1147 13.4363
      vertex 29.555 35 13.0501
      vertex 29.555 26.877 13.0501
    endloop
  endfacet
  facet normal 1 -0 0
    outer loop
      vertex 28.1981 28.6109 15.8678
      vertex 28.1981 35 14.1322
      vertex 28.1981 35 15.8678
    endloop
  endfacet
  facet normal 1 0 0
    outer loop
      vertex 28.1981 35 14.1322
      vertex 28.1981 28.6109 15.8678
      vertex 28.1981 27.5429 14.1322
    endloop
  endfacet
  facet normal -0.900977 0 0.433866
    outer loop
      vertex 31.247 35 13.4363
      vertex 32 28.0769 15
      vertex 32 35 15
    endloop
  endfacet
  facet normal -0.900977 0 0.433866
    outer loop
      vertex 32 28.0769 15
      vertex 31.247 35 13.4363
      vertex 31.247 27.1147 13.4363
    endloop
  endfacet
  facet normal 1 -0 0
    outer loop
      vertex -25 33 23
      vertex -25 35 10
      vertex -25 35 23
    endloop
  endfacet
  facet normal 1 0 0
    outer loop
      vertex -25 35 10
      vertex -25 33 23
      vertex -25 25 10
    endloop
  endfacet
  facet normal 0 -0.851654 0.524104
    outer loop
      vertex -35 33 23
      vertex -29.555 29.2768 16.9499
      vertex -25 33 23
    endloop
  endfacet
  facet normal -2.73369e-05 -0.851665 0.524086
    outer loop
      vertex -35 33 23
      vertex -31.247 29.0392 16.5637
      vertex -29.555 29.2768 16.9499
    endloop
  endfacet
  facet normal 1.18054e-05 -0.851655 0.524102
    outer loop
      vertex -35 33 23
      vertex -32 28.0769 15
      vertex -31.247 29.0392 16.5637
    endloop
  endfacet
  facet normal -1.30579e-05 -0.851646 0.524117
    outer loop
      vertex -31.247 27.1147 13.4363
      vertex -35 25 10
      vertex -29.555 26.877 13.0501
    endloop
  endfacet
  facet normal 3.51027e-05 -0.851669 0.524079
    outer loop
      vertex -32 28.0769 15
      vertex -35 25 10
      vertex -31.247 27.1147 13.4363
    endloop
  endfacet
  facet normal -6.55122e-06 -0.851658 0.524097
    outer loop
      vertex -35 25 10
      vertex -32 28.0769 15
      vertex -35 33 23
    endloop
  endfacet
  facet normal 7.33334e-06 -0.851657 0.5241
    outer loop
      vertex -28.1981 28.6109 15.8678
      vertex -25 33 23
      vertex -29.555 29.2768 16.9499
    endloop
  endfacet
  facet normal -4.10659e-05 -0.851672 0.524076
    outer loop
      vertex -25 25 10
      vertex -28.1981 28.6109 15.8678
      vertex -28.1981 27.5429 14.1322
    endloop
  endfacet
  facet normal 1.43393e-05 -0.851658 0.524097
    outer loop
      vertex -28.1981 28.6109 15.8678
      vertex -25 25 10
      vertex -25 33 23
    endloop
  endfacet
  facet normal -3.76724e-06 -0.851659 0.524096
    outer loop
      vertex -29.555 26.877 13.0501
      vertex -25 25 10
      vertex -28.1981 27.5429 14.1322
    endloop
  endfacet
  facet normal 0 -0.851656 0.524101
    outer loop
      vertex -25 25 10
      vertex -29.555 26.877 13.0501
      vertex -35 25 10
    endloop
  endfacet
  facet normal -0 0 1
    outer loop
      vertex -35 35 23
      vertex -25 33 23
      vertex -25 35 23
    endloop
  endfacet
  facet normal 0 0 1
    outer loop
      vertex -25 33 23
      vertex -35 35 23
      vertex -35 33 23
    endloop
  endfacet
  facet normal 0.222528 0 -0.974926
    outer loop
      vertex -31.247 35 16.5637
      vertex -29.555 29.2768 16.9499
      vertex -31.247 29.0392 16.5637
    endloop
  endfacet
  facet normal 0.222528 0 -0.974926
    outer loop
      vertex -29.555 29.2768 16.9499
      vertex -31.247 35 16.5637
      vertex -29.555 35 16.9499
    endloop
  endfacet
  facet normal 0.900977 0 -0.433866
    outer loop
      vertex -31.247 29.0392 16.5637
      vertex -32 35 15
      vertex -31.247 35 16.5637
    endloop
  endfacet
  facet normal 0.900977 0 -0.433866
    outer loop
      vertex -32 35 15
      vertex -31.247 29.0392 16.5637
      vertex -32 28.0769 15
    endloop
  endfacet
  facet normal 0.900977 -0 0.433866
    outer loop
      vertex -32 28.0769 15
      vertex -31.247 35 13.4363
      vertex -32 35 15
    endloop
  endfacet
  facet normal 0.900977 0 0.433866
    outer loop
      vertex -31.247 35 13.4363
      vertex -32 28.0769 15
      vertex -31.247 27.1147 13.4363
    endloop
  endfacet
  facet normal -0.623493 0 -0.781829
    outer loop
      vertex -29.555 29.2768 16.9499
      vertex -28.1981 35 15.8678
      vertex -28.1981 28.6109 15.8678
    endloop
  endfacet
  facet normal -0.623493 0 -0.781829
    outer loop
      vertex -28.1981 35 15.8678
      vertex -29.555 29.2768 16.9499
      vertex -29.555 35 16.9499
    endloop
  endfacet
  facet normal -0.623493 0 0.781829
    outer loop
      vertex -29.555 35 13.0501
      vertex -28.1981 27.5429 14.1322
      vertex -28.1981 35 14.1322
    endloop
  endfacet
  facet normal -0.623493 0 0.781829
    outer loop
      vertex -28.1981 27.5429 14.1322
      vertex -29.555 35 13.0501
      vertex -29.555 26.877 13.0501
    endloop
  endfacet
  facet normal 0.222528 -0 0.974926
    outer loop
      vertex -31.247 27.1147 13.4363
      vertex -29.555 35 13.0501
      vertex -31.247 35 13.4363
    endloop
  endfacet
  facet normal 0.222528 0 0.974926
    outer loop
      vertex -29.555 35 13.0501
      vertex -31.247 27.1147 13.4363
      vertex -29.555 26.877 13.0501
    endloop
  endfacet
  facet normal -1 0 0
    outer loop
      vertex -28.1981 35 14.1322
      vertex -28.1981 28.6109 15.8678
      vertex -28.1981 35 15.8678
    endloop
  endfacet
  facet normal -1 0 -0
    outer loop
      vertex -28.1981 28.6109 15.8678
      vertex -28.1981 35 14.1322
      vertex -28.1981 27.5429 14.1322
    endloop
  endfacet
endsolid OpenSCAD_Model
